<?xml version="1.0" encoding="UTF-8"?>
<svg id="Layer_2" data-name="Layer 2" xmlns="http://www.w3.org/2000/svg" viewBox="0 0 60 60">
  <defs>
    <style>
      .cls-1 {
        fill: #fff;
      }

      .cls-2 {
        fill: #24b210;
      }
    </style>
  </defs>
  <g id="Layer_2-2" data-name="Layer 2">
    <g id="Layer_1-2" data-name="Layer 1-2">
      <path class="cls-2" d="m30,0C13.43,0,0,13.43,0,30s13.43,30,30,30,30-13.43,30-30S46.57,0,30,0Z"/>
      <path class="cls-1" d="m48.67,7.44l-28.57,5.48v25.92c-1.68-1.06-3.67-1.61-5.69-1.59-4.83,0-8.74,2.95-8.74,6.59s3.91,6.59,8.74,6.59,8.74-2.95,8.74-6.59v-20.08l22.19-3.32v15.2c-1.63-.95-3.51-1.44-5.42-1.43-4.83,0-8.74,2.95-8.74,6.59s3.91,6.59,8.74,6.59,8.74-2.95,8.74-6.59c0-.25-.02-.49-.06-.73h.06V7.44Z"/>
    </g>
  </g>
</svg>