<?xml version="1.0" encoding="UTF-8"?>
<svg id="Layer_1" data-name="Layer 1" width="60" height="90"  xmlns="http://www.w3.org/2000/svg" xmlns:xlink="http://www.w3.org/1999/xlink" viewBox="0 0 90 135">
  <defs>
    <style>
      .cls-1 {
        fill: url(#linear-gradient);
      }

      .cls-1, .cls-2 {
        stroke-width: 0px;
      }

      .cls-2 {
        fill: #ed1c24;
      }

      .cls-3 {
        fill: url(#linear-gradient-2);
        stroke: #d1d3d4;
        stroke-miterlimit: 10;
        stroke-width: .25px;
      }
    </style>
    <linearGradient id="linear-gradient" x1="0" y1="67.5" x2="90" y2="67.5" gradientUnits="userSpaceOnUse">
      <stop offset="0" stop-color="#e6e7e8"/>
      <stop offset="1" stop-color="#f1f2f2"/>
    </linearGradient>
    <linearGradient id="linear-gradient-2" x1="3.83" y1="67.88" x2="86.83" y2="67.88" gradientUnits="userSpaceOnUse">
      <stop offset="0" stop-color="#fff"/>
      <stop offset="1" stop-color="#e6e7e8"/>
    </linearGradient>
  </defs>
  <g>
    <rect class="cls-1" width="90" height="135" rx="8.37" ry="8.37"/>
    <rect class="cls-3" x="3.83" y="4.38" width="83" height="127" rx="7.94" ry="7.94"/>
    <path class="cls-2" d="m11.68,20c-.42-.17-.71-.44-.75-.79-.05-.4.19-.73.52-.99.5-.37,1.18-.61,1.52-.73.17-.06.32-.06.32.01,0,.04-.05.1-.17.17-.44.27-.76.77-.67,1.19.08.4.69.92,1.41.92.5,0,.91-.17,1.19-.5.28-.31.43-.79.43-1.39s-.22-1.14-.57-1.5c-.28-.27-.65-.41-1.07-.34-.05,0-.1,0-.11-.04s.03-.09.09-.14c.19-.14.18-.3-.06-.39-.27-.1-.74-.1-1.12-.1-.09,0-.14-.03-.14-.07s.03-.07.08-.09c.74-.24,1.43-.7,1.92-1.23.42-.46.69-.99.69-1.47,0-1.13-.85-1.63-1.66-1.63-.5,0-.96.27-1.23.71-.19.31-.11.67.17.93.29.26.67.33.96.11.06-.04.11-.1.15-.07.06.04-.01.16-.04.21-.41.61-.94,1.1-1.45,1.1-.42,0-.81-.34-.81-.87s.33-1.14.66-1.57c.69-.89,1.5-1.46,2.49-1.46,1.17,0,2.11.87,2.11,1.9,0,1.69-1.45,2.69-2.23,2.99.37-.04.72-.01.9.13.18.11.11.37-.08.56,1.05,0,1.65.92,1.65,1.92,0,.87-.41,1.52-1,1.97-.58.46-1.37.71-2.13.81-.65.06-1.41-.03-1.96-.27Z"/>
    <path class="cls-2" d="m78.98,115.75c.42.17.71.44.75.79.05.4-.19.73-.52.99-.49.37-1.18.61-1.52.73-.16.06-.32.06-.32-.01,0-.04.05-.1.16-.17.45-.27.76-.77.67-1.19-.08-.4-.69-.91-1.41-.91-.49,0-.91.17-1.19.5-.28.31-.43.79-.43,1.39s.22,1.14.57,1.5c.28.27.65.42,1.07.34.05,0,.1,0,.11.04.01.04-.03.09-.09.14-.19.14-.18.3.06.39.27.1.74.1,1.12.1.09,0,.14.03.14.07s-.03.07-.08.09c-.74.24-1.44.7-1.92,1.23-.42.46-.69.99-.69,1.47,0,1.13.85,1.63,1.66,1.63.49,0,.96-.27,1.23-.71.19-.31.12-.67-.16-.93-.29-.26-.67-.33-.96-.11-.06.04-.12.1-.15.07-.06-.04.01-.16.04-.21.41-.61.94-1.1,1.45-1.1.42,0,.81.34.81.87s-.33,1.14-.66,1.57c-.69.89-1.5,1.46-2.49,1.46-1.17,0-2.11-.87-2.11-1.9,0-1.69,1.45-2.69,2.23-2.99-.37.04-.72.01-.9-.13-.18-.12-.12-.37.08-.56-1.05,0-1.65-.91-1.65-1.92,0-.87.41-1.52,1-1.97.58-.46,1.37-.71,2.13-.81.65-.06,1.41.03,1.96.27Z"/>
  </g>
  <polygon class="cls-2" points="81.92 104.99 76.92 111.49 71.92 104.99 76.92 98.49 81.92 104.99"/>
  <polygon class="cls-2" points="18.74 29.09 13.74 35.59 8.74 29.09 13.74 22.59 18.74 29.09"/>
  <polygon class="cls-2" points="53.49 27.04 46.26 36.44 39.03 27.04 46.26 17.65 53.49 27.04"/>
  <polygon class="cls-2" points="53.55 66.09 46.32 75.48 39.09 66.09 46.32 56.69 53.55 66.09"/>
  <polygon class="cls-2" points="53.55 107.98 46.32 117.38 39.09 107.98 46.32 98.59 53.55 107.98"/>
</svg>