<?xml version="1.0" encoding="UTF-8"?>
<svg id="Layer_1" data-name="Layer 1" width="60" height="90"  xmlns="http://www.w3.org/2000/svg" xmlns:xlink="http://www.w3.org/1999/xlink" viewBox="0 0 90 135">
  <defs>
    <style>
      .cls-1 {
        fill: url(#linear-gradient);
      }

      .cls-1, .cls-2 {
        stroke-width: 0px;
      }

      .cls-3 {
        fill: url(#linear-gradient-2);
        stroke: #d1d3d4;
        stroke-miterlimit: 10;
        stroke-width: .25px;
      }
    </style>
    <linearGradient id="linear-gradient" x1="0" y1="67.5" x2="90" y2="67.5" gradientUnits="userSpaceOnUse">
      <stop offset="0" stop-color="#e6e7e8"/>
      <stop offset="1" stop-color="#f1f2f2"/>
    </linearGradient>
    <linearGradient id="linear-gradient-2" x1="3.83" y1="67.88" x2="86.83" y2="67.88" gradientUnits="userSpaceOnUse">
      <stop offset="0" stop-color="#fff"/>
      <stop offset="1" stop-color="#e6e7e8"/>
    </linearGradient>
  </defs>
  <g>
    <rect class="cls-1" width="90" height="135" rx="8.37" ry="8.37"/>
    <rect class="cls-3" x="3.83" y="4.38" width="83" height="127" rx="7.94" ry="7.94"/>
    <path class="cls-2" d="m11.68,20c-.42-.17-.71-.44-.75-.79-.05-.4.19-.73.52-.99.5-.37,1.18-.61,1.52-.73.17-.06.32-.06.32.01,0,.04-.05.1-.17.17-.44.27-.76.77-.67,1.19.08.4.69.92,1.41.92.5,0,.91-.17,1.19-.5.28-.31.43-.79.43-1.39s-.22-1.14-.57-1.5c-.28-.27-.65-.41-1.07-.34-.05,0-.1,0-.11-.04s.03-.09.09-.14c.19-.14.18-.3-.06-.39-.27-.1-.74-.1-1.12-.1-.09,0-.14-.03-.14-.07s.03-.07.08-.09c.74-.24,1.43-.7,1.92-1.23.42-.46.69-.99.69-1.47,0-1.13-.85-1.63-1.66-1.63-.5,0-.96.27-1.23.71-.19.31-.11.67.17.93.29.26.67.33.96.11.06-.04.11-.1.15-.07.06.04-.01.16-.04.21-.41.61-.94,1.1-1.45,1.1-.42,0-.81-.34-.81-.87s.33-1.14.66-1.57c.69-.89,1.5-1.46,2.49-1.46,1.17,0,2.11.87,2.11,1.9,0,1.69-1.45,2.69-2.23,2.99.37-.04.72-.01.9.13.18.11.11.37-.08.56,1.05,0,1.65.92,1.65,1.92,0,.87-.41,1.52-1,1.97-.58.46-1.37.71-2.13.81-.65.06-1.41-.03-1.96-.27Z"/>
    <path class="cls-2" d="m78.98,115.75c.42.17.71.44.75.79.05.4-.19.73-.52.99-.49.37-1.18.61-1.52.73-.16.06-.32.06-.32-.01,0-.04.05-.1.16-.17.45-.27.76-.77.67-1.19-.08-.4-.69-.91-1.41-.91-.49,0-.91.17-1.19.5-.28.31-.43.79-.43,1.39s.22,1.14.57,1.5c.28.27.65.42,1.07.34.05,0,.1,0,.11.04.01.04-.03.09-.09.14-.19.14-.18.3.06.39.27.1.74.1,1.12.1.09,0,.14.03.14.07s-.03.07-.08.09c-.74.24-1.44.7-1.92,1.23-.42.46-.69.99-.69,1.47,0,1.13.85,1.63,1.66,1.63.49,0,.96-.27,1.23-.71.19-.31.12-.67-.16-.93-.29-.26-.67-.33-.96-.11-.06.04-.12.1-.15.07-.06-.04.01-.16.04-.21.41-.61.94-1.1,1.45-1.1.42,0,.81.34.81.87s-.33,1.14-.66,1.57c-.69.89-1.5,1.46-2.49,1.46-1.17,0-2.11-.87-2.11-1.9,0-1.69,1.45-2.69,2.23-2.99-.37.04-.72.01-.9-.13-.18-.12-.12-.37.08-.56-1.05,0-1.65-.91-1.65-1.92,0-.87.41-1.52,1-1.97.58-.46,1.37-.71,2.13-.81.65-.06,1.41.03,1.96.27Z"/>
    <path class="cls-2" d="m39.14,102.66c.77-1.05,2.34-1.92,4.1-1.5,1.4.33,2.56,1.46,3.08,2.95-.39-3.89-1.15-4.99-1.86-5.16-.53-.12-1.08.27-2.03,0-.65-.19-1.13-.58-1.43-.9h10.38c-.25.28-.69.68-1.32.9-1.06.36-1.72-.14-2.32.06-.63.22-1.32,1.25-1.41,5.11.51-1.49,1.68-2.61,3.08-2.95,1.75-.42,3.32.45,4.1,1.5,1.34,1.81,1.15,5.4-1.51,8.05l-5.65,6.13-.02-.06-.02.06-5.65-6.14c-2.65-2.63-2.85-6.23-1.51-8.04Z"/>
  </g>
  <path class="cls-2" d="m53.5,33.6c-.77,1.05-2.34,1.92-4.1,1.5-1.4-.33-2.56-1.46-3.08-2.95.39,3.89,1.15,4.99,1.86,5.16.53.12,1.08-.27,2.03,0,.65.19,1.13.58,1.43.9h-10.38c.25-.28.69-.68,1.32-.9,1.06-.36,1.72.14,2.32-.06.63-.22,1.32-1.25,1.41-5.11-.51,1.49-1.68,2.61-3.08,2.95-1.75.42-3.32-.45-4.1-1.5-1.34-1.81-1.15-5.4,1.51-8.05l5.65-6.13.02.06.02-.06,5.65,6.14c2.65,2.63,2.85,6.23,1.51,8.04Z"/>
  <path class="cls-2" d="m53.5,73.14c-.77,1.05-2.34,1.92-4.1,1.5-1.4-.33-2.56-1.46-3.08-2.95.39,3.89,1.15,4.99,1.86,5.16.53.12,1.08-.27,2.03,0,.65.19,1.13.58,1.43.9h-10.38c.25-.28.69-.68,1.32-.9,1.06-.36,1.72.14,2.32-.06.63-.22,1.32-1.25,1.41-5.11-.51,1.49-1.68,2.61-3.08,2.95-1.75.42-3.32-.45-4.1-1.5-1.34-1.81-1.15-5.4,1.51-8.05l5.65-6.13.02.06.02-.06,5.65,6.14c2.65,2.63,2.85,6.23,1.51,8.04Z"/>
  <path class="cls-2" d="m18.57,32.84c-.53.73-1.59,1.34-2.79,1.05-.95-.23-1.74-1.02-2.1-2.06.27,2.71.78,3.48,1.26,3.6.36.09.74-.19,1.38,0,.44.13.77.41.98.63h-7.06c.17-.19.47-.48.9-.63.72-.25,1.17.1,1.58-.04.43-.15.9-.87.96-3.56-.35,1.04-1.14,1.82-2.09,2.06-1.19.29-2.26-.32-2.79-1.05-.91-1.26-.78-3.77,1.03-5.61l3.85-4.28v.04s.03-.04.03-.04l3.85,4.28c1.8,1.84,1.94,4.35,1.03,5.61Z"/>
  <path class="cls-2" d="m71.98,102.46c.53-.73,1.59-1.34,2.79-1.05.95.23,1.74,1.02,2.1,2.06-.27-2.71-.78-3.48-1.26-3.6-.36-.09-.74.19-1.38,0-.44-.13-.77-.41-.98-.63h7.06c-.17.19-.47.48-.9.63-.72.25-1.17-.1-1.58.04-.43.15-.9.87-.96,3.56.35-1.04,1.14-1.82,2.09-2.06,1.19-.29,2.26.32,2.79,1.05.91,1.26.78,3.77-1.03,5.61l-3.85,4.28v-.04s-.03.04-.03.04l-3.85-4.28c-1.8-1.84-1.94-4.35-1.03-5.61Z"/>
</svg>