<?xml version="1.0" encoding="UTF-8"?>
<svg id="Layer_1" data-name="Layer 1" width="60" height="90"  xmlns="http://www.w3.org/2000/svg" xmlns:xlink="http://www.w3.org/1999/xlink" viewBox="0 0 90 135">
  <defs>
    <style>
      .cls-1 {
        fill: url(#linear-gradient);
      }

      .cls-1, .cls-2 {
        stroke-width: 0px;
      }

      .cls-3 {
        fill: url(#linear-gradient-2);
        stroke: #d1d3d4;
        stroke-miterlimit: 10;
        stroke-width: .25px;
      }
    </style>
    <linearGradient id="linear-gradient" x1="0" y1="67.5" x2="90" y2="67.5" gradientUnits="userSpaceOnUse">
      <stop offset="0" stop-color="#e6e7e8"/>
      <stop offset="1" stop-color="#f1f2f2"/>
    </linearGradient>
    <linearGradient id="linear-gradient-2" x1="3.83" y1="67.88" x2="86.83" y2="67.88" gradientUnits="userSpaceOnUse">
      <stop offset="0" stop-color="#fff"/>
      <stop offset="1" stop-color="#e6e7e8"/>
    </linearGradient>
  </defs>
  <g>
    <rect class="cls-1" width="90" height="135" rx="8.37" ry="8.37"/>
    <rect class="cls-3" x="3.83" y="4.38" width="83" height="127" rx="7.94" ry="7.94"/>
    <path class="cls-2" d="m11.73,15.91c0-.81.1-1.32.32-1.6-.22.01-.46-.2-.46-.39,0-.31.23-.56.52-.89.06-.07.1-.11.1-.17,0-.04-.04-.07-.13-.11-.2-.1-.5-.16-.5-.43,0-.39.6-1.03,1.54-1.56.08-.04.17-.07.17,0,0,.03-.03.07-.08.1-.25.17-.56.41-.56.64s.65.17.65.54c0,.13-.15.27-.32.49-.11.16-.22.27-.22.44,0,.2.19.21.34.24.09.01.13.03.13.06s-.04.09-.1.17c-.13.17-.18.5-.18,1.22v.51c0,.44-.08.84-.22,1.2.19-.06.41-.1.65-.1.96,0,1.29.33,1.84.4v-.86c0-.53.1-1.03.32-1.31-.22.01-.46-.2-.46-.39,0-.26.13-.47.47-.79-.28-.03-.47-.2-.47-.44,0-.23.22-.53.44-.76.08-.07.11-.11.11-.17,0-.04-.05-.07-.14-.11-.2-.09-.5-.16-.5-.43,0-.39.57-1.09,1.54-1.56.08-.04.17-.07.17,0,0,.03-.03.07-.08.1-.25.19-.56.41-.56.64s.65.17.65.54c0,.13-.15.27-.32.49-.15.19-.23.31-.23.46s.2.2.42.2c.08,0,.13.01.13.06s-.04.1-.13.2c-.23.24-.33.47-.33.63,0,.21.17.26.34.24.05,0,.13,0,.13.04s-.04.1-.1.19c-.13.17-.18.5-.18,1.22v1.89c.56-.13.91-.41,1.18-.71.09-.1.14-.13.17-.13s.04.01.04.06-.03.13-.06.21c-.29.63-.7,1.23-1.32,1.53,0,1.36-.44,2.3-1.94,2.86-.08.04-.15-.03-.06-.11.74-.69.77-1.4.77-2.27v-.19c-1.02-.03-1.64-.56-2.6-.56-.29,0-.6.11-.86.24-.27.11-.52.26-.74.34-.09.03-.17-.04-.08-.13.74-.69.77-1.12.77-1.99Z"/>
    <path class="cls-2" d="m78.93,119.84c0,.82-.1,1.32-.32,1.6.21-.01.46.2.46.39,0,.31-.23.56-.52.89-.06.07-.1.11-.1.17,0,.04.04.07.13.11.2.1.5.16.5.43,0,.39-.6,1.03-1.54,1.56-.08.04-.16.07-.16,0,0-.03.03-.07.08-.1.25-.17.56-.42.56-.64s-.65-.17-.65-.54c0-.13.15-.27.32-.49.11-.16.21-.27.21-.44,0-.2-.19-.21-.34-.24-.09-.02-.13-.03-.13-.06s.04-.09.1-.17c.13-.17.18-.5.18-1.22v-.51c0-.44.08-.84.21-1.2-.19.06-.41.1-.65.1-.96,0-1.29-.33-1.84-.4v.86c0,.53-.1,1.03-.32,1.32.21-.01.46.2.46.39,0,.26-.13.47-.47.79.28.03.47.2.47.44,0,.23-.22.53-.45.76-.08.07-.11.11-.11.17,0,.04.05.07.14.11.2.08.5.16.5.43,0,.39-.57,1.09-1.54,1.56-.08.04-.16.07-.16,0,0-.03.03-.07.08-.1.25-.19.56-.42.56-.64s-.65-.17-.65-.54c0-.13.15-.27.32-.49.15-.19.23-.31.23-.46s-.2-.2-.42-.2c-.08,0-.13-.01-.13-.06s.04-.1.13-.2c.23-.24.33-.47.33-.63,0-.21-.16-.26-.34-.24-.05,0-.13,0-.13-.04s.04-.1.1-.19c.13-.17.18-.5.18-1.21v-1.89c-.56.13-.91.42-1.18.71-.09.1-.14.13-.16.13s-.04-.01-.04-.06.03-.13.06-.21c.29-.63.7-1.23,1.32-1.53,0-1.36.44-2.3,1.94-2.86.08-.04.15.03.06.11-.74.69-.78,1.4-.78,2.27v.19c1.02.03,1.64.56,2.6.56.29,0,.6-.11.86-.24.27-.12.52-.26.74-.34.09-.03.16.04.08.13-.74.69-.78,1.12-.78,1.99Z"/>
  </g>
  <path class="cls-2" d="m23.02,103.2c.77-1.05,2.34-1.92,4.1-1.5,1.4.33,2.56,1.46,3.08,2.95-.39-3.89-1.15-4.99-1.86-5.16-.53-.12-1.08.27-2.03,0-.65-.19-1.13-.58-1.43-.9h10.38c-.25.28-.69.68-1.32.9-1.06.36-1.72-.14-2.32.06-.63.22-1.32,1.25-1.41,5.11.51-1.49,1.68-2.61,3.08-2.95,1.75-.42,3.32.45,4.1,1.5,1.34,1.81,1.15,5.4-1.51,8.05l-5.65,6.13-.02-.06-.02.06-5.65-6.14c-2.65-2.63-2.85-6.23-1.51-8.04Z"/>
  <path class="cls-2" d="m69.16,31.83c-.77,1.05-2.34,1.92-4.1,1.5-1.4-.33-2.56-1.46-3.08-2.95.39,3.89,1.15,4.99,1.86,5.16.53.12,1.08-.27,2.03,0,.65.19,1.13.58,1.43.9h-10.38c.25-.28.69-.68,1.32-.9,1.06-.36,1.72.14,2.32-.06.63-.22,1.32-1.25,1.41-5.11-.51,1.49-1.68,2.61-3.08,2.95-1.75.42-3.32-.45-4.1-1.5-1.34-1.81-1.15-5.4,1.51-8.05l5.65-6.13.02.06.02-.06,5.65,6.14c2.65,2.63,2.85,6.23,1.51,8.04Z"/>
  <path class="cls-2" d="m54.8,103.2c.77-1.05,2.34-1.92,4.1-1.5,1.4.33,2.56,1.46,3.08,2.95-.39-3.89-1.15-4.99-1.86-5.16-.53-.12-1.08.27-2.03,0-.65-.19-1.13-.58-1.43-.9h10.38c-.25.28-.69.68-1.32.9-1.06.36-1.72-.14-2.32.06-.63.22-1.32,1.25-1.41,5.11.51-1.49,1.68-2.61,3.08-2.95,1.75-.42,3.32.45,4.1,1.5,1.34,1.81,1.15,5.4-1.51,8.05l-5.65,6.13-.02-.06-.02.06-5.65-6.14c-2.65-2.63-2.85-6.23-1.51-8.04Z"/>
  <path class="cls-2" d="m37.38,31.83c-.77,1.05-2.34,1.92-4.1,1.5-1.4-.33-2.56-1.46-3.08-2.95.39,3.89,1.15,4.99,1.86,5.16.53.12,1.08-.27,2.03,0,.65.19,1.13.58,1.43.9h-10.38c.25-.28.69-.68,1.32-.9,1.06-.36,1.72.14,2.32-.06.63-.22,1.32-1.25,1.41-5.11-.51,1.49-1.68,2.61-3.08,2.95-1.75.42-3.32-.45-4.1-1.5-1.34-1.81-1.15-5.4,1.51-8.05l5.65-6.13.02.06.02-.06,5.65,6.14c2.65,2.63,2.85,6.23,1.51,8.04Z"/>
  <path class="cls-2" d="m18.62,32.43c-.53.73-1.59,1.34-2.79,1.05-.95-.23-1.74-1.02-2.1-2.06.27,2.71.78,3.48,1.26,3.6.36.09.74-.19,1.38,0,.44.13.77.41.98.63h-7.06c.17-.19.47-.48.9-.63.72-.25,1.17.1,1.58-.04.43-.15.9-.87.96-3.56-.35,1.04-1.14,1.82-2.09,2.06-1.19.29-2.26-.32-2.79-1.05-.91-1.26-.78-3.77,1.03-5.61l3.85-4.28v.04s.03-.04.03-.04l3.85,4.28c1.8,1.84,1.94,4.35,1.03,5.61Z"/>
  <path class="cls-2" d="m72.03,101.66c.53-.73,1.59-1.34,2.79-1.05.95.23,1.74,1.02,2.1,2.06-.27-2.71-.78-3.48-1.26-3.6-.36-.09-.74.19-1.38,0-.44-.13-.77-.41-.98-.63h7.06c-.17.19-.47.48-.9.63-.72.25-1.17-.1-1.58.04-.43.15-.9.87-.96,3.56.35-1.04,1.14-1.82,2.09-2.06,1.19-.29,2.26.32,2.79,1.05.91,1.26.78,3.77-1.03,5.61l-3.85,4.28v-.04s-.03.04-.03.04l-3.85-4.28c-1.8-1.84-1.94-4.35-1.03-5.61Z"/>
</svg>