<?xml version="1.0" encoding="UTF-8"?>
<svg id="Layer_1" data-name="Layer 1" width="60" height="90"  xmlns="http://www.w3.org/2000/svg" xmlns:xlink="http://www.w3.org/1999/xlink" viewBox="0 0 90 135">
  <defs>
    <style>
      .cls-1 {
        fill: url(#linear-gradient);
      }

      .cls-1, .cls-2 {
        stroke-width: 0px;
      }

      .cls-2 {
        fill: #ed1c24;
      }

      .cls-3 {
        fill: url(#linear-gradient-2);
        stroke: #d1d3d4;
        stroke-miterlimit: 10;
        stroke-width: .25px;
      }
    </style>
    <linearGradient id="linear-gradient" x1="0" y1="67.5" x2="90" y2="67.5" gradientUnits="userSpaceOnUse">
      <stop offset="0" stop-color="#e6e7e8"/>
      <stop offset="1" stop-color="#f1f2f2"/>
    </linearGradient>
    <linearGradient id="linear-gradient-2" x1="3.83" y1="67.88" x2="86.83" y2="67.88" gradientUnits="userSpaceOnUse">
      <stop offset="0" stop-color="#fff"/>
      <stop offset="1" stop-color="#e6e7e8"/>
    </linearGradient>
  </defs>
  <g>
    <rect class="cls-1" width="90" height="135" rx="8.37" ry="8.37"/>
    <rect class="cls-3" x="3.83" y="4.38" width="83" height="127" rx="7.94" ry="7.94"/>
    <path class="cls-2" d="m11.73,15.91c0-.81.1-1.32.32-1.6-.22.01-.46-.2-.46-.39,0-.31.23-.56.52-.89.06-.07.1-.11.1-.17,0-.04-.04-.07-.13-.11-.2-.1-.5-.16-.5-.43,0-.39.6-1.03,1.54-1.56.08-.04.17-.07.17,0,0,.03-.03.07-.08.1-.25.17-.56.41-.56.64s.65.17.65.54c0,.13-.15.27-.32.49-.11.16-.22.27-.22.44,0,.2.19.21.34.24.09.01.13.03.13.06s-.04.09-.1.17c-.13.17-.18.5-.18,1.22v.51c0,.44-.08.84-.22,1.2.19-.06.41-.1.65-.1.96,0,1.29.33,1.84.4v-.86c0-.53.1-1.03.32-1.31-.22.01-.46-.2-.46-.39,0-.26.13-.47.47-.79-.28-.03-.47-.2-.47-.44,0-.23.22-.53.44-.76.08-.07.11-.11.11-.17,0-.04-.05-.07-.14-.11-.2-.09-.5-.16-.5-.43,0-.39.57-1.09,1.54-1.56.08-.04.17-.07.17,0,0,.03-.03.07-.08.1-.25.19-.56.41-.56.64s.65.17.65.54c0,.13-.15.27-.32.49-.15.19-.23.31-.23.46s.2.2.42.2c.08,0,.13.01.13.06s-.04.1-.13.2c-.23.24-.33.47-.33.63,0,.21.17.26.34.24.05,0,.13,0,.13.04s-.04.1-.1.19c-.13.17-.18.5-.18,1.22v1.89c.56-.13.91-.41,1.18-.71.09-.1.14-.13.17-.13s.04.01.04.06-.03.13-.06.21c-.29.63-.7,1.23-1.32,1.53,0,1.36-.44,2.3-1.94,2.86-.08.04-.15-.03-.06-.11.74-.69.77-1.4.77-2.27v-.19c-1.02-.03-1.64-.56-2.6-.56-.29,0-.6.11-.86.24-.27.11-.52.26-.74.34-.09.03-.17-.04-.08-.13.74-.69.77-1.12.77-1.99Z"/>
    <path class="cls-2" d="m78.93,119.84c0,.82-.1,1.32-.32,1.6.21-.01.46.2.46.39,0,.31-.23.56-.52.89-.06.07-.1.11-.1.17,0,.04.04.07.13.11.2.1.5.16.5.43,0,.39-.6,1.03-1.54,1.56-.08.04-.16.07-.16,0,0-.03.03-.07.08-.1.25-.17.56-.42.56-.64s-.65-.17-.65-.54c0-.13.15-.27.32-.49.11-.16.21-.27.21-.44,0-.2-.19-.21-.34-.24-.09-.02-.13-.03-.13-.06s.04-.09.1-.17c.13-.17.18-.5.18-1.22v-.51c0-.44.08-.84.21-1.2-.19.06-.41.1-.65.1-.96,0-1.29-.33-1.84-.4v.86c0,.53-.1,1.03-.32,1.32.21-.01.46.2.46.39,0,.26-.13.47-.47.79.28.03.47.2.47.44,0,.23-.22.53-.45.76-.08.07-.11.11-.11.17,0,.04.05.07.14.11.2.08.5.16.5.43,0,.39-.57,1.09-1.54,1.56-.08.04-.16.07-.16,0,0-.03.03-.07.08-.1.25-.19.56-.42.56-.64s-.65-.17-.65-.54c0-.13.15-.27.32-.49.15-.19.23-.31.23-.46s-.2-.2-.42-.2c-.08,0-.13-.01-.13-.06s.04-.1.13-.2c.23-.24.33-.47.33-.63,0-.21-.16-.26-.34-.24-.05,0-.13,0-.13-.04s.04-.1.1-.19c.13-.17.18-.5.18-1.21v-1.89c-.56.13-.91.42-1.18.71-.09.1-.14.13-.16.13s-.04-.01-.04-.06.03-.13.06-.21c.29-.63.7-1.23,1.32-1.53,0-1.36.44-2.3,1.94-2.86.08-.04.15.03.06.11-.74.69-.78,1.4-.78,2.27v.19c1.02.03,1.64.56,2.6.56.29,0,.6-.11.86-.24.27-.12.52-.26.74-.34.09-.03.16.04.08.13-.74.69-.78,1.12-.78,1.99Z"/>
  </g>
  <polygon class="cls-2" points="81.92 104.99 76.92 111.49 71.92 104.99 76.92 98.49 81.92 104.99"/>
  <polygon class="cls-2" points="18.74 29.09 13.74 35.59 8.74 29.09 13.74 22.59 18.74 29.09"/>
  <polygon class="cls-2" points="37.43 27.04 30.2 36.44 22.97 27.04 30.2 17.65 37.43 27.04"/>
  <polygon class="cls-2" points="37.43 107.98 30.2 117.38 22.97 107.98 30.2 98.59 37.43 107.98"/>
  <polygon class="cls-2" points="69.21 107.98 61.98 117.38 54.75 107.98 61.98 98.59 69.21 107.98"/>
  <polygon class="cls-2" points="69.21 27.04 61.98 36.44 54.75 27.04 61.98 17.65 69.21 27.04"/>
</svg>