<?xml version="1.0" encoding="UTF-8"?>
<svg id="Layer_1" data-name="Layer 1" width="60" height="90"  xmlns="http://www.w3.org/2000/svg" xmlns:xlink="http://www.w3.org/1999/xlink" viewBox="0 0 90 135">
  <defs>
    <style>
      .cls-1 {
        fill: url(#linear-gradient);
      }

      .cls-1, .cls-2, .cls-3 {
        stroke-width: 0px;
      }

      .cls-2 {
        fill: #ed1c24;
      }

      .cls-4 {
        fill: url(#linear-gradient-2);
        stroke: #d1d3d4;
        stroke-miterlimit: 10;
        stroke-width: .25px;
      }

      .cls-3 {
        fill: #ec2027;
      }
    </style>
    <linearGradient id="linear-gradient" x1="0" y1="67.5" x2="90" y2="67.5" gradientUnits="userSpaceOnUse">
      <stop offset="0" stop-color="#e6e7e8"/>
      <stop offset="1" stop-color="#f1f2f2"/>
    </linearGradient>
    <linearGradient id="linear-gradient-2" x1="3.83" y1="67.88" x2="86.83" y2="67.88" gradientUnits="userSpaceOnUse">
      <stop offset="0" stop-color="#fff"/>
      <stop offset="1" stop-color="#e6e7e8"/>
    </linearGradient>
  </defs>
  <g>
    <rect class="cls-1" width="90" height="135" rx="8.37" ry="8.37"/>
    <rect class="cls-4" x="3.83" y="4.38" width="83" height="127" rx="7.94" ry="7.94"/>
    <path class="cls-3" d="m11.56,14.6c-.01-.53.1-1.03.32-1.32-.22.01-.46-.2-.46-.39,0-.26.11-.46.46-.77.13-.13.13-.2-.04-.27-.2-.09-.5-.16-.5-.43,0-.39.57-1.09,1.54-1.56.09-.04.14-.04.15-.03.03.03,0,.09-.06.13-.25.19-.56.41-.56.64s.65.17.65.54c0,.13-.15.27-.32.49-.15.19-.23.31-.23.46,0,.19.27.19.43.17.08,0,.11,0,.11.03.01.04-.01.1-.09.2-.13.17-.15.53-.15,1.24,0,.57-.03.81-.11,1.04.55-.44,1.19-.66,1.69-.66s.84.26.71.73c1.1-.06,1.61,1.19,1.61,2.4,0,2.22-2.46,3.19-4.62,2.83-.14-.03-.19-.06-.19-.09.01-.03.08-.06.18-.06.23-.01.46-.03.67-.06-.18-.26-.42-.36-.67-.34-.32.01-.65.17-.88.36-.09.07-.17.09-.18.06-.01-.04.01-.11.11-.21.57-.62,1.19-1,1.96-1.02.61-.01,1.1.26,1.35.7.57-.36.91-.94.91-1.97,0-1.34-.63-2.27-1.61-1.92-.06.03-.1.01-.11-.01-.01-.03-.01-.07.03-.11.25-.31.09-.47-.15-.47-.28,0-.77.2-1.26.47-.33.19-.74.44-1.36.67-.06.03-.09,0-.1-.03-.01-.01,0-.06.04-.09.65-.46.75-.76.74-1.37Zm2.87-4.48c.46,0,.81.4,1.35.4.24,0,.5-.16.71-.36.06-.06.1-.07.13-.06.03.03.01.1-.04.2-.09.17-.67,1.32-1.38,1.32-.58,0-.8-.36-1.32-.36-.25,0-.57.17-.77.33-.06.06-.13.06-.13.01-.01-.03,0-.07.05-.14.34-.56.86-1.34,1.41-1.34Z"/>
    <path class="cls-3" d="m79.1,121.15c.01.53-.1,1.03-.32,1.32.22-.01.46.2.46.39,0,.26-.11.46-.46.77-.13.13-.13.2.04.27.2.08.49.16.49.43,0,.39-.57,1.09-1.54,1.56-.09.04-.14.04-.15.03-.03-.03,0-.08.06-.13.25-.19.56-.42.56-.64s-.65-.17-.65-.54c0-.13.15-.27.32-.49.15-.19.23-.31.23-.46,0-.19-.27-.19-.43-.17-.08,0-.11,0-.11-.03-.01-.04.01-.1.09-.2.13-.17.15-.53.15-1.24,0-.57.03-.81.12-1.04-.55.44-1.19.66-1.69.66s-.84-.26-.71-.73c-1.1.06-1.61-1.19-1.61-2.4,0-2.21,2.46-3.19,4.62-2.83.14.03.19.06.19.09-.01.03-.08.06-.18.06-.23.01-.46.03-.67.06.18.26.42.36.67.34.32-.01.65-.17.88-.36.09-.07.16-.09.18-.06.01.04-.01.11-.12.21-.57.62-1.19,1-1.96,1.01-.61.02-1.1-.26-1.35-.7-.57.36-.91.94-.91,1.97,0,1.34.63,2.27,1.61,1.92.06-.03.1-.01.11.01.01.03.01.07-.03.12-.25.31-.09.47.15.47.28,0,.78-.2,1.26-.47.33-.19.74-.44,1.36-.67.06-.03.09,0,.1.03.01.01,0,.06-.04.09-.65.46-.75.76-.74,1.37Zm-2.87,4.47c-.46,0-.81-.4-1.35-.4-.24,0-.5.16-.71.36-.06.06-.1.07-.13.06-.03-.03-.01-.1.04-.2.09-.17.67-1.32,1.38-1.32.58,0,.8.36,1.32.36.25,0,.57-.17.77-.33.06-.06.13-.06.13-.01.01.03,0,.07-.05.14-.34.56-.86,1.34-1.41,1.34Z"/>
  </g>
  <g>
    <g>
      <path class="cls-2" d="m24.61,107.19l5.23-6.02c.58,1.83,1.14,4.03,1.53,6.57.29,1.89.44,3.63.49,5.18l-2.02.3c-.37,1.73-1.53,3.06-2.97,3.43-1.49.38-2.97-.36-3.73-1.45-1.31-1.88-.95-5.46,1.47-8Z"/>
      <path class="cls-2" d="m29.96,100.55l.16.51c.68,2.15,1.2,4.38,1.54,6.62.26,1.72.43,3.47.5,5.22v.29s-2.08.31-2.08.31c-.44,1.73-1.66,3.08-3.14,3.45-1.73.43-3.28-.48-4.04-1.57-1.32-1.9-1.13-5.66,1.5-8.42l5.57-6.42Zm1.58,12.09c-.07-1.62-.23-3.25-.48-4.85-.31-2.03-.77-4.04-1.36-6l-4.89,5.64c-2.39,2.52-2.61,5.89-1.44,7.57.63.9,1.96,1.7,3.42,1.33,1.33-.33,2.4-1.58,2.74-3.18l.05-.22,1.96-.29Z"/>
    </g>
    <g>
      <path class="cls-2" d="m28.1,112.92c.06-1.55.2-3.29.49-5.18.39-2.53.95-4.74,1.53-6.57l5.23,6.02c2.42,2.55,2.79,6.12,1.47,8-.76,1.09-2.24,1.83-3.73,1.45-1.44-.37-2.6-1.7-2.97-3.43-.67-.1-1.35-.2-2.02-.3Z"/>
      <path class="cls-2" d="m30,100.55l5.58,6.42c2.62,2.76,2.82,6.52,1.49,8.42-.77,1.1-2.31,2.01-4.04,1.57-1.49-.38-2.7-1.72-3.14-3.45l-2.09-.31v-.3c.08-1.76.25-3.52.51-5.22.34-2.23.86-4.46,1.54-6.62l.16-.51Zm3.89,15.87c1.16,0,2.17-.68,2.69-1.42,1.17-1.68.96-5.05-1.44-7.57l-4.89-5.63c-.59,1.96-1.05,3.98-1.36,6-.24,1.58-.4,3.21-.48,4.85l1.96.29.05.22c.34,1.6,1.42,2.85,2.74,3.19.25.06.49.09.73.09Z"/>
    </g>
  </g>
  <g>
    <g>
      <path class="cls-2" d="m55.48,107.5l5.23-6.02c.58,1.83,1.14,4.03,1.53,6.57.29,1.89.44,3.63.49,5.18l-2.02.3c-.37,1.73-1.53,3.06-2.97,3.43-1.49.38-2.97-.36-3.73-1.45-1.31-1.88-.95-5.46,1.47-8Z"/>
      <path class="cls-2" d="m60.83,100.86l.16.51c.68,2.15,1.2,4.38,1.54,6.62.26,1.72.43,3.47.5,5.22v.29s-2.08.31-2.08.31c-.44,1.73-1.66,3.08-3.14,3.45-1.73.43-3.28-.48-4.04-1.57-1.32-1.9-1.13-5.66,1.5-8.42l5.57-6.42Zm1.58,12.09c-.07-1.62-.23-3.25-.48-4.85-.31-2.03-.77-4.04-1.36-6l-4.89,5.64c-2.39,2.52-2.61,5.89-1.44,7.57.63.9,1.96,1.7,3.42,1.33,1.33-.33,2.4-1.58,2.74-3.18l.05-.22,1.96-.29Z"/>
    </g>
    <g>
      <path class="cls-2" d="m58.97,113.23c.06-1.55.2-3.29.49-5.18.39-2.53.95-4.74,1.53-6.57l5.23,6.02c2.42,2.55,2.79,6.12,1.47,8-.76,1.09-2.24,1.83-3.73,1.45-1.44-.37-2.6-1.7-2.97-3.43-.67-.1-1.35-.2-2.02-.3Z"/>
      <path class="cls-2" d="m60.87,100.86l5.58,6.42c2.62,2.76,2.82,6.52,1.49,8.42-.77,1.1-2.31,2.01-4.04,1.57-1.49-.38-2.7-1.72-3.14-3.45l-2.09-.31v-.3c.08-1.76.25-3.52.51-5.22.34-2.23.86-4.46,1.54-6.62l.16-.51Zm3.89,15.87c1.16,0,2.17-.68,2.69-1.42,1.17-1.68.96-5.05-1.44-7.57l-4.89-5.63c-.59,1.96-1.05,3.98-1.36,6-.24,1.58-.4,3.21-.48,4.85l1.96.29.05.22c.34,1.6,1.42,2.85,2.74,3.19.25.06.49.09.73.09Z"/>
    </g>
  </g>
  <g>
    <g>
      <path class="cls-2" d="m50.7,67.98l-5.23,6.02c-.58-1.83-1.14-4.03-1.53-6.57-.29-1.89-.44-3.63-.49-5.18l2.02-.3c.37-1.73,1.53-3.06,2.97-3.43,1.49-.38,2.97.36,3.73,1.45,1.31,1.88.95,5.46-1.47,8Z"/>
      <path class="cls-2" d="m45.35,74.63l-.16-.51c-.68-2.15-1.2-4.38-1.54-6.62-.26-1.72-.43-3.47-.5-5.22v-.29s2.08-.31,2.08-.31c.44-1.73,1.66-3.08,3.14-3.45,1.73-.43,3.28.48,4.04,1.57,1.32,1.9,1.13,5.66-1.5,8.42l-5.57,6.42Zm-1.58-12.09c.07,1.62.23,3.25.48,4.85.31,2.03.77,4.04,1.36,6l4.89-5.64c2.39-2.52,2.61-5.89,1.44-7.57-.63-.9-1.96-1.7-3.42-1.33-1.33.33-2.4,1.58-2.74,3.18l-.05.22-1.96.29Z"/>
    </g>
    <g>
      <path class="cls-2" d="m47.21,62.26c-.06,1.55-.2,3.29-.49,5.18-.39,2.53-.95,4.74-1.53,6.57l-5.23-6.02c-2.42-2.55-2.79-6.12-1.47-8,.76-1.09,2.24-1.83,3.73-1.45,1.44.37,2.6,1.7,2.97,3.43.67.1,1.35.2,2.02.3Z"/>
      <path class="cls-2" d="m45.31,74.63l-5.58-6.42c-2.62-2.76-2.82-6.52-1.49-8.42.77-1.1,2.31-2.01,4.04-1.57,1.49.38,2.7,1.72,3.14,3.45l2.09.31v.3c-.08,1.76-.25,3.52-.51,5.22-.34,2.23-.86,4.46-1.54,6.62l-.16.51Zm-3.89-15.87c-1.16,0-2.17.68-2.69,1.42-1.17,1.68-.96,5.05,1.44,7.57l4.89,5.63c.59-1.96,1.05-3.98,1.36-6,.24-1.58.4-3.21.48-4.85l-1.96-.29-.05-.22c-.34-1.6-1.42-2.85-2.74-3.19-.25-.06-.49-.09-.73-.09Z"/>
    </g>
  </g>
  <g>
    <g>
      <path class="cls-2" d="m66.23,27.75l-5.23,6.02c-.58-1.83-1.14-4.03-1.53-6.57-.29-1.89-.44-3.63-.49-5.18l2.02-.3c.37-1.73,1.53-3.06,2.97-3.43,1.49-.38,2.97.36,3.73,1.45,1.31,1.88.95,5.46-1.47,8Z"/>
      <path class="cls-2" d="m60.87,34.4l-.16-.51c-.68-2.15-1.2-4.38-1.54-6.62-.26-1.72-.43-3.47-.5-5.22v-.29s2.08-.31,2.08-.31c.44-1.73,1.66-3.08,3.14-3.45,1.73-.43,3.28.48,4.04,1.57,1.32,1.9,1.13,5.66-1.5,8.42l-5.57,6.42Zm-1.58-12.09c.07,1.62.23,3.25.48,4.85.31,2.03.77,4.04,1.36,6l4.89-5.64c2.39-2.52,2.61-5.89,1.44-7.57-.63-.9-1.96-1.7-3.42-1.33-1.33.33-2.4,1.58-2.74,3.18l-.05.22-1.96.29Z"/>
    </g>
    <g>
      <path class="cls-2" d="m62.73,22.03c-.06,1.55-.2,3.29-.49,5.18-.39,2.53-.95,4.74-1.53,6.57l-5.23-6.02c-2.42-2.55-2.79-6.12-1.47-8,.76-1.09,2.24-1.83,3.73-1.45,1.44.37,2.6,1.7,2.97,3.43.67.1,1.35.2,2.02.3Z"/>
      <path class="cls-2" d="m60.83,34.4l-5.58-6.42c-2.62-2.76-2.82-6.52-1.49-8.42.77-1.1,2.31-2.01,4.04-1.57,1.49.38,2.7,1.72,3.14,3.45l2.09.31v.3c-.08,1.76-.25,3.52-.51,5.22-.34,2.23-.86,4.46-1.54,6.62l-.16.51Zm-3.89-15.87c-1.16,0-2.17.68-2.69,1.42-1.17,1.68-.96,5.05,1.44,7.57l4.89,5.63c.59-1.96,1.05-3.98,1.36-6,.24-1.58.4-3.21.48-4.85l-1.96-.29-.05-.22c-.34-1.6-1.42-2.85-2.74-3.19-.25-.06-.49-.09-.73-.09Z"/>
    </g>
  </g>
  <g>
    <g>
      <path class="cls-2" d="m35.67,28.08l-5.23,6.02c-.58-1.83-1.14-4.03-1.53-6.57-.29-1.89-.44-3.63-.49-5.18l2.02-.3c.37-1.73,1.53-3.06,2.97-3.43,1.49-.38,2.97.36,3.73,1.45,1.31,1.88.95,5.46-1.47,8Z"/>
      <path class="cls-2" d="m30.32,34.73l-.16-.51c-.68-2.15-1.2-4.38-1.54-6.62-.26-1.72-.43-3.47-.5-5.22v-.29s2.08-.31,2.08-.31c.44-1.73,1.66-3.08,3.14-3.45,1.73-.43,3.28.48,4.04,1.57,1.32,1.9,1.13,5.66-1.5,8.42l-5.57,6.42Zm-1.58-12.09c.07,1.62.23,3.25.48,4.85.31,2.03.77,4.04,1.36,6l4.89-5.64c2.39-2.52,2.61-5.89,1.44-7.57-.63-.9-1.96-1.7-3.42-1.33-1.33.33-2.4,1.58-2.74,3.18l-.05.22-1.96.29Z"/>
    </g>
    <g>
      <path class="cls-2" d="m32.18,22.36c-.06,1.55-.2,3.29-.49,5.18-.39,2.53-.95,4.74-1.53,6.57l-5.23-6.02c-2.42-2.55-2.79-6.12-1.47-8,.76-1.09,2.24-1.83,3.73-1.45,1.44.37,2.6,1.7,2.97,3.43.67.1,1.35.2,2.02.3Z"/>
      <path class="cls-2" d="m30.28,34.73l-5.58-6.42c-2.62-2.76-2.82-6.52-1.49-8.42.77-1.1,2.31-2.01,4.04-1.57,1.49.38,2.7,1.72,3.14,3.45l2.09.31v.3c-.08,1.76-.25,3.52-.51,5.22-.34,2.23-.86,4.46-1.54,6.62l-.16.51Zm-3.89-15.87c-1.16,0-2.17.68-2.69,1.42-1.17,1.68-.96,5.05,1.44,7.57l4.89,5.63c.59-1.96,1.05-3.98,1.36-6,.24-1.58.4-3.21.48-4.85l-1.96-.29-.05-.22c-.34-1.6-1.42-2.85-2.74-3.19-.25-.06-.49-.09-.73-.09Z"/>
    </g>
  </g>
  <g>
    <g>
      <path class="cls-2" d="m17.27,28.8l-3.34,3.58c-.37-1.09-.73-2.4-.97-3.9-.19-1.12-.28-2.16-.31-3.08l1.29-.18c.24-1.03.97-1.82,1.89-2.04.95-.22,1.89.21,2.38.86.84,1.12.6,3.24-.94,4.75Z"/>
      <path class="cls-2" d="m13.73,33.33l-.27-.79c-.44-1.29-.77-2.63-.99-3.98-.17-1.03-.28-2.09-.32-3.14l-.02-.45,1.42-.2c.35-1.04,1.18-1.84,2.17-2.07,1.24-.29,2.35.32,2.89,1.05,1.06,1.41.62,3.83-.98,5.4l-3.9,4.18Zm-.56-7.5c.05.86.15,1.72.29,2.56.17,1.02.4,2.03.7,3.02l2.77-2.97c1.36-1.34,1.56-3.2.89-4.1-.34-.46-1.07-.86-1.86-.68-.73.17-1.33.82-1.52,1.66l-.08.34-1.18.16Z"/>
    </g>
    <g>
      <path class="cls-2" d="m14.83,25.4c-.04.92-.13,1.96-.31,3.08-.25,1.5-.61,2.81-.98,3.9l-3.33-3.58c-1.54-1.51-1.78-3.63-.94-4.75.49-.65,1.43-1.09,2.38-.86.92.22,1.66,1.01,1.89,2.04.43.06.86.12,1.29.18Z"/>
      <path class="cls-2" d="m13.75,33.33l-3.91-4.19c-1.59-1.56-2.03-3.98-.97-5.39.55-.73,1.66-1.34,2.89-1.05,1,.23,1.82,1.03,2.17,2.07l1.42.19-.02.46c-.04,1.06-.15,2.12-.32,3.14-.22,1.34-.56,2.68-1,3.98l-.27.79Zm-2.61-9.71c-.63,0-1.18.34-1.47.72-.67.9-.48,2.76.89,4.1l2.77,2.97c.3-.99.53-2.01.7-3.02.14-.84.23-1.7.29-2.56l-1.18-.16-.08-.34c-.19-.84-.79-1.49-1.52-1.66-.13-.03-.27-.05-.4-.05Z"/>
    </g>
  </g>
  <g>
    <g>
      <path class="cls-2" d="m73.74,107.16l3.34-3.58c.37,1.09.73,2.4.97,3.9.19,1.12.28,2.16.31,3.08l-1.29.18c-.24,1.03-.97,1.82-1.89,2.04-.95.22-1.89-.21-2.38-.86-.84-1.12-.6-3.24.94-4.75Z"/>
      <path class="cls-2" d="m77.28,102.63l.27.79c.44,1.29.77,2.63.99,3.98.17,1.03.28,2.09.32,3.14l.02.45-1.42.2c-.35,1.04-1.18,1.84-2.17,2.07-1.24.29-2.35-.32-2.89-1.05-1.06-1.41-.62-3.83.98-5.4l3.9-4.18Zm.56,7.5c-.05-.86-.15-1.72-.29-2.56-.17-1.02-.4-2.03-.7-3.02l-2.77,2.97c-1.36,1.34-1.56,3.2-.89,4.1.34.46,1.07.86,1.86.68.73-.17,1.33-.82,1.52-1.66l.08-.34,1.18-.16Z"/>
    </g>
    <g>
      <path class="cls-2" d="m76.17,110.56c.04-.92.13-1.96.31-3.08.25-1.5.61-2.81.98-3.9l3.33,3.58c1.54,1.51,1.78,3.63.94,4.75-.49.65-1.43,1.09-2.38.86-.92-.22-1.66-1.01-1.89-2.04-.43-.06-.86-.12-1.29-.18Z"/>
      <path class="cls-2" d="m77.26,102.63l3.91,4.19c1.59,1.56,2.03,3.98.97,5.39-.55.73-1.66,1.34-2.89,1.05-1-.23-1.82-1.03-2.17-2.07l-1.42-.19.02-.46c.04-1.06.15-2.12.32-3.14.22-1.34.56-2.68,1-3.98l.27-.79Zm2.61,9.71c.63,0,1.18-.34,1.47-.72.67-.9.48-2.76-.89-4.1l-2.77-2.97c-.3.99-.53,2.01-.7,3.02-.14.84-.23,1.7-.29,2.56l1.18.16.08.34c.19.84.79,1.49,1.52,1.66.13.03.27.05.4.05Z"/>
    </g>
  </g>
</svg>