<?xml version="1.0" encoding="UTF-8"?>
<svg id="Layer_1" data-name="Layer 1" width="60" height="90"  xmlns="http://www.w3.org/2000/svg" xmlns:xlink="http://www.w3.org/1999/xlink" viewBox="0 0 90 135">
  <defs>
    <style>
      .cls-1 {
        fill: url(#linear-gradient);
      }

      .cls-1, .cls-2, .cls-3 {
        stroke-width: 0px;
      }

      .cls-2 {
        fill: #ed1c24;
      }

      .cls-4 {
        fill: url(#linear-gradient-2);
        stroke: #d1d3d4;
        stroke-miterlimit: 10;
        stroke-width: .25px;
      }

      .cls-3 {
        fill: #ec2027;
      }
    </style>
    <linearGradient id="linear-gradient" x1="0" y1="67.5" x2="90" y2="67.5" gradientUnits="userSpaceOnUse">
      <stop offset="0" stop-color="#e6e7e8"/>
      <stop offset="1" stop-color="#f1f2f2"/>
    </linearGradient>
    <linearGradient id="linear-gradient-2" x1="3.83" y1="67.88" x2="86.83" y2="67.88" gradientUnits="userSpaceOnUse">
      <stop offset="0" stop-color="#fff"/>
      <stop offset="1" stop-color="#e6e7e8"/>
    </linearGradient>
  </defs>
  <g>
    <rect class="cls-1" width="90" height="135" rx="8.37" ry="8.37"/>
    <rect class="cls-4" x="3.83" y="4.38" width="83" height="127" rx="7.94" ry="7.94"/>
    <path class="cls-3" d="m12.72,11.45c.65-.73,1.46-1.4,2.37-1.57.3-.06.69,0,.89.17.37.31.27.9-.14,1.4-.47.59-1.13.92-1.78.76-.22-.06-.29-.11-.29-.17.01-.04.09-.07.2-.04.44.11.99-.29.7-.74-.17-.26-.79-.46-1.37.11-.99.99-1.47,2.5-1.47,4.15.23-.7.67-1.26,1.09-1.46.32-.13.61-.09.81.24.29-.34.61-.53.9-.56.32-.04.58.11.72.49.3-.29.6-.31.83-.13.34.26.56.96.51,1.8-.05.9-.41,2-.89,2.73-.61.93-1.41,1.56-2.21,1.56-.57,0-1.18-.17-1.7-.69-.72-.73-.95-2.03-.98-3.32,0-1.62.79-3.57,1.8-4.73Zm1.46,7.49c1.02,0,1.83-1.03,1.83-2.12,0-.79-.25-1.44-.6-1.64-.23-.11-.48-.04-.74.33-.04.06-.06.06-.08.06-.03,0-.04-.03-.04-.07.01-.39-.3-.57-.63-.53-.28.03-.6.23-.71.6-.03.07-.05.1-.08.09-.01,0-.04-.03-.04-.07-.03-.26-.17-.36-.34-.36-.28,0-.69.31-.89.74.18,1.6,1.09,2.97,2.31,2.97Z"/>
    <path class="cls-3" d="m77.94,124.3c-.65.73-1.46,1.4-2.37,1.57-.3.06-.69,0-.89-.17-.37-.31-.27-.9.14-1.4.47-.59,1.13-.92,1.78-.76.22.06.29.11.29.17-.01.04-.09.07-.2.04-.45-.11-.99.29-.7.74.17.26.79.46,1.37-.12.99-.99,1.47-2.5,1.47-4.15-.23.7-.67,1.26-1.09,1.46-.32.13-.61.09-.81-.24-.29.34-.61.53-.9.56-.32.04-.58-.11-.72-.49-.3.29-.6.31-.82.13-.34-.26-.56-.96-.51-1.8.05-.9.41-2,.89-2.73.61-.93,1.41-1.56,2.21-1.56.57,0,1.18.17,1.7.69.72.73.95,2.03.98,3.32,0,1.62-.79,3.57-1.8,4.73Zm-1.46-7.49c-1.02,0-1.83,1.03-1.83,2.12,0,.79.25,1.44.6,1.64.23.11.48.04.74-.33.04-.06.06-.06.08-.06.03,0,.04.03.04.07-.01.39.3.57.63.53.28-.03.6-.23.71-.6.03-.07.05-.1.08-.09.01,0,.04.03.04.07.03.26.17.36.34.36.28,0,.69-.31.89-.74-.18-1.6-1.09-2.97-2.31-2.97Z"/>
  </g>
  <polygon class="cls-2" points="37.14 107.67 29.92 117.07 22.69 107.67 29.92 98.28 37.14 107.67"/>
  <polygon class="cls-2" points="68.15 108.3 60.92 117.7 53.69 108.3 60.92 98.9 68.15 108.3"/>
  <polygon class="cls-2" points="37.59 67.88 30.36 77.27 23.14 67.88 30.36 58.48 37.59 67.88"/>
  <polygon class="cls-2" points="68.02 27.6 60.79 37 53.56 27.6 60.79 18.2 68.02 27.6"/>
  <polygon class="cls-2" points="37.59 27.27 30.36 36.67 23.14 27.27 30.36 17.87 37.59 27.27"/>
  <polygon class="cls-2" points="82.32 106.84 77.32 113.34 72.32 106.84 77.32 100.34 82.32 106.84"/>
  <polygon class="cls-2" points="18.68 29.13 13.68 35.63 8.68 29.13 13.68 22.63 18.68 29.13"/>
  <polygon class="cls-2" points="68.02 67.49 60.79 76.89 53.56 67.49 60.79 58.1 68.02 67.49"/>
</svg>