<?xml version="1.0" encoding="UTF-8"?>
<svg id="Layer_1" data-name="Layer 1" width="60" height="90"  xmlns="http://www.w3.org/2000/svg" xmlns:xlink="http://www.w3.org/1999/xlink" viewBox="0 0 90 135">
  <defs>
    <style>
      .cls-1 {
        fill: url(#linear-gradient);
      }

      .cls-1, .cls-2 {
        stroke-width: 0px;
      }

      .cls-3 {
        fill: url(#linear-gradient-2);
        stroke: #d1d3d4;
        stroke-miterlimit: 10;
        stroke-width: .25px;
      }
    </style>
    <linearGradient id="linear-gradient" x1="0" y1="67.5" x2="90" y2="67.5" gradientUnits="userSpaceOnUse">
      <stop offset="0" stop-color="#e6e7e8"/>
      <stop offset="1" stop-color="#f1f2f2"/>
    </linearGradient>
    <linearGradient id="linear-gradient-2" x1="3.83" y1="67.88" x2="86.83" y2="67.88" gradientUnits="userSpaceOnUse">
      <stop offset="0" stop-color="#fff"/>
      <stop offset="1" stop-color="#e6e7e8"/>
    </linearGradient>
  </defs>
  <g>
    <rect class="cls-1" width="90" height="135" rx="8.37" ry="8.37"/>
    <rect class="cls-3" x="3.83" y="4.38" width="83" height="127" rx="7.94" ry="7.94"/>
    <path class="cls-2" d="m12.72,11.45c.65-.73,1.46-1.4,2.37-1.57.3-.06.69,0,.89.17.37.31.27.9-.14,1.4-.47.59-1.13.92-1.78.76-.22-.06-.29-.11-.29-.17.01-.04.09-.07.2-.04.44.11.99-.29.7-.74-.17-.26-.79-.46-1.37.11-.99.99-1.47,2.5-1.47,4.15.23-.7.67-1.26,1.09-1.46.32-.13.61-.09.81.24.29-.34.61-.53.9-.56.32-.04.58.11.72.49.3-.29.6-.31.83-.13.34.26.56.96.51,1.8-.05.9-.41,2-.89,2.73-.61.93-1.41,1.56-2.21,1.56-.57,0-1.18-.17-1.7-.69-.72-.73-.95-2.03-.98-3.32,0-1.62.79-3.57,1.8-4.73Zm1.46,7.49c1.02,0,1.83-1.03,1.83-2.12,0-.79-.25-1.44-.6-1.64-.23-.11-.48-.04-.74.33-.04.06-.06.06-.08.06-.03,0-.04-.03-.04-.07.01-.39-.3-.57-.63-.53-.28.03-.6.23-.71.6-.03.07-.05.1-.08.09-.01,0-.04-.03-.04-.07-.03-.26-.17-.36-.34-.36-.28,0-.69.31-.89.74.18,1.6,1.09,2.97,2.31,2.97Z"/>
    <path class="cls-2" d="m77.94,124.3c-.65.73-1.46,1.4-2.37,1.57-.3.06-.69,0-.89-.17-.37-.31-.27-.9.14-1.4.47-.59,1.13-.92,1.78-.76.22.06.29.11.29.17-.01.04-.09.07-.2.04-.45-.11-.99.29-.7.74.17.26.79.46,1.37-.12.99-.99,1.47-2.5,1.47-4.15-.23.7-.67,1.26-1.09,1.46-.32.13-.61.09-.81-.24-.29.34-.61.53-.9.56-.32.04-.58-.11-.72-.49-.3.29-.6.31-.82.13-.34-.26-.56-.96-.51-1.8.05-.9.41-2,.89-2.73.61-.93,1.41-1.56,2.21-1.56.57,0,1.18.17,1.7.69.72.73.95,2.03.98,3.32,0,1.62-.79,3.57-1.8,4.73Zm-1.46-7.49c-1.02,0-1.83,1.03-1.83,2.12,0,.79.25,1.44.6,1.64.23.11.48.04.74-.33.04-.06.06-.06.08-.06.03,0,.04.03.04.07-.01.39.3.57.63.53.28-.03.6-.23.71-.6.03-.07.05-.1.08-.09.01,0,.04.03.04.07.03.26.17.36.34.36.28,0,.69-.31.89-.74-.18-1.6-1.09-2.97-2.31-2.97Z"/>
  </g>
  <path class="cls-2" d="m68.5,32.05c-.77,1.05-2.34,1.92-4.1,1.5-1.4-.33-2.56-1.46-3.08-2.95.39,3.89,1.15,4.99,1.86,5.16.53.12,1.08-.27,2.03,0,.65.19,1.13.58,1.43.9h-10.38c.25-.28.69-.68,1.32-.9,1.06-.36,1.72.14,2.32-.06.63-.22,1.32-1.25,1.41-5.11-.51,1.49-1.68,2.61-3.08,2.95-1.75.42-3.32-.45-4.1-1.5-1.34-1.81-1.15-5.4,1.51-8.05l5.65-6.13.02.06.02-.06,5.65,6.14c2.65,2.63,2.85,6.23,1.51,8.04Z"/>
  <path class="cls-2" d="m37.66,32.05c-.77,1.05-2.34,1.92-4.1,1.5-1.4-.33-2.56-1.46-3.08-2.95.39,3.89,1.15,4.99,1.86,5.16.53.12,1.08-.27,2.03,0,.65.19,1.13.58,1.43.9h-10.38c.25-.28.69-.68,1.32-.9,1.06-.36,1.72.14,2.32-.06.63-.22,1.32-1.25,1.41-5.11-.51,1.49-1.68,2.61-3.08,2.95-1.75.42-3.32-.45-4.1-1.5-1.34-1.81-1.15-5.4,1.51-8.05l5.65-6.13.02.06.02-.06,5.65,6.14c2.65,2.63,2.85,6.23,1.51,8.04Z"/>
  <path class="cls-2" d="m68.5,72.99c-.77,1.05-2.34,1.92-4.1,1.5-1.4-.33-2.56-1.46-3.08-2.95.39,3.89,1.15,4.99,1.86,5.16.53.12,1.08-.27,2.03,0,.65.19,1.13.58,1.43.9h-10.38c.25-.28.69-.68,1.32-.9,1.06-.36,1.72.14,2.32-.06.63-.22,1.32-1.25,1.41-5.11-.51,1.49-1.68,2.61-3.08,2.95-1.75.42-3.32-.45-4.1-1.5-1.34-1.81-1.15-5.4,1.51-8.05l5.65-6.13.02.06.02-.06,5.65,6.14c2.65,2.63,2.85,6.23,1.51,8.04Z"/>
  <path class="cls-2" d="m37.66,72.99c-.77,1.05-2.34,1.92-4.1,1.5-1.4-.33-2.56-1.46-3.08-2.95.39,3.89,1.15,4.99,1.86,5.16.53.12,1.08-.27,2.03,0,.65.19,1.13.58,1.43.9h-10.38c.25-.28.69-.68,1.32-.9,1.06-.36,1.72.14,2.32-.06.63-.22,1.32-1.25,1.41-5.11-.51,1.49-1.68,2.61-3.08,2.95-1.75.42-3.32-.45-4.1-1.5-1.34-1.81-1.15-5.4,1.51-8.05l5.65-6.13.02.06.02-.06,5.65,6.14c2.65,2.63,2.85,6.23,1.51,8.04Z"/>
  <path class="cls-2" d="m23.14,103.43c.77-1.05,2.34-1.92,4.1-1.5,1.4.33,2.56,1.46,3.08,2.95-.39-3.89-1.15-4.99-1.86-5.16-.53-.12-1.08.27-2.03,0-.65-.19-1.13-.58-1.43-.9h10.38c-.25.28-.69.68-1.32.9-1.06.36-1.72-.14-2.32.06-.63.22-1.32,1.25-1.41,5.11.51-1.49,1.68-2.61,3.08-2.95,1.75-.42,3.32.45,4.1,1.5,1.34,1.81,1.15,5.4-1.51,8.05l-5.65,6.13-.02-.06-.02.06-5.65-6.14c-2.65-2.63-2.85-6.23-1.51-8.04Z"/>
  <path class="cls-2" d="m54.14,103.43c.77-1.05,2.34-1.92,4.1-1.5,1.4.33,2.56,1.46,3.08,2.95-.39-3.89-1.15-4.99-1.86-5.16-.53-.12-1.08.27-2.03,0-.65-.19-1.13-.58-1.43-.9h10.38c-.25.28-.69.68-1.32.9-1.06.36-1.72-.14-2.32.06-.63.22-1.32,1.25-1.41,5.11.51-1.49,1.68-2.61,3.08-2.95,1.75-.42,3.32.45,4.1,1.5,1.34,1.81,1.15,5.4-1.51,8.05l-5.65,6.13-.02-.06-.02.06-5.65-6.14c-2.65-2.63-2.85-6.23-1.51-8.04Z"/>
  <path class="cls-2" d="m18.73,32.52c-.53.73-1.59,1.34-2.79,1.05-.95-.23-1.74-1.02-2.1-2.06.27,2.71.78,3.48,1.26,3.6.36.09.74-.19,1.38,0,.44.13.77.41.98.63h-7.06c.17-.19.47-.48.9-.63.72-.25,1.17.1,1.58-.04.43-.15.9-.87.96-3.56-.35,1.04-1.14,1.82-2.09,2.06-1.19.29-2.26-.32-2.79-1.05-.91-1.26-.78-3.77,1.03-5.61l3.85-4.28v.04s.03-.04.03-.04l3.85,4.28c1.8,1.84,1.94,4.35,1.03,5.61Z"/>
  <path class="cls-2" d="m72.43,103.45c.53-.73,1.59-1.34,2.79-1.05.95.23,1.74,1.02,2.1,2.06-.27-2.71-.78-3.48-1.26-3.6-.36-.09-.74.19-1.38,0-.44-.13-.77-.41-.98-.63h7.06c-.17.19-.47.48-.9.63-.72.25-1.17-.1-1.58.04-.43.15-.9.87-.96,3.56.35-1.04,1.14-1.82,2.09-2.06,1.19-.29,2.26.32,2.79,1.05.91,1.26.78,3.77-1.03,5.61l-3.85,4.28v-.04s-.03.04-.03.04l-3.85-4.28c-1.8-1.84-1.94-4.35-1.03-5.61Z"/>
</svg>