<?xml version="1.0" encoding="UTF-8"?>
<svg id="Layer_1" data-name="Layer 1" width="60" height="90"  xmlns="http://www.w3.org/2000/svg" xmlns:xlink="http://www.w3.org/1999/xlink" viewBox="0 0 90 135">
  <defs>
    <style>
      .cls-1 {
        fill: url(#linear-gradient);
      }

      .cls-1, .cls-2 {
        stroke-width: 0px;
      }

      .cls-3 {
        fill: url(#linear-gradient-2);
        stroke: #d1d3d4;
        stroke-miterlimit: 10;
        stroke-width: .25px;
      }
    </style>
    <linearGradient id="linear-gradient" x1="0" y1="67.5" x2="90" y2="67.5" gradientUnits="userSpaceOnUse">
      <stop offset="0" stop-color="#e6e7e8"/>
      <stop offset="1" stop-color="#f1f2f2"/>
    </linearGradient>
    <linearGradient id="linear-gradient-2" x1="3.83" y1="67.88" x2="86.83" y2="67.88" gradientUnits="userSpaceOnUse">
      <stop offset="0" stop-color="#fff"/>
      <stop offset="1" stop-color="#e6e7e8"/>
    </linearGradient>
  </defs>
  <g>
    <rect class="cls-1" width="90" height="135" rx="8.37" ry="8.37"/>
    <rect class="cls-3" x="3.83" y="4.38" width="83" height="127" rx="7.94" ry="7.94"/>
    <path class="cls-2" d="m12.52,9.95c.2,0,.43.09.65.2.36.17.71.39.99.39s.46-.24.71-.41c.14-.1.29-.17.5-.17.27,0,.52.13.8.26.24.11.5.21.79.21s.57-.21.69-.36c.06-.07.11-.1.14-.09.04.01.05.07,0,.17-.39.73-1.09,1.3-1.54,1.59-.58.37-1.03.94-1.14,1.37-.06.23-.04.41.11.51.05.03.08.06.08.09-.01.03-.05.06-.13.13-.39.33-.63,1.06-.29,1.27.05.03.09.04.08.07-.01.01-.03.04-.08.1-.24.27-.37.59-.39.84-.01.23.05.41.19.51.05.03.08.04.08.07s-.03.06-.08.1c-.57.57-.69,1.39-.34,1.86.33.44.72.4,1.1-.03.06-.07.1-.1.11-.09.03.03.01.09-.03.21-.36,1.13-1.31,1.7-1.99,1.39-.91-.41-.53-1.7.01-2.6-.2-.09-.29-.26-.29-.46-.01-.33.23-.74.58-1.06-.24-.13-.36-.29-.37-.47-.03-.29.22-.66.57-1.07-.39-.24-.32-.69-.01-1.16.39-.63,1.21-1.33,1.89-1.77-.27-.03-.5-.14-.71-.24-.24-.13-.47-.26-.71-.26-.25,0-.44.14-.62.3-.18.14-.36.29-.6.29-.3,0-.56-.13-.8-.26-.24-.13-.46-.24-.7-.24-.39,0-.74.3-.83.37-.05.04-.11.03-.14-.01-.01-.03-.01-.07.03-.13.48-.71,1.08-1.43,1.69-1.43Z"/>
    <path class="cls-2" d="m78.14,125.8c-.2,0-.43-.09-.65-.2-.36-.17-.71-.39-.99-.39s-.46.24-.71.41c-.14.1-.29.17-.5.17-.27,0-.52-.13-.8-.26-.24-.11-.5-.21-.79-.21s-.57.21-.69.36c-.06.07-.12.1-.14.09-.04-.01-.05-.07,0-.17.39-.73,1.09-1.3,1.54-1.59.58-.37,1.03-.94,1.14-1.37.06-.23.04-.41-.12-.51-.05-.03-.08-.06-.08-.09.01-.03.05-.06.13-.13.39-.33.63-1.06.29-1.27-.05-.03-.09-.04-.08-.07.01-.01.03-.04.08-.1.24-.27.37-.59.39-.84.01-.23-.05-.42-.19-.52-.05-.03-.08-.04-.08-.07s.03-.06.08-.1c.57-.57.69-1.39.34-1.86-.33-.44-.72-.4-1.1.03-.06.07-.1.1-.12.09-.03-.03-.01-.09.03-.21.36-1.13,1.31-1.7,1.99-1.39.91.42.53,1.7-.01,2.6.2.08.29.26.29.46.01.33-.23.74-.58,1.06.24.13.36.29.37.47.03.29-.21.66-.57,1.07.39.24.32.69.01,1.16-.39.63-1.21,1.33-1.89,1.77.27.03.49.14.71.24.24.13.47.26.71.26s.44-.14.62-.3c.18-.14.36-.29.6-.29.3,0,.56.13.8.26.24.13.46.24.7.24.39,0,.74-.3.82-.37.05-.04.12-.03.14.01.01.03.01.07-.03.13-.48.71-1.08,1.43-1.69,1.43Z"/>
  </g>
  <path class="cls-2" d="m68.5,32.05c-.77,1.05-2.34,1.92-4.1,1.5-1.4-.33-2.56-1.46-3.08-2.95.39,3.89,1.15,4.99,1.86,5.16.53.12,1.08-.27,2.03,0,.65.19,1.13.58,1.43.9h-10.38c.25-.28.69-.68,1.32-.9,1.06-.36,1.72.14,2.32-.06.63-.22,1.32-1.25,1.41-5.11-.51,1.49-1.68,2.61-3.08,2.95-1.75.42-3.32-.45-4.1-1.5-1.34-1.81-1.15-5.4,1.51-8.05l5.65-6.13.02.06.02-.06,5.65,6.14c2.65,2.63,2.85,6.23,1.51,8.04Z"/>
  <path class="cls-2" d="m37.66,32.05c-.77,1.05-2.34,1.92-4.1,1.5-1.4-.33-2.56-1.46-3.08-2.95.39,3.89,1.15,4.99,1.86,5.16.53.12,1.08-.27,2.03,0,.65.19,1.13.58,1.43.9h-10.38c.25-.28.69-.68,1.32-.9,1.06-.36,1.72.14,2.32-.06.63-.22,1.32-1.25,1.41-5.11-.51,1.49-1.68,2.61-3.08,2.95-1.75.42-3.32-.45-4.1-1.5-1.34-1.81-1.15-5.4,1.51-8.05l5.65-6.13.02.06.02-.06,5.65,6.14c2.65,2.63,2.85,6.23,1.51,8.04Z"/>
  <path class="cls-2" d="m68.5,72.99c-.77,1.05-2.34,1.92-4.1,1.5-1.4-.33-2.56-1.46-3.08-2.95.39,3.89,1.15,4.99,1.86,5.16.53.12,1.08-.27,2.03,0,.65.19,1.13.58,1.43.9h-10.38c.25-.28.69-.68,1.32-.9,1.06-.36,1.72.14,2.32-.06.63-.22,1.32-1.25,1.41-5.11-.51,1.49-1.68,2.61-3.08,2.95-1.75.42-3.32-.45-4.1-1.5-1.34-1.81-1.15-5.4,1.51-8.05l5.65-6.13.02.06.02-.06,5.65,6.14c2.65,2.63,2.85,6.23,1.51,8.04Z"/>
  <path class="cls-2" d="m37.66,72.99c-.77,1.05-2.34,1.92-4.1,1.5-1.4-.33-2.56-1.46-3.08-2.95.39,3.89,1.15,4.99,1.86,5.16.53.12,1.08-.27,2.03,0,.65.19,1.13.58,1.43.9h-10.38c.25-.28.69-.68,1.32-.9,1.06-.36,1.72.14,2.32-.06.63-.22,1.32-1.25,1.41-5.11-.51,1.49-1.68,2.61-3.08,2.95-1.75.42-3.32-.45-4.1-1.5-1.34-1.81-1.15-5.4,1.51-8.05l5.65-6.13.02.06.02-.06,5.65,6.14c2.65,2.63,2.85,6.23,1.51,8.04Z"/>
  <path class="cls-2" d="m23.14,103.43c.77-1.05,2.34-1.92,4.1-1.5,1.4.33,2.56,1.46,3.08,2.95-.39-3.89-1.15-4.99-1.86-5.16-.53-.12-1.08.27-2.03,0-.65-.19-1.13-.58-1.43-.9h10.38c-.25.28-.69.68-1.32.9-1.06.36-1.72-.14-2.32.06-.63.22-1.32,1.25-1.41,5.11.51-1.49,1.68-2.61,3.08-2.95,1.75-.42,3.32.45,4.1,1.5,1.34,1.81,1.15,5.4-1.51,8.05l-5.65,6.13-.02-.06-.02.06-5.65-6.14c-2.65-2.63-2.85-6.23-1.51-8.04Z"/>
  <path class="cls-2" d="m54.14,103.43c.77-1.05,2.34-1.92,4.1-1.5,1.4.33,2.56,1.46,3.08,2.95-.39-3.89-1.15-4.99-1.86-5.16-.53-.12-1.08.27-2.03,0-.65-.19-1.13-.58-1.43-.9h10.38c-.25.28-.69.68-1.32.9-1.06.36-1.72-.14-2.32.06-.63.22-1.32,1.25-1.41,5.11.51-1.49,1.68-2.61,3.08-2.95,1.75-.42,3.32.45,4.1,1.5,1.34,1.81,1.15,5.4-1.51,8.05l-5.65,6.13-.02-.06-.02.06-5.65-6.14c-2.65-2.63-2.85-6.23-1.51-8.04Z"/>
  <path class="cls-2" d="m18.73,32.52c-.53.73-1.59,1.34-2.79,1.05-.95-.23-1.74-1.02-2.1-2.06.27,2.71.78,3.48,1.26,3.6.36.09.74-.19,1.38,0,.44.13.77.41.98.63h-7.06c.17-.19.47-.48.9-.63.72-.25,1.17.1,1.58-.04.43-.15.9-.87.96-3.56-.35,1.04-1.14,1.82-2.09,2.06-1.19.29-2.26-.32-2.79-1.05-.91-1.26-.78-3.77,1.03-5.61l3.85-4.28v.04s.03-.04.03-.04l3.85,4.28c1.8,1.84,1.94,4.35,1.03,5.61Z"/>
  <path class="cls-2" d="m72.43,103.45c.53-.73,1.59-1.34,2.79-1.05.95.23,1.74,1.02,2.1,2.06-.27-2.71-.78-3.48-1.26-3.6-.36-.09-.74.19-1.38,0-.44-.13-.77-.41-.98-.63h7.06c-.17.19-.47.48-.9.63-.72.25-1.17-.1-1.58.04-.43.15-.9.87-.96,3.56.35-1.04,1.14-1.82,2.09-2.06,1.19-.29,2.26.32,2.79,1.05.91,1.26.78,3.77-1.03,5.61l-3.85,4.28v-.04s-.03.04-.03.04l-3.85-4.28c-1.8-1.84-1.94-4.35-1.03-5.61Z"/>
  <path class="cls-2" d="m53.5,52.52c-.77,1.05-2.34,1.92-4.1,1.5-1.4-.33-2.56-1.46-3.08-2.95.39,3.89,1.15,4.99,1.86,5.16.53.12,1.08-.27,2.03,0,.65.19,1.13.58,1.43.9h-10.38c.25-.28.69-.68,1.32-.9,1.06-.36,1.72.14,2.32-.06.63-.22,1.32-1.25,1.41-5.11-.51,1.49-1.68,2.61-3.08,2.95-1.75.42-3.32-.45-4.1-1.5-1.34-1.81-1.15-5.4,1.51-8.05l5.65-6.13.02.06.02-.06,5.65,6.14c2.65,2.63,2.85,6.23,1.51,8.04Z"/>
</svg>