<?xml version="1.0" encoding="UTF-8"?>
<svg id="Layer_1" data-name="Layer 1" width="60" height="90"  xmlns="http://www.w3.org/2000/svg" xmlns:xlink="http://www.w3.org/1999/xlink" viewBox="0 0 90 135">
  <defs>
    <style>
      .cls-1 {
        fill: url(#linear-gradient);
      }

      .cls-1, .cls-2, .cls-3 {
        stroke-width: 0px;
      }

      .cls-2 {
        fill: #ed1c24;
      }

      .cls-4 {
        fill: url(#linear-gradient-2);
        stroke: #d1d3d4;
        stroke-miterlimit: 10;
        stroke-width: .25px;
      }

      .cls-3 {
        fill: #ec2027;
      }
    </style>
    <linearGradient id="linear-gradient" x1="0" y1="67.5" x2="90" y2="67.5" gradientUnits="userSpaceOnUse">
      <stop offset="0" stop-color="#e6e7e8"/>
      <stop offset="1" stop-color="#f1f2f2"/>
    </linearGradient>
    <linearGradient id="linear-gradient-2" x1="3.83" y1="67.88" x2="86.83" y2="67.88" gradientTransform="translate(-.66 -.75)" gradientUnits="userSpaceOnUse">
      <stop offset="0" stop-color="#fff"/>
      <stop offset="1" stop-color="#e6e7e8"/>
    </linearGradient>
  </defs>
  <rect class="cls-1" x="0" y="0" width="90" height="135" rx="8.37" ry="8.37"/>
  <rect class="cls-4" x="3.17" y="3.62" width="83" height="127" rx="7.94" ry="7.94"/>
  <path class="cls-3" d="m77.48,125.05c-.2,0-.43-.09-.65-.2-.36-.17-.71-.39-.99-.39s-.46.24-.71.41c-.14.1-.29.17-.49.17-.27,0-.52-.13-.8-.26-.24-.11-.49-.21-.79-.21s-.57.21-.69.36c-.06.07-.11.1-.14.09-.04-.01-.05-.07,0-.17.39-.73,1.09-1.3,1.54-1.59.58-.37,1.03-.94,1.14-1.37.06-.23.04-.41-.11-.51-.05-.03-.08-.06-.08-.09.01-.03.05-.06.13-.13.39-.33.63-1.06.29-1.27-.05-.03-.09-.04-.08-.07.01-.01.03-.04.08-.1.24-.27.37-.59.39-.84.01-.23-.05-.42-.19-.52-.05-.03-.08-.04-.08-.07s.03-.06.08-.1c.57-.57.69-1.39.34-1.86-.33-.44-.72-.4-1.11.03-.06.07-.1.1-.11.09-.03-.03-.01-.09.03-.21.36-1.13,1.31-1.7,1.99-1.39.91.42.53,1.7-.01,2.6.2.08.29.26.29.46.01.33-.23.74-.58,1.06.24.13.36.29.37.47.03.29-.22.66-.57,1.07.39.24.32.69.01,1.16-.39.63-1.21,1.33-1.89,1.77.27.03.5.14.71.24.24.13.47.26.71.26.25,0,.45-.14.62-.3.18-.14.36-.29.6-.29.3,0,.56.13.8.26.24.13.46.24.7.24.39,0,.74-.3.83-.37.05-.04.11-.03.14.01.01.03.01.07-.03.13-.48.71-1.08,1.43-1.69,1.43Z"/>
  <g>
    <path class="cls-3" d="m11.85,9.2c.2,0,.43.09.65.2.36.17.71.39.99.39s.46-.24.71-.41c.14-.1.29-.17.5-.17.27,0,.52.13.8.26.24.11.5.21.79.21s.57-.21.69-.36c.06-.07.11-.1.14-.09.04.01.05.07,0,.17-.39.73-1.09,1.3-1.54,1.59-.58.37-1.03.94-1.14,1.37-.06.23-.04.41.11.51.05.03.08.06.08.09-.01.03-.05.06-.13.13-.39.33-.63,1.06-.29,1.27.05.03.09.04.08.07-.01.01-.03.04-.08.1-.24.27-.37.59-.39.84-.01.23.05.41.19.51.05.03.08.04.08.07s-.03.06-.08.1c-.57.57-.69,1.39-.34,1.86.33.44.72.4,1.1-.03.06-.07.1-.1.11-.09.03.03.01.09-.03.21-.36,1.13-1.31,1.7-1.99,1.39-.91-.41-.53-1.7.01-2.6-.2-.09-.29-.26-.29-.46-.01-.33.23-.74.58-1.06-.24-.13-.36-.29-.37-.47-.03-.29.22-.66.57-1.07-.39-.24-.32-.69-.01-1.16.39-.63,1.21-1.33,1.89-1.77-.27-.03-.5-.14-.71-.24-.24-.13-.47-.26-.71-.26-.25,0-.44.14-.62.3-.18.14-.36.29-.6.29-.3,0-.56-.13-.8-.26-.24-.13-.46-.24-.7-.24-.39,0-.74.3-.83.37-.05.04-.11.03-.14-.01-.01-.03-.01-.07.03-.13.48-.71,1.08-1.43,1.69-1.43Z"/>
    <g>
      <g>
        <path class="cls-2" d="m66.69,27.76l-5.23,6.02c-.58-1.83-1.14-4.03-1.53-6.57-.29-1.89-.44-3.63-.49-5.18l2.02-.3c.37-1.73,1.53-3.06,2.97-3.43,1.49-.38,2.97.36,3.73,1.45,1.31,1.88.95,5.46-1.47,8Z"/>
        <path class="cls-2" d="m61.34,34.4l-.16-.51c-.68-2.15-1.2-4.38-1.54-6.62-.26-1.72-.43-3.47-.5-5.22v-.29s2.08-.31,2.08-.31c.44-1.73,1.66-3.08,3.14-3.45,1.73-.43,3.28.48,4.04,1.57,1.32,1.9,1.13,5.66-1.5,8.42l-5.57,6.42Zm-1.58-12.09c.07,1.62.23,3.25.48,4.85.31,2.03.77,4.04,1.36,6l4.89-5.64c2.39-2.52,2.61-5.89,1.44-7.57-.63-.9-1.96-1.7-3.42-1.33-1.33.33-2.4,1.58-2.74,3.18l-.05.22-1.96.29Z"/>
      </g>
      <g>
        <path class="cls-2" d="m63.2,22.03c-.06,1.55-.2,3.29-.49,5.18-.39,2.53-.95,4.74-1.53,6.57l-5.23-6.02c-2.42-2.55-2.79-6.12-1.47-8,.76-1.09,2.24-1.83,3.73-1.45,1.44.37,2.6,1.7,2.97,3.43.67.1,1.35.2,2.02.3Z"/>
        <path class="cls-2" d="m61.3,34.4l-5.58-6.42c-2.62-2.76-2.82-6.52-1.49-8.42.77-1.1,2.31-2.01,4.04-1.57,1.49.38,2.7,1.72,3.14,3.45l2.09.31v.3c-.08,1.76-.25,3.52-.51,5.22-.34,2.23-.86,4.46-1.54,6.62l-.16.51Zm-3.89-15.87c-1.16,0-2.17.68-2.69,1.42-1.17,1.68-.96,5.05,1.44,7.57l4.89,5.63c.59-1.96,1.05-3.98,1.36-6,.24-1.58.4-3.21.48-4.85l-1.96-.29-.05-.22c-.34-1.6-1.42-2.85-2.74-3.19-.25-.06-.49-.09-.73-.09Z"/>
      </g>
    </g>
    <g>
      <g>
        <path class="cls-2" d="m35.93,27.61l-5.23,6.02c-.58-1.83-1.14-4.03-1.53-6.57-.29-1.89-.44-3.63-.49-5.18l2.02-.3c.37-1.73,1.53-3.06,2.97-3.43,1.49-.38,2.97.36,3.73,1.45,1.31,1.88.95,5.46-1.47,8Z"/>
        <path class="cls-2" d="m30.58,34.25l-.16-.51c-.68-2.15-1.2-4.38-1.54-6.62-.26-1.72-.43-3.47-.5-5.22v-.29s2.08-.31,2.08-.31c.44-1.73,1.66-3.08,3.14-3.45,1.73-.43,3.28.48,4.04,1.57,1.32,1.9,1.13,5.66-1.5,8.42l-5.57,6.42Zm-1.58-12.09c.07,1.62.23,3.25.48,4.85.31,2.03.77,4.04,1.36,6l4.89-5.64c2.39-2.52,2.61-5.89,1.44-7.57-.63-.9-1.96-1.7-3.42-1.33-1.33.33-2.4,1.58-2.74,3.18l-.05.22-1.96.29Z"/>
      </g>
      <g>
        <path class="cls-2" d="m32.44,21.88c-.06,1.55-.2,3.29-.49,5.18-.39,2.53-.95,4.74-1.53,6.57l-5.23-6.02c-2.42-2.55-2.79-6.12-1.47-8,.76-1.09,2.24-1.83,3.73-1.45,1.44.37,2.6,1.7,2.97,3.43.67.1,1.35.2,2.02.3Z"/>
        <path class="cls-2" d="m30.54,34.25l-5.58-6.42c-2.62-2.76-2.82-6.52-1.49-8.42.77-1.1,2.31-2.01,4.04-1.57,1.49.38,2.7,1.72,3.14,3.45l2.09.31v.3c-.08,1.76-.25,3.52-.51,5.22-.34,2.23-.86,4.46-1.54,6.62l-.16.51Zm-3.89-15.87c-1.16,0-2.17.68-2.69,1.42-1.17,1.68-.96,5.05,1.44,7.57l4.89,5.63c.59-1.96,1.05-3.98,1.36-6,.24-1.58.4-3.21.48-4.85l-1.96-.29-.05-.22c-.34-1.6-1.42-2.85-2.74-3.19-.25-.06-.49-.09-.73-.09Z"/>
      </g>
    </g>
    <g>
      <g>
        <path class="cls-2" d="m51.69,48.22l-5.23,6.02c-.58-1.83-1.14-4.03-1.53-6.57-.29-1.89-.44-3.63-.49-5.18l2.02-.3c.37-1.73,1.53-3.06,2.97-3.43,1.49-.38,2.97.36,3.73,1.45,1.31,1.88.95,5.46-1.47,8Z"/>
        <path class="cls-2" d="m46.34,54.87l-.16-.51c-.68-2.15-1.2-4.38-1.54-6.62-.26-1.72-.43-3.47-.5-5.22v-.29s2.08-.31,2.08-.31c.44-1.73,1.66-3.08,3.14-3.45,1.73-.43,3.28.48,4.04,1.57,1.32,1.9,1.13,5.66-1.5,8.42l-5.57,6.42Zm-1.58-12.09c.07,1.62.23,3.25.48,4.85.31,2.03.77,4.04,1.36,6l4.89-5.64c2.39-2.52,2.61-5.89,1.44-7.57-.63-.9-1.96-1.7-3.42-1.33-1.33.33-2.4,1.58-2.74,3.18l-.05.22-1.96.29Z"/>
      </g>
      <g>
        <path class="cls-2" d="m48.2,42.5c-.06,1.55-.2,3.29-.49,5.18-.39,2.53-.95,4.74-1.53,6.57l-5.23-6.02c-2.42-2.55-2.79-6.12-1.47-8,.76-1.09,2.24-1.83,3.73-1.45,1.44.37,2.6,1.7,2.97,3.43.67.1,1.35.2,2.02.3Z"/>
        <path class="cls-2" d="m46.3,54.87l-5.58-6.42c-2.62-2.76-2.82-6.52-1.49-8.42.77-1.1,2.31-2.01,4.04-1.57,1.49.38,2.7,1.72,3.14,3.45l2.09.31v.3c-.08,1.76-.25,3.52-.51,5.22-.34,2.23-.86,4.46-1.54,6.62l-.16.51Zm-3.89-15.87c-1.16,0-2.17.68-2.69,1.42-1.17,1.68-.96,5.05,1.44,7.57l4.89,5.63c.59-1.96,1.05-3.98,1.36-6,.24-1.58.4-3.21.48-4.85l-1.96-.29-.05-.22c-.34-1.6-1.42-2.85-2.74-3.19-.25-.06-.49-.09-.73-.09Z"/>
      </g>
    </g>
    <g>
      <g>
        <path class="cls-2" d="m35.93,68.56l-5.23,6.02c-.58-1.83-1.14-4.03-1.53-6.57-.29-1.89-.44-3.63-.49-5.18l2.02-.3c.37-1.73,1.53-3.06,2.97-3.43,1.49-.38,2.97.36,3.73,1.45,1.31,1.88.95,5.46-1.47,8Z"/>
        <path class="cls-2" d="m30.58,75.2l-.16-.51c-.68-2.15-1.2-4.38-1.54-6.62-.26-1.72-.43-3.47-.5-5.22v-.29s2.08-.31,2.08-.31c.44-1.73,1.66-3.08,3.14-3.45,1.73-.43,3.28.48,4.04,1.57,1.32,1.9,1.13,5.66-1.5,8.42l-5.57,6.42Zm-1.58-12.09c.07,1.62.23,3.25.48,4.85.31,2.03.77,4.04,1.36,6l4.89-5.64c2.39-2.52,2.61-5.89,1.44-7.57-.63-.9-1.96-1.7-3.42-1.33-1.33.33-2.4,1.58-2.74,3.18l-.05.22-1.96.29Z"/>
      </g>
      <g>
        <path class="cls-2" d="m32.44,62.83c-.06,1.55-.2,3.29-.49,5.18-.39,2.53-.95,4.74-1.53,6.57l-5.23-6.02c-2.42-2.55-2.79-6.12-1.47-8,.76-1.09,2.24-1.83,3.73-1.45,1.44.37,2.6,1.7,2.97,3.43.67.1,1.35.2,2.02.3Z"/>
        <path class="cls-2" d="m30.54,75.2l-5.58-6.42c-2.62-2.76-2.82-6.52-1.49-8.42.77-1.1,2.31-2.01,4.04-1.57,1.49.38,2.7,1.72,3.14,3.45l2.09.31v.3c-.08,1.76-.25,3.52-.51,5.22-.34,2.23-.86,4.46-1.54,6.62l-.16.51Zm-3.89-15.87c-1.16,0-2.17.68-2.69,1.42-1.17,1.68-.96,5.05,1.44,7.57l4.89,5.63c.59-1.96,1.05-3.98,1.36-6,.24-1.58.4-3.21.48-4.85l-1.96-.29-.05-.22c-.34-1.6-1.42-2.85-2.74-3.19-.25-.06-.49-.09-.73-.09Z"/>
      </g>
    </g>
    <g>
      <g>
        <path class="cls-2" d="m66.62,68.74l-5.23,6.02c-.58-1.83-1.14-4.03-1.53-6.57-.29-1.89-.44-3.63-.49-5.18l2.02-.3c.37-1.73,1.53-3.06,2.97-3.43,1.49-.38,2.97.36,3.73,1.45,1.31,1.88.95,5.46-1.47,8Z"/>
        <path class="cls-2" d="m61.27,75.39l-.16-.51c-.68-2.15-1.2-4.38-1.54-6.62-.26-1.72-.43-3.47-.5-5.22v-.29s2.08-.31,2.08-.31c.44-1.73,1.66-3.08,3.14-3.45,1.73-.43,3.28.48,4.04,1.57,1.32,1.9,1.13,5.66-1.5,8.42l-5.57,6.42Zm-1.58-12.09c.07,1.62.23,3.25.48,4.85.31,2.03.77,4.04,1.36,6l4.89-5.64c2.39-2.52,2.61-5.89,1.44-7.57-.63-.9-1.96-1.7-3.42-1.33-1.33.33-2.4,1.58-2.74,3.18l-.05.22-1.96.29Z"/>
      </g>
      <g>
        <path class="cls-2" d="m63.13,63.02c-.06,1.55-.2,3.29-.49,5.18-.39,2.53-.95,4.74-1.53,6.57l-5.23-6.02c-2.42-2.55-2.79-6.12-1.47-8,.76-1.09,2.24-1.83,3.73-1.45,1.44.37,2.6,1.7,2.97,3.43.67.1,1.35.2,2.02.3Z"/>
        <path class="cls-2" d="m61.23,75.39l-5.58-6.42c-2.62-2.76-2.82-6.52-1.49-8.42.77-1.1,2.31-2.01,4.04-1.57,1.49.38,2.7,1.72,3.14,3.45l2.09.31v.3c-.08,1.76-.25,3.52-.51,5.22-.34,2.23-.86,4.46-1.54,6.62l-.16.51Zm-3.89-15.87c-1.16,0-2.17.68-2.69,1.42-1.17,1.68-.96,5.05,1.44,7.57l4.89,5.63c.59-1.96,1.05-3.98,1.36-6,.24-1.58.4-3.21.48-4.85l-1.96-.29-.05-.22c-.34-1.6-1.42-2.85-2.74-3.19-.25-.06-.49-.09-.73-.09Z"/>
      </g>
    </g>
    <g>
      <g>
        <path class="cls-2" d="m24.95,107.39l5.23-6.02c.58,1.83,1.14,4.03,1.53,6.57.29,1.89.44,3.63.49,5.18l-2.02.3c-.37,1.73-1.53,3.06-2.97,3.43-1.49.38-2.97-.36-3.73-1.45-1.31-1.88-.95-5.46,1.47-8Z"/>
        <path class="cls-2" d="m30.3,100.75l.16.51c.68,2.15,1.2,4.38,1.54,6.62.26,1.72.43,3.47.5,5.22v.29s-2.08.31-2.08.31c-.44,1.73-1.66,3.08-3.14,3.45-1.73.43-3.28-.48-4.04-1.57-1.32-1.9-1.13-5.66,1.5-8.42l5.57-6.42Zm1.58,12.09c-.07-1.62-.23-3.25-.48-4.85-.31-2.03-.77-4.04-1.36-6l-4.89,5.64c-2.39,2.52-2.61,5.89-1.44,7.57.63.9,1.96,1.7,3.42,1.33,1.33-.33,2.4-1.58,2.74-3.18l.05-.22,1.96-.29Z"/>
      </g>
      <g>
        <path class="cls-2" d="m28.44,113.11c.06-1.55.2-3.29.49-5.18.39-2.53.95-4.74,1.53-6.57l5.23,6.02c2.42,2.55,2.79,6.12,1.47,8-.76,1.09-2.24,1.83-3.73,1.45-1.44-.37-2.6-1.7-2.97-3.43-.67-.1-1.35-.2-2.02-.3Z"/>
        <path class="cls-2" d="m30.34,100.75l5.58,6.42c2.62,2.76,2.82,6.52,1.49,8.42-.77,1.1-2.31,2.01-4.04,1.57-1.49-.38-2.7-1.72-3.14-3.45l-2.09-.31v-.3c.08-1.76.25-3.52.51-5.22.34-2.23.86-4.46,1.54-6.62l.16-.51Zm3.89,15.87c1.16,0,2.17-.68,2.69-1.42,1.17-1.68.96-5.05-1.44-7.57l-4.89-5.63c-.59,1.96-1.05,3.98-1.36,6-.24,1.58-.4,3.21-.48,4.85l1.96.29.05.22c.34,1.6,1.42,2.85,2.74,3.19.25.06.49.09.73.09Z"/>
      </g>
    </g>
    <g>
      <g>
        <path class="cls-2" d="m54.31,107.24l5.23-6.02c.58,1.83,1.14,4.03,1.53,6.57.29,1.89.44,3.63.49,5.18l-2.02.3c-.37,1.73-1.53,3.06-2.97,3.43-1.49.38-2.97-.36-3.73-1.45-1.31-1.88-.95-5.46,1.47-8Z"/>
        <path class="cls-2" d="m59.66,100.6l.16.51c.68,2.15,1.2,4.38,1.54,6.62.26,1.72.43,3.47.5,5.22v.29s-2.08.31-2.08.31c-.44,1.73-1.66,3.08-3.14,3.45-1.73.43-3.28-.48-4.04-1.57-1.32-1.9-1.13-5.66,1.5-8.42l5.57-6.42Zm1.58,12.09c-.07-1.62-.23-3.25-.48-4.85-.31-2.03-.77-4.04-1.36-6l-4.89,5.64c-2.39,2.52-2.61,5.89-1.44,7.57.63.9,1.96,1.7,3.42,1.33,1.33-.33,2.4-1.58,2.74-3.18l.05-.22,1.96-.29Z"/>
      </g>
      <g>
        <path class="cls-2" d="m57.8,112.97c.06-1.55.2-3.29.49-5.18.39-2.53.95-4.74,1.53-6.57l5.23,6.02c2.42,2.55,2.79,6.12,1.47,8-.76,1.09-2.24,1.83-3.73,1.45-1.44-.37-2.6-1.7-2.97-3.43-.67-.1-1.35-.2-2.02-.3Z"/>
        <path class="cls-2" d="m59.7,100.6l5.58,6.42c2.62,2.76,2.82,6.52,1.49,8.42-.77,1.1-2.31,2.01-4.04,1.57-1.49-.38-2.7-1.72-3.14-3.45l-2.09-.31v-.3c.08-1.76.25-3.52.51-5.22.34-2.23.86-4.46,1.54-6.62l.16-.51Zm3.89,15.87c1.16,0,2.17-.68,2.69-1.42,1.17-1.68.96-5.05-1.44-7.57l-4.89-5.63c-.59,1.96-1.05,3.98-1.36,6-.24,1.58-.4,3.21-.48,4.85l1.96.29.05.22c.34,1.6,1.42,2.85,2.74,3.19.25.06.49.09.73.09Z"/>
      </g>
    </g>
    <g>
      <g>
        <path class="cls-2" d="m72.62,101.31l3.34-3.58c.37,1.09.73,2.4.97,3.9.19,1.12.28,2.16.31,3.08l-1.29.18c-.24,1.03-.97,1.82-1.89,2.04-.95.22-1.89-.21-2.38-.86-.84-1.12-.6-3.24.94-4.75Z"/>
        <path class="cls-2" d="m76.16,96.78l.27.79c.44,1.29.77,2.63.99,3.98.17,1.03.28,2.09.32,3.14l.02.45-1.42.2c-.35,1.04-1.18,1.84-2.17,2.07-1.24.29-2.35-.32-2.89-1.05-1.06-1.41-.62-3.83.98-5.4l3.9-4.18Zm.56,7.5c-.05-.86-.15-1.72-.29-2.56-.17-1.02-.4-2.03-.7-3.02l-2.77,2.97c-1.36,1.34-1.56,3.2-.89,4.1.34.46,1.07.86,1.86.68.73-.17,1.33-.82,1.52-1.66l.08-.34,1.18-.16Z"/>
      </g>
      <g>
        <path class="cls-2" d="m75.06,104.71c.04-.92.13-1.96.31-3.08.25-1.5.61-2.81.98-3.9l3.33,3.58c1.54,1.51,1.78,3.63.94,4.75-.49.65-1.43,1.09-2.38.86-.92-.22-1.66-1.01-1.89-2.04-.43-.06-.86-.12-1.29-.18Z"/>
        <path class="cls-2" d="m76.14,96.78l3.91,4.19c1.59,1.56,2.03,3.98.97,5.39-.55.73-1.66,1.34-2.89,1.05-1-.23-1.82-1.03-2.17-2.07l-1.42-.19.02-.46c.04-1.06.15-2.12.32-3.14.22-1.34.56-2.68,1-3.98l.27-.79Zm2.61,9.71c.63,0,1.18-.34,1.47-.72.67-.9.48-2.76-.89-4.1l-2.77-2.97c-.3.99-.53,2.01-.7,3.02-.14.84-.23,1.7-.29,2.56l1.18.16.08.34c.19.84.79,1.49,1.52,1.66.13.03.27.05.4.05Z"/>
      </g>
    </g>
    <g>
      <g>
        <path class="cls-2" d="m17.38,28.8l-3.34,3.58c-.37-1.09-.73-2.4-.97-3.9-.19-1.12-.28-2.16-.31-3.08l1.29-.18c.24-1.03.97-1.82,1.89-2.04.95-.22,1.89.21,2.38.86.84,1.12.6,3.24-.94,4.75Z"/>
        <path class="cls-2" d="m13.84,33.34l-.27-.79c-.44-1.29-.77-2.63-.99-3.98-.17-1.03-.28-2.09-.32-3.14l-.02-.45,1.42-.2c.35-1.04,1.18-1.84,2.17-2.07,1.24-.29,2.35.32,2.89,1.05,1.06,1.41.62,3.83-.98,5.4l-3.9,4.18Zm-.56-7.5c.05.86.15,1.72.29,2.56.17,1.02.4,2.03.7,3.02l2.77-2.97c1.36-1.34,1.56-3.2.89-4.1-.34-.46-1.07-.86-1.86-.68-.73.17-1.33.82-1.52,1.66l-.08.34-1.18.16Z"/>
      </g>
      <g>
        <path class="cls-2" d="m14.94,25.4c-.04.92-.13,1.96-.31,3.08-.25,1.5-.61,2.81-.98,3.9l-3.33-3.58c-1.54-1.51-1.78-3.63-.94-4.75.49-.65,1.43-1.09,2.38-.86.92.22,1.66,1.01,1.89,2.04.43.06.86.12,1.29.18Z"/>
        <path class="cls-2" d="m13.86,33.34l-3.91-4.19c-1.59-1.56-2.03-3.98-.97-5.39.55-.73,1.66-1.34,2.89-1.05,1,.23,1.82,1.03,2.17,2.07l1.42.19-.02.46c-.04,1.06-.15,2.12-.32,3.14-.22,1.34-.56,2.68-1,3.98l-.27.79Zm-2.61-9.71c-.63,0-1.18.34-1.47.72-.67.9-.48,2.76.89,4.1l2.77,2.97c.3-.99.53-2.01.7-3.02.14-.84.23-1.7.29-2.56l-1.18-.16-.08-.34c-.19-.84-.79-1.49-1.52-1.66-.13-.03-.27-.05-.4-.05Z"/>
      </g>
    </g>
  </g>
</svg>