<?xml version="1.0" encoding="UTF-8"?>
<svg id="Layer_1" data-name="Layer 1" width="60" height="90"  xmlns="http://www.w3.org/2000/svg" xmlns:xlink="http://www.w3.org/1999/xlink" viewBox="0 0 90 135">
  <defs>
    <style>
      .cls-1 {
        fill: url(#linear-gradient);
      }

      .cls-1, .cls-2 {
        stroke-width: 0px;
      }

      .cls-3 {
        fill: url(#linear-gradient-2);
        stroke: #d1d3d4;
        stroke-miterlimit: 10;
        stroke-width: .25px;
      }
    </style>
    <linearGradient id="linear-gradient" x1="0" y1="67.5" x2="90" y2="67.5" gradientUnits="userSpaceOnUse">
      <stop offset="0" stop-color="#e6e7e8"/>
      <stop offset="1" stop-color="#f1f2f2"/>
    </linearGradient>
    <linearGradient id="linear-gradient-2" x1="3.83" y1="67.88" x2="86.83" y2="67.88" gradientTransform="translate(-.66 -.75)" gradientUnits="userSpaceOnUse">
      <stop offset="0" stop-color="#fff"/>
      <stop offset="1" stop-color="#e6e7e8"/>
    </linearGradient>
  </defs>
  <rect class="cls-1" x="0" y="0" width="90" height="135" rx="8.37" ry="8.37"/>
  <rect class="cls-3" x="3.17" y="3.62" width="83" height="127" rx="7.94" ry="7.94"/>
  <path class="cls-2" d="m76.16,125.29c-1.49.19-2.87-.54-2.87-2.22,0-.62.34-1.6,1.71-2.17-.23-.13-.24-.31-.13-.49.18-.3.7-.61,1.26-.8-.06-.24-.04-.54.54-1.09.46-.41.84-.92.86-1.63.04-.94-.84-2.02-1.89-1.76-.93.23-1.54,1.33-1.54,2.3,0,1.09.41,1.73,1.11,1.77.16.02.24.06.19.12-.03.03-.1.06-.23.09-1.7.3-2.27-.79-2.31-1.8-.05-1.33,1.27-2.66,2.84-2.92,1.54-.26,2.65.34,3.04,1.26.44,1.06.13,1.93-.61,2.69-.19.2-.41.34-.51.44-.05.06-.08.1-.04.11.08.04.15.1.14.14,0,.03-.04.06-.12.07-.43.09-.99.41-1.22.67-.11.14-.13.27.03.34.09.04.17.09.14.11-.01.03-.05.04-.12.06-1,.21-1.88,1.09-1.88,2.26s.6,2.13,1.66,1.94c.86-.14,1.36-1.1,1.36-2.02,0-.84-.18-1.72-1-1.79-.09,0-.14-.03-.15-.06-.01-.04.04-.1.15-.13,1.18-.33,2.26.46,2.26,1.62,0,1.52-1.04,2.66-2.69,2.86Z"/>
  <path class="cls-2" d="m13.17,8.96c1.49-.19,2.87.54,2.87,2.22,0,.61-.34,1.6-1.71,2.17.23.13.24.31.13.49-.18.3-.7.61-1.26.8.06.24.04.54-.55,1.09-.46.41-.84.92-.86,1.63-.04.94.84,2.02,1.89,1.76.93-.23,1.54-1.33,1.54-2.3,0-1.09-.41-1.73-1.1-1.77-.17-.01-.24-.06-.19-.11.03-.03.1-.06.23-.09,1.7-.3,2.27.79,2.31,1.8.05,1.33-1.27,2.66-2.84,2.92-1.54.26-2.65-.34-3.03-1.26-.44-1.06-.13-1.93.61-2.69.19-.2.41-.34.51-.44.05-.06.08-.1.04-.11-.08-.04-.15-.1-.14-.14,0-.03.04-.06.11-.07.43-.09.99-.41,1.22-.67.11-.14.13-.27-.03-.34-.09-.04-.17-.09-.14-.11.01-.03.05-.04.11-.06,1-.21,1.88-1.09,1.88-2.26s-.6-2.13-1.66-1.94c-.86.14-1.36,1.1-1.36,2.02,0,.84.18,1.72,1,1.79.09,0,.14.03.15.06.01.04-.04.1-.15.13-1.18.33-2.26-.46-2.26-1.62,0-1.52,1.04-2.66,2.69-2.86Z"/>
  <path class="cls-2" d="m61.88,71.67c-.11-.13-.22-.21-.37-.2,0,.02,0,.03.01.04.41,3.79,1.19,4.89,1.91,5.06.55.12,1.12-.28,2.11,0,.67.19,1.17.59,1.49.91h-10.79c.26-.28.72-.69,1.37-.91,1.1-.37,1.79.14,2.41-.06.65-.22,1.35-1.25,1.46-5.03t0-.01c-.36.02-.41.52-1.04,1.11-.72.92-1.86,1.51-3.13,1.51-2.2,0-3.99-1.77-3.99-3.96s1.79-3.96,3.99-3.96c.29,0,.57.03.84.09h0c.33-.01.63-.03.73-.22.12-.26-.26-.59-.48-.98,0,0,0-.01,0-.02-.52-.66-.83-1.5-.83-2.4,0-2.19,1.78-3.96,3.98-3.96s3.98,1.77,3.98,3.96c0,.86-.27,1.65-.74,2.29,0,0,0,0,0,0s0,0,0,.01c-.21.4-.66.75-.51,1.05.09.18.31.22.57.24h0c.22-.04.46-.06.69-.06,2.2,0,3.98,1.77,3.98,3.96s-1.78,3.96-3.98,3.96c-1.66,0-3.07-.99-3.67-2.42Z"/>
  <path class="cls-2" d="m59.17,106.4c.11.13.22.21.37.2,0-.02,0-.03-.01-.04-.41-3.79-1.19-4.89-1.91-5.06-.55-.12-1.12.28-2.11,0-.67-.19-1.17-.59-1.49-.91h10.79c-.26.28-.72.69-1.37.91-1.1.37-1.79-.14-2.41.06-.65.22-1.35,1.25-1.46,5.03t0,.01c.36-.02.41-.52,1.04-1.11.72-.92,1.86-1.51,3.13-1.51,2.2,0,3.99,1.77,3.99,3.96s-1.79,3.96-3.99,3.96c-.29,0-.57-.03-.84-.09h0c-.33.01-.63.03-.73.22-.12.26.26.59.48.98,0,0,0,.01,0,.02.52.66.83,1.5.83,2.4,0,2.19-1.78,3.96-3.98,3.96s-3.98-1.77-3.98-3.96c0-.86.27-1.65.74-2.29,0,0,0,0,0,0s0,0,0-.01c.21-.4.66-.75.51-1.05-.09-.18-.31-.22-.57-.24h0c-.22.04-.46.06-.69.06-2.2,0-3.98-1.77-3.98-3.96s1.78-3.96,3.98-3.96c1.66,0,3.07.99,3.67,2.42Z"/>
  <path class="cls-2" d="m29.94,106.4c.11.13.22.21.37.2,0-.02,0-.03-.01-.04-.41-3.79-1.19-4.89-1.91-5.06-.55-.12-1.12.28-2.11,0-.67-.19-1.17-.59-1.49-.91h10.79c-.26.28-.72.69-1.37.91-1.1.37-1.79-.14-2.41.06-.65.22-1.35,1.25-1.46,5.03t0,.01c.36-.02.41-.52,1.04-1.11.72-.92,1.86-1.51,3.13-1.51,2.2,0,3.99,1.77,3.99,3.96s-1.79,3.96-3.99,3.96c-.29,0-.57-.03-.84-.09h0c-.33.01-.63.03-.73.22-.12.26.26.59.48.98,0,0,0,.01,0,.02.52.66.83,1.5.83,2.4,0,2.19-1.78,3.96-3.98,3.96s-3.98-1.77-3.98-3.96c0-.86.27-1.65.74-2.29,0,0,0,0,0,0s0,0,0-.01c.21-.4.66-.75.51-1.05-.09-.18-.31-.22-.57-.24h0c-.22.04-.46.06-.69.06-2.2,0-3.98-1.77-3.98-3.96s1.78-3.96,3.98-3.96c1.66,0,3.07.99,3.67,2.42Z"/>
  <path class="cls-2" d="m45.88,87.25c.11.13.22.21.37.2,0-.02,0-.03-.01-.04-.41-3.79-1.19-4.89-1.91-5.06-.55-.12-1.12.28-2.11,0-.67-.19-1.17-.59-1.49-.91h10.79c-.26.28-.72.69-1.37.91-1.1.37-1.79-.14-2.41.06-.65.22-1.35,1.25-1.46,5.03t0,.01c.36-.02.41-.52,1.04-1.11.72-.92,1.86-1.51,3.13-1.51,2.2,0,3.99,1.77,3.99,3.96s-1.79,3.96-3.99,3.96c-.29,0-.57-.03-.84-.09h0c-.33.01-.63.03-.73.22-.12.26.26.59.48.98,0,0,0,.01,0,.02.52.66.83,1.5.83,2.4,0,2.19-1.78,3.96-3.98,3.96s-3.98-1.77-3.98-3.96c0-.86.27-1.65.74-2.29,0,0,0,0,0,0s0,0,0-.01c.21-.4.66-.75.51-1.05-.09-.18-.31-.22-.57-.24h0c-.22.04-.46.06-.69.06-2.2,0-3.98-1.77-3.98-3.96s1.78-3.96,3.98-3.96c1.66,0,3.07.99,3.67,2.42Z"/>
  <path class="cls-2" d="m31.08,71.67c-.11-.13-.22-.21-.37-.2,0,.02,0,.03.01.04.41,3.79,1.19,4.89,1.91,5.06.55.12,1.12-.28,2.11,0,.67.19,1.17.59,1.49.91h-10.79c.26-.28.72-.69,1.37-.91,1.1-.37,1.79.14,2.41-.06.65-.22,1.35-1.25,1.46-5.03t0-.01c-.36.02-.41.52-1.04,1.11-.72.92-1.86,1.51-3.13,1.51-2.2,0-3.99-1.77-3.99-3.96s1.79-3.96,3.99-3.96c.29,0,.57.03.84.09h0c.33-.01.63-.03.73-.22.12-.26-.26-.59-.48-.98,0,0,0-.01,0-.02-.52-.66-.83-1.5-.83-2.4,0-2.19,1.78-3.96,3.98-3.96s3.98,1.77,3.98,3.96c0,.86-.27,1.65-.74,2.29,0,0,0,0,0,0s0,0,0,.01c-.21.4-.66.75-.51,1.05.09.18.31.22.57.24h0c.22-.04.46-.06.69-.06,2.2,0,3.98,1.77,3.98,3.96s-1.78,3.96-3.98,3.96c-1.66,0-3.07-.99-3.67-2.42Z"/>
  <path class="cls-2" d="m46.4,51.33c-.11-.13-.22-.21-.37-.2,0,.02,0,.03.01.04.41,3.79,1.19,4.89,1.91,5.06.55.12,1.12-.28,2.11,0,.67.19,1.17.59,1.49.91h-10.79c.26-.28.72-.69,1.37-.91,1.1-.37,1.79.14,2.41-.06.65-.22,1.35-1.25,1.46-5.03t0-.01c-.36.02-.41.52-1.04,1.11-.72.92-1.86,1.51-3.13,1.51-2.2,0-3.99-1.77-3.99-3.96s1.79-3.96,3.99-3.96c.29,0,.57.03.84.09h0c.33-.01.63-.03.73-.22.12-.26-.26-.59-.48-.98,0,0,0-.01,0-.02-.52-.66-.83-1.5-.83-2.4,0-2.19,1.78-3.96,3.98-3.96s3.98,1.77,3.98,3.96c0,.86-.27,1.65-.74,2.29,0,0,0,0,0,0s0,0,0,.01c-.21.4-.66.75-.51,1.05.09.18.31.22.57.24h0c.22-.04.46-.06.69-.06,2.2,0,3.98,1.77,3.98,3.96s-1.78,3.96-3.98,3.96c-1.66,0-3.07-.99-3.67-2.42Z"/>
  <path class="cls-2" d="m61.88,30.73c-.11-.13-.22-.21-.37-.2,0,.02,0,.03.01.04.41,3.79,1.19,4.89,1.91,5.06.55.12,1.12-.28,2.11,0,.67.19,1.17.59,1.49.91h-10.79c.26-.28.72-.69,1.37-.91,1.1-.37,1.79.14,2.41-.06.65-.22,1.35-1.25,1.46-5.03t0-.01c-.36.02-.41.52-1.04,1.11-.72.92-1.86,1.51-3.13,1.51-2.2,0-3.99-1.77-3.99-3.96s1.79-3.96,3.99-3.96c.29,0,.57.03.84.09h0c.33-.01.63-.03.73-.22.12-.26-.26-.59-.48-.98,0,0,0-.01,0-.02-.52-.66-.83-1.5-.83-2.4,0-2.19,1.78-3.96,3.98-3.96s3.98,1.77,3.98,3.96c0,.86-.27,1.65-.74,2.29,0,0,0,0,0,0s0,0,0,.01c-.21.4-.66.75-.51,1.05.09.18.31.22.57.24h0c.22-.04.46-.06.69-.06,2.2,0,3.98,1.77,3.98,3.96s-1.78,3.96-3.98,3.96c-1.66,0-3.07-.99-3.67-2.42Z"/>
  <path class="cls-2" d="m30.99,30.73c-.11-.13-.22-.21-.37-.2,0,.02,0,.03.01.04.41,3.79,1.19,4.89,1.91,5.06.55.12,1.12-.28,2.11,0,.67.19,1.17.59,1.49.91h-10.79c.26-.28.72-.69,1.37-.91,1.1-.37,1.79.14,2.41-.06.65-.22,1.35-1.25,1.46-5.03t0-.01c-.36.02-.41.52-1.04,1.11-.72.92-1.86,1.51-3.13,1.51-2.2,0-3.99-1.77-3.99-3.96s1.79-3.96,3.99-3.96c.29,0,.57.03.84.09h0c.33-.01.63-.03.73-.22.12-.26-.26-.59-.48-.98,0,0,0-.01,0-.02-.52-.66-.83-1.5-.83-2.4,0-2.19,1.78-3.96,3.98-3.96s3.98,1.77,3.98,3.96c0,.86-.27,1.65-.74,2.29,0,0,0,0,0,0s0,0,0,.01c-.21.4-.66.75-.51,1.05.09.18.31.22.57.24h0c.22-.04.46-.06.69-.06,2.2,0,3.98,1.77,3.98,3.96s-1.78,3.96-3.98,3.96c-1.66,0-3.07-.99-3.67-2.42Z"/>
  <path class="cls-2" d="m14.09,31.6c-.08-.09-.15-.15-.25-.14,0,.01,0,.02,0,.03.28,2.61.8,3.36,1.28,3.48.37.09.76-.19,1.42,0,.45.13.79.41,1,.62h-7.25c.18-.19.48-.47.92-.62.74-.25,1.2.09,1.62-.04.44-.15.91-.86.98-3.46t0,0c-.24.01-.27.35-.7.77-.49.63-1.25,1.04-2.1,1.04-1.48,0-2.68-1.22-2.68-2.72s1.2-2.73,2.68-2.73c.19,0,.38.02.57.06h0c.22,0,.42-.02.49-.15.08-.18-.17-.41-.32-.68,0,0,0,0,0-.01-.35-.46-.56-1.03-.56-1.65,0-1.5,1.2-2.72,2.67-2.72s2.67,1.22,2.67,2.72c0,.59-.18,1.13-.5,1.58,0,0,0,0,0,0s0,0,0,0c-.14.27-.44.51-.34.72.06.12.21.15.39.16h0c.15-.03.31-.04.46-.04,1.48,0,2.67,1.22,2.67,2.73s-1.2,2.72-2.67,2.72c-1.11,0-2.06-.68-2.47-1.66Z"/>
  <path class="cls-2" d="m75.84,100.81c.08.09.15.15.25.14,0-.01,0-.02,0-.03-.28-2.61-.8-3.36-1.28-3.48-.37-.09-.76.19-1.42,0-.45-.13-.79-.41-1-.62h7.25c-.18.19-.48.47-.92.62-.74.25-1.2-.09-1.62.04-.44.15-.91.86-.98,3.46t0,0c.24-.01.27-.35.7-.77.49-.63,1.25-1.04,2.1-1.04,1.48,0,2.68,1.22,2.68,2.72s-1.2,2.73-2.68,2.73c-.19,0-.38-.02-.57-.06h0c-.22,0-.42.02-.49.15-.08.18.17.41.32.68,0,0,0,0,0,.01.35.46.56,1.03.56,1.65,0,1.5-1.2,2.72-2.67,2.72s-2.67-1.22-2.67-2.72c0-.59.18-1.13.5-1.58,0,0,0,0,0,0s0,0,0,0c.14-.27.44-.51.34-.72-.06-.12-.21-.15-.39-.16h0c-.15.03-.31.04-.46.04-1.48,0-2.67-1.22-2.67-2.73s1.2-2.72,2.67-2.72c1.11,0,2.06.68,2.47,1.66Z"/>
</svg>