<?xml version="1.0" encoding="UTF-8"?>
<svg id="Layer_1" data-name="Layer 1" width="60" height="90"  xmlns="http://www.w3.org/2000/svg" xmlns:xlink="http://www.w3.org/1999/xlink" viewBox="0 0 90 135">
  <defs>
    <style>
      .cls-1 {
        fill: url(#linear-gradient);
      }

      .cls-1, .cls-2 {
        stroke-width: 0px;
      }

      .cls-3 {
        fill: url(#linear-gradient-2);
        stroke: #d1d3d4;
        stroke-miterlimit: 10;
        stroke-width: .25px;
      }
    </style>
    <linearGradient id="linear-gradient" x1="0" y1="67.5" x2="90" y2="67.5" gradientUnits="userSpaceOnUse">
      <stop offset="0" stop-color="#e6e7e8"/>
      <stop offset="1" stop-color="#f1f2f2"/>
    </linearGradient>
    <linearGradient id="linear-gradient-2" x1="3.83" y1="67.88" x2="86.83" y2="67.88" gradientTransform="translate(-.66 -.75)" gradientUnits="userSpaceOnUse">
      <stop offset="0" stop-color="#fff"/>
      <stop offset="1" stop-color="#e6e7e8"/>
    </linearGradient>
  </defs>
  <rect class="cls-1" x="0" y="0" width="90" height="135" rx="8.37" ry="8.37"/>
  <rect class="cls-3" x="3.17" y="3.62" width="83" height="127" rx="7.94" ry="7.94"/>
  <path class="cls-2" d="m77.05,116.21c.94-1.1,1.94-1.3,2.75-1.3.3,0,.81.14.99.31.36.34.27.81-.14,1.32-.47.59-1.13.92-1.78.76-.23-.06-.3-.13-.28-.19.01-.03.09-.06.19-.03.45.11.83-.24.7-.74-.14-.54-1.02-.64-1.71-.11-.9.69-1.37,1.99-1.37,4.38.27-.82.81-1.43,1.29-1.52.23-.04.45.04.61.3.38-.44.81-.63,1.14-.54.22.04.38.2.48.47.24-.23.47-.29.67-.21.43.16.71.91.66,1.89-.05.9-.41,2-.89,2.73-.61.93-1.41,1.56-2.21,1.56-.57,0-1.18-.17-1.7-.69-.72-.73-.98-2.03-.98-3.32,0-2.42.56-3.87,1.56-5.06Zm1.7,7.82c1.02,0,1.83-1.03,1.83-2.12,0-.87-.32-1.59-.71-1.69-.19-.04-.41.06-.62.37-.03.04-.06.06-.08.06-.04,0-.04-.01-.04-.07,0-.27-.15-.44-.36-.51-.34-.1-.84.09-.99.59-.01.04-.03.07-.05.08-.03.03-.05,0-.06-.07-.03-.26-.16-.37-.36-.36-.28.01-.67.31-.88.74.18,1.6,1.09,2.97,2.31,2.97Z"/>
  <path class="cls-2" d="m12.89,18.04c-.94,1.1-1.94,1.3-2.75,1.3-.3,0-.81-.14-.99-.31-.36-.34-.27-.81.14-1.32.47-.59,1.13-.92,1.78-.76.23.06.3.13.28.19-.01.03-.09.06-.19.03-.44-.11-.83.24-.7.74.14.54,1.02.64,1.71.11.9-.69,1.37-1.99,1.37-4.38-.27.81-.81,1.43-1.29,1.52-.23.04-.44-.04-.61-.3-.38.44-.81.63-1.14.54-.22-.04-.38-.2-.48-.47-.24.23-.47.29-.67.21-.43-.16-.71-.92-.66-1.89.05-.9.41-2,.89-2.73.61-.93,1.41-1.56,2.21-1.56.57,0,1.18.17,1.7.69.72.73.98,2.03.98,3.32,0,2.42-.56,3.87-1.56,5.06Zm-1.7-7.82c-1.02,0-1.83,1.03-1.83,2.12,0,.87.32,1.59.71,1.69.19.04.41-.06.62-.37.03-.04.06-.06.08-.06.04,0,.04.01.04.07,0,.27.15.44.36.51.34.1.84-.09.99-.59.01-.04.03-.07.05-.09.03-.03.05,0,.06.07.03.26.17.37.36.36.28-.01.67-.31.88-.74-.18-1.6-1.09-2.97-2.31-2.97Z"/>
  <path class="cls-2" d="m68.32,59.17c-.77,1.05-2.34,1.92-4.1,1.5-1.4-.33-2.56-1.46-3.08-2.95.39,3.89,1.15,4.99,1.86,5.16.53.12,1.08-.27,2.03,0,.65.19,1.13.58,1.43.9h-10.38c.25-.28.69-.68,1.32-.9,1.06-.36,1.72.14,2.32-.06.63-.22,1.32-1.25,1.41-5.11-.51,1.49-1.68,2.61-3.08,2.95-1.75.42-3.32-.45-4.1-1.5-1.34-1.81-1.15-5.4,1.51-8.05l5.65-6.13.02.06.02-.06,5.65,6.14c2.65,2.63,2.85,6.23,1.51,8.04Z"/>
  <path class="cls-2" d="m53.24,72.86c-.77,1.05-2.34,1.92-4.1,1.5-1.4-.33-2.56-1.46-3.08-2.95.39,3.89,1.15,4.99,1.86,5.16.53.12,1.08-.27,2.03,0,.65.19,1.13.58,1.43.9h-10.38c.25-.28.69-.68,1.32-.9,1.06-.36,1.72.14,2.32-.06.63-.22,1.32-1.25,1.41-5.11-.51,1.49-1.68,2.61-3.08,2.95-1.75.42-3.32-.45-4.1-1.5-1.34-1.81-1.15-5.4,1.51-8.05l5.65-6.13.02.06.02-.06,5.65,6.14c2.65,2.63,2.85,6.23,1.51,8.04Z"/>
  <path class="cls-2" d="m37.73,59.17c-.77,1.05-2.34,1.92-4.1,1.5-1.4-.33-2.56-1.46-3.08-2.95.39,3.89,1.15,4.99,1.86,5.16.53.12,1.08-.27,2.03,0,.65.19,1.13.58,1.43.9h-10.38c.25-.28.69-.68,1.32-.9,1.06-.36,1.72.14,2.32-.06.63-.22,1.32-1.25,1.41-5.11-.51,1.49-1.68,2.61-3.08,2.95-1.75.42-3.32-.45-4.1-1.5-1.34-1.81-1.15-5.4,1.51-8.05l5.65-6.13.02.06.02-.06,5.65,6.14c2.65,2.63,2.85,6.23,1.51,8.04Z"/>
  <path class="cls-2" d="m68.62,31.91c-.77,1.05-2.34,1.92-4.1,1.5-1.4-.33-2.56-1.46-3.08-2.95.39,3.89,1.15,4.99,1.86,5.16.53.12,1.08-.27,2.03,0,.65.19,1.13.58,1.43.9h-10.38c.25-.28.69-.68,1.32-.9,1.06-.36,1.72.14,2.32-.06.63-.22,1.32-1.25,1.41-5.11-.51,1.49-1.68,2.61-3.08,2.95-1.75.42-3.32-.45-4.1-1.5-1.34-1.81-1.15-5.4,1.51-8.05l5.65-6.13.02.06.02-.06,5.65,6.14c2.65,2.63,2.85,6.23,1.51,8.04Z"/>
  <path class="cls-2" d="m37.73,31.91c-.77,1.05-2.34,1.92-4.1,1.5-1.4-.33-2.56-1.46-3.08-2.95.39,3.89,1.15,4.99,1.86,5.16.53.12,1.08-.27,2.03,0,.65.19,1.13.58,1.43.9h-10.38c.25-.28.69-.68,1.32-.9,1.06-.36,1.72.14,2.32-.06.63-.22,1.32-1.25,1.41-5.11-.51,1.49-1.68,2.61-3.08,2.95-1.75.42-3.32-.45-4.1-1.5-1.34-1.81-1.15-5.4,1.51-8.05l5.65-6.13.02.06.02-.06,5.65,6.14c2.65,2.63,2.85,6.23,1.51,8.04Z"/>
  <path class="cls-2" d="m24.06,77.41c.77-1.05,2.34-1.92,4.1-1.5,1.4.33,2.56,1.46,3.08,2.95-.39-3.89-1.15-4.99-1.86-5.16-.53-.12-1.08.27-2.03,0-.65-.19-1.13-.58-1.43-.9h10.38c-.25.28-.69.68-1.32.9-1.06.36-1.72-.14-2.32.06-.63.22-1.32,1.25-1.41,5.11.51-1.49,1.68-2.61,3.08-2.95,1.75-.42,3.32.45,4.1,1.5,1.34,1.81,1.15,5.4-1.51,8.05l-5.65,6.13-.02-.06-.02.06-5.65-6.14c-2.65-2.63-2.85-6.23-1.51-8.04Z"/>
  <path class="cls-2" d="m54.25,77.41c.77-1.05,2.34-1.92,4.1-1.5,1.4.33,2.56,1.46,3.08,2.95-.39-3.89-1.15-4.99-1.86-5.16-.53-.12-1.08.27-2.03,0-.65-.19-1.13-.58-1.43-.9h10.38c-.25.28-.69.68-1.32.9-1.06.36-1.72-.14-2.32.06-.63.22-1.32,1.25-1.41,5.11.51-1.49,1.68-2.61,3.08-2.95,1.75-.42,3.32.45,4.1,1.5,1.34,1.81,1.15,5.4-1.51,8.05l-5.65,6.13-.02-.06-.02.06-5.65-6.14c-2.65-2.63-2.85-6.23-1.51-8.04Z"/>
  <path class="cls-2" d="m54.16,105.22c.77-1.05,2.34-1.92,4.1-1.5,1.4.33,2.56,1.46,3.08,2.95-.39-3.89-1.15-4.99-1.86-5.16-.53-.12-1.08.27-2.03,0-.65-.19-1.13-.58-1.43-.9h10.38c-.25.28-.69.68-1.32.9-1.06.36-1.72-.14-2.32.06-.63.22-1.32,1.25-1.41,5.11.51-1.49,1.68-2.61,3.08-2.95,1.75-.42,3.32.45,4.1,1.5,1.34,1.81,1.15,5.4-1.51,8.05l-5.65,6.13-.02-.06-.02.06-5.65-6.14c-2.65-2.63-2.85-6.23-1.51-8.04Z"/>
  <path class="cls-2" d="m24.02,105.22c.77-1.05,2.34-1.92,4.1-1.5,1.4.33,2.56,1.46,3.08,2.95-.39-3.89-1.15-4.99-1.86-5.16-.53-.12-1.08.27-2.03,0-.65-.19-1.13-.58-1.43-.9h10.38c-.25.28-.69.68-1.32.9-1.06.36-1.72-.14-2.32.06-.63.22-1.32,1.25-1.41,5.11.51-1.49,1.68-2.61,3.08-2.95,1.75-.42,3.32.45,4.1,1.5,1.34,1.81,1.15,5.4-1.51,8.05l-5.65,6.13-.02-.06-.02.06-5.65-6.14c-2.65-2.63-2.85-6.23-1.51-8.04Z"/>
  <path class="cls-2" d="m18.68,32.46c-.53.73-1.59,1.34-2.79,1.05-.95-.23-1.74-1.02-2.1-2.06.27,2.71.78,3.48,1.26,3.6.36.09.74-.19,1.38,0,.44.13.77.41.98.63h-7.06c.17-.19.47-.48.9-.63.72-.25,1.17.1,1.58-.04.43-.15.9-.87.96-3.56-.35,1.04-1.14,1.82-2.09,2.06-1.19.29-2.26-.32-2.79-1.05-.91-1.26-.78-3.77,1.03-5.61l3.85-4.28v.04s.03-.04.03-.04l3.85,4.28c1.8,1.84,1.94,4.35,1.03,5.61Z"/>
  <path class="cls-2" d="m71.25,100.11c.53-.73,1.59-1.34,2.79-1.05.95.23,1.74,1.02,2.1,2.06-.27-2.71-.78-3.48-1.26-3.6-.36-.09-.74.19-1.38,0-.44-.13-.77-.41-.98-.63h7.06c-.17.19-.47.48-.9.63-.72.25-1.17-.1-1.58.04-.43.15-.9.87-.96,3.56.35-1.04,1.14-1.82,2.09-2.06,1.19-.29,2.26.32,2.79,1.05.91,1.26.78,3.77-1.03,5.61l-3.85,4.28v-.04s-.03.04-.03.04l-3.85-4.28c-1.8-1.84-1.94-4.35-1.03-5.61Z"/>
</svg>