<?xml version="1.0" encoding="UTF-8"?>
<svg id="Layer_1" data-name="Layer 1" width="60" height="90"  xmlns="http://www.w3.org/2000/svg" xmlns:xlink="http://www.w3.org/1999/xlink" viewBox="0 0 60 90">
  <defs>
    <style>
      .cls-1 {
        fill: url(#linear-gradient);
      }

      .cls-1, .cls-2 {
        stroke-width: 0px;
      }

      .cls-2 {
        fill: #ed1c24;
      }

      .cls-3 {
        fill: url(#linear-gradient-2);
        stroke: #d2d3d4;
        stroke-miterlimit: 10;
        stroke-width: .25px;
      }
    </style>
    <linearGradient id="linear-gradient" x1="0" y1="56.28" x2="60" y2="56.28" gradientTransform="translate(0 101.28) scale(1 -1)" gradientUnits="userSpaceOnUse">
      <stop offset="0" stop-color="#e6e7e7"/>
      <stop offset="1" stop-color="#f2f2f2"/>
    </linearGradient>
    <linearGradient id="linear-gradient-2" x1="2.44" y1="56" x2="57.77" y2="56" gradientTransform="translate(0 101.28) scale(1 -1)" gradientUnits="userSpaceOnUse">
      <stop offset="0" stop-color="#fff"/>
      <stop offset="1" stop-color="#e6e7e7"/>
    </linearGradient>
  </defs>
  <path class="cls-1" d="m54.95,90H5.05c-2.78,0-5.05-2.27-5.05-5.05V5.05C0,2.27,2.27,0,5.05,0h49.9c2.78,0,5.05,2.27,5.05,5.05v79.9c0,2.78-2.27,5.05-5.05,5.05Z"/>
  <path class="cls-3" d="m52.69,87.62H7.52c-2.79,0-5.08-2.29-5.08-5.08V8.03c0-2.79,2.29-5.08,5.08-5.08h45.17c2.79,0,5.08,2.29,5.08,5.08v74.51c0,2.79-2.29,5.08-5.08,5.08Z"/>
  <g>
    <path class="cls-2" d="m11.25,12.6c-.41.04-.73-.09-.92-.33-.27-.31-.33-.82-.08-1.36-.18-.02-.26-.09-.27-.19-.03-.15.1-.37.3-.61-.2-.03-.28-.14-.27-.29-.2.24-.43.42-.67.42-.22,0-.54-.14-.77-.28.02.77.08,1.56-.19,2.07-.2.38-.58.63-1.07.57-.71-.09-.82-.96-.57-1.79.02-.05.04-.09.06-.08.03.01.04.04.03.1-.08.47.09.84.47.82.6-.02.78-.8.86-1.82-.15,0-.28.05-.37.13-.08.06-.13.08-.15.05-.02-.02.01-.07.05-.13.16-.24.35-.46.52-.6,0-1.08.43-2.38,1.22-2.98.45-.38,1.25-.47,1.63-.18-.27.24-.39.45-.38.59.01.12.09.15.34.11.05-.01.08-.01.09.01,0,.02-.01.05-.05.09-.23.24-.38.45-.36.59.02.09.09.14.29.09.04-.01.06,0,.07.01.01.03,0,.05-.04.08-.21.16-.34.42-.31.59.02.07.08.14.23.12.06-.01.1-.01.11.02.01.03-.01.05-.07.09-.24.17-.29.39-.28.51.01.08.08.16.25.14.05-.01.09-.01.1.02.01.03-.02.05-.07.1-.19.16-.29.39-.29.52,0,.12.09.21.31.17.05-.01.07,0,.08.02s-.01.05-.05.09c-.29.25-.43.65-.41.94.02.43.29.7.67.65.48-.04.66-.48.66-1,0-.08.01-.13.05-.14.03-.01.05.04.07.12.21,1.01-.06,1.88-.82,1.95Zm-.98-3.29c-.16-.03-.23-.09-.25-.18-.03-.14.07-.34.24-.54-.16-.01-.24-.07-.25-.17-.03-.15.09-.38.27-.61-.16,0-.24-.09-.25-.21-.02-.14.05-.32.15-.44-.93-.17-1.5.99-1.6,1.99.34.02.79.34,1.07.39.31.04.44-.06.62-.23Z"/>
    <g>
      <g>
        <path class="cls-2" d="m11.5,17.82l-2.07,2.36c-.23-.72-.45-1.58-.6-2.57-.11-.74-.17-1.42-.2-2.03l.8-.12c.15-.68.6-1.2,1.17-1.34.59-.15,1.17.14,1.47.57.52.74.37,2.14-.58,3.13Z"/>
        <path class="cls-2" d="m9.39,20.42l-.06-.2c-.27-.84-.47-1.71-.61-2.59-.1-.67-.17-1.36-.2-2.05v-.12s.82-.12.82-.12c.17-.68.65-1.21,1.24-1.35.68-.17,1.29.19,1.6.62.52.74.45,2.22-.59,3.3l-2.2,2.51Zm-.63-4.73c.03.64.09,1.27.19,1.9.12.79.3,1.58.54,2.35l1.93-2.21c.95-.99,1.03-2.31.57-2.97-.25-.35-.78-.67-1.35-.52-.52.13-.95.62-1.08,1.25l-.02.09-.77.11Z"/>
      </g>
      <g>
        <path class="cls-2" d="m10.12,15.58c-.02.61-.08,1.29-.2,2.03-.15.99-.38,1.86-.6,2.57l-2.07-2.36c-.95-1-1.1-2.4-.58-3.13.3-.43.88-.72,1.47-.57.57.14,1.03.66,1.17,1.34.27.04.53.08.8.12Z"/>
        <path class="cls-2" d="m9.37,20.42l-2.2-2.52c-1.03-1.08-1.11-2.55-.59-3.3.3-.43.91-.79,1.6-.62.59.15,1.07.67,1.24,1.35l.83.12v.12c-.03.69-.1,1.38-.2,2.05-.14.87-.34,1.75-.61,2.59l-.06.2Zm-1.54-6.22c-.46,0-.86.27-1.06.56-.46.66-.38,1.98.57,2.97l1.93,2.21c.23-.77.41-1.56.54-2.35.1-.62.16-1.26.19-1.9l-.77-.11-.02-.09c-.13-.63-.56-1.12-1.08-1.25-.1-.02-.19-.04-.29-.04Z"/>
      </g>
    </g>
  </g>
  <g>
    <g>
      <path class="cls-2" d="m39.71,47.98l-9.35,10.04c-1.03-3.05-2.04-6.73-2.73-10.95-.52-3.15-.78-6.06-.88-8.64l3.62-.5c.66-2.89,2.73-5.11,5.31-5.72,2.67-.63,5.31.6,6.67,2.42,2.35,3.14,1.69,9.1-2.63,13.34Z"/>
      <path class="cls-2" d="m30.14,59.06l-.29-.86c-1.21-3.58-2.14-7.3-2.76-11.03-.47-2.86-.77-5.79-.89-8.71l-.02-.49,3.74-.52c.79-2.89,2.96-5.13,5.62-5.76,3.09-.72,5.86.79,7.23,2.63,2.37,3.16,2.02,9.43-2.68,14.04l-9.96,10.7Zm-2.83-20.15c.13,2.71.42,5.42.85,8.08.56,3.38,1.37,6.74,2.43,10l8.75-9.4c4.28-4.2,4.67-9.83,2.57-12.63-1.12-1.5-3.51-2.83-6.12-2.22-2.37.56-4.3,2.64-4.91,5.31l-.08.36-3.5.48Z"/>
    </g>
    <g>
      <path class="cls-2" d="m33.47,38.44c-.11,2.58-.37,5.49-.88,8.64-.7,4.22-1.71,7.9-2.74,10.95l-9.35-10.04c-4.32-4.24-4.98-10.2-2.63-13.34,1.36-1.82,4-3.05,6.67-2.42,2.58.61,4.65,2.83,5.31,5.72,1.2.16,2.41.33,3.62.5Z"/>
      <path class="cls-2" d="m30.07,59.06l-9.97-10.71c-4.68-4.6-5.04-10.87-2.66-14.03,1.37-1.83,4.13-3.35,7.23-2.63,2.66.63,4.83,2.87,5.62,5.76l3.74.51-.02.49c-.12,2.94-.42,5.87-.89,8.7-.62,3.72-1.54,7.44-2.76,11.04l-.29.86Zm-6.96-26.46c-2.08,0-3.88,1.13-4.81,2.37-2.1,2.8-1.71,8.42,2.57,12.63l8.75,9.39c1.06-3.27,1.87-6.64,2.43-10,.43-2.64.72-5.35.85-8.08l-3.5-.48-.08-.37c-.61-2.67-2.53-4.75-4.91-5.31-.44-.1-.88-.15-1.31-.15Z"/>
    </g>
  </g>
  <g>
    <path class="cls-2" d="m48.96,77.97c.41-.04.73.09.92.33.27.31.33.82.08,1.36.18.02.26.09.27.19.03.15-.1.37-.3.61.2.03.28.14.27.29.2-.24.43-.42.67-.42.22,0,.54.14.77.28-.02-.77-.08-1.56.19-2.07.2-.38.58-.63,1.07-.57.71.09.82.96.57,1.79-.02.05-.04.09-.06.08-.03-.01-.04-.04-.03-.1.08-.47-.09-.84-.47-.82-.6.02-.78.8-.86,1.82.15,0,.28-.05.37-.13.08-.06.13-.08.15-.05.02.02-.01.07-.05.13-.16.24-.35.46-.52.6,0,1.08-.43,2.38-1.22,2.98-.45.38-1.25.47-1.63.18.27-.24.39-.45.38-.59-.01-.12-.09-.15-.34-.11-.05.01-.08.01-.09-.01,0-.02.01-.05.05-.09.23-.24.38-.45.36-.59-.02-.09-.09-.14-.29-.09-.04.01-.06,0-.07-.01-.01-.03,0-.05.04-.08.21-.16.34-.42.31-.59-.02-.07-.08-.14-.23-.12-.06.01-.1.01-.11-.02-.01-.03.01-.05.07-.09.24-.17.29-.39.28-.51-.01-.08-.08-.16-.25-.14-.05.01-.09.01-.1-.02-.01-.03.02-.05.07-.1.19-.16.29-.39.29-.52s-.09-.21-.31-.17c-.05.01-.07,0-.08-.02s.01-.05.05-.09c.29-.25.43-.65.41-.94-.02-.43-.29-.7-.67-.65-.48.04-.66.48-.66,1,0,.08-.01.13-.05.14-.03.01-.05-.04-.07-.12-.21-1.01.06-1.88.82-1.95Zm.98,3.29c.16.03.23.09.25.18.03.14-.07.34-.24.54.16.01.24.07.25.17.03.15-.09.38-.27.61.16,0,.24.09.25.21.02.14-.05.32-.15.44.93.17,1.5-.99,1.6-1.99-.34-.02-.79-.34-1.07-.39-.31-.04-.44.06-.62.23Z"/>
    <g>
      <g>
        <path class="cls-2" d="m48.71,72.75l2.07-2.36c.23.72.45,1.58.6,2.57.11.74.17,1.42.2,2.03l-.8.12c-.15.68-.6,1.2-1.17,1.34-.59.15-1.17-.14-1.47-.57-.52-.74-.37-2.14.58-3.13Z"/>
        <path class="cls-2" d="m50.82,70.15l.06.2c.27.84.47,1.71.61,2.59.1.67.17,1.36.2,2.05v.12s-.82.12-.82.12c-.17.68-.65,1.21-1.24,1.35-.68.17-1.29-.19-1.6-.62-.52-.74-.45-2.22.59-3.3l2.2-2.51Zm.63,4.73c-.03-.64-.09-1.27-.19-1.9-.12-.79-.3-1.58-.54-2.35l-1.93,2.21c-.95.99-1.03,2.31-.57,2.97.25.35.78.67,1.35.52.52-.13.95-.62,1.08-1.25l.02-.09.77-.11Z"/>
      </g>
      <g>
        <path class="cls-2" d="m50.09,74.99c.02-.61.08-1.29.2-2.03.15-.99.38-1.86.6-2.57l2.07,2.36c.95,1,1.1,2.4.58,3.13-.3.43-.88.72-1.47.57-.57-.14-1.03-.66-1.17-1.34-.27-.04-.53-.08-.8-.12Z"/>
        <path class="cls-2" d="m50.84,70.15l2.2,2.52c1.03,1.08,1.11,2.55.59,3.3-.3.43-.91.79-1.6.62-.59-.15-1.07-.67-1.24-1.35l-.83-.12v-.12c.03-.69.1-1.38.2-2.05.14-.87.34-1.75.61-2.59l.06-.2Zm1.54,6.22c.46,0,.86-.27,1.06-.56.46-.66.38-1.98-.57-2.97l-1.93-2.21c-.23.77-.41,1.56-.54,2.35-.1.62-.16,1.26-.19,1.9l.77.11.02.09c.13.63.56,1.12,1.08,1.25.1.02.19.04.29.04Z"/>
      </g>
    </g>
  </g>
</svg>