<?xml version="1.0" encoding="UTF-8"?>
<svg id="Layer_1"  width="60" height="90"  data-name="Layer 1" xmlns="http://www.w3.org/2000/svg" xmlns:xlink="http://www.w3.org/1999/xlink" viewBox="0 0 60 90">
  <defs>
    <style>
      .cls-1 {
        fill: url(#linear-gradient);
      }

      .cls-1, .cls-2 {
        stroke-width: 0px;
      }

      .cls-2 {
        fill: #ed1c24;
      }

      .cls-3 {
        fill: url(#linear-gradient-2);
        stroke: #d2d3d4;
        stroke-miterlimit: 10;
        stroke-width: .25px;
      }
    </style>
    <linearGradient id="linear-gradient" x1="0" y1="56.28" x2="60" y2="56.28" gradientTransform="translate(0 101.28) scale(1 -1)" gradientUnits="userSpaceOnUse">
      <stop offset="0" stop-color="#e6e7e7"/>
      <stop offset="1" stop-color="#f2f2f2"/>
    </linearGradient>
    <linearGradient id="linear-gradient-2" x1="2.44" y1="56" x2="57.77" y2="56" gradientTransform="translate(0 101.28) scale(1 -1)" gradientUnits="userSpaceOnUse">
      <stop offset="0" stop-color="#fff"/>
      <stop offset="1" stop-color="#e6e7e7"/>
    </linearGradient>
  </defs>
  <path class="cls-1" d="m54.95,90H5.05c-2.78,0-5.05-2.27-5.05-5.05V5.05C0,2.27,2.27,0,5.05,0h49.9c2.78,0,5.05,2.27,5.05,5.05v79.9c0,2.78-2.27,5.05-5.05,5.05Z"/>
  <path class="cls-3" d="m52.69,87.62H7.52c-2.79,0-5.08-2.29-5.08-5.08V8.03c0-2.79,2.29-5.08,5.08-5.08h45.17c2.79,0,5.08,2.29,5.08,5.08v74.51c0,2.79-2.29,5.08-5.08,5.08Z"/>
  <g>
    <path class="cls-2" d="m11.25,12.6c-.41.04-.73-.09-.92-.33-.27-.31-.33-.82-.08-1.36-.18-.02-.26-.09-.27-.19-.03-.15.1-.37.3-.61-.2-.03-.28-.14-.27-.29-.2.24-.43.42-.67.42-.22,0-.54-.14-.77-.28.02.77.08,1.56-.19,2.07-.2.38-.58.63-1.07.57-.71-.09-.82-.96-.57-1.79.02-.05.04-.09.06-.08.03.01.04.04.03.1-.08.47.09.84.47.82.6-.02.78-.8.86-1.82-.15,0-.28.05-.37.13-.08.06-.13.08-.15.05-.02-.02.01-.07.05-.13.16-.24.35-.46.52-.6,0-1.08.43-2.38,1.22-2.98.45-.38,1.25-.47,1.63-.18-.27.24-.39.45-.38.59.01.12.09.15.34.11.05-.01.08-.01.09.01,0,.02-.01.05-.05.09-.23.24-.38.45-.36.59.02.09.09.14.29.09.04-.01.06,0,.07.01.01.03,0,.05-.04.08-.21.16-.34.42-.31.59.02.07.08.14.23.12.06-.01.1-.01.11.02.01.03-.01.05-.07.09-.24.17-.29.39-.28.51.01.08.08.16.25.14.05-.01.09-.01.1.02.01.03-.02.05-.07.1-.19.16-.29.39-.29.52,0,.12.09.21.31.17.05-.01.07,0,.08.02s-.01.05-.05.09c-.29.25-.43.65-.41.94.02.43.29.7.67.65.48-.04.66-.48.66-1,0-.08.01-.13.05-.14.03-.01.05.04.07.12.21,1.01-.06,1.88-.82,1.95Zm-.98-3.29c-.16-.03-.23-.09-.25-.18-.03-.14.07-.34.24-.54-.16-.01-.24-.07-.25-.17-.03-.15.09-.38.27-.61-.16,0-.24-.09-.25-.21-.02-.14.05-.32.15-.44-.93-.17-1.5.99-1.6,1.99.34.02.79.34,1.07.39.31.04.44-.06.62-.23Z"/>
    <polygon class="cls-2" points="12.42 17.82 9.38 21.77 6.34 17.82 9.38 13.86 12.42 17.82"/>
  </g>
  <polygon class="cls-2" points="41.74 45.15 30.19 60.26 18.26 44.85 29.81 29.74 41.74 45.15"/>
  <g>
    <path class="cls-2" d="m48.96,77.97c.41-.04.73.09.92.33.27.31.33.82.08,1.36.18.02.26.09.27.19.03.15-.1.37-.3.61.2.03.28.14.27.29.2-.24.43-.42.67-.42.22,0,.54.14.77.28-.02-.77-.08-1.56.19-2.07.2-.38.58-.63,1.07-.57.71.09.82.96.57,1.79-.02.05-.04.09-.06.08-.03-.01-.04-.04-.03-.1.08-.47-.09-.84-.47-.82-.6.02-.78.8-.86,1.82.15,0,.28-.05.37-.13.08-.06.13-.08.15-.05.02.02-.01.07-.05.13-.16.24-.35.46-.52.6,0,1.08-.43,2.38-1.22,2.98-.45.38-1.25.47-1.63.18.27-.24.39-.45.38-.59-.01-.12-.09-.15-.34-.11-.05.01-.08.01-.09-.01,0-.02.01-.05.05-.09.23-.24.38-.45.36-.59-.02-.09-.09-.14-.29-.09-.04.01-.06,0-.07-.01-.01-.03,0-.05.04-.08.21-.16.34-.42.31-.59-.02-.07-.08-.14-.23-.12-.06.01-.1.01-.11-.02-.01-.03.01-.05.07-.09.24-.17.29-.39.28-.51-.01-.08-.08-.16-.25-.14-.05.01-.09.01-.1-.02-.01-.03.02-.05.07-.1.19-.16.29-.39.29-.52s-.09-.21-.31-.17c-.05.01-.07,0-.08-.02s.01-.05.05-.09c.29-.25.43-.65.41-.94-.02-.43-.29-.7-.67-.65-.48.04-.66.48-.66,1,0,.08-.01.13-.05.14-.03.01-.05-.04-.07-.12-.21-1.01.06-1.88.82-1.95Zm.98,3.29c.16.03.23.09.25.18.03.14-.07.34-.24.54.16.01.24.07.25.17.03.15-.09.38-.27.61.16,0,.24.09.25.21.02.14-.05.32-.15.44.93.17,1.5-.99,1.6-1.99-.34-.02-.79-.34-1.07-.39-.31-.04-.44.06-.62.23Z"/>
    <polygon class="cls-2" points="47.79 72.75 50.83 68.8 53.87 72.75 50.83 76.71 47.79 72.75"/>
  </g>
</svg>