<?xml version="1.0" encoding="UTF-8"?>
<svg id="Layer_1" data-name="Layer 1"  width="60" height="90"  xmlns="http://www.w3.org/2000/svg" xmlns:xlink="http://www.w3.org/1999/xlink" viewBox="0 0 60 90">
  <defs>
    <style>
      .cls-1 {
        fill: url(#linear-gradient);
      }

      .cls-1, .cls-2, .cls-3 {
        stroke-width: 0px;
      }

      .cls-4 {
        fill: url(#linear-gradient-2);
        stroke: #d3d4d4;
        stroke-miterlimit: 10;
        stroke-width: .25px;
      }

      .cls-2 {
        fill: #010101;
      }
    </style>
    <linearGradient id="linear-gradient" x1="0" y1="33.72" x2="60" y2="33.72" gradientTransform="translate(0 11.28)" gradientUnits="userSpaceOnUse">
      <stop offset="0" stop-color="#e6e7e7"/>
      <stop offset="1" stop-color="#f3f3f3"/>
    </linearGradient>
    <linearGradient id="linear-gradient-2" x1="2.44" y1="34.01" x2="57.77" y2="34.01" gradientTransform="translate(0 11.28)" gradientUnits="userSpaceOnUse">
      <stop offset="0" stop-color="#fff"/>
      <stop offset="1" stop-color="#e6e7e7"/>
    </linearGradient>
  </defs>
  <path class="cls-1" d="m54.95,90H5.05c-2.78,0-5.05-2.27-5.05-5.05V5.05C0,2.27,2.27,0,5.05,0h49.9c2.78,0,5.05,2.27,5.05,5.05v79.9c0,2.78-2.27,5.05-5.05,5.05Z"/>
  <path class="cls-4" d="m52.69,87.62H7.52c-2.79,0-5.08-2.29-5.08-5.08V8.03c0-2.79,2.29-5.08,5.08-5.08h45.17c2.79,0,5.08,2.29,5.08,5.08v74.51c0,2.79-2.29,5.08-5.08,5.08Z"/>
  <path class="cls-2" d="m11.25,12.6c-.41.04-.73-.09-.92-.33-.27-.31-.33-.82-.08-1.36-.18-.02-.26-.09-.27-.19-.03-.15.1-.37.3-.61-.2-.03-.28-.14-.27-.29-.2.24-.43.42-.67.42-.22,0-.54-.14-.77-.28.02.77.08,1.56-.19,2.07-.2.38-.58.63-1.07.57-.71-.09-.82-.96-.57-1.79.02-.05.04-.09.06-.08.03.01.04.04.03.1-.08.47.09.84.47.82.6-.02.78-.8.86-1.82-.15,0-.28.05-.37.13-.08.06-.13.08-.15.05-.02-.02.01-.07.05-.13.16-.24.35-.46.52-.6,0-1.08.43-2.38,1.22-2.98.45-.38,1.25-.47,1.63-.18-.27.24-.39.45-.38.59.01.12.09.15.34.11.05-.01.08-.01.09.01,0,.02-.01.05-.05.09-.23.24-.38.45-.36.59.02.09.09.14.29.09.04-.01.06,0,.07.01.01.03,0,.05-.04.08-.21.16-.34.42-.31.59.02.07.08.14.23.12.06-.01.1-.01.11.02.01.03-.01.05-.07.09-.24.17-.29.39-.28.51.01.08.08.16.25.14.05-.01.09-.01.1.02.01.03-.02.05-.07.1-.19.16-.29.39-.29.52,0,.12.09.21.31.17.05-.01.07,0,.08.02s-.01.05-.05.09c-.29.25-.43.65-.41.94.02.43.29.7.67.65.48-.04.66-.48.66-1,0-.08.01-.13.05-.14.03-.01.05.04.07.12.21,1.01-.06,1.88-.82,1.95Zm-.98-3.29c-.16-.03-.23-.09-.25-.18-.03-.14.07-.34.24-.54-.16-.01-.24-.07-.25-.17-.03-.15.09-.38.27-.61-.16,0-.24-.09-.25-.21-.02-.14.05-.32.15-.44-.93-.17-1.5.99-1.6,1.99.34.02.79.34,1.07.39.31.04.44-.06.62-.23Z"/>
  <path class="cls-2" d="m48.96,77.97c.41-.04.73.09.92.33.27.31.33.82.08,1.36.18.02.26.09.27.19.03.15-.1.37-.3.61.2.03.28.14.27.29.2-.24.43-.42.67-.42.22,0,.54.14.77.28-.02-.77-.08-1.56.19-2.07.2-.38.58-.63,1.07-.57.71.09.82.96.57,1.79-.02.05-.04.09-.06.08-.03-.01-.04-.04-.03-.1.08-.47-.09-.84-.47-.82-.6.02-.78.8-.86,1.82.15,0,.28-.05.37-.13.08-.06.13-.08.15-.05.02.02,0,.07-.05.13-.16.24-.35.46-.52.6,0,1.08-.43,2.38-1.22,2.98-.45.38-1.25.47-1.63.18.27-.24.39-.45.38-.59,0-.12-.09-.15-.34-.11-.05.01-.08.01-.09-.01,0-.02,0-.05.05-.09.23-.24.38-.45.36-.59-.02-.09-.09-.14-.29-.09-.04.01-.06,0-.07-.01,0-.03,0-.05.04-.08.21-.16.34-.42.31-.59-.02-.07-.08-.14-.23-.12-.06.01-.1.01-.11-.02,0-.03,0-.05.07-.09.24-.17.29-.39.28-.51,0-.08-.08-.16-.25-.14-.05.01-.09.01-.1-.02s.02-.05.07-.1c.19-.16.29-.39.29-.52s-.09-.21-.31-.17c-.05.01-.07,0-.08-.02s0-.05.05-.09c.29-.25.43-.65.41-.94-.02-.43-.29-.7-.67-.65-.48.04-.66.48-.66,1,0,.08,0,.13-.05.14-.03.01-.05-.04-.07-.12-.21-1.01.06-1.88.82-1.95h0Zm.98,3.29c.16.03.23.09.25.18.03.14-.07.34-.24.54.16.01.24.07.25.17.03.15-.09.38-.27.61.16,0,.24.09.25.21.02.14-.05.32-.15.44.93.17,1.5-.99,1.6-1.99-.34-.02-.79-.34-1.07-.39-.31-.04-.44.06-.62.23Z"/>
  <path class="cls-3" d="m30.76,50.59c-.18-.21-.36-.34-.6-.33.01.03.01.05.02.07.66,6.11,1.91,7.87,3.06,8.14.88.2,1.8-.45,3.38,0,1.08.3,1.88.95,2.39,1.46h-17.27c.42-.45,1.15-1.11,2.2-1.46,1.76-.59,2.86.22,3.85-.09,1.04-.35,2.16-2.01,2.34-8.1t0-.02c-.57.03-.65.83-1.66,1.79-1.16,1.48-2.98,2.43-5.01,2.43-3.52,0-6.38-2.85-6.38-6.37s2.86-6.38,6.38-6.38c.46,0,.91.05,1.35.15h0c.53-.02,1.01-.05,1.17-.36.2-.42-.41-.95-.77-1.58-.01,0-.01-.02-.01-.03-.84-1.07-1.33-2.41-1.33-3.87,0-3.52,2.85-6.37,6.37-6.37s6.37,2.85,6.37,6.37c0,1.38-.44,2.65-1.19,3.69,0,0-.01,0-.01.01s-.01,0-.01.02c-.34.64-1.06,1.2-.81,1.69.15.29.5.35.92.38h.01c.36-.07.73-.1,1.1-.1,3.52,0,6.37,2.85,6.37,6.38s-2.85,6.37-6.37,6.37c-2.65,0-4.91-1.6-5.88-3.89Z"/>
  <path class="cls-3" d="m9.58,19.34c-.05-.06-.1-.09-.17-.09,0,0,0,.01,0,.02.19,1.65.54,2.12.86,2.2.25.05.51-.12.95,0,.3.08.53.26.67.39h-4.85c.12-.12.32-.3.62-.39.49-.16.8.06,1.08-.02.29-.09.61-.54.66-2.18t0,0c-.16,0-.18.22-.47.48-.33.4-.84.66-1.41.66-.99,0-1.79-.77-1.79-1.72s.8-1.72,1.79-1.72c.13,0,.26.01.38.04h0c.15,0,.28-.01.33-.1.06-.11-.12-.26-.22-.43,0,0,0,0,0,0-.24-.29-.37-.65-.37-1.04,0-.95.8-1.72,1.79-1.72s1.79.77,1.79,1.72c0,.37-.12.71-.33,1,0,0,0,0,0,0s0,0,0,0c-.1.17-.3.32-.23.46.04.08.14.09.26.1h0c.1-.02.2-.03.31-.03.99,0,1.79.77,1.79,1.72s-.8,1.72-1.79,1.72c-.74,0-1.38-.43-1.65-1.05Z"/>
  <path class="cls-3" d="m50.63,71.26c.05.06.1.09.17.09,0,0,0-.01,0-.02-.19-1.65-.54-2.12-.86-2.2-.25-.05-.51.12-.95,0-.3-.08-.53-.26-.67-.39h4.85c-.12.12-.32.3-.62.39-.49.16-.8-.06-1.08.02-.29.09-.61.54-.66,2.18t0,0c.16,0,.18-.22.47-.48.33-.4.84-.66,1.41-.66.99,0,1.79.77,1.79,1.72s-.8,1.72-1.79,1.72c-.13,0-.26-.01-.38-.04h0c-.15,0-.28.01-.33.1-.06.11.12.26.22.43,0,0,0,0,0,0,.24.29.37.65.37,1.04,0,.95-.8,1.72-1.79,1.72s-1.79-.77-1.79-1.72c0-.37.12-.71.33-1,0,0,0,0,0,0s0,0,0,0c.1-.17.3-.32.23-.46-.04-.08-.14-.09-.26-.1h0c-.1.02-.2.03-.31.03-.99,0-1.79-.77-1.79-1.72s.8-1.72,1.79-1.72c.74,0,1.38.43,1.65,1.05Z"/>
</svg>