<?xml version="1.0" encoding="UTF-8"?>
<svg id="Layer_1" data-name="Layer 1" xmlns="http://www.w3.org/2000/svg" viewBox="0 0 1000 1000">
  <defs>
    <style>
      .cls-1 {
        fill: #d3a466;
      }

      .cls-1, .cls-2 {
        stroke-width: 0px;
      }

      .cls-2 {
        fill: #965508;
      }
    </style>
  </defs>
  <g>
    <g>
      <g>
        <g>
          <path class="cls-1" d="M495.34,570.88s-1.57,2.96-5.75,1.24c-4.18-1.72-9.34-9.71-19.1-9.6,0,0,7.03-1.14,13.82,4.03,7.24,5.52,7.62,6.43,11.04,4.33Z"/>
          <path class="cls-1" d="M499.9,568.38s3.66.4,4.63,3.22c.98,2.82-.63,6.54-5.95,6.93-5.16.38-10.2-2.56-12.68-4.33-1.55-1.1-10.66-8.54-18.58-7.92-7.92.62-8.75,7-8.12,9.87.63,2.87,3.32,7.41,10.22,6.74,6.9-.67,7.9-7.82,5.74-10.79-2.16-2.98-6.42-4.21-9.77-1.62,0,0-2.46,2.06-.41,4.71,0,0,1.24-2.64,3.47-2.03,2.24.61,1.9,2.99-.04,3.78-1.94.79-5.43-.29-5.57-3.73-.14-3.44,3.16-5.28,7.64-5.01,4.48.27,6.84,3.86,6.56,8.65-.28,4.79-5.92,7.66-11.65,7.41-5.73-.25-10.21-4.63-9.95-10.88.26-6.25,7.19-9.17,11.46-8.98,4.27.19,10.1.93,18.34,8,0,0,5.73,4.65,11.3,5.34,5.57.69,7.11-2.58,7.24-4.06.13-1.48-.88-4.41-3.89-5.28Z"/>
          <path class="cls-1" d="M474.3,566.51s-5.21-3.65-9.31-3.48c-4.69.19-6,1.83-6.53,2.92-.53,1.09-.95,1.54-1.51,1.23-.89-.48.72-2.63,3.45-3.79,2.65-1.12,8.22-2.41,19.14,4.81l-5.24-1.69Z"/>
        </g>
        <g>
          <path class="cls-1" d="M504.8,570.88s1.57,2.96,5.75,1.24c4.18-1.72,9.34-9.71,19.1-9.6,0,0-7.03-1.14-13.82,4.03-7.24,5.52-7.62,6.43-11.04,4.33Z"/>
          <path class="cls-1" d="M500.24,568.38s-3.65.4-4.63,3.22c-.98,2.82.63,6.54,5.95,6.93,5.16.38,10.2-2.56,12.68-4.33,1.55-1.1,10.66-8.54,18.58-7.92,7.92.62,8.75,7,8.12,9.87-.63,2.87-3.32,7.41-10.23,6.74-6.9-.67-7.9-7.82-5.74-10.79,2.16-2.98,6.42-4.21,9.77-1.62,0,0,2.46,2.06.41,4.71,0,0-1.24-2.64-3.47-2.03-2.24.61-1.9,2.99.04,3.78,1.94.79,5.43-.29,5.57-3.73.14-3.44-3.16-5.28-7.64-5.01-4.48.27-6.83,3.86-6.56,8.65.27,4.79,5.92,7.66,11.65,7.41,5.73-.25,10.21-4.63,9.95-10.88-.26-6.25-7.19-9.17-11.46-8.98s-10.1.93-18.34,8c0,0-5.73,4.65-11.3,5.34-5.57.69-7.11-2.58-7.24-4.06-.13-1.48.87-4.41,3.89-5.28Z"/>
          <path class="cls-1" d="M525.84,566.51s5.21-3.65,9.31-3.48c4.69.19,6,1.83,6.54,2.92.53,1.09.95,1.54,1.51,1.23.89-.48-.72-2.63-3.45-3.79-2.65-1.12-8.22-2.41-19.14,4.81l5.24-1.69Z"/>
        </g>
      </g>
      <path class="cls-1" d="M458.88,567.86s2.5.7,2.84,2.78c.34,2.08-1.23,4.49-4.98,4.15-3.65-.33-6.81-2.95-8.33-4.47-.95-.94-6.41-7.18-12.01-7.65-5.6-.48-6.95,3.88-6.86,5.96.09,2.07,1.42,5.55,6.32,5.87,4.9.32,6.45-4.55,5.31-6.88-1.15-2.32-3.97-3.67-6.62-2.25,0,0-1.96,1.16-.86,3.24,0,0,1.18-1.7,2.67-1.02,1.49.68.97,2.31-.48,2.63-1.45.33-3.76-.82-3.44-3.24.32-2.42,2.84-3.32,5.93-2.62,3.09.7,4.3,3.47,3.54,6.78-.77,3.31-5.06,4.67-9.02,3.84-3.96-.83-6.57-4.4-5.63-8.73.94-4.33,6.12-5.58,9.08-4.96s6.94,1.8,11.83,7.67c0,0,3.43,3.9,7.24,5.02,3.8,1.12,5.27-.99,5.54-2.01.27-1.02-.08-3.18-2.08-4.13Z"/>
      <path class="cls-1" d="M541.15,567.86s-2.5.7-2.84,2.78c-.34,2.08,1.23,4.49,4.99,4.15,3.65-.33,6.81-2.95,8.33-4.47.95-.94,6.41-7.18,12.01-7.65,5.6-.48,6.95,3.88,6.85,5.96-.09,2.07-1.42,5.55-6.32,5.87-4.9.32-6.45-4.55-5.31-6.88,1.15-2.32,3.97-3.67,6.62-2.25,0,0,1.96,1.16.86,3.24,0,0-1.18-1.7-2.67-1.02-1.49.68-.97,2.31.48,2.63,1.45.33,3.75-.82,3.44-3.24-.32-2.42-2.84-3.32-5.93-2.62-3.09.7-4.3,3.47-3.53,6.78.77,3.31,5.06,4.67,9.02,3.84,3.96-.83,6.57-4.4,5.63-8.73-.94-4.33-6.12-5.58-9.08-4.96s-6.94,1.8-11.83,7.67c0,0-3.43,3.9-7.24,5.02-3.8,1.12-5.27-.99-5.54-2.01-.27-1.02.08-3.18,2.08-4.13Z"/>
      <g>
        <path class="cls-1" d="M442.68,572.9s.45.7,1.88-.21c0,0,.76-.44,2.23,1.04,0,0,1.8.85,3.65-.18,0,0-6.22,3.64-7.76-.64Z"/>
        <path class="cls-1" d="M456.07,582.2s-.8-.28-.19-1.83c0,0,.28-.82-1.52-1.9,0,0-1.24-1.53-.6-3.51,0,0-2.33,6.69,2.3,7.24Z"/>
        <path class="cls-1" d="M452.53,574.37s-3.71.29-4.25,3.17c-.24,1.28.24,2.6,1.43,3.29.85.49,1.86.36,1.8-.79-.06-1.13-1.3-1.73-1.05-2.92.24-1.15,1.16-2.04,2.07-2.75Z"/>
      </g>
      <g>
        <path class="cls-1" d="M496.3,568.56s-.45-.7-1.88.21c0,0-.76.44-2.23-1.04,0,0-1.8-.85-3.65.18,0,0,6.22-3.64,7.76.64Z"/>
        <path class="cls-1" d="M482.91,559.26s.8.28.19,1.83c0,0-.28.82,1.52,1.9,0,0,1.23,1.53.6,3.51,0,0,2.33-6.69-2.3-7.24Z"/>
        <path class="cls-1" d="M486.45,567.08s3.71-.29,4.25-3.17c.24-1.28-.24-2.6-1.43-3.29-.85-.49-1.86-.36-1.8.79.06,1.13,1.3,1.73,1.05,2.92-.24,1.15-1.16,2.04-2.07,2.75Z"/>
      </g>
      <g>
        <path class="cls-1" d="M502.79,568.56s.45-.7,1.88.21c0,0,.76.44,2.23-1.04,0,0,1.8-.85,3.65.18,0,0-6.22-3.64-7.76.64Z"/>
        <path class="cls-1" d="M516.18,559.26s-.8.28-.19,1.83c0,0,.28.82-1.52,1.9,0,0-1.24,1.53-.6,3.51,0,0-2.33-6.69,2.3-7.24Z"/>
        <path class="cls-1" d="M512.64,567.08s-3.71-.29-4.25-3.17c-.24-1.28.24-2.6,1.43-3.29.85-.49,1.86-.36,1.8.79-.06,1.13-1.3,1.73-1.05,2.92.24,1.15,1.16,2.04,2.07,2.75Z"/>
      </g>
      <g>
        <path class="cls-1" d="M558.15,572.9s-.45.7-1.88-.21c0,0-.76-.44-2.23,1.04,0,0-1.8.85-3.65-.18,0,0,6.22,3.64,7.76-.64Z"/>
        <path class="cls-1" d="M544.76,582.2s.8-.28.19-1.83c0,0-.28-.82,1.52-1.9,0,0,1.23-1.53.59-3.51,0,0,2.33,6.69-2.3,7.24Z"/>
        <path class="cls-1" d="M548.3,574.37s3.71.29,4.25,3.17c.24,1.28-.24,2.6-1.43,3.29-.85.49-1.86.36-1.8-.79.06-1.13,1.3-1.73,1.05-2.92-.24-1.15-1.16-2.04-2.07-2.75Z"/>
      </g>
      <path class="cls-1" d="M545.04,560.62s.62.35-.13,1.54c0,0-.36.63.95,1.78,0,0,.78,1.44-.05,2.97,0,0,2.94-5.16-.77-6.28Z"/>
      <path class="cls-1" d="M545.89,568.13s.75-2.94,3.26-2.98c1.12-.02,2.17.55,2.59,1.59.3.75.05,1.54-.91,1.34-.95-.2-1.29-1.27-2.33-1.24-1,.04-1.88.65-2.61,1.29Z"/>
      <path class="cls-1" d="M455.85,560.62s-.62.35.13,1.54c0,0,.36.63-.95,1.78,0,0-.78,1.44.05,2.97,0,0-2.94-5.16.77-6.28Z"/>
      <path class="cls-1" d="M455,568.13s-.75-2.94-3.26-2.98c-1.12-.02-2.17.55-2.59,1.59-.3.75-.05,1.54.91,1.34.95-.2,1.29-1.27,2.33-1.24,1,.04,1.88.65,2.61,1.29Z"/>
    </g>
    <g>
      <g>
        <g>
          <path class="cls-1" d="M504.69,428.11s1.57-2.96,5.75-1.24,9.34,9.71,19.1,9.6c0,0-7.03,1.14-13.82-4.03-7.24-5.52-7.62-6.43-11.04-4.33Z"/>
          <path class="cls-1" d="M500.13,430.61s-3.66-.4-4.63-3.22c-.98-2.82.63-6.54,5.95-6.93,5.16-.38,10.2,2.56,12.68,4.33,1.55,1.1,10.66,8.54,18.58,7.92,7.92-.62,8.75-7,8.12-9.87-.63-2.87-3.32-7.41-10.22-6.74-6.9.67-7.9,7.82-5.74,10.79,2.16,2.98,6.42,4.21,9.77,1.62,0,0,2.46-2.06.41-4.71,0,0-1.24,2.64-3.47,2.03-2.24-.61-1.9-2.99.04-3.78,1.94-.79,5.43.29,5.57,3.73.14,3.44-3.16,5.28-7.64,5.01-4.48-.27-6.84-3.86-6.56-8.65.28-4.79,5.92-7.66,11.65-7.41,5.73.25,10.21,4.63,9.95,10.88-.26,6.25-7.19,9.17-11.46,8.98-4.27-.19-10.1-.93-18.34-8,0,0-5.73-4.65-11.3-5.34-5.57-.69-7.11,2.58-7.24,4.06-.13,1.48.88,4.41,3.89,5.28Z"/>
          <path class="cls-1" d="M525.73,432.48s5.21,3.65,9.31,3.48c4.69-.19,6-1.83,6.53-2.92.53-1.09.95-1.54,1.51-1.23.89.48-.72,2.63-3.45,3.79-2.65,1.12-8.22,2.41-19.14-4.81l5.24,1.69Z"/>
        </g>
        <g>
          <path class="cls-1" d="M495.23,428.11s-1.57-2.96-5.75-1.24c-4.18,1.72-9.34,9.71-19.1,9.6,0,0,7.03,1.14,13.82-4.03,7.24-5.52,7.62-6.43,11.04-4.33Z"/>
          <path class="cls-1" d="M499.79,430.61s3.65-.4,4.63-3.22c.98-2.82-.63-6.54-5.95-6.93-5.16-.38-10.2,2.56-12.68,4.33-1.55,1.1-10.66,8.54-18.58,7.92-7.92-.62-8.75-7-8.12-9.87.63-2.87,3.32-7.41,10.23-6.74,6.9.67,7.9,7.82,5.74,10.79-2.16,2.98-6.42,4.21-9.77,1.62,0,0-2.46-2.06-.41-4.71,0,0,1.24,2.64,3.47,2.03,2.24-.61,1.9-2.99-.04-3.78-1.94-.79-5.43.29-5.57,3.73s3.16,5.28,7.64,5.01c4.48-.27,6.83-3.86,6.56-8.65-.27-4.79-5.92-7.66-11.65-7.41-5.73.25-10.21,4.63-9.95,10.88.26,6.25,7.19,9.17,11.46,8.98s10.1-.93,18.34-8c0,0,5.73-4.65,11.3-5.34,5.57-.69,7.11,2.58,7.24,4.06.13,1.48-.87,4.41-3.89,5.28Z"/>
          <path class="cls-1" d="M474.19,432.48s-5.21,3.65-9.31,3.48c-4.69-.19-6-1.83-6.54-2.92-.53-1.09-.95-1.54-1.51-1.23-.89.48.72,2.63,3.45,3.79,2.65,1.12,8.22,2.41,19.14-4.81l-5.24,1.69Z"/>
        </g>
      </g>
      <path class="cls-1" d="M541.15,431.13s-2.5-.7-2.84-2.78c-.34-2.08,1.23-4.49,4.98-4.15,3.65.33,6.81,2.95,8.33,4.47.95.94,6.41,7.18,12.01,7.65,5.6.48,6.95-3.88,6.86-5.96-.09-2.07-1.42-5.55-6.32-5.87-4.9-.32-6.45,4.55-5.31,6.88,1.15,2.32,3.97,3.67,6.62,2.25,0,0,1.96-1.16.86-3.24,0,0-1.18,1.7-2.67,1.02-1.49-.68-.97-2.31.48-2.63,1.45-.33,3.76.82,3.44,3.24-.32,2.42-2.84,3.32-5.93,2.62-3.09-.7-4.3-3.47-3.54-6.78.77-3.31,5.06-4.66,9.02-3.84,3.96.83,6.57,4.4,5.63,8.73-.94,4.33-6.12,5.58-9.08,4.96s-6.94-1.8-11.83-7.67c0,0-3.43-3.9-7.24-5.02-3.8-1.12-5.27.99-5.54,2.01-.27,1.02.08,3.18,2.08,4.13Z"/>
      <path class="cls-1" d="M458.88,431.13s2.5-.7,2.84-2.78c.34-2.08-1.23-4.49-4.99-4.15-3.65.33-6.81,2.95-8.33,4.47-.95.94-6.41,7.18-12.01,7.65-5.6.48-6.95-3.88-6.85-5.96.09-2.07,1.42-5.55,6.32-5.87,4.9-.32,6.45,4.55,5.31,6.88-1.15,2.32-3.97,3.67-6.62,2.25,0,0-1.96-1.16-.86-3.24,0,0,1.18,1.7,2.67,1.02,1.49-.68.97-2.31-.48-2.63-1.45-.33-3.75.82-3.44,3.24.32,2.42,2.84,3.32,5.93,2.62,3.09-.7,4.3-3.47,3.53-6.78-.77-3.31-5.06-4.66-9.02-3.84-3.96.83-6.57,4.4-5.63,8.73.94,4.33,6.12,5.58,9.08,4.96s6.94-1.8,11.83-7.67c0,0,3.43-3.9,7.24-5.02,3.8-1.12,5.27.99,5.54,2.01.27,1.02-.08,3.18-2.08,4.13Z"/>
      <g>
        <path class="cls-1" d="M557.35,426.09s-.45-.7-1.88.21c0,0-.76.44-2.23-1.04,0,0-1.8-.85-3.65.18,0,0,6.22-3.64,7.76.64Z"/>
        <path class="cls-1" d="M543.96,416.8s.8.28.19,1.83c0,0-.28.82,1.52,1.9,0,0,1.24,1.53.6,3.51,0,0,2.33-6.69-2.3-7.24Z"/>
        <path class="cls-1" d="M547.5,424.62s3.71-.29,4.25-3.17c.24-1.28-.24-2.6-1.43-3.29-.85-.49-1.86-.36-1.8.79.06,1.13,1.3,1.73,1.05,2.92-.24,1.15-1.16,2.04-2.07,2.75Z"/>
      </g>
      <g>
        <path class="cls-1" d="M503.72,430.43s.45.7,1.88-.21c0,0,.76-.44,2.23,1.04,0,0,1.8.85,3.65-.18,0,0-6.22,3.64-7.76-.64Z"/>
        <path class="cls-1" d="M517.11,439.73s-.8-.28-.19-1.84c0,0,.28-.82-1.52-1.9,0,0-1.23-1.53-.6-3.51,0,0-2.33,6.69,2.3,7.24Z"/>
        <path class="cls-1" d="M513.57,431.91s-3.71.29-4.25,3.17c-.24,1.28.24,2.6,1.43,3.29.85.49,1.86.36,1.8-.79-.06-1.13-1.3-1.73-1.05-2.92.24-1.15,1.16-2.04,2.07-2.75Z"/>
      </g>
      <g>
        <path class="cls-1" d="M497.24,430.43s-.45.7-1.88-.21c0,0-.76-.44-2.23,1.04,0,0-1.8.85-3.65-.18,0,0,6.22,3.64,7.76-.64Z"/>
        <path class="cls-1" d="M483.85,439.73s.8-.28.19-1.84c0,0-.28-.82,1.52-1.9,0,0,1.24-1.53.6-3.51,0,0,2.33,6.69-2.3,7.24Z"/>
        <path class="cls-1" d="M487.39,431.91s3.71.29,4.25,3.17c.24,1.28-.24,2.6-1.43,3.29-.85.49-1.86.36-1.8-.79.06-1.13,1.3-1.73,1.05-2.92-.24-1.15-1.16-2.04-2.07-2.75Z"/>
      </g>
      <g>
        <path class="cls-1" d="M441.87,426.09s.45-.7,1.88.21c0,0,.76.44,2.23-1.04,0,0,1.8-.85,3.65.18,0,0-6.22-3.64-7.76.64Z"/>
        <path class="cls-1" d="M455.26,416.8s-.8.28-.19,1.83c0,0,.28.82-1.52,1.9,0,0-1.23,1.53-.59,3.51,0,0-2.33-6.69,2.3-7.24Z"/>
        <path class="cls-1" d="M451.72,424.62s-3.71-.29-4.25-3.17c-.24-1.28.24-2.6,1.43-3.29.85-.49,1.86-.36,1.8.79-.06,1.13-1.3,1.73-1.05,2.92.24,1.15,1.16,2.04,2.07,2.75Z"/>
      </g>
      <path class="cls-1" d="M454.99,438.37s-.62-.35.13-1.54c0,0,.36-.63-.95-1.78,0,0-.78-1.44.05-2.97,0,0-2.94,5.16.77,6.28Z"/>
      <path class="cls-1" d="M454.14,430.87s-.75,2.94-3.26,2.98c-1.12.02-2.17-.55-2.59-1.59-.3-.75-.05-1.54.91-1.34.95.2,1.29,1.27,2.33,1.24,1-.04,1.88-.65,2.61-1.29Z"/>
      <path class="cls-1" d="M544.18,438.37s.62-.35-.13-1.54c0,0-.36-.63.95-1.78,0,0,.78-1.44-.05-2.97,0,0,2.94,5.16-.77,6.28Z"/>
      <path class="cls-1" d="M545.03,430.87s.75,2.94,3.26,2.98c1.12.02,2.17-.55,2.59-1.59.3-.75.05-1.54-.91-1.34-.95.2-1.29,1.27-2.33,1.24-1-.04-1.88-.65-2.61-1.29Z"/>
    </g>
    <g>
      <path class="cls-1" d="M499.57,609.82c-34.13,0-66.46-10.94-91.06-30.82h-34.81v-.84c0-12.56-10.22-22.78-22.78-22.78h-.83v-110.55h.83c12.56,0,22.78-10.22,22.78-22.78v-.84h33.56c24.74-20.52,57.51-31.82,92.31-31.82s67.57,11.3,92.31,31.82h33.56v.84c0,12.56,10.22,22.78,22.78,22.78h.84v110.55h-.84c-12.56,0-22.78,10.22-22.78,22.78v.84h-34.81c-24.61,19.88-56.93,30.82-91.06,30.82ZM375.36,577.32h33.75l.23.19c24.34,19.75,56.39,30.64,90.24,30.64s65.9-10.88,90.24-30.64l.23-.19h33.75c.43-12.82,10.78-23.17,23.6-23.6v-107.24c-12.82-.43-23.17-10.78-23.6-23.6h-32.51l-.23-.19c-24.47-20.4-56.96-31.62-91.48-31.62s-67,11.23-91.48,31.62l-.23.19h-32.51c-.43,12.82-10.78,23.17-23.6,23.6v107.24c12.82.43,23.17,10.78,23.6,23.6Z"/>
      <path class="cls-1" d="M499.57,403.59c31.59,0,61.23,10.2,83.46,28.72l1.86,1.55,1.86,1.55h27c3.76,9.65,11.47,17.36,21.11,21.12v87.15c-9.64,3.76-17.36,11.47-21.11,21.12h-28.15l-1.84,1.49-1.84,1.5c-22.11,17.95-51.36,27.83-82.34,27.83s-60.23-9.89-82.34-27.83l-1.84-1.5-1.84-1.49h-28.15c-3.76-9.65-11.47-17.36-21.11-21.12v-87.15c9.65-3.76,17.36-11.47,21.11-21.12h27l1.86-1.55,1.86-1.55c22.23-18.52,51.86-28.72,83.46-28.72h0ZM499.57,396.91c-33.15,0-64.31,10.75-87.73,30.27l-1.86,1.55h-29.51c-2.56,11.35-11.52,20.31-22.87,22.87v97c11.35,2.56,20.31,11.52,22.87,22.88h30.7l1.84,1.49c23.3,18.91,54.04,29.33,86.55,29.33s63.25-10.42,86.55-29.33l1.84-1.49h30.71c2.56-11.35,11.52-20.31,22.87-22.88v-97c-11.35-2.56-20.31-11.52-22.87-22.87h-29.51l-1.86-1.55c-23.42-19.52-54.58-30.27-87.73-30.27h0Z"/>
    </g>
    <g>
      <rect class="cls-1" x="413.31" y="446.71" width="173.77" height="1.13"/>
      <g>
        <g>
          <path class="cls-1" d="M410.34,446.22c.58,0,1.05.47,1.05,1.05s-.47,1.05-1.05,1.05-1.05-.47-1.05-1.05.47-1.05,1.05-1.05Z"/>
          <path class="cls-1" d="M403.81,446.22c.58,0,1.05.47,1.05,1.06s-.47,1.05-1.05,1.05-1.05-.47-1.05-1.05.47-1.06,1.05-1.06Z"/>
          <polygon class="cls-1" points="399.18 444.79 393.38 447.27 399.19 449.75 401.66 447.26 399.18 444.79"/>
        </g>
        <g>
          <path class="cls-1" d="M590.03,446.22c-.58,0-1.05.47-1.05,1.05s.47,1.05,1.05,1.05,1.05-.47,1.05-1.05-.47-1.05-1.05-1.05Z"/>
          <path class="cls-1" d="M596.57,446.22c-.58,0-1.05.47-1.05,1.06s.47,1.05,1.05,1.05,1.05-.47,1.05-1.05-.47-1.06-1.05-1.06Z"/>
          <polygon class="cls-1" points="601.2 444.79 606.99 447.27 601.19 449.75 598.72 447.26 601.2 444.79"/>
        </g>
      </g>
    </g>
    <g>
      <rect class="cls-1" x="413.95" y="553.4" width="172.47" height="1.12"/>
      <g>
        <g>
          <path class="cls-1" d="M411.01,552.91c.58,0,1.05.47,1.05,1.05s-.46,1.05-1.05,1.05-1.04-.47-1.04-1.05.47-1.05,1.04-1.05Z"/>
          <path class="cls-1" d="M404.53,552.91c.58,0,1.04.47,1.04,1.05s-.47,1.05-1.04,1.05-1.04-.47-1.04-1.05.47-1.05,1.04-1.05Z"/>
          <polygon class="cls-1" points="399.93 551.5 394.18 553.96 399.94 556.42 402.39 553.96 399.93 551.5"/>
        </g>
        <g>
          <path class="cls-1" d="M589.36,552.91c-.58,0-1.05.47-1.05,1.05s.47,1.04,1.05,1.04,1.04-.47,1.04-1.04-.47-1.05-1.04-1.05Z"/>
          <path class="cls-1" d="M595.85,552.91c-.58,0-1.05.47-1.05,1.05s.47,1.05,1.05,1.05,1.04-.47,1.04-1.05-.47-1.05-1.04-1.05Z"/>
          <polygon class="cls-1" points="600.45 551.5 606.19 553.96 600.43 556.42 597.98 553.96 600.45 551.5"/>
        </g>
      </g>
    </g>
  </g>
  <g>
    <path class="cls-2" d="M395.46,493.87c0-1.33-.07-5.72-.11-6.3-.11-2.09-.68-2.16-1.87-2.16h-1.15c-.25,0-.25-.04-.25-.32v-.83c0-.22.04-.32.29-.32.47,0,2.2.11,5.62.11,1.15,0,3.31-.11,5.76-.11,2.59,0,4.9.25,6.16.97,2.05,1.12,2.77,2.77,2.77,4.9,0,2.38-1.44,4.68-5.26,5.94v.07c4.46,1.15,6.8,3.31,6.8,7.13,0,1.94-1.08,4.61-2.81,5.47-1.48.76-4,1.33-8.46,1.33-.32,0-1.26-.07-2.27-.11-1.04-.07-2.16-.11-2.84-.11-1.8,0-2.99.04-3.78.04-.76.04-1.15.07-1.4.07-.36,0-.4-.11-.4-.4v-.79c0-.22.04-.29.36-.29h1.26c1.08,0,1.26-.43,1.4-1.51.11-.83.18-5.58.18-8.53v-4.25ZM400.72,495.35c1.48.14,3.78-.07,4.82-1.01,1.19-1.04,1.73-2.66,1.73-4.25,0-1.37-.43-2.81-1.48-3.64-1.22-.97-2.99-1.3-3.38-1.3-.76,0-1.55.04-1.58.61-.07.72-.11,3.85-.11,6.84v2.74ZM400.72,503.7c0,3.42.79,4.82,2.7,4.82,2.56,0,4.97-1.26,4.97-5.76,0-2.92-1.3-4.82-3.24-5.58-1.8-.68-3.53-.61-4.43-.61v7.13Z"/>
    <path class="cls-2" d="M425.56,498.27c0,.61,0,8.39.11,9.83h2.05c1.69,0,3.31,0,5.26-.18s4.39-4.5,4.93-5.83c.11-.22.22-.32.43-.22l.72.29c.11.07.11.11.07.32-.11.25-1.55,6.19-1.76,7.16-.94-.07-11.3-.11-14.61-.11-3.56,0-4.86.11-5.33.11-.25,0-.29-.07-.29-.32v-.9c0-.18.04-.25.25-.25h1.12c1.33,0,1.55-.5,1.55-.9,0-.68.11-9.65.11-11.84v-2.02c0-2.3-.07-6.12-.11-6.7-.07-.94-.25-1.3-1.08-1.3h-1.33c-.22,0-.25-.18-.25-.36v-.86c0-.18.04-.25.25-.25.4,0,1.69.11,4.97.11,4.21,0,5.72-.11,6.05-.11.29,0,.32.11.32.36v.83c0,.18-.07.29-.36.29h-1.69c-1.12,0-1.26.36-1.26,1.33,0,.47-.11,5.9-.11,8.42v3.1Z"/>
    <path class="cls-2" d="M446.33,499.67c-.29.76-2.05,5.69-2.05,6.84,0,.79.32,1.66,1.4,1.66h1.26c.36,0,.4.14.4.29v.79c0,.29-.04.4-.32.4-.47,0-1.94-.11-4.9-.11-2.63,0-3.42.11-3.92.11-.22,0-.25-.22-.25-.47v-.68c0-.22.04-.32.25-.32h.94c.86,0,1.73-.5,2.45-1.58.5-.76,3.06-7.02,4.25-10.19.29-.72,3.2-8.46,3.53-9.43.11-.36.29-.83.04-1.22-.11-.14-.25-.32-.25-.47,0-.11.07-.25.36-.32,1.15-.25,3.49-1.19,4.03-1.8.18-.18.29-.32.47-.32.22,0,.29.22.4.61.68,2.27,3.49,10.33,4.18,12.63.83,2.81,3.17,9.5,3.67,10.48.61,1.19,1.55,1.62,2.09,1.62h1.22c.22,0,.25.14.25.32v.68c0,.22-.04.47-.32.47-.68,0-1.44-.11-6.05-.11-2.99,0-4.25.11-4.97.11-.36,0-.4-.22-.4-.47v-.68c0-.18.04-.32.22-.32h1.01c.97,0,1.3-.36,1.08-1.29-.32-1.3-1.73-5.9-2.16-7.2h-7.88ZM453.89,498.23l-2.7-9.54c-.14-.54-.22-.79-.4-.79-.22,0-.32.14-.43.47-.18.47-3.28,8.96-3.56,9.86h7.09Z"/>
    <path class="cls-2" d="M469.66,506.76c-2.66-2.38-3.92-6.52-3.92-9.61,0-3.71,1.19-7.06,3.71-9.75,2.05-2.2,5.04-3.89,9.5-3.89,3.28,0,5.98.83,7.24,1.51.5.25.68.22.76-.04l.29-.9c.07-.22.14-.22.68-.22s.61.07.61.58c0,.68.65,6.8.83,7.88.04.25,0,.43-.18.47l-.79.22c-.18.07-.32-.07-.43-.4-.4-1.44-1.37-3.28-2.88-4.82-1.55-1.51-3.46-2.7-6.19-2.7-5.26,0-7.49,4.79-7.45,10.11,0,2.27.65,6.7,3.2,9.4,2.34,2.41,4.39,2.7,5.62,2.7,4.1,0,7.16-1.87,8.5-3.85.18-.29.36-.43.54-.29l.61.54c.11.07.14.22,0,.43-2.09,3.02-5.58,5.94-10.65,5.94-4.79,0-7.31-1.3-9.57-3.31Z"/>
    <path class="cls-2" d="M500.62,495.71h.61c.29,0,.68-.18,1.01-.47.65-.5,6.48-7.88,6.95-8.5.65-.86,0-1.4-.72-1.4h-.61c-.14,0-.18-.07-.18-.25v-.9c0-.18.07-.25.22-.25.43,0,1.91.11,4.75.11,1.76,0,3.02-.11,3.46-.11.18,0,.25.07.25.25v.97c0,.18-.11.25-.29.25h-.58c-.5,0-1.37.18-2.09.61-1.98,1.19-6.66,6.59-7.88,8.24,2.3,2.92,8.17,11.16,9.75,12.99.68.79,1.51.9,1.94.9h.43c.18,0,.25.11.25.25v.97c0,.18-.07.25-.29.25-.36,0-1.55-.11-5.15-.11-2.99,0-4.39.11-4.9.11-.14,0-.22-.07-.22-.29v-.94c0-.14.07-.22.22-.22h.54c.61,0,.65-.61.5-.94-.32-.72-5.9-9-6.52-9.68-.22-.25-.58-.5-.97-.5h-.5v2.7c0,1.8.07,7.09.11,7.6.04.47.36.79.83.79h1.12c.18,0,.29.07.29.22v1.01c0,.14-.04.25-.21.25-.43,0-1.51-.11-4.86-.11s-4.46.11-4.79.11c-.18,0-.25-.07-.25-.25v-1.01c0-.18.11-.22.25-.22h1.12c.65,0,.9-.29.97-.65.04-.32.11-6.84.11-11.27v-2.09c0-.65-.11-7.49-.11-7.88s-.18-.86-1.08-.86h-.9c-.22,0-.29-.07-.29-.25v-1.01c0-.14.07-.22.29-.22.43,0,1.51.11,4.75.11s4.32-.11,4.79-.11c.21,0,.29.07.29.29v.94c0,.18-.07.25-.25.25h-.86c-.72,0-1.19.25-1.19,1.04,0,.54-.11,6.16-.11,7.92v1.33Z"/>
    <path class="cls-2" d="M521.54,495.06c0-.58,0-6.95-.11-8.42-.22-.79-.36-1.22-1.58-1.22h-1.22c-.14,0-.25-.04-.25-.18v-1.04c0-.18.04-.25.25-.25.4,0,1.73.11,5.69.11,3.53,0,4.79-.11,5.33-.11.22,0,.29.07.29.29v.9c0,.22-.07.29-.29.29h-1.26c-.97,0-1.3.29-1.33.97-.04.58-.11,5.18-.11,9.54v1.66c0,4.57-.14,8.1-.14,8.93,0,1.91-.25,3.46-1.44,5.47-1.62,2.74-4.61,5.43-8.78,5.43-.97,0-2.7-.65-2.7-2.59,0-1.22.9-2.3,2.16-2.3,1.8,0,2.59,1.48,3.24,2.92.76,0,1.55-.86,1.91-2.16.76-2.63.36-13.07.36-15.69v-2.52Z"/>
    <path class="cls-2" d="M537.52,499.67c-.29.76-2.05,5.69-2.05,6.84,0,.79.32,1.66,1.4,1.66h1.26c.36,0,.4.14.4.29v.79c0,.29-.04.4-.32.4-.47,0-1.94-.11-4.9-.11-2.63,0-3.42.11-3.92.11-.22,0-.25-.22-.25-.47v-.68c0-.22.04-.32.25-.32h.94c.86,0,1.73-.5,2.45-1.58.5-.76,3.06-7.02,4.25-10.19.29-.72,3.2-8.46,3.53-9.43.11-.36.29-.83.04-1.22-.11-.14-.25-.32-.25-.47,0-.11.07-.25.36-.32,1.15-.25,3.49-1.19,4.03-1.8.18-.18.29-.32.47-.32.22,0,.29.22.4.61.68,2.27,3.49,10.33,4.18,12.63.83,2.81,3.17,9.5,3.67,10.48.61,1.19,1.55,1.62,2.09,1.62h1.22c.22,0,.25.14.25.32v.68c0,.22-.04.47-.32.47-.68,0-1.44-.11-6.05-.11-2.99,0-4.25.11-4.97.11-.36,0-.4-.22-.4-.47v-.68c0-.18.04-.32.22-.32h1.01c.97,0,1.3-.36,1.08-1.29-.32-1.3-1.73-5.9-2.16-7.2h-7.88ZM545.08,498.23l-2.7-9.54c-.14-.54-.22-.79-.4-.79-.22,0-.32.14-.43.47-.18.47-3.28,8.96-3.56,9.86h7.09Z"/>
    <path class="cls-2" d="M560.85,506.76c-2.66-2.38-3.92-6.52-3.92-9.61,0-3.71,1.19-7.06,3.71-9.75,2.05-2.2,5.04-3.89,9.5-3.89,3.28,0,5.98.83,7.24,1.51.5.25.68.22.76-.04l.29-.9c.07-.22.14-.22.68-.22s.61.07.61.58c0,.68.65,6.8.83,7.88.04.25,0,.43-.18.47l-.79.22c-.18.07-.32-.07-.43-.4-.4-1.44-1.37-3.28-2.88-4.82-1.55-1.51-3.46-2.7-6.19-2.7-5.25,0-7.49,4.79-7.45,10.11,0,2.27.65,6.7,3.2,9.4,2.34,2.41,4.39,2.7,5.62,2.7,4.1,0,7.16-1.87,8.5-3.85.18-.29.36-.43.54-.29l.61.54c.11.07.14.22,0,.43-2.09,3.02-5.58,5.94-10.65,5.94-4.79,0-7.31-1.3-9.58-3.31Z"/>
    <path class="cls-2" d="M591.81,495.71h.61c.29,0,.68-.18,1.01-.47.65-.5,6.48-7.88,6.95-8.5.65-.86,0-1.4-.72-1.4h-.61c-.14,0-.18-.07-.18-.25v-.9c0-.18.07-.25.22-.25.43,0,1.91.11,4.75.11,1.76,0,3.02-.11,3.46-.11.18,0,.25.07.25.25v.97c0,.18-.11.25-.29.25h-.58c-.5,0-1.37.18-2.09.61-1.98,1.19-6.66,6.59-7.88,8.24,2.3,2.92,8.17,11.16,9.75,12.99.68.79,1.51.9,1.94.9h.43c.18,0,.25.11.25.25v.97c0,.18-.07.25-.29.25-.36,0-1.55-.11-5.15-.11-2.99,0-4.39.11-4.9.11-.14,0-.22-.07-.22-.29v-.94c0-.14.07-.22.22-.22h.54c.61,0,.65-.61.5-.94-.32-.72-5.9-9-6.51-9.68-.22-.25-.58-.5-.97-.5h-.5v2.7c0,1.8.07,7.09.11,7.6.04.47.36.79.83.79h1.12c.18,0,.29.07.29.22v1.01c0,.14-.04.25-.22.25-.43,0-1.51-.11-4.86-.11s-4.46.11-4.79.11c-.18,0-.25-.07-.25-.25v-1.01c0-.18.11-.22.25-.22h1.12c.65,0,.9-.29.97-.65.04-.32.11-6.84.11-11.27v-2.09c0-.65-.11-7.49-.11-7.88s-.18-.86-1.08-.86h-.9c-.22,0-.29-.07-.29-.25v-1.01c0-.14.07-.22.29-.22.43,0,1.51.11,4.75.11s4.32-.11,4.79-.11c.22,0,.29.07.29.29v.94c0,.18-.07.25-.25.25h-.86c-.72,0-1.19.25-1.19,1.04,0,.54-.11,6.16-.11,7.92v1.33Z"/>
  </g>
</svg>