<?xml version="1.0" encoding="UTF-8"?>
<svg id="Layer_1" data-name="Layer 1" xmlns="http://www.w3.org/2000/svg" viewBox="0 0 1000 1000">
  <defs>
    <style>
      .cls-1, .cls-2, .cls-3, .cls-4, .cls-5, .cls-6, .cls-7 {
        stroke-miterlimit: 10;
      }

      .cls-1, .cls-2, .cls-4, .cls-5, .cls-6, .cls-7 {
        stroke: #231f20;
      }

      .cls-1, .cls-3 {
        fill: none;
      }

      .cls-2 {
        fill: #a3a295;
      }

      .cls-3 {
        stroke: #000;
      }

      .cls-4, .cls-8 {
        fill: #fff;
      }

      .cls-8 {
        font-family: MyriadPro-Regular, 'Myriad Pro';
        font-size: 24px;
      }

      .cls-9 {
        fill: #ffcd05;
      }

      .cls-10 {
        fill: #ed2024;
      }

      .cls-11 {
        fill: #304593;
      }

      .cls-12 {
        fill: #344da1;
      }

      .cls-13 {
        fill: #45b864;
      }

      .cls-14 {
        fill: #d71e20;
      }

      .cls-6 {
        fill: #ffe600;
      }

      .cls-15 {
        fill: #40a85b;
      }

      .cls-16 {
        fill: #e8ba08;
      }

      .cls-7 {
        fill: #fcee21;
      }

      .cls-17 {
        fill: #231f20;
      }
    </style>
  </defs>
  <g>
    <path class="cls-3" d="m290.59,598.74h-3.16l-1.98-5.53,2.23-2.23c.99-.99,1.29-2.31.66-2.94l-3.7-3.7c-.63-.63-1.94-.33-2.94.66l-2.23,2.23-5.29-1.97v-3.16c0-1.41-.72-2.54-1.61-2.54h-5.23c-.89,0-1.61,1.14-1.61,2.54v3.16l-5.35,1.99-2.23-2.23c-.99-.99-2.31-1.29-2.94-.66l-3.7,3.7c-.63.63-.33,1.94.66,2.94l2.23,2.23-2.25,5.34h-3.16c-1.41,0-2.54.72-2.54,1.61v5.23c0,.89,1.14,1.61,2.54,1.61h3.16l2.58,5.63-2.23,2.23c-.99.99-1.29,2.31-.66,2.94l3.7,3.7c.63.63,1.94.33,2.94-.66l2.23-2.23,4.77,1.93v3.16c0,1.41.72,2.54,1.61,2.54h5.23c.89,0,1.61-1.14,1.61-2.54v-3.16l5.22-2.16,2.23,2.23c.99.99,2.31,1.29,2.94.66l3.7-3.7c.63-.63.33-1.94-.66-2.94l-2.23-2.23,2.29-5.23h3.16c1.41,0,2.54-.72,2.54-1.61v-5.23c0-.89-1.14-1.61-2.54-1.61Zm-20.8,16.67c-6.9,0-12.5-5.6-12.5-12.5s5.6-12.5,12.5-12.5,12.5,5.6,12.5,12.5-5.6,12.5-12.5,12.5Z"/>
    <path class="cls-3" d="m277.7,601.31h-1.2l-.75-2.12.85-.86c.38-.38.49-.89.25-1.13l-1.41-1.42c-.24-.24-.74-.13-1.12.25l-.85.86-2.01-.76v-1.21c0-.54-.27-.98-.61-.98h-1.99c-.34,0-.61.44-.61.98v1.21l-2.03.77-.85-.86c-.38-.38-.88-.49-1.12-.25l-1.41,1.42c-.24.24-.13.75.25,1.13l.85.86-.85,2.05h-1.2c-.53,0-.97.28-.97.62v2.01c0,.34.43.62.97.62h1.2l.98,2.16-.85.86c-.38.38-.49.89-.25,1.13l1.41,1.42c.24.24.74.13,1.12-.25l.85-.86,1.81.74v1.21c0,.54.27.98.61.98h1.99c.34,0,.61-.44.61-.98v-1.21l1.98-.83.85.86c.38.38.88.49,1.12.25l1.41-1.42c.24-.24.13-.75-.25-1.13l-.85-.86.87-2.01h1.2c.53,0,.97-.28.97-.62v-2.01c0-.34-.43-.62-.97-.62Zm-7.91,6.4c-2.63,0-4.75-2.15-4.75-4.8s2.13-4.8,4.75-4.8,4.75,2.15,4.75,4.8-2.13,4.8-4.75,4.8Z"/>
    <path class="cls-3" d="m311.42,575.68h-1.69l-1.06-2.96,1.2-1.2c.53-.53.69-1.24.35-1.57l-1.98-1.98c-.34-.34-1.04-.18-1.57.35l-1.2,1.2-2.83-1.06v-1.69c0-.75-.39-1.36-.86-1.36h-2.8c-.48,0-.86.61-.86,1.36v1.69l-2.86,1.07-1.2-1.2c-.53-.53-1.24-.69-1.57-.35l-1.98,1.98c-.34.34-.18,1.04.35,1.57l1.2,1.2-1.2,2.86h-1.69c-.75,0-1.36.39-1.36.86v2.8c0,.48.61.86,1.36.86h1.69l1.38,3.01-1.2,1.2c-.53.53-.69,1.24-.35,1.57l1.98,1.98c.34.34,1.04.18,1.57-.35l1.2-1.2,2.56,1.03v1.69c0,.75.39,1.36.86,1.36h2.8c.48,0,.86-.61.86-1.36v-1.69l2.79-1.16,1.2,1.2c.53.53,1.24.69,1.57.35l1.98-1.98c.34-.34.18-1.04-.35-1.57l-1.2-1.2,1.23-2.8h1.69c.75,0,1.36-.39,1.36-.86v-2.8c0-.48-.61-.86-1.36-.86Zm-11.14,8.92c-3.7,0-6.69-3-6.69-6.69s3-6.69,6.69-6.69,6.69,3,6.69,6.69-3,6.69-6.69,6.69Z"/>
  </g>
  <rect class="cls-10" x="275.76" y="80.34" width="32" height="32" rx="2.71" ry="2.71"/>
  <rect class="cls-13" x="275.76" y="114.52" width="32" height="32" rx="2.71" ry="2.71"/>
  <rect class="cls-12" x="241.6" y="80.34" width="32" height="32" rx="2.71" ry="2.71"/>
  <rect class="cls-9" x="241.6" y="114.52" width="32" height="32" rx="2.71" ry="2.71"/>
  <rect class="cls-11" x="245.1" y="83.81" width="25" height="25.06" rx="2.71" ry="2.71"/>
  <rect class="cls-14" x="279.26" y="83.84" width="25" height="25" rx="2.71" ry="2.71"/>
  <rect class="cls-15" x="279.26" y="118.02" width="25" height="25" rx="2.71" ry="2.71"/>
  <rect class="cls-16" x="245.1" y="118.02" width="25" height="25" rx="2.71" ry="2.71"/>
  <text class="cls-8" transform="translate(249.61 104.56)"><tspan x="0" y="0">G</tspan></text>
  <text class="cls-8" transform="translate(284.32 104.56)"><tspan x="0" y="0">A</tspan></text>
  <text class="cls-8" transform="translate(247.72 138.09)"><tspan x="0" y="0">M</tspan></text>
  <text class="cls-8" transform="translate(284.92 138.09)"><tspan x="0" y="0">E</tspan></text>
  <g>
    <rect class="cls-4" x="259.3" y="174.83" width="22.44" height="36.12" rx="10.56" ry="10.56"/>
    <path class="cls-1" d="m270.52,233.26c0-5.42,0-10.85,0-16.27"/>
    <path class="cls-4" d="m252.46,199.25c.02.84.37,10.97,8.46,15.84,3.61,2.18,7.24,2.39,9.18,2.34"/>
    <path class="cls-4" d="m287.74,199.25c-.02.84-.37,10.97-8.46,15.84-3.61,2.18-7.24,2.39-9.18,2.34"/>
  </g>
  <polygon class="cls-4" points="291.02 543.79 272.04 533.7 252.97 543.61 256.71 522.44 241.38 507.36 262.67 504.37 272.28 485.14 281.7 504.47 302.96 507.66 287.49 522.59 291.02 543.79"/>
  <polygon class="cls-6" points="371.6 543.79 352.62 533.7 333.55 543.61 337.28 522.44 321.96 507.36 343.25 504.37 352.86 485.14 362.28 504.47 383.54 507.66 368.07 522.59 371.6 543.79"/>
  <g>
    <circle class="cls-4" cx="280.4" cy="269.91" r="16.89"/>
    <path class="cls-4" d="m243.75,312.66c8.88-9.71,17.77-19.43,26.65-29.14"/>
  </g>
  <g>
    <path class="cls-7" d="m276.97,373c.13-.95.4-2.47,1.08-4.2,1.56-4.01,3.8-5.44,5.76-8.64,1.03-1.69,2.3-4.36,2.78-8.33v.07c.05-.58.09-1.17.09-1.76,0-8.91-7.18-16.13-16.03-16.13s-16.03,7.22-16.03,16.13c0,.6.04,1.18.1,1.76v-.27c.48,4.01,1.76,6.71,2.8,8.41,1.98,3.23,4.24,4.68,5.81,8.72.68,1.75.96,3.27,1.09,4.24l-.07-.5,12.71-.07"/>
    <path class="cls-7" d="m272.07,337.55c1.12.18,3.34.7,5.54,2.39,2.62,2,3.7,4.51,4.1,5.58"/>
    <rect class="cls-2" x="263.52" y="374.7" width="14.04" height="1.89" rx=".94" ry=".94"/>
    <rect class="cls-2" x="264.35" y="378.97" width="12.38" height="1.89" rx=".94" ry=".94"/>
    <path class="cls-4" d="m270.38,322.68c.02,2.97.03,5.94.05,8.91"/>
    <path class="cls-4" d="m282.96,325.53c-1.26,2.69-2.52,5.38-3.78,8.07"/>
    <path class="cls-4" d="m293.2,334.38c-2.09,2.11-4.18,4.22-6.26,6.34"/>
    <path class="cls-4" d="m256.6,326.33c1.72,2.42,3.44,4.85,5.15,7.27"/>
    <path class="cls-4" d="m247.61,334.42c2.11,2.09,4.22,4.18,6.34,6.26"/>
  </g>
  <g>
    <path class="cls-4" d="m249.05,444.2c4.72,6.23,12.29,10.26,20.82,10.26,14.32,0,25.92-11.36,25.92-25.38s-11.6-25.38-25.92-25.38c-11.96,0-22.02,7.93-25.01,18.72"/>
    <polygon class="cls-5" points="243.25 422.59 244.2 425.59 246.25 423.12 243.25 422.59"/>
    <line class="cls-1" x1="269.96" y1="409.45" x2="269.96" y2="429.7"/>
    <line class="cls-1" x1="284.14" y1="443.66" x2="269.82" y2="429.34"/>
  </g>
  <g>
    <rect class="cls-5" x="328.8" y="170.59" width="22.44" height="36.12" rx="10.56" ry="10.56"/>
    <path class="cls-1" d="m340.02,229.02c0-5.42,0-10.85,0-16.27"/>
    <path class="cls-4" d="m321.96,195.01c.02.84.37,10.97,8.46,15.84,3.61,2.18,7.24,2.39,9.18,2.34"/>
    <path class="cls-4" d="m357.24,195.01c-.02.84-.37,10.97-8.46,15.84-3.61,2.18-7.24,2.39-9.18,2.34"/>
  </g>
  <rect class="cls-1" x="128.2" y="824.24" width="64" height="64"/>
  <g>
    <path class="cls-1" d="m306.28,676.33c.32.2,2.72,1.76,3.13,4.84.33,2.44-.72,4.91-2.7,6.42"/>
    <path class="cls-1" d="m309.91,670.14c.68.62,4.66,4.37,4.84,10.58.2,7.06-4.69,11.33-5.27,11.82"/>
    <path class="cls-1" d="m265.38,675.07c-.08,0-.16-.03-.24-.03h-12.37c-1.62,0-2.93,1.44-2.93,3.21v4.73c0,1.77,1.31,3.21,2.93,3.21h12.37c.08,0,.16-.02.24-.03v-11.09Z"/>
    <path class="cls-1" d="m255.82,686.19v17.34c0,.74.52,1.35,1.16,1.35h1.24c.64,0,1.16-.6,1.16-1.35v-17.34h-3.57Z"/>
    <path class="cls-1" d="m297.64,661.68c-2.16,1.61-4.56,3.22-7.21,4.75-9.15,5.26-17.95,7.62-24.81,8.7v11.21c6.83,1.18,15.82,3.76,24.98,9.64,2.52,1.62,4.78,3.31,6.79,5,.08.04.95.44,1.93.03.57-.24.98-.69.98-1.25l.19-36.81c0-1.1-1.56-1.8-2.84-1.26Z"/>
  </g>
  <g>
    <path class="cls-1" d="m283.11,777.25v.77c0,2.39-1.88,4.33-4.19,4.33h-24.9c-2.31,0-4.19-1.94-4.19-4.33v-40.93c0-2.39,1.88-4.33,4.19-4.33h3.46"/>
    <g>
      <path class="cls-3" d="m262.07,725.5c-2.29,0-4.15,1.86-4.15,4.15v41.27c0,2.29,1.86,4.15,4.15,4.15h24.59c2.29,0,4.15-1.86,4.15-4.15v-33.33c-3.24-4.03-6.47-8.06-9.71-12.09h-19.03Z"/>
      <path class="cls-3" d="m290.81,737.6l-9.48.03c-.12,0-.21-.09-.21-.21l-.02-11.91"/>
    </g>
  </g>
  <path class="cls-4" d="m276.61,819.87l-10.75,18.54c-.12.21-.42.21-.54,0l-10.68-18.58c-.12-.21.03-.47.27-.47l21.43.04c.24,0,.39.26.27.47Z"/>
  <g>
    <line class="cls-1" x1="257.92" y1="855.04" x2="290.71" y2="855.04"/>
    <polygon class="cls-17" points="287.9 858.74 289.47 855.04 287.9 851.34 296.68 855.04 287.9 858.74"/>
  </g>
  <g>
    <line class="cls-1" x1="296.68" y1="871.51" x2="263.89" y2="871.51"/>
    <polygon class="cls-17" points="266.7 867.81 265.12 871.51 266.7 875.22 257.92 871.51 266.7 867.81"/>
  </g>
</svg>