<?xml version="1.0" encoding="UTF-8"?>
<svg id="Layer_1" data-name="Layer 1" width="60" height="90"  xmlns="http://www.w3.org/2000/svg" xmlns:xlink="http://www.w3.org/1999/xlink" viewBox="0 0 100 150">
  <defs>
    <style>
      .cls-1 {
        fill: url(#linear-gradient);
      }

      .cls-1, .cls-2 {
        stroke-width: 0px;
      }

      .cls-3 {
        fill: url(#linear-gradient-2);
        stroke: #d1d3d4;
        stroke-miterlimit: 10;
        stroke-width: .25px;
      }
    </style>
    <linearGradient id="linear-gradient" x1="5.24" y1="75.39" x2="95.24" y2="75.39" gradientUnits="userSpaceOnUse">
      <stop offset="0" stop-color="#e6e7e8"/>
      <stop offset="1" stop-color="#f1f2f2"/>
    </linearGradient>
    <linearGradient id="linear-gradient-2" x1="8.89" y1="75.81" x2="91.89" y2="75.81" gradientUnits="userSpaceOnUse">
      <stop offset="0" stop-color="#fff"/>
      <stop offset="1" stop-color="#e6e7e8"/>
    </linearGradient>
  </defs>
  <rect class="cls-1" x="5.24" y="7.89" width="90" height="135" rx="8.37" ry="8.37"/>
  <rect class="cls-3" x="8.89" y="12.31" width="83" height="127" rx="7.94" ry="7.94"/>
  <path class="cls-2" d="m17.64,24.93c.33-.25.61-.33.83-.3.28.05.42.3.26.63-.03.05-.07.08-.11.07-.05-.01-.08-.05-.05-.1.08-.21-.04-.34-.16-.34-.14,0-.29.08-.29.25,0,.31.52.63.88.53.37-.5.3-1.11.3-2.2v-1.46c0-.48.11-.94.34-1.2-.23.01-.49-.18-.49-.35,0-.23.14-.43.5-.72-.3-.03-.5-.2-.5-.42,0-.27.43-.8,1.06-1.13-.24-.03-.45-.1-.62-.18-.23-.1-.43-.22-.67-.22-.35,0-.56.18-.75.33-.04.03-.08.04-.12,0-.03-.03-.03-.06.01-.12.45-.65.99-1.3,1.55-1.3.23,0,.46.09.69.21.23.12.49.22.76.22.3,0,.54-.2.65-.33.07-.08.1-.1.14-.09.04.01.04.08-.01.17-.27.5-.64.94-1.03,1.21-.37.25-.49.39-.49.52s.22.18.45.18c.08,0,.14.01.14.06,0,.04-.04.09-.14.17-.24.22-.35.43-.35.57,0,.2.14.25.33.22.08-.01.16-.01.18.03.01.04-.04.09-.11.18-.14.16-.19.46-.19,1.11v1.83c0,1.47-.22,2.17-1.14,2.82-.47.33-1.08.6-1.57.6-.37,0-.83-.12-.94-.43-.11-.35.26-.69.68-1Z"/>
  <path class="cls-2" d="m43.37,86.72c1.2-.89,2.26-1.17,3.06-1.08,1.05.19,1.56,1.08.95,2.25-.1.19-.25.28-.4.23-.2-.05-.3-.19-.2-.38.3-.75-.15-1.22-.6-1.22-.5,0-1.05.28-1.05.89,0,1.13,1.91,2.25,3.26,1.92,1.35-1.78,1.1-3.99,1.1-7.93v-5.25c0-1.73.4-3.38,1.25-4.31-.85.05-1.81-.66-1.81-1.27,0-.84.5-1.55,1.86-2.58-1.1-.09-1.86-.7-1.86-1.5,0-.98,1.61-2.86,3.91-4.08-.9-.09-1.66-.38-2.31-.66-.85-.38-1.61-.8-2.46-.8-1.3,0-2.06.66-2.76,1.17-.15.09-.3.14-.45,0-.1-.09-.1-.23.05-.42,1.66-2.35,3.66-4.69,5.72-4.69.85,0,1.71.33,2.56.75.85.42,1.81.8,2.81.8,1.1,0,2.01-.7,2.41-1.17.25-.28.35-.38.5-.33s.15.28-.05.61c-1,1.78-2.36,3.38-3.81,4.36-1.35.89-1.81,1.41-1.81,1.88s.8.66,1.66.66c.3,0,.5.05.5.23,0,.14-.15.33-.5.61-.9.8-1.3,1.55-1.3,2.06,0,.7.5.89,1.2.8.3-.05.6-.05.65.09.05.14-.15.33-.4.66-.5.56-.7,1.64-.7,3.99v6.57c0,5.3-.8,7.79-4.22,10.13-1.76,1.17-4.02,2.16-5.82,2.16-1.35,0-3.06-.42-3.46-1.55-.4-1.27.95-2.49,2.51-3.61Z"/>
  <path class="cls-2" d="m83.18,126.7c-.33.25-.61.33-.83.3-.28-.05-.42-.3-.26-.62.03-.05.07-.08.11-.07.05.01.08.05.05.11-.08.21.04.34.16.34.14,0,.29-.08.29-.25,0-.31-.52-.63-.88-.53-.37.5-.3,1.11-.3,2.2v1.46c0,.48-.11.94-.34,1.2.23-.01.49.18.49.35,0,.24-.14.43-.5.72.3.03.5.2.5.42,0,.27-.43.79-1.06,1.13.24.03.45.1.62.18.23.11.43.22.66.22.35,0,.56-.18.75-.33.04-.03.08-.04.12,0,.03.03.03.06-.01.12-.45.65-.99,1.3-1.55,1.3-.23,0-.46-.09-.69-.21s-.49-.22-.76-.22c-.3,0-.54.2-.65.33-.07.08-.09.1-.14.09-.04-.01-.04-.08.01-.17.27-.5.64-.94,1.03-1.21.37-.25.49-.39.49-.52s-.22-.18-.45-.18c-.08,0-.14-.01-.14-.07,0-.04.04-.09.14-.17.24-.22.35-.43.35-.57,0-.2-.13-.25-.33-.22-.08.01-.16.01-.18-.03s.04-.09.11-.18c.13-.16.19-.46.19-1.11v-1.83c0-1.47.22-2.17,1.14-2.82.47-.33,1.08-.6,1.57-.6.37,0,.83.12.94.43.11.35-.26.69-.68,1Z"/>
  <path class="cls-2" d="m28.76,112c.18.21.36.34.6.33-.01-.03-.01-.05-.02-.07-.66-6.11-1.91-7.87-3.06-8.14-.88-.2-1.8.45-3.38,0-1.08-.3-1.88-.95-2.39-1.46h17.27c-.42.45-1.15,1.11-2.2,1.46-1.76.59-2.86-.22-3.85.09-1.04.35-2.16,2.01-2.34,8.1t0,.02c.57-.03.65-.83,1.66-1.79,1.16-1.48,2.98-2.43,5.01-2.43,3.52,0,6.38,2.85,6.38,6.37s-2.86,6.38-6.38,6.38c-.46,0-.91-.05-1.35-.15h0c-.53.02-1.01.05-1.17.36-.2.42.41.95.77,1.58.01,0,.01.02.01.03.84,1.07,1.33,2.41,1.33,3.87,0,3.52-2.85,6.37-6.37,6.37s-6.37-2.85-6.37-6.37c0-1.38.44-2.65,1.19-3.69,0,0,.01,0,.01-.01,0,0,.01,0,.01-.02.34-.64,1.06-1.2.81-1.69-.15-.29-.5-.35-.92-.38h-.01c-.36.07-.73.1-1.1.1-3.52,0-6.37-2.85-6.37-6.38s2.85-6.37,6.37-6.37c2.65,0,4.91,1.6,5.88,3.89Z"/>
  <path class="cls-2" d="m71.46,39.72c-.18-.21-.36-.34-.6-.33.01.03.01.05.02.07.66,6.11,1.91,7.87,3.06,8.14.88.2,1.8-.45,3.38,0,1.08.3,1.88.95,2.39,1.46h-17.27c.42-.45,1.15-1.11,2.2-1.46,1.76-.59,2.86.22,3.85-.09,1.04-.35,2.16-2.01,2.34-8.1t0-.02c-.57.03-.65.83-1.66,1.79-1.16,1.48-2.98,2.43-5.01,2.43-3.52,0-6.38-2.85-6.38-6.37s2.86-6.38,6.38-6.38c.46,0,.91.05,1.35.15h0c.53-.02,1.01-.05,1.17-.36.2-.42-.41-.95-.77-1.58-.01,0-.01-.02-.01-.03-.84-1.07-1.33-2.41-1.33-3.87,0-3.52,2.85-6.37,6.37-6.37s6.37,2.85,6.37,6.37c0,1.38-.44,2.65-1.19,3.69,0,0-.01,0-.01.01s-.01,0-.01.02c-.34.64-1.06,1.2-.81,1.69.15.29.5.35.92.38h.01c.36-.07.73-.1,1.1-.1,3.52,0,6.37,2.85,6.37,6.38s-2.85,6.37-6.37,6.37c-2.65,0-4.91-1.6-5.88-3.89Z"/>
  <path class="cls-2" d="m19.74,38.01c-.08-.09-.15-.15-.25-.14,0,.01,0,.02,0,.03.28,2.61.8,3.36,1.28,3.48.37.09.76-.19,1.42,0,.45.13.79.41,1,.62h-7.25c.18-.19.48-.47.92-.62.74-.25,1.2.09,1.62-.04.44-.15.91-.86.98-3.46t0,0c-.24.01-.27.35-.7.77-.49.63-1.25,1.04-2.1,1.04-1.48,0-2.68-1.22-2.68-2.72s1.2-2.73,2.68-2.73c.19,0,.38.02.57.06h0c.22,0,.42-.02.49-.15.08-.18-.17-.41-.32-.68,0,0,0,0,0-.01-.35-.46-.56-1.03-.56-1.65,0-1.5,1.2-2.72,2.67-2.72s2.67,1.22,2.67,2.72c0,.59-.18,1.13-.5,1.58,0,0,0,0,0,0s0,0,0,0c-.14.27-.44.51-.34.72.06.12.21.15.39.16h0c.15-.03.31-.04.46-.04,1.48,0,2.67,1.22,2.67,2.73s-1.2,2.72-2.67,2.72c-1.11,0-2.06-.68-2.47-1.66Z"/>
  <path class="cls-2" d="m81.05,113.71c.08.09.15.15.25.14,0-.01,0-.02,0-.03-.28-2.61-.8-3.36-1.28-3.48-.37-.09-.76.19-1.42,0-.45-.13-.79-.41-1-.62h7.25c-.18.19-.48.47-.92.62-.74.25-1.2-.09-1.62.04-.44.15-.91.86-.98,3.46t0,0c.24-.01.27-.35.7-.77.49-.63,1.25-1.04,2.1-1.04,1.48,0,2.68,1.22,2.68,2.72s-1.2,2.73-2.68,2.73c-.19,0-.38-.02-.57-.06h0c-.22,0-.42.02-.49.15-.08.18.17.41.32.68,0,0,0,0,0,.01.35.46.56,1.03.56,1.65,0,1.5-1.2,2.72-2.67,2.72s-2.67-1.22-2.67-2.72c0-.59.18-1.13.5-1.58,0,0,0,0,0,0,0,0,0,0,0,0,.14-.27.44-.51.34-.72-.06-.12-.21-.15-.39-.16h0c-.15.03-.31.04-.46.04-1.48,0-2.67-1.22-2.67-2.73s1.2-2.72,2.67-2.72c1.11,0,2.06.68,2.47,1.66Z"/>
</svg>