<?xml version="1.0" encoding="UTF-8"?>
<svg id="Layer_1" data-name="Layer 1"  width="60" height="90" xmlns="http://www.w3.org/2000/svg" xmlns:xlink="http://www.w3.org/1999/xlink" viewBox="0 0 100 150">
  <defs>
    <style>
      .cls-1 {
        fill: url(#linear-gradient);
      }

      .cls-1, .cls-2, .cls-3 {
        stroke-width: 0px;
      }

      .cls-2 {
        fill: #ed1c24;
      }

      .cls-4 {
        fill: url(#linear-gradient-2);
        stroke: #d1d3d4;
        stroke-miterlimit: 10;
        stroke-width: .25px;
      }

      .cls-3 {
        fill: #ec2027;
      }
    </style>
    <linearGradient id="linear-gradient" x1="5.24" y1="75.39" x2="95.24" y2="75.39" gradientUnits="userSpaceOnUse">
      <stop offset="0" stop-color="#e6e7e8"/>
      <stop offset="1" stop-color="#f1f2f2"/>
    </linearGradient>
    <linearGradient id="linear-gradient-2" x1="8.89" y1="75.81" x2="91.89" y2="75.81" gradientUnits="userSpaceOnUse">
      <stop offset="0" stop-color="#fff"/>
      <stop offset="1" stop-color="#e6e7e8"/>
    </linearGradient>
  </defs>
  <rect class="cls-1" x="5.24" y="7.89" width="90" height="135" rx="8.37" ry="8.37"/>
  <rect class="cls-4" x="8.89" y="12.31" width="83" height="127" rx="7.94" ry="7.94"/>
  <g>
    <g>
      <path class="cls-2" d="m23.03,35.12l-3.34,3.58c-.37-1.09-.73-2.4-.97-3.9-.19-1.12-.28-2.16-.31-3.08l1.29-.18c.24-1.03.97-1.82,1.89-2.04.95-.22,1.89.21,2.38.86.84,1.12.6,3.24-.94,4.75Z"/>
      <path class="cls-2" d="m19.49,39.65l-.27-.79c-.44-1.29-.77-2.63-.99-3.98-.17-1.03-.28-2.09-.32-3.14l-.02-.45,1.42-.2c.35-1.04,1.18-1.84,2.17-2.07,1.24-.29,2.35.32,2.89,1.05,1.06,1.41.62,3.83-.98,5.4l-3.9,4.18Zm-.56-7.5c.05.86.15,1.72.29,2.56.17,1.02.4,2.03.7,3.02l2.77-2.97c1.36-1.34,1.56-3.2.89-4.1-.34-.46-1.07-.86-1.86-.68-.73.17-1.33.82-1.52,1.66l-.08.34-1.18.16Z"/>
    </g>
    <g>
      <path class="cls-2" d="m20.59,31.72c-.04.92-.13,1.96-.31,3.08-.25,1.5-.61,2.81-.98,3.9l-3.33-3.58c-1.54-1.51-1.78-3.63-.94-4.75.49-.65,1.43-1.09,2.38-.86.92.22,1.66,1.01,1.89,2.04.43.06.86.12,1.29.18Z"/>
      <path class="cls-2" d="m19.51,39.65l-3.91-4.19c-1.59-1.56-2.03-3.98-.97-5.39.55-.73,1.66-1.34,2.89-1.05,1,.23,1.82,1.03,2.17,2.07l1.42.19-.02.46c-.04,1.06-.15,2.12-.32,3.14-.22,1.34-.56,2.68-1,3.98l-.27.79Zm-2.61-9.71c-.63,0-1.18.34-1.47.72-.67.9-.48,2.76.89,4.1l2.77,2.97c.3-.99.53-2.01.7-3.02.14-.84.23-1.7.29-2.56l-1.18-.16-.08-.34c-.19-.84-.79-1.49-1.52-1.66-.13-.03-.27-.05-.4-.05Z"/>
    </g>
  </g>
  <path class="cls-3" d="m16.58,24.18v-2.15c0-.48.11-.94.34-1.2-.23.01-.49-.18-.49-.35,0-.23.14-.43.5-.72-.3-.03-.5-.18-.5-.4,0-.21.23-.48.47-.69.08-.06.12-.1.12-.16,0-.04-.05-.07-.15-.1-.22-.08-.53-.14-.53-.39,0-.35.61-.99,1.64-1.42.09-.04.14-.05.16-.03.03.03,0,.08-.07.12-.27.17-.6.38-.6.59,0,.1.18.14.35.2.16.07.34.13.34.3,0,.12-.16.25-.34.44-.16.17-.24.29-.24.42s.22.18.45.18c.07,0,.12,0,.14.04s-.03.09-.14.2c-.24.22-.35.43-.35.57,0,.2.18.23.37.22.07,0,.11,0,.12.03.03.03-.01.09-.1.18-.14.16-.19.46-.19,1.11v.39c1.21-.17,1.55-1.21,1.79-1.66.38-.68.9-1.81,1.83-2.5.54-.4,1.1-.73,1.53-.73.23,0,.49.05.61.17.24.25.26.61-.24,1.08-.37.33-.81.56-1.08.6-.04.01-.08-.01-.07-.05.01-.03.04-.05.09-.09.18-.1.29-.39.16-.59-.15-.21-.3-.29-.45-.29-.31.56-.52,1.57-.92,2.37-.3.6-.9,1.25-1.57,1.53.58-.12,1.18.04,1.37.27.1.12.1.25-.04.38.33.04.6.16.81.34.24.23.42.55.49.94.18.9.27,2.66,1.57,2.66.11,0,.18.03.18.08s-.05.06-.18.08c-.33.03-.83.05-1.3-.07-.34-.08-.61-.22-.9-.59-.49-.63-.6-1.54-.68-2.04-.08-.54-.22-.78-.5-.98-.27-.18-.64-.2-.87-.14-.07.01-.12.01-.14-.01-.01-.03.04-.06.07-.12.08-.14.03-.27-.14-.37-.26-.16-.77-.22-1.44-.17v2.01c0,1.24-.45,2.17-2.05,2.67-.07.03-.11.03-.14,0-.03-.03-.01-.06.05-.1.87-.51.81-1.27.81-2.06Z"/>
  <path class="cls-3" d="m40.3,82.85v-7.74c0-1.74.4-3.38,1.25-4.32-.85.05-1.81-.66-1.81-1.27,0-.84.5-1.55,1.86-2.58-1.1-.09-1.86-.66-1.86-1.45,0-.75.85-1.74,1.76-2.49.3-.23.45-.38.45-.56,0-.14-.2-.23-.55-.38-.8-.28-1.96-.52-1.96-1.41,0-1.27,2.26-3.56,6.07-5.11.35-.14.5-.19.6-.09.1.09,0,.28-.25.42-1,.61-2.21,1.36-2.21,2.11,0,.38.65.52,1.3.7.6.23,1.25.47,1.25,1.08,0,.42-.6.89-1.25,1.6-.6.61-.9,1.03-.9,1.5s.8.66,1.66.66c.25,0,.45,0,.5.14.05.14-.1.33-.5.7-.9.8-1.3,1.55-1.3,2.06,0,.7.65.84,1.35.8.25,0,.4,0,.45.09.1.09-.05.33-.35.66-.5.56-.7,1.64-.7,3.99v1.41c4.47-.61,5.72-4.36,6.62-5.96,1.41-2.44,3.31-6.52,6.78-9.01,2.01-1.45,4.07-2.63,5.67-2.63.85,0,1.81.19,2.26.61.9.89.95,2.2-.9,3.89-1.36,1.17-3.01,2.02-4.02,2.16-.15.05-.3-.05-.25-.19.05-.09.15-.19.35-.33.65-.38,1.05-1.41.6-2.11-.55-.75-1.1-1.03-1.66-1.03-1.15,2.02-1.91,5.63-3.41,8.54-1.1,2.16-3.31,4.5-5.82,5.49,2.16-.42,4.37.14,5.07.98.35.42.35.89-.15,1.36,1.21.14,2.21.56,3.01,1.22.9.84,1.56,1.97,1.81,3.38.65,3.24,1,9.57,5.82,9.57.4,0,.65.09.65.28s-.2.23-.65.28c-1.2.09-3.06.19-4.82-.23-1.25-.28-2.26-.8-3.31-2.11-1.81-2.25-2.21-5.54-2.51-7.32-.3-1.92-.8-2.81-1.86-3.52-1-.66-2.36-.7-3.21-.52-.25.05-.45.05-.5-.05s.15-.23.25-.42c.3-.52.1-.98-.5-1.31-.95-.56-2.86-.8-5.32-.61v7.22c0,4.46-1.66,7.79-7.58,9.62-.25.09-.4.09-.5,0-.1-.09-.05-.23.2-.38,3.21-1.83,3.01-4.55,3.01-7.41Z"/>
  <g>
    <g>
      <path class="cls-2" d="m80.5,34.15l-8.79,9.59c-.97-2.91-1.91-6.42-2.57-10.46-.49-3.01-.73-5.78-.83-8.25l3.4-.48c.62-2.76,2.56-4.88,4.99-5.46,2.51-.6,4.99.57,6.27,2.31,2.21,3,1.59,8.69-2.47,12.74Z"/>
      <path class="cls-2" d="m71.5,44.72l-.27-.82c-1.14-3.42-2.01-6.97-2.59-10.54-.44-2.73-.73-5.53-.84-8.31l-.02-.47,3.52-.49c.74-2.76,2.79-4.9,5.29-5.5,2.9-.69,5.51.76,6.79,2.51,2.23,3.02,1.9,9-2.51,13.41l-9.36,10.21Zm-2.66-19.24c.12,2.59.39,5.18.8,7.72.53,3.23,1.29,6.44,2.28,9.55l8.22-8.97c4.02-4.01,4.39-9.38,2.42-12.06-1.05-1.43-3.3-2.71-5.75-2.12-2.23.53-4.04,2.52-4.61,5.07l-.08.35-3.29.46Z"/>
    </g>
    <g>
      <path class="cls-2" d="m74.63,25.03c-.1,2.46-.34,5.24-.83,8.25-.66,4.03-1.6,7.54-2.57,10.46l-8.79-9.59c-4.06-4.05-4.68-9.74-2.47-12.74,1.28-1.74,3.76-2.91,6.27-2.31,2.43.58,4.37,2.7,4.99,5.46,1.13.16,2.26.32,3.4.48Z"/>
      <path class="cls-2" d="m71.43,44.72l-9.37-10.22c-4.4-4.39-4.73-10.38-2.5-13.4,1.29-1.75,3.89-3.2,6.79-2.51,2.5.6,4.54,2.74,5.28,5.5l3.52.49-.02.47c-.12,2.81-.4,5.6-.84,8.31-.58,3.55-1.45,7.1-2.59,10.54l-.27.82Zm-6.54-25.27c-1.95,0-3.65,1.08-4.52,2.27-1.97,2.67-1.61,8.04,2.42,12.06l8.22,8.97c.99-3.13,1.76-6.34,2.28-9.55.41-2.52.68-5.11.8-7.72l-3.29-.46-.08-.35c-.57-2.55-2.38-4.54-4.61-5.07-.42-.1-.83-.14-1.23-.14Z"/>
    </g>
  </g>
  <g>
    <g>
      <path class="cls-2" d="m77.76,116.51l3.34-3.58c.37,1.09.73,2.4.97,3.9.19,1.12.28,2.16.31,3.08l-1.29.18c-.24,1.03-.97,1.82-1.89,2.04-.95.22-1.89-.21-2.38-.86-.84-1.12-.6-3.24.94-4.75Z"/>
      <path class="cls-2" d="m81.3,111.98l.27.79c.44,1.29.77,2.63.99,3.98.17,1.03.28,2.09.32,3.14l.02.45-1.42.2c-.35,1.04-1.18,1.84-2.17,2.07-1.24.29-2.35-.32-2.89-1.05-1.06-1.41-.62-3.83.98-5.4l3.9-4.18Zm.56,7.5c-.05-.86-.15-1.72-.29-2.56-.17-1.02-.4-2.03-.7-3.02l-2.77,2.97c-1.36,1.34-1.56,3.2-.89,4.1.34.46,1.07.86,1.86.68.73-.17,1.33-.82,1.52-1.66l.08-.34,1.18-.16Z"/>
    </g>
    <g>
      <path class="cls-2" d="m80.2,119.91c.04-.92.13-1.96.31-3.08.25-1.5.61-2.81.98-3.9l3.33,3.58c1.54,1.51,1.78,3.63.94,4.75-.49.65-1.43,1.09-2.38.86-.92-.22-1.66-1.01-1.89-2.04-.43-.06-.86-.12-1.29-.18Z"/>
      <path class="cls-2" d="m81.28,111.98l3.91,4.19c1.59,1.56,2.03,3.98.97,5.39-.55.73-1.66,1.34-2.89,1.05-1-.23-1.82-1.03-2.17-2.07l-1.42-.19.02-.46c.04-1.06.15-2.12.32-3.14.22-1.34.56-2.68,1-3.98l.27-.79Zm2.61,9.71c.63,0,1.18-.34,1.47-.72.67-.9.48-2.76-.89-4.1l-2.77-2.97c-.3.99-.53,2.01-.7,3.02-.14.84-.23,1.7-.29,2.56l1.18.16.08.34c.19.84.79,1.49,1.52,1.66.13.03.27.05.4.05Z"/>
    </g>
  </g>
  <path class="cls-3" d="m84.21,127.44v2.15c0,.48-.11.94-.34,1.2.23-.01.49.18.49.35,0,.24-.14.43-.5.72.3.03.5.18.5.4,0,.21-.23.48-.47.69-.08.06-.12.1-.12.16,0,.04.05.07.15.1.22.08.53.14.53.39,0,.35-.61.99-1.64,1.42-.09.04-.13.05-.16.03s0-.08.07-.12c.27-.17.6-.38.6-.59,0-.11-.18-.14-.35-.2-.16-.07-.34-.13-.34-.3,0-.12.16-.25.34-.44.16-.17.24-.29.24-.42s-.22-.18-.45-.18c-.07,0-.12,0-.14-.04s.03-.09.14-.2c.24-.22.35-.43.35-.57,0-.2-.18-.23-.37-.22-.07,0-.11,0-.12-.03-.03-.03.01-.09.1-.18.13-.16.19-.46.19-1.11v-.39c-1.21.17-1.55,1.21-1.79,1.66-.38.68-.89,1.81-1.83,2.5-.54.41-1.1.73-1.53.73-.23,0-.49-.05-.61-.17-.24-.25-.26-.61.24-1.08.37-.33.81-.56,1.09-.6.04-.01.08.01.07.05-.01.03-.04.05-.09.09-.18.1-.29.39-.16.59.15.21.3.29.45.29.31-.56.52-1.57.92-2.37.3-.6.9-1.25,1.57-1.53-.58.12-1.18-.04-1.37-.27-.09-.12-.09-.25.04-.38-.33-.04-.6-.16-.81-.34-.24-.23-.42-.55-.49-.94-.18-.9-.27-2.66-1.57-2.66-.11,0-.18-.03-.18-.08s.05-.07.18-.08c.32-.03.83-.05,1.3.07.34.08.61.22.9.59.49.63.6,1.54.68,2.04.08.54.22.78.5.98.27.18.64.2.87.14.07-.01.12-.01.14.01.01.03-.04.06-.07.12-.08.14-.03.27.14.37.26.16.77.22,1.44.17v-2.01c0-1.24.45-2.17,2.05-2.67.07-.03.11-.03.13,0,.03.03.01.06-.05.1-.87.51-.81,1.27-.81,2.06Z"/>
  <g>
    <g>
      <path class="cls-2" d="m20.29,117.48l8.79-9.59c.97,2.91,1.91,6.42,2.57,10.46.49,3.01.73,5.78.83,8.25l-3.4.48c-.62,2.76-2.56,4.88-4.99,5.46-2.51.6-4.99-.57-6.27-2.31-2.21-3-1.59-8.69,2.47-12.74Z"/>
      <path class="cls-2" d="m29.29,106.9l.27.82c1.14,3.42,2.01,6.97,2.59,10.54.44,2.73.73,5.53.84,8.31l.02.47-3.52.49c-.74,2.76-2.79,4.9-5.29,5.5-2.9.69-5.51-.76-6.79-2.51-2.23-3.02-1.9-9,2.51-13.41l9.36-10.21Zm2.66,19.24c-.12-2.59-.39-5.18-.8-7.72-.53-3.23-1.29-6.44-2.28-9.55l-8.22,8.97c-4.02,4.01-4.39,9.38-2.42,12.06,1.05,1.43,3.3,2.71,5.75,2.12,2.23-.53,4.04-2.52,4.61-5.07l.08-.35,3.29-.46Z"/>
    </g>
    <g>
      <path class="cls-2" d="m26.16,126.6c.1-2.46.34-5.24.83-8.25.66-4.03,1.6-7.54,2.57-10.46l8.79,9.59c4.06,4.05,4.68,9.74,2.47,12.74-1.28,1.74-3.76,2.91-6.27,2.31-2.43-.58-4.37-2.7-4.99-5.46-1.13-.16-2.26-.32-3.4-.48Z"/>
      <path class="cls-2" d="m29.36,106.9l9.37,10.22c4.4,4.39,4.73,10.38,2.5,13.4-1.29,1.75-3.89,3.2-6.79,2.51-2.5-.6-4.54-2.74-5.28-5.5l-3.52-.49.02-.47c.12-2.81.4-5.6.84-8.31.58-3.55,1.45-7.1,2.59-10.54l.27-.82Zm6.54,25.27c1.95,0,3.65-1.08,4.52-2.27,1.97-2.67,1.61-8.04-2.42-12.06l-8.22-8.97c-.99,3.13-1.76,6.34-2.28,9.55-.41,2.52-.68,5.11-.8,7.72l3.29.46.08.35c.57,2.55,2.38,4.54,4.61,5.07.42.1.83.14,1.23.14Z"/>
    </g>
  </g>
</svg>