<?xml version="1.0" encoding="UTF-8"?>
<svg id="Layer_1" data-name="Layer 1" xmlns="http://www.w3.org/2000/svg" viewBox="0 0 2000 2000">
  <defs>
    <style>
      .cls-1, .cls-2, .cls-3 {
        stroke-width: 0px;
      }

      .cls-2 {
        fill: #ec1c24;
      }

      .cls-3 {
        fill: #ffdc18;
      }

      .cls-4 {
        fill: none;
        stroke: #ffdc18;
        stroke-miterlimit: 10;
      }
    </style>
  </defs>
  <g>
    <path class="cls-3" d="m346.33,946.5c4.87,2.92,8.91,6.74,12.14,11.46,3.22,4.73,4.83,10.46,4.83,17.19s-1.69,12.85-5.07,17.92c-3.38,5.07-7.78,9.24-13.2,12.5-5.26,3.2-11.21,5.63-17.85,7.29-6.64,1.67-13.49,2.5-20.56,2.5h-79.18v-7.4c1.89-.14,4.63-.43,8.25-.89,3.61-.45,6.2-.99,7.78-1.62,2.43-.97,4.16-2.27,5.18-3.91,1.02-1.63,1.53-3.73,1.53-6.31v-106.29c0-2.36-.45-4.45-1.35-6.25-.9-1.81-2.69-3.26-5.36-4.38-2.36-1.04-4.99-1.84-7.89-2.4-2.91-.56-5.34-.9-7.31-1.04v-7.4h77.18c5.97,0,11.68.52,17.14,1.56,5.46,1.04,10.66,2.88,15.61,5.52,4.63,2.43,8.44,5.73,11.43,9.9,2.98,4.17,4.48,9.24,4.48,15.21,0,5.21-1.06,9.85-3.18,13.91-2.12,4.06-5.11,7.56-8.96,10.47-3.61,2.78-7.76,5.12-12.43,7.03-4.67,1.91-9.72,3.39-15.14,4.43v.94c4.79.49,10.15,1.55,16.08,3.18,5.93,1.63,11.21,3.91,15.85,6.83Zm-28.5-22.32c2.9-2.99,4.92-6.26,6.05-9.81,1.14-3.55,1.7-7.76,1.7-12.63,0-8.14-2.51-14.53-7.52-19.16-5.02-4.63-12.93-6.94-23.74-6.94-2.51,0-5.66.05-9.46.16-3.8.1-7,.19-9.58.26v56.9h14.93c6.43,0,11.93-.73,16.52-2.19s8.29-3.65,11.11-6.58Zm16.36,47.22c0-8.75-3.32-15.94-9.96-21.57-6.64-5.63-16.12-8.44-28.46-8.44-5.03,0-9.27.05-12.73.16-3.46.1-6.05.19-7.78.26v52.11c0,4.38,2,7.68,6.01,9.9,4.01,2.22,9.58,3.33,16.73,3.33,11.7,0,20.66-3.02,26.86-9.07,6.2-6.04,9.31-14.94,9.31-26.68Z"/>
    <path class="cls-3" d="m519.77,971.41l-3.53,43.98h-130.67v-7.4c1.89-.14,4.61-.38,8.19-.73,3.57-.35,6.07-.8,7.48-1.36,2.36-.9,4.06-2.22,5.13-3.96,1.06-1.74,1.59-3.96,1.59-6.67v-105.88c0-2.36-.45-4.45-1.35-6.25-.9-1.81-2.69-3.26-5.36-4.38-1.81-.83-4.34-1.65-7.6-2.45-3.26-.8-5.95-1.27-8.07-1.41v-7.4h70.58v7.4c-2.2.07-5.05.42-8.54,1.04-3.5.63-6.03,1.18-7.6,1.67-2.67.83-4.5,2.26-5.48,4.27-.98,2.02-1.47,4.17-1.47,6.46v99.31c0,4.58.25,8.15.77,10.68.51,2.54,1.71,4.5,3.59,5.89,1.81,1.25,4.5,2.07,8.07,2.45,3.57.38,8.58.57,15.02.57,2.9,0,5.93-.07,9.07-.21,3.14-.14,6.13-.42,8.96-.83,2.75-.42,5.28-.99,7.6-1.72,2.32-.73,4.02-1.65,5.13-2.76,3.22-3.19,6.97-8.04,11.25-14.54,4.28-6.5,7.25-11.76,8.9-15.79h8.37Z"/>
    <path class="cls-3" d="m687.09,1015.38h-69.5v-7.4c6.13-.35,11.21-1.04,15.26-2.08,4.04-1.04,6.07-2.33,6.07-3.86,0-.62-.08-1.39-.24-2.29-.16-.9-.39-1.7-.71-2.4l-13.85-33.14h-58.69c-2.2,4.86-3.99,9.1-5.37,12.71-1.38,3.61-2.62,6.95-3.72,10-1.02,2.99-1.73,5.42-2.12,7.29-.39,1.88-.59,3.4-.59,4.59,0,2.78,2.47,4.93,7.42,6.46,4.95,1.53,10.53,2.43,16.73,2.71v7.4h-62.97v-7.4c2.04-.14,4.6-.54,7.66-1.2,3.06-.66,5.58-1.54,7.54-2.66,3.14-1.88,5.58-3.84,7.31-5.89,1.73-2.05,3.42-4.88,5.07-8.49,8.4-18.55,17.67-39.39,27.81-62.53,10.13-23.13,19.17-43.73,27.1-61.8h9.43l55.73,127.55c1.18,2.71,2.51,4.9,4.01,6.57,1.49,1.67,3.57,3.3,6.24,4.9,1.81.97,4.16,1.79,7.07,2.45,2.9.66,5.34,1.03,7.31,1.09v7.4Zm-67.27-60.44l-25.33-57.38-24.96,57.38h50.29Z"/>
    <path class="cls-3" d="m766.67,1018.93c-9.97,0-19.52-1.74-28.67-5.21-9.14-3.47-17.25-8.48-24.31-15.02-6.99-6.53-12.56-14.51-16.72-23.93-4.16-9.42-6.24-20.04-6.24-31.86s2.04-22.54,6.12-32.17c4.08-9.63,9.73-17.92,16.95-24.87,7.14-6.88,15.58-12.2,25.31-15.95,9.73-3.75,20.13-5.63,31.2-5.63,8.24,0,15.69.9,22.36,2.71,6.67,1.81,13.03,4.34,19.07,7.61l4.83-7.09h9.43l1.06,52.73h-9.66c-1.26-5.14-3.14-10.72-5.65-16.73-2.51-6.01-5.45-11.1-8.83-15.27-3.77-4.72-8.24-8.42-13.42-11.1-5.18-2.67-11.1-4.01-17.77-4.01-7.61,0-14.69,1.49-21.24,4.48-6.55,2.99-12.22,7.41-17,13.24-4.55,5.63-8.12,12.8-10.71,21.49-2.59,8.69-3.88,18.39-3.88,29.1,0,9.46,1.35,18.13,4.06,26.02,2.71,7.89,6.57,14.83,11.59,20.81,5.02,5.91,10.96,10.53,17.83,13.87s14.54,5.01,23.01,5.01c6.35,0,12.2-.89,17.54-2.66,5.34-1.77,9.96-4.12,13.89-7.03,3.92-3.06,7.37-6.53,10.36-10.42,2.98-3.89,5.41-8.13,7.3-12.71l8.84,3.75c-6.75,14.66-15.7,25.13-26.84,31.42-11.15,6.29-24.41,9.43-39.79,9.43Z"/>
    <path class="cls-3" d="m1010.28,1015.38h-46.89c-9.03-12.37-19.07-24.65-30.1-36.84-11.04-12.19-22.6-24.02-34.7-35.48h-3.06v51.48c0,2.29.49,4.34,1.47,6.15.98,1.81,2.77,3.27,5.36,4.38,1.26.49,3.59,1.08,7.01,1.77,3.42.7,6.26,1.08,8.54,1.15v7.4h-69.4v-7.4c1.81-.14,4.44-.35,7.89-.62,3.46-.28,5.89-.69,7.31-1.25,2.36-.9,4.06-2.24,5.13-4.01s1.59-3.91,1.59-6.41v-106.71c0-2.36-.45-4.41-1.35-6.15-.9-1.74-2.69-3.16-5.36-4.27-2.12-.9-4.64-1.7-7.54-2.4-2.91-.69-5.46-1.11-7.66-1.25v-7.4h69.4v7.4c-2.2.07-4.95.38-8.25.94-3.3.56-5.73,1.08-7.31,1.56-2.67.83-4.48,2.22-5.42,4.17-.94,1.95-1.41,4.06-1.41,6.36v51.06h2.36c7.07-5.28,14.02-10.79,20.86-16.52,6.83-5.73,13.04-11.45,18.62-17.14,6.2-6.32,10.74-11.38,13.61-15.16,2.87-3.79,4.3-7.14,4.3-10.06,0-1.04-.73-1.89-2.18-2.55-1.45-.66-3.12-1.2-5.01-1.62-2.2-.42-4.16-.68-5.89-.78-1.73-.1-3.14-.19-4.24-.26v-7.4h62.68v7.4c-.24,0-.75.04-1.53.1-.78.07-1.69.14-2.71.21-1.1.07-2.2.21-3.3.42s-2.51.45-4.24.73c-2.75.56-5.59,1.44-8.54,2.66-2.94,1.22-5.36,2.73-7.24,4.53-8.09,8.13-16.52,16.54-25.3,25.23-8.78,8.69-17.49,16.62-26.11,23.77,11.95,11.94,21.84,22.22,29.67,30.83,7.82,8.61,16.14,17.81,24.95,27.6,3.36,3.75,6.73,6.76,10.09,9.01,3.36,2.26,6.26,3.94,8.68,5.05,2.03.9,4.57,1.6,7.62,2.08,3.05.49,5.59.76,7.62.83v7.4Z"/>
    <path class="cls-3" d="m1122.57,874.91c-2.2.07-4.93.33-8.19.78-3.26.45-6.03,1.03-8.31,1.72-2.67.83-4.48,2.22-5.42,4.17-.94,1.95-1.41,4.06-1.41,6.36v87.64c0,4.59-1.04,9.45-3.12,14.59-2.08,5.14-5.12,9.73-9.13,13.76-4.64,4.72-10.15,8.41-16.55,11.05-6.4,2.64-13.73,3.96-21.97,3.96-12.8,0-23.19-3.18-31.17-9.54-7.97-6.36-11.96-14.92-11.96-25.69,0-4.72,1.37-8.91,4.12-12.56,2.75-3.65,6.75-5.47,12.02-5.47,4.71,0,8.5,1.16,11.37,3.49,2.87,2.33,4.3,5.4,4.3,9.22,0,2.22-.51,4.45-1.53,6.67-1.02,2.22-2.16,4.2-3.42,5.94-1.18,1.6-2.51,3.47-4.01,5.63-1.49,2.15-2.55,4.1-3.18,5.84,1.65,2.29,4.22,4.31,7.72,6.04,3.49,1.74,8.19,2.61,14.08,2.61s10.43-1.16,14.08-3.49c3.65-2.33,6.38-5.44,8.19-9.33,1.73-3.61,2.96-8.06,3.71-13.34.75-5.28,1.12-11.19,1.12-17.72v-78.26c0-2.43-.45-4.46-1.35-6.1-.9-1.63-2.77-3.07-5.6-4.32-2.44-1.11-5.48-1.96-9.13-2.55-3.65-.59-6.66-.95-9.01-1.09v-7.4h73.76v7.4Z"/>
    <path class="cls-3" d="m1296.37,1015.38h-69.5v-7.4c6.13-.35,11.21-1.04,15.26-2.08,4.04-1.04,6.07-2.33,6.07-3.86,0-.62-.08-1.39-.24-2.29-.16-.9-.39-1.7-.71-2.4l-13.85-33.14h-58.69c-2.2,4.86-3.99,9.1-5.37,12.71-1.38,3.61-2.62,6.95-3.72,10-1.02,2.99-1.73,5.42-2.12,7.29-.39,1.88-.59,3.4-.59,4.59,0,2.78,2.47,4.93,7.42,6.46,4.95,1.53,10.53,2.43,16.73,2.71v7.4h-62.97v-7.4c2.04-.14,4.6-.54,7.66-1.2,3.06-.66,5.58-1.54,7.54-2.66,3.14-1.88,5.58-3.84,7.3-5.89,1.73-2.05,3.42-4.88,5.07-8.49,8.4-18.55,17.67-39.39,27.81-62.53,10.13-23.13,19.17-43.73,27.1-61.8h9.43l55.73,127.55c1.18,2.71,2.51,4.9,4.01,6.57,1.49,1.67,3.57,3.3,6.25,4.9,1.81.97,4.16,1.79,7.07,2.45,2.91.66,5.34,1.03,7.31,1.09v7.4Zm-67.27-60.44l-25.33-57.38-24.96,57.38h50.29Z"/>
    <path class="cls-3" d="m1375.96,1018.93c-9.97,0-19.52-1.74-28.67-5.21-9.14-3.47-17.25-8.48-24.31-15.02-6.99-6.53-12.56-14.51-16.72-23.93-4.16-9.42-6.24-20.04-6.24-31.86s2.04-22.54,6.12-32.17c4.08-9.63,9.73-17.92,16.95-24.87,7.14-6.88,15.58-12.2,25.31-15.95s20.13-5.63,31.2-5.63c8.24,0,15.69.9,22.37,2.71,6.67,1.81,13.03,4.34,19.07,7.61l4.83-7.09h9.43l1.06,52.73h-9.66c-1.25-5.14-3.14-10.72-5.65-16.73-2.51-6.01-5.45-11.1-8.83-15.27-3.77-4.72-8.24-8.42-13.42-11.1-5.18-2.67-11.1-4.01-17.77-4.01-7.61,0-14.69,1.49-21.24,4.48-6.55,2.99-12.22,7.41-17,13.24-4.55,5.63-8.12,12.8-10.71,21.49-2.59,8.69-3.88,18.39-3.88,29.1,0,9.46,1.35,18.13,4.06,26.02,2.71,7.89,6.57,14.83,11.59,20.81,5.02,5.91,10.96,10.53,17.83,13.87s14.54,5.01,23.01,5.01c6.36,0,12.2-.89,17.54-2.66,5.34-1.77,9.96-4.12,13.89-7.03,3.92-3.06,7.37-6.53,10.36-10.42,2.98-3.89,5.41-8.13,7.3-12.71l8.84,3.75c-6.75,14.66-15.7,25.13-26.84,31.42s-24.41,9.43-39.79,9.43Z"/>
    <path class="cls-3" d="m1619.56,1015.38h-46.89c-9.03-12.37-19.07-24.65-30.1-36.84-11.04-12.19-22.6-24.02-34.7-35.48h-3.06v51.48c0,2.29.49,4.34,1.47,6.15.98,1.81,2.77,3.27,5.36,4.38,1.26.49,3.59,1.08,7.01,1.77,3.42.7,6.26,1.08,8.54,1.15v7.4h-69.4v-7.4c1.81-.14,4.44-.35,7.89-.62,3.46-.28,5.89-.69,7.3-1.25,2.36-.9,4.07-2.24,5.13-4.01s1.59-3.91,1.59-6.41v-106.71c0-2.36-.45-4.41-1.35-6.15-.9-1.74-2.69-3.16-5.36-4.27-2.12-.9-4.64-1.7-7.54-2.4-2.91-.69-5.46-1.11-7.66-1.25v-7.4h69.4v7.4c-2.2.07-4.95.38-8.25.94-3.3.56-5.73,1.08-7.3,1.56-2.67.83-4.48,2.22-5.42,4.17-.94,1.95-1.41,4.06-1.41,6.36v51.06h2.36c7.07-5.28,14.02-10.79,20.86-16.52,6.83-5.73,13.04-11.45,18.62-17.14,6.2-6.32,10.74-11.38,13.61-15.16,2.87-3.79,4.3-7.14,4.3-10.06,0-1.04-.73-1.89-2.18-2.55-1.45-.66-3.12-1.2-5.01-1.62-2.2-.42-4.17-.68-5.89-.78-1.73-.1-3.14-.19-4.24-.26v-7.4h62.68v7.4c-.24,0-.75.04-1.53.1-.78.07-1.69.14-2.71.21-1.1.07-2.2.21-3.3.42-1.1.21-2.51.45-4.24.73-2.75.56-5.6,1.44-8.54,2.66-2.94,1.22-5.36,2.73-7.24,4.53-8.09,8.13-16.52,16.54-25.3,25.23-8.78,8.69-17.49,16.62-26.11,23.77,11.95,11.94,21.84,22.22,29.67,30.83,7.83,8.61,16.14,17.81,24.95,27.6,3.36,3.75,6.73,6.76,10.09,9.01,3.36,2.26,6.26,3.94,8.68,5.05,2.03.9,4.57,1.6,7.62,2.08,3.05.49,5.59.76,7.62.83v7.4Z"/>
  </g>
  <path class="cls-1" d="m876.8,1294.72c-9.85,18.43-34.27,35.8-66.47,33.18-25.58-2.06-49.87-17.37-64.16-39.87,20.4,60.97,37.53,76.81,50.44,77.87,9.65.78,18.02-6.8,35.58-4.62,12.01,1.49,21.75,6.71,28.21,11.05l-181.66,23.58c3.42-5.01,9.74-12.42,20.02-17.31,17.29-8.13,30.59-1.74,40.32-6.15,10.28-4.89,18.68-22.92,6.88-84.4-3.82,24.85-20.27,45.35-43.54,53.85-29.2,10.59-59.66.34-76.92-14.57-29.78-25.76-38.85-83.33-1.54-131.4l77.58-110.32.52.85.13-.93,120.28,84.74c55.56,35.81,71.62,92.57,54.35,124.44Z"/>
  <path class="cls-1" d="m1210.34,1120.12c-3.49-.38-7.88-.62-13.15-.71-5.28-.09-9.82.09-13.63.54-4.47.55-7.75,2.05-9.83,4.49-2.09,2.44-3.48,5.21-4.19,8.32l-27,118.98c-1.41,6.23-4.55,12.6-9.42,19.13-4.87,6.53-11.08,12.1-18.63,16.7-8.76,5.41-18.6,9.22-29.5,11.42-10.91,2.2-22.86,2.41-35.87.63-20.19-2.77-35.59-9.33-46.2-19.68-10.61-10.35-14.26-22.84-10.94-37.46,1.46-6.41,4.91-11.8,10.37-16.16,5.46-4.36,12.34-5.97,20.63-4.83,7.43,1.02,13.05,3.42,16.85,7.2,3.8,3.78,5.12,8.26,3.94,13.45-.69,3.02-2.18,5.93-4.47,8.72-2.3,2.8-4.7,5.24-7.22,7.33-2.35,1.92-5.04,4.17-8.05,6.77-3.02,2.6-5.29,5.01-6.81,7.24,1.89,3.47,5.33,6.76,10.31,9.87,4.97,3.11,12.11,5.31,21.4,6.58,9.04,1.24,16.8.67,23.27-1.7,6.48-2.37,11.74-6,15.79-10.89,3.83-4.53,7.16-10.3,9.96-17.31,2.8-7,5.21-14.94,7.22-23.81l24.11-106.25c.75-3.3.66-6.16-.26-8.57-.92-2.41-3.42-4.77-7.49-7.08-3.5-2.03-8.03-3.85-13.61-5.44-5.58-1.59-10.2-2.73-13.87-3.43l2.28-10.04,116.29,15.94-2.28,10.04Z"/>
  <path class="cls-4" d="m988.04,799.79c-336.94-138.06-669.74-149.33-833.18-21.2-23.35,18.31-105.44,82.66-105.24,169.6.35,156.19,265.9,216.11,263.11,339.2-1.2,53.01-52.51,131.83-315.73,226.13"/>
  <path class="cls-4" d="m102.23,623.12c373.74-101.68,856.26-164.64,1350.63-42.4,118.21,29.23,529.83,131.01,543.76,296.8,14.85,176.71-433.76,287.27-403.44,452.26,15.87,86.37,155.08,144.62,298.19,183.73"/>
  <path class="cls-1" d="m1204.18,646.99c-4.52,6.83-15.36,13.45-29.32,12.91-11.09-.43-21.44-5.69-27.36-13.7,8.06,21.92,15.3,27.47,20.89,27.69,4.18.16,7.92-2.7,15.52-2.13,5.2.39,9.36,2.17,12.11,3.67l-79.24,10.86c1.55-1.87,4.39-4.64,8.93-6.55,7.62-3.17,13.31-1.02,17.6-2.74,4.53-1.91,8.42-8.57,4.1-30.79-1.99,9.09-9.41,16.75-19.63,20.14-12.83,4.22-25.93.87-33.23-4.33-12.6-9-15.78-29.83,1.06-47.78l35.16-41.11.21.3.07-.34,51.15,29.31c23.67,12.33,29.9,32.78,21.98,44.59Z"/>
  <g>
    <g>
      <path class="cls-2" d="m1368.5,680.28l-49.78,31.11c-1.78-11.58-2.89-25.4-2.17-41.02.54-11.65,2-22.29,3.85-31.67,5.41.06,10.82.12,16.23.18,5.46-10.06,16.46-16.94,28.28-17.71,12.2-.8,22.63,5.09,26.96,12.41,7.46,12.63-.72,33.76-23.36,46.69Z"/>
      <path class="cls-2" d="m1316.84,714.99l-.5-3.25c-2.09-13.59-2.83-27.5-2.19-41.34.49-10.6,1.79-21.33,3.88-31.91l.35-1.78,16.79.19c6.03-10,17.51-16.89,29.67-17.69,14.12-.92,24.85,6.08,29.2,13.45,7.51,12.72.4,35.14-24.19,49.21l-53.01,33.13Zm5.59-74.29c-1.85,9.84-3.02,19.8-3.47,29.64-.58,12.52-.01,25.09,1.68,37.43l46.56-29.1c22.43-12.81,29.14-32.9,22.49-44.16-3.56-6.02-12.8-12.16-24.71-11.38-10.85.71-21.11,7.17-26.15,16.47l-.69,1.27-15.7-.18Z"/>
    </g>
    <g>
      <path class="cls-2" d="m1349.75,642.39c-2.78,9.26-6.49,19.62-11.55,30.7-6.81,14.85-14.48,27.56-21.7,38.02l-31.87-41.39c-15.08-17.69-12.66-39.54.42-49.59,7.57-5.82,20.18-8.81,31.28-5.08,10.73,3.62,17.77,12.76,18.07,23.56,5.11,1.25,10.22,2.53,15.35,3.78Z"/>
      <path class="cls-2" d="m1316.55,714.95l-33.98-44.12c-16.35-19.17-12.29-41.99.88-52.11,7.6-5.85,21.03-9.82,33.88-5.5,11.05,3.72,18.53,13,19.4,23.88l15.88,3.91-.53,1.77c-3.16,10.54-7.08,20.95-11.64,30.93-6,13.1-13.36,25.99-21.87,38.32l-2.03,2.94Zm-6.79-99.34c-9.06-1.14-17.95,1.94-23.11,5.92-11.65,8.95-14.97,29.46-.02,46.99l29.81,38.71c7.53-11.24,14.09-22.92,19.52-34.77,4.24-9.27,7.91-18.92,10.93-28.7l-14.85-3.66-.04-1.36c-.28-9.96-6.83-18.55-16.68-21.87-1.84-.62-3.71-1.03-5.56-1.26Z"/>
    </g>
  </g>
  <path class="cls-1" d="m1295.57,810.09c-.89-.72-1.79-1.17-2.98-1.13.05.1.05.17.1.24,3.28,21,9.48,27.04,15.19,27.97,4.37.69,8.94-1.55,16.78,0,5.36,1.03,9.33,3.26,11.87,5.02h-85.74c2.09-1.55,5.71-3.81,10.92-5.02,8.74-2.03,14.2.76,19.12-.31,5.16-1.2,10.72-6.91,11.62-27.83t.05-.07c-2.83.1-3.23,2.85-8.24,6.15-5.76,5.09-14.8,8.35-24.87,8.35-17.48,0-31.68-9.79-31.68-21.89s14.2-21.92,31.68-21.92c2.28,0,4.52.17,6.7.52h.05c2.63-.07,5.01-.17,5.81-1.24.99-1.44-2.04-3.26-3.82-5.43-.05-.03-.05-.07-.05-.1-4.17-3.68-6.6-8.28-6.6-13.3,0-12.1,14.15-21.89,31.63-21.89s31.63,9.79,31.63,21.89c0,4.74-2.18,9.11-5.91,12.68,0,0-.05,0-.05.03s-.05.03-.05.07c-1.69,2.2-5.26,4.12-4.02,5.81.74,1,2.48,1.2,4.57,1.31h.05c1.79-.24,3.62-.34,5.46-.34,17.48,0,31.63,9.79,31.63,21.92s-14.15,21.89-31.63,21.89c-13.16,0-24.38-5.5-29.19-13.37Z"/>
  <polygon class="cls-2" points="1572.22 734.02 1496.72 771.52 1473.84 710.09 1549.34 672.59 1572.22 734.02"/>
  <polygon class="cls-2" points="1835.33 922.09 1812.45 983.52 1736.95 946.02 1759.83 884.59 1835.33 922.09"/>
  <path class="cls-1" d="m1771.43,808.57c-.53-.92-1.18-1.59-2.32-1.89,0,.11-.03.18,0,.25-5.83,20.63-2.57,28.03,2.4,30.47,3.81,1.85,9.05,1.01,15.77,4.62,4.6,2.45,7.39,5.64,9.02,7.98l-80.57-23.63c2.62-.88,6.98-2.01,12.39-1.7,9.07.5,13.02,4.62,18.09,4.98,5.36.29,13.01-3.53,22.73-22.95t.08-.05c-2.7-.68-4.24,1.79-10.36,3.51-7.57,3.19-17.45,3.77-26.92.99-16.42-4.82-25.61-17.93-20.47-29.3,5.15-11.4,22.65-16.69,39.07-11.87,2.15.63,4.17,1.41,6.08,2.33h.05c2.5.67,4.79,1.23,5.98.45,1.55-1.08-.53-3.63-1.29-6.16-.03-.05-.02-.08,0-.11-2.36-4.6-2.69-9.6-.56-14.32,5.13-11.37,22.59-16.67,39.01-11.85,16.42,4.82,25.56,17.92,20.43,29.28-2.01,4.46-5.92,7.95-10.93,10.29,0,0-.05-.01-.06.02s-.06.02-.08.05c-2.52,1.6-6.7,2.42-6.24,4.35.28,1.14,1.82,1.81,3.74,2.49h.05c1.78.28,3.55.69,5.28,1.2,16.42,4.82,25.56,17.92,20.41,29.32-5.13,11.37-22.59,16.67-39.01,11.85-12.36-3.63-20.57-11.88-21.76-20.61Z"/>
  <g>
    <g>
      <path class="cls-2" d="m1754.96,1057.74l-13.31,49.61c-10.61-7.95-22.48-17.96-34.39-30.3-8.89-9.2-16.25-18.11-22.32-26.25,4.19-2.76,8.39-5.51,12.58-8.27-3.84-10.53-.91-21.5,7.53-28.21,8.71-6.93,21.39-7.83,30.55-4.45,15.79,5.81,26.38,26.23,19.35,47.87Z"/>
      <path class="cls-2" d="m1743.08,1111.09l-2.98-2.23c-12.45-9.33-24.11-19.6-34.66-30.53-8.08-8.37-15.65-17.27-22.49-26.45l-1.15-1.55,13.01-8.55c-3.36-10.79-.06-22.01,8.62-28.91,10.09-8.02,23.89-8.21,33.1-4.83,15.9,5.85,28.34,26.71,20.73,50.22l-14.18,52.83Zm-54.98-59.8c6.43,8.5,13.48,16.74,20.98,24.5,9.54,9.89,20.01,19.23,31.15,27.8l12.45-46.41c6.96-21.43-3.92-40.29-18-45.47-7.53-2.77-19.51-2.69-28,4.08-7.74,6.16-10.45,16.43-6.9,26.16l.48,1.33-12.17,8Z"/>
    </g>
    <g>
      <path class="cls-2" d="m1710.38,1038.43c5.26,8.53,10.68,18.39,15.64,29.5,6.63,14.9,10.89,28.61,13.71,40.37l-57.44-15.2c-25.67-5.74-41.24-23.73-39.24-38.21,1.15-8.38,8.43-17.2,19.91-20.09,11.11-2.79,23.79.57,32.64,8.68,4.92-1.69,9.84-3.36,14.78-5.05Z"/>
      <path class="cls-2" d="m1742.83,1111.21l-61.23-16.2c-27.81-6.22-42.91-25.81-40.9-40.38,1.16-8.42,8.27-18.41,21.56-21.76,11.44-2.87,24.57.36,33.91,8.24l15.29-5.23,1.01,1.63c5.99,9.71,11.29,19.71,15.75,29.72,5.85,13.14,10.5,26.83,13.82,40.68l.79,3.3Zm-84.45-72.58c-7.85,3.82-12.2,10.78-12.98,16.51-1.78,12.89,12.04,30.32,37.47,36.01l53.72,14.21c-3.2-12.51-7.49-24.85-12.78-36.74-4.15-9.3-9.03-18.59-14.52-27.64l-14.29,4.89-1.12-1.03c-8.16-7.49-20.03-10.67-30.22-8.12-1.9.48-3.66,1.13-5.27,1.91Z"/>
    </g>
  </g>
  <path class="cls-1" d="m1672.32,846.51c-8.15,4.09-21.65,5.46-33.4-.63-9.34-4.84-15.04-13.57-15.19-22.88-6.62,22.23-3.8,29.95.91,32.4,3.52,1.82,8.53.85,14.76,4.41,4.26,2.43,6.76,5.65,8.21,8.05l-75.37-22.52c2.5-.99,6.69-2.25,11.79-2.08,8.57.32,12.16,4.48,16.94,4.71,5.11.17,12.61-4.03,22.66-25.01-7.36,7.07-18.54,10.72-29.49,9.53-13.73-1.51-23-9.69-26.09-17.14-5.33-12.87,4.84-32.19,30.57-40.95l55.96-21.43v.35s.27-.27.27-.27l26.1,45.99c12.85,20.21,5.56,40.43-8.63,47.47Z"/>
</svg>