<?xml version="1.0" encoding="UTF-8"?>
<svg id="Layer_1" data-name="Layer 1" width="60" height="90"  xmlns="http://www.w3.org/2000/svg" xmlns:xlink="http://www.w3.org/1999/xlink" viewBox="0 0 100 150">
  <defs>
    <style>
      .cls-1 {
        fill: url(#linear-gradient);
      }

      .cls-1, .cls-2 {
        stroke-width: 0px;
      }

      .cls-3 {
        fill: url(#linear-gradient-2);
        stroke: #d1d3d4;
        stroke-miterlimit: 10;
        stroke-width: .25px;
      }
    </style>
    <linearGradient id="linear-gradient" x1="5.24" y1="75.39" x2="95.24" y2="75.39" gradientUnits="userSpaceOnUse">
      <stop offset="0" stop-color="#e6e7e8"/>
      <stop offset="1" stop-color="#f1f2f2"/>
    </linearGradient>
    <linearGradient id="linear-gradient-2" x1="8.89" y1="75.81" x2="91.89" y2="75.81" gradientUnits="userSpaceOnUse">
      <stop offset="0" stop-color="#fff"/>
      <stop offset="1" stop-color="#e6e7e8"/>
    </linearGradient>
  </defs>
  <rect class="cls-1" x="5.24" y="7.89" width="90" height="135" rx="8.37" ry="8.37"/>
  <rect class="cls-3" x="8.89" y="12.31" width="83" height="127" rx="7.94" ry="7.94"/>
  <path class="cls-2" d="m25.11,26.92s-.03.07-.12.12c-1.61.76-2.62.46-3.72-1.03-.23.09-.49.17-.76.22-1.18.27-2.48.03-3.36-.46-.61-.35-1.06-.89-1.18-1.51-.09-.46,0-.97.35-1.49-.37-.01-.56-.16-.61-.39-.05-.3.14-.73.53-1.17-.39-.08-.47-.43-.38-.89.12-.61.58-1.41,1.07-1.93.71-.76,1.49-1.28,2.35-1.53.19-.05.3-.04.31.01s-.04.09-.19.14c-.71.25-1.34.81-1.76,1.33-.6.77-.81,1.92-.14,1.9.07,0,.12.01.12.04s-.03.07-.1.12c-.68.52-.69,1.12-.08,1.12.05,0,.08.01.09.04.01.03-.01.07-.05.1-.75.7-.61,2.17.28,3.09.71.72,1.7,1.03,2.58.89.19-.03.38-.09.57-.16l-.15-.23c-.79-1.3-1.36-2.06-2.69-1.66-.09.03-.15.01-.16-.03s.05-.08.12-.12c1.65-.8,2.74-.68,3.73,1.04l.12.21c.2-.29.34-.63.41-1.02.07-.51.05-1.44-.46-1.44-.07,0-.11-.01-.11-.04,0-.04.04-.06.1-.1.34-.25.47-.48.46-.67-.01-.17-.18-.27-.49-.26-.07,0-.14.01-.15-.04-.01-.04.03-.08.08-.12.73-.59.53-1.74-.04-2.49-.46-.6-1.17-.94-1.82-.51-.04.04-.08.05-.09.04-.03-.01-.03-.05,0-.1.08-.16.04-.23-.08-.22-.15,0-.41.13-.64.37-.03.03-.05.04-.08.03-.03-.01-.04-.05-.01-.12.24-.42.61-.83.96-1.1.33-.26.65-.38.88-.27.2.09.14.38-.05.6.72-.43,1.49-.16,2.01.4.61.65.87,1.72.27,2.52.35.01.56.16.61.34.07.26-.12.63-.57.94.43.13.58.65.54,1.29-.07.72-.38,1.59-.87,2.18-.14.17-.28.33-.45.46.9,1.4,1.48,1.79,2.62,1.51.11-.01.18-.01.19.03Z"/>
  <path class="cls-2" d="m71.87,92.7c.05.09-.1.23-.45.42-5.97,2.72-9.69,1.64-13.75-3.71-.85.33-1.81.61-2.81.8-4.37.98-9.18.09-12.45-1.64-2.26-1.27-3.91-3.19-4.37-5.44-.35-1.64,0-3.47,1.31-5.35-1.35-.05-2.06-.56-2.26-1.41-.2-1.08.5-2.63,1.96-4.22-1.46-.28-1.76-1.55-1.41-3.19.45-2.2,2.16-5.07,3.96-6.94,2.61-2.72,5.52-4.6,8.68-5.49.7-.19,1.1-.14,1.15.05.05.19-.15.33-.7.52-2.61.89-4.97,2.91-6.52,4.78-2.21,2.77-3.01,6.9-.5,6.85.25,0,.45.05.45.14s-.1.23-.35.42c-2.51,1.88-2.56,4.03-.3,4.03.2,0,.3.05.35.14s-.05.23-.2.38c-2.76,2.53-2.26,7.79,1.05,11.12,2.61,2.58,6.27,3.71,9.54,3.19.7-.09,1.41-.33,2.11-.56l-.55-.84c-2.91-4.69-5.02-7.41-9.94-5.96-.35.09-.55.05-.6-.09s.2-.28.45-.42c6.12-2.86,10.14-2.44,13.8,3.75l.45.75c.75-1.03,1.25-2.25,1.51-3.66.25-1.83.2-5.16-1.71-5.16-.25,0-.4-.05-.4-.14,0-.14.15-.23.35-.38,1.25-.89,1.76-1.74,1.71-2.39-.05-.61-.65-.98-1.81-.94-.25,0-.5.05-.55-.14-.05-.14.1-.28.3-.42,2.71-2.11,1.96-6.24-.15-8.96-1.71-2.16-4.32-3.38-6.72-1.83-.15.14-.3.19-.35.14-.1-.05-.1-.19,0-.38.3-.56.15-.84-.3-.8-.55,0-1.51.47-2.36,1.31-.1.09-.2.14-.3.09-.1-.05-.15-.19-.05-.42.9-1.5,2.26-3,3.56-3.94,1.21-.94,2.41-1.36,3.26-.98.75.33.5,1.36-.2,2.16,2.66-1.55,5.52-.56,7.43,1.45,2.26,2.35,3.21,6.19,1,9.05,1.3.05,2.06.56,2.26,1.22.25.94-.45,2.25-2.11,3.38,1.61.47,2.16,2.35,2.01,4.64-.25,2.58-1.41,5.72-3.21,7.83-.5.61-1.05,1.17-1.66,1.64,3.31,5.02,5.47,6.43,9.69,5.44.4-.05.65-.05.7.09Z"/>
  <path class="cls-2" d="m75.68,124.71s.03-.07.12-.12c1.61-.76,2.62-.46,3.72,1.03.23-.09.49-.17.76-.22,1.18-.27,2.48-.03,3.36.46.61.35,1.06.89,1.18,1.51.1.46,0,.97-.35,1.49.37.01.56.16.61.39.05.3-.13.73-.53,1.17.39.08.47.43.38.89-.12.61-.58,1.41-1.07,1.93-.71.76-1.49,1.28-2.35,1.53-.19.05-.3.04-.31-.01s.04-.09.19-.14c.71-.25,1.34-.81,1.76-1.33.6-.77.81-1.92.13-1.9-.07,0-.12-.01-.12-.04s.03-.07.09-.12c.68-.52.69-1.12.08-1.12-.05,0-.08-.01-.09-.04s.01-.07.05-.1c.75-.71.61-2.17-.28-3.09-.71-.72-1.7-1.03-2.58-.89-.19.03-.38.09-.57.16l.15.23c.79,1.3,1.36,2.06,2.69,1.66.09-.03.15-.01.16.03s-.05.08-.12.12c-1.66.79-2.74.68-3.73-1.04l-.12-.21c-.2.29-.34.63-.41,1.02-.07.51-.05,1.44.46,1.44.07,0,.11.01.11.04,0,.04-.04.07-.09.1-.34.25-.47.48-.46.67.01.17.18.27.49.26.07,0,.13-.01.15.04.01.04-.03.08-.08.12-.73.59-.53,1.74.04,2.49.46.6,1.17.94,1.82.51.04-.04.08-.05.09-.04.03.01.03.05,0,.1-.08.16-.04.23.08.22.15,0,.41-.13.64-.37.03-.03.05-.04.08-.03.03.01.04.05.01.12-.24.42-.61.84-.96,1.1-.33.26-.65.38-.88.28-.2-.09-.14-.38.05-.6-.72.43-1.49.16-2.01-.41-.61-.65-.87-1.72-.27-2.52-.35-.01-.56-.16-.61-.34-.07-.26.12-.63.57-.94-.43-.13-.58-.65-.54-1.29.07-.72.38-1.59.87-2.18.14-.17.28-.33.45-.46-.9-1.4-1.48-1.79-2.62-1.51-.11.01-.18.01-.19-.03Z"/>
  <path class="cls-2" d="m28.76,112c.18.21.36.34.6.33-.01-.03-.01-.05-.02-.07-.66-6.11-1.91-7.87-3.06-8.14-.88-.2-1.8.45-3.38,0-1.08-.3-1.88-.95-2.39-1.46h17.27c-.42.45-1.15,1.11-2.2,1.46-1.76.59-2.86-.22-3.85.09-1.04.35-2.16,2.01-2.34,8.1t0,.02c.57-.03.65-.83,1.66-1.79,1.16-1.48,2.98-2.43,5.01-2.43,3.52,0,6.38,2.85,6.38,6.37s-2.86,6.38-6.38,6.38c-.46,0-.91-.05-1.35-.15h0c-.53.02-1.01.05-1.17.36-.2.42.41.95.77,1.58.01,0,.01.02.01.03.84,1.07,1.33,2.41,1.33,3.87,0,3.52-2.85,6.37-6.37,6.37s-6.37-2.85-6.37-6.37c0-1.38.44-2.65,1.19-3.69,0,0,.01,0,.01-.01,0,0,.01,0,.01-.02.34-.64,1.06-1.2.81-1.69-.15-.29-.5-.35-.92-.38h-.01c-.36.07-.73.1-1.1.1-3.52,0-6.37-2.85-6.37-6.38s2.85-6.37,6.37-6.37c2.65,0,4.91,1.6,5.88,3.89Z"/>
  <path class="cls-2" d="m71.46,39.72c-.18-.21-.36-.34-.6-.33.01.03.01.05.02.07.66,6.11,1.91,7.87,3.06,8.14.88.2,1.8-.45,3.38,0,1.08.3,1.88.95,2.39,1.46h-17.27c.42-.45,1.15-1.11,2.2-1.46,1.76-.59,2.86.22,3.85-.09,1.04-.35,2.16-2.01,2.34-8.1t0-.02c-.57.03-.65.83-1.66,1.79-1.16,1.48-2.98,2.43-5.01,2.43-3.52,0-6.38-2.85-6.38-6.37s2.86-6.38,6.38-6.38c.46,0,.91.05,1.35.15h0c.53-.02,1.01-.05,1.17-.36.2-.42-.41-.95-.77-1.58-.01,0-.01-.02-.01-.03-.84-1.07-1.33-2.41-1.33-3.87,0-3.52,2.85-6.37,6.37-6.37s6.37,2.85,6.37,6.37c0,1.38-.44,2.65-1.19,3.69,0,0-.01,0-.01.01s-.01,0-.01.02c-.34.64-1.06,1.2-.81,1.69.15.29.5.35.92.38h.01c.36-.07.73-.1,1.1-.1,3.52,0,6.37,2.85,6.37,6.38s-2.85,6.37-6.37,6.37c-2.65,0-4.91-1.6-5.88-3.89Z"/>
  <path class="cls-2" d="m19.74,38.01c-.08-.09-.15-.15-.25-.14,0,.01,0,.02,0,.03.28,2.61.8,3.36,1.28,3.48.37.09.76-.19,1.42,0,.45.13.79.41,1,.62h-7.25c.18-.19.48-.47.92-.62.74-.25,1.2.09,1.62-.04.44-.15.91-.86.98-3.46t0,0c-.24.01-.27.35-.7.77-.49.63-1.25,1.04-2.1,1.04-1.48,0-2.68-1.22-2.68-2.72s1.2-2.73,2.68-2.73c.19,0,.38.02.57.06h0c.22,0,.42-.02.49-.15.08-.18-.17-.41-.32-.68,0,0,0,0,0-.01-.35-.46-.56-1.03-.56-1.65,0-1.5,1.2-2.72,2.67-2.72s2.67,1.22,2.67,2.72c0,.59-.18,1.13-.5,1.58,0,0,0,0,0,0s0,0,0,0c-.14.27-.44.51-.34.72.06.12.21.15.39.16h0c.15-.03.31-.04.46-.04,1.48,0,2.67,1.22,2.67,2.73s-1.2,2.72-2.67,2.72c-1.11,0-2.06-.68-2.47-1.66Z"/>
  <path class="cls-2" d="m81.05,113.71c.08.09.15.15.25.14,0-.01,0-.02,0-.03-.28-2.61-.8-3.36-1.28-3.48-.37-.09-.76.19-1.42,0-.45-.13-.79-.41-1-.62h7.25c-.18.19-.48.47-.92.62-.74.25-1.2-.09-1.62.04-.44.15-.91.86-.98,3.46t0,0c.24-.01.27-.35.7-.77.49-.63,1.25-1.04,2.1-1.04,1.48,0,2.68,1.22,2.68,2.72s-1.2,2.73-2.68,2.73c-.19,0-.38-.02-.57-.06h0c-.22,0-.42.02-.49.15-.08.18.17.41.32.68,0,0,0,0,0,.01.35.46.56,1.03.56,1.65,0,1.5-1.2,2.72-2.67,2.72s-2.67-1.22-2.67-2.72c0-.59.18-1.13.5-1.58,0,0,0,0,0,0,0,0,0,0,0,0,.14-.27.44-.51.34-.72-.06-.12-.21-.15-.39-.16h0c-.15.03-.31.04-.46.04-1.48,0-2.67-1.22-2.67-2.73s1.2-2.72,2.67-2.72c1.11,0,2.06.68,2.47,1.66Z"/>
</svg>