<?xml version="1.0" encoding="UTF-8"?>
<svg id="Layer_1" data-name="Layer 1" xmlns="http://www.w3.org/2000/svg" viewBox="0 0 101.1 101.1">
  <defs>
    <style>
      .cls-1 {
        stroke: #918d8d;
      }

      .cls-1, .cls-2, .cls-3, .cls-4, .cls-5, .cls-6, .cls-7 {
        stroke-miterlimit: 10;
      }

      .cls-1, .cls-3, .cls-4, .cls-5, .cls-7 {
        stroke-width: .25px;
      }

      .cls-1, .cls-4, .cls-8, .cls-9, .cls-7 {
        fill: none;
      }

      .cls-10, .cls-2, .cls-5 {
        fill: #fff;
      }

      .cls-2, .cls-4, .cls-7 {
        stroke: #f19020;
      }

      .cls-3, .cls-5, .cls-6 {
        stroke: #faa51e;
      }

      .cls-3, .cls-6, .cls-11 {
        fill: #faa51e;
      }

      .cls-12 {
        fill: #f19020;
      }

      .cls-4 {
        stroke-dasharray: 0 0 0 0 0 0 13.79 .1;
      }

      .cls-13 {
        fill: #918d8d;
      }

      .cls-8 {
        stroke: #fff;
        stroke-dasharray: 0 0 0 0 0 0 18.06 18.06;
        stroke-miterlimit: 6;
        stroke-width: 9px;
      }

      .cls-6 {
        stroke-width: .1px;
      }

      .cls-14 {
        opacity: .2;
      }
    </style>
  </defs>
  <g id="Layer_1-2" data-name="Layer 1">
    <circle class="cls-6" cx="50.55" cy="50.55" r="50.5"/>
    <g>
      <g>
        <circle class="cls-11" cx="50.55" cy="50.55" r="46"/>
        <circle class="cls-8" cx="50.55" cy="50.55" r="46"/>
      </g>
      <path class="cls-10" d="m42.98,6c-.12.23-.42.47-.8.47-.31,0-.6-.16-.77-.42.24.72.44.9.6.9.12,0,.22-.1.43-.09.14,0,.26.06.34.11l-2.19.46c.04-.06.12-.16.24-.23.21-.12.37-.05.49-.11.12-.07.23-.3.09-1.03-.05.31-.25.57-.53.7-.35.16-.72.06-.92-.1-.36-.28-.46-.97,0-1.59l.95-1.41h0l1.44.91c.66.38.85,1.05.64,1.46v-.03Z"/>
      <path class="cls-10" d="m58.13,94.19c.12-.23.42-.47.8-.47.31,0,.6.16.77.42-.24-.72-.44-.9-.6-.9-.12,0-.22.1-.43.09-.14,0-.26-.06-.34-.11l2.19-.46c-.04.06-.12.16-.24.23-.21.12-.37.05-.49.11-.12.07-.23.3-.09,1.03.05-.31.25-.57.53-.7.35-.16.72-.06.92.1.36.28.46.97,0,1.59l-.95,1.41h0l-1.44-.91c-.66-.38-.85-1.05-.64-1.46v.03Z"/>
      <g>
        <g>
          <path class="cls-10" d="m76.7,13.97l-1.59.36c.11-.37.27-.81.49-1.28.17-.35.34-.66.51-.92l.38.2c.26-.24.61-.32.9-.2.3.12.47.42.47.7,0,.47-.46,1.02-1.17,1.15h0Z"/>
          <path class="cls-10" d="m74.87,14.56l.08-.27c.13-.44.3-.88.5-1.3.15-.32.33-.64.52-.94l.08-.13.42.22c.3-.22.67-.29.98-.16.39.16.57.54.57.85.01.6-.58,1.19-1.31,1.32l-1.86.42h.02Zm1.3-2.2c-.15.25-.29.51-.42.77-.15.32-.28.64-.4.98l1.32-.3c.63-.11,1.04-.59,1.03-.97,0-.19-.12-.45-.37-.55-.23-.09-.52-.03-.73.17l-.09.08-.35-.18h.01Z"/>
        </g>
        <g>
          <path class="cls-10" d="m76.7,12.55c-.19.25-.41.52-.68.8-.36.37-.71.67-1.02.9l-.2-1.64c-.12-.72.23-1.36.67-1.51.26-.09.59-.03.81.22.21.24.25.6.11.93.1.1.21.2.31.3Z"/>
          <path class="cls-10" d="m74.88,14.56l-.24-1.92c-.13-.74.23-1.5.78-1.69.29-.1.7-.06.98.26.22.26.29.64.18,1l.34.33-.09.12c-.22.29-.45.56-.69.81-.32.33-.67.64-1.04.92l-.23.17h.01Zm1.18-3.21c-.17-.12-.38-.13-.53-.08-.35.12-.66.68-.55,1.31l.17,1.36c.27-.22.53-.46.77-.71.2-.21.39-.43.57-.66l-.29-.27.04-.11c.11-.27.08-.57-.09-.76-.03-.03-.06-.06-.1-.09h.01Z"/>
        </g>
      </g>
      <g>
        <g>
          <path class="cls-10" d="m24.41,87.14l1.59-.36c-.11.37-.27.81-.49,1.28-.17.35-.34.66-.51.92l-.38-.2c-.26.24-.61.32-.9.2-.3-.12-.47-.42-.47-.7,0-.47.46-1.02,1.17-1.15h0Z"/>
          <path class="cls-10" d="m26.23,86.55l-.08.27c-.13.44-.3.88-.5,1.3-.15.32-.33.64-.52.94l-.08.13-.42-.22c-.3.22-.67.29-.98.16-.39-.16-.57-.54-.57-.85,0-.6.58-1.19,1.31-1.32l1.86-.42h-.02Zm-1.3,2.2c.15-.25.29-.51.42-.77.15-.32.28-.64.4-.98l-1.32.3c-.63.11-1.04.59-1.03.97,0,.19.12.45.37.55.23.09.52.03.73-.17l.09-.08.35.18h0Z"/>
        </g>
        <g>
          <path class="cls-10" d="m24.4,88.55c.19-.25.41-.52.68-.8.36-.37.71-.67,1.02-.9l.2,1.64c.12.72-.23,1.36-.67,1.51-.26.09-.59.03-.81-.22-.21-.24-.25-.6-.11-.93-.1-.1-.21-.2-.31-.3Z"/>
          <path class="cls-10" d="m26.23,86.55l.24,1.92c.13.74-.23,1.5-.78,1.69-.29.1-.7.06-.98-.26-.22-.26-.29-.64-.18-1l-.34-.33.09-.12c.22-.29.45-.56.69-.81.32-.33.67-.64,1.04-.92l.23-.17h-.01Zm-1.18,3.21c.17.12.38.13.53.08.35-.12.66-.68.55-1.31l-.17-1.36c-.27.22-.53.46-.77.71-.2.21-.39.43-.57.66l.29.27-.04.11c-.11.27-.08.57.09.76.03.03.06.06.1.09h0Z"/>
        </g>
      </g>
      <path class="cls-10" d="m94.74,41.65s.03-.05.02-.08h0c-.71.24-.89.44-.89.58,0,.11.1.2.09.4,0,.14-.06.25-.11.32l-.46-2.07c.07.04.16.11.23.22.12.19.05.35.11.46.07.12.3.2,1.03.06q.49-.09,0,0c-.02-.07-.12-.06-.26-.15-.21-.1-.37-.29-.42-.53-.09-.42.17-.84.59-.93s.84.17.93.59c.01.06.02.11.02.17h0c.02.06.03.12.07.13.06,0,.1-.07.17-.13h0c.11-.13.25-.22.43-.26.42-.09.84.17.93.59s-.17.84-.59.93c-.17.04-.33.02-.47-.04h0c-.09-.02-.17-.09-.22-.05-.03.03-.03.07-.02.12h0s.03.09.04.13c.09.42-.17.84-.59.93s-.84-.17-.93-.59c-.07-.32.06-.63.31-.81h0Z"/>
      <path class="cls-10" d="m6.37,59.46s-.03.05-.02.08h0c.71-.24.89-.44.89-.58,0-.11-.1-.2-.09-.4,0-.14.06-.25.11-.32l.46,2.07c-.07-.04-.16-.11-.23-.22-.12-.19-.05-.35-.11-.46-.07-.12-.3-.2-1.03-.06q-.49.09,0,0c.02.07.12.06.26.15.21.1.37.29.42.53.09.42-.17.84-.59.93s-.84-.17-.93-.59c-.01-.06-.02-.11-.02-.17h0c-.02-.06-.03-.12-.07-.13-.06-.01-.1.07-.17.13h0c-.11.13-.25.22-.43.26-.42.09-.84-.17-.93-.59s.17-.84.59-.93c.17-.04.33-.02.47.04h0c.09.02.17.09.22.05.03-.03.03-.07.02-.12h0s-.03-.09-.04-.13c-.09-.42.17-.84.59-.93s.84.17.93.59c.07.32-.06.63-.31.81h.01Z"/>
      <polygon class="cls-10" points="13.62 23.36 14.01 25.69 11.61 25.46 11.22 23.13 13.62 23.36"/>
      <polygon class="cls-10" points="88.15 76.49 87.76 74.16 90.16 74.39 90.54 76.72 88.15 76.49"/>
    </g>
    <g>
      <g>
        <circle class="cls-12" cx="50.55" cy="50.55" r="42"/>
        <circle class="cls-4" cx="50.55" cy="50.55" r="42"/>
      </g>
      <circle class="cls-5" cx="50.32" cy="50.33" r="40"/>
      <circle class="cls-3" cx="50.32" cy="50.33" r="39"/>
      <circle class="cls-5" cx="50.32" cy="50.33" r="31"/>
      <g>
        <g>
          <circle class="cls-12" cx="50.32" cy="50.33" r="30"/>
          <circle class="cls-7" cx="50.32" cy="50.33" r="30"/>
        </g>
        <g class="cls-14">
          <circle class="cls-13" cx="50.32" cy="50.33" r="30"/>
          <circle class="cls-1" cx="50.32" cy="50.33" r="30"/>
        </g>
      </g>
      <g>
        <rect class="cls-9" x="28.99" y="19.58" width="2.86" height="2.86" transform="translate(-6.54 21.99) rotate(-36.15)"/>
        <circle class="cls-10" cx="29.45" cy="21.71" r=".2"/>
        <circle class="cls-10" cx="30.16" cy="22.68" r=".2"/>
        <circle class="cls-10" cx="32.1" cy="21.26" r=".2"/>
        <circle class="cls-10" cx="31.39" cy="20.29" r=".2"/>
        <circle class="cls-10" cx="28.74" cy="20.74" r=".2"/>
        <circle class="cls-10" cx="30.68" cy="19.32" r=".2"/>
      </g>
      <g>
        <rect class="cls-9" x="13.16" y="51.08" width="3.63" height="3.63" transform="translate(-5.58 1.91) rotate(-6.15)"/>
        <circle class="cls-10" cx="16.66" cy="54.25" r=".25"/>
        <circle class="cls-10" cx="16.33" cy="51.22" r=".25"/>
        <circle class="cls-10" cx="13.62" cy="54.58" r=".25"/>
        <circle class="cls-10" cx="13.3" cy="51.55" r=".25"/>
      </g>
      <g>
        <rect class="cls-9" x="33.36" y="80.71" width="3.03" height="3.03" transform="translate(-54.43 80.88) rotate(-66.15)"/>
        <circle class="cls-10" cx="34.88" cy="82.22" r=".21"/>
        <circle class="cls-10" cx="36.56" cy="81.57" r=".21"/>
        <circle class="cls-10" cx="34.23" cy="80.55" r=".21"/>
        <circle class="cls-10" cx="35.53" cy="83.9" r=".21"/>
        <circle class="cls-10" cx="33.21" cy="82.88" r=".21"/>
      </g>
      <g>
        <rect class="cls-9" x="68.8" y="78.22" width="2.86" height="2.86" transform="translate(-33.47 56.76) rotate(-36.15)"/>
        <circle class="cls-10" cx="70.29" cy="79.65" r=".2"/>
      </g>
      <g>
        <rect class="cls-9" x="83.85" y="45.94" width="3.63" height="3.63" transform="translate(-4.62 9.45) rotate(-6.15)"/>
        <circle class="cls-10" cx="84.32" cy="49.43" r=".25"/>
        <circle class="cls-10" cx="87.02" cy="46.07" r=".25"/>
        <circle class="cls-10" cx="85.67" cy="47.75" r=".25"/>
      </g>
      <g>
        <rect class="cls-9" x="64.25" y="16.92" width="3.03" height="3.03" transform="translate(22.32 71.13) rotate(-66.15)"/>
        <circle class="cls-10" cx="66.42" cy="20.1" r=".21"/>
        <circle class="cls-10" cx="65.12" cy="16.75" r=".21"/>
      </g>
      <g>
        <path class="cls-2" d="m22.82,57.31h4.16v-13h-3.44v-2.25c1.85-.36,3.12-.87,4.29-1.63h2.51v16.88h3.66v2.93h-11.19v-2.93h0Z"/>
        <path class="cls-2" d="m36.84,50.25c0-6.69,2.46-10.2,6.31-10.2s6.31,3.52,6.31,10.2-2.46,10.36-6.31,10.36-6.31-3.67-6.31-10.36Zm9.41,0c0-5.6-1.3-7.38-3.1-7.38s-3.1,1.78-3.1,7.38,1.3,7.55,3.1,7.55,3.1-1.94,3.1-7.55Z"/>
        <path class="cls-2" d="m51.84,50.25c0-6.69,2.46-10.2,6.31-10.2s6.31,3.52,6.31,10.2-2.46,10.36-6.31,10.36-6.31-3.67-6.31-10.36Zm9.41,0c0-5.6-1.3-7.38-3.1-7.38s-3.1,1.78-3.1,7.38,1.3,7.55,3.1,7.55,3.1-1.94,3.1-7.55Z"/>
        <path class="cls-2" d="m66.84,50.25c0-6.69,2.46-10.2,6.31-10.2s6.31,3.52,6.31,10.2-2.46,10.36-6.31,10.36-6.31-3.67-6.31-10.36Zm9.41,0c0-5.6-1.3-7.38-3.1-7.38s-3.1,1.78-3.1,7.38,1.3,7.55,3.1,7.55,3.1-1.94,3.1-7.55Z"/>
      </g>
    </g>
  </g>
</svg>