<?xml version="1.0" encoding="utf-8"?>
<!-- Generator: Adobe Illustrator 27.3.1, SVG Export Plug-In . SVG Version: 6.00 Build 0)  -->
<svg version="1.1" id="Layer_1" xmlns="http://www.w3.org/2000/svg" xmlns:xlink="http://www.w3.org/1999/xlink" x="0px" y="0px"
	 viewBox="0 0 101.1 101.1" style="enable-background:new 0 0 101.1 101.1;" xml:space="preserve">
<style type="text/css">
	.st0{fill:#EC2426;stroke:#EC2426;stroke-width:0.1;stroke-miterlimit:10;}
	.st1{fill:#ED2024;}
	.st2{fill:none;stroke:#FFFFFF;stroke-width:9;stroke-miterlimit:6;stroke-dasharray:0,0,18.06,18.06;}
	.st3{fill:#FFFFFF;}
	.st4{fill:#BB2025;}
	.st5{fill:none;stroke:#BB2025;stroke-width:0.25;stroke-miterlimit:10;stroke-dasharray:0,0,13.79,0.1;}
	.st6{fill:#FFFFFF;stroke:#ED2024;stroke-width:0.25;stroke-miterlimit:10;}
	.st7{fill:#E41E28;stroke:#ED2024;stroke-width:0.25;stroke-miterlimit:10;}
	.st8{fill:none;stroke:#BB2025;stroke-width:0.25;stroke-miterlimit:10;}
	.st9{opacity:0.2;}
	.st10{fill:#DE9C9C;}
	.st11{fill:none;stroke:#DE9C9C;stroke-width:0.25;stroke-miterlimit:10;}
	.st12{fill:#FFFFFF;stroke:#BB2025;stroke-miterlimit:10;}
	.st13{fill:none;}
</style>
<g>
	<g id="Layer_1_00000060742605911094425440000017252570827335304862_">
		<circle class="st0" cx="50.5" cy="50.5" r="50.5"/>
		<g>
			<g>
				<circle class="st1" cx="50.5" cy="50.5" r="46"/>
				<circle class="st2" cx="50.5" cy="50.5" r="46"/>
			</g>
			<path class="st3" d="M43,6c-0.1,0.2-0.4,0.5-0.8,0.5c-0.3,0-0.6-0.2-0.8-0.4c0.2,0.7,0.4,0.9,0.6,0.9c0.1,0,0.2-0.1,0.4-0.1
				c0.1,0,0.3,0.1,0.3,0.1l-2.2,0.5c0-0.1,0.1-0.2,0.2-0.2c0.2-0.1,0.4,0,0.5-0.1c0.1-0.1,0.2-0.3,0.1-1c-0.1,0.3-0.2,0.6-0.5,0.7
				c-0.3,0.2-0.7,0.1-0.9-0.1c-0.4-0.3-0.5-1,0-1.6l0.9-1.4l0,0l0,0l1.4,0.9C43,4.9,43.2,5.6,43,6L43,6z"/>
			<path class="st3" d="M58.1,94.2c0.1-0.2,0.4-0.5,0.8-0.5c0.3,0,0.6,0.2,0.8,0.4c-0.2-0.7-0.4-0.9-0.6-0.9c-0.1,0-0.2,0.1-0.4,0.1
				c-0.1,0-0.3-0.1-0.3-0.1l2.2-0.5c0,0.1-0.1,0.2-0.2,0.2c-0.2,0.1-0.4,0.1-0.5,0.1c-0.1,0.1-0.2,0.3-0.1,1
				c0.1-0.3,0.2-0.6,0.5-0.7c0.3-0.2,0.7-0.1,0.9,0.1c0.4,0.3,0.5,1,0,1.6l-0.9,1.4l0,0l0,0l-1.4-0.9C58.1,95.2,57.9,94.6,58.1,94.2
				L58.1,94.2z"/>
			<g>
				<g>
					<path class="st3" d="M76.7,14l-1.6,0.4c0.1-0.4,0.3-0.8,0.5-1.3c0.2-0.3,0.3-0.7,0.5-0.9l0.4,0.2c0.3-0.2,0.6-0.3,0.9-0.2
						c0.3,0.1,0.5,0.4,0.5,0.7C77.9,13.3,77.4,13.9,76.7,14L76.7,14z"/>
					<path class="st3" d="M74.9,14.6l0.1-0.3c0.1-0.4,0.3-0.9,0.5-1.3c0.2-0.3,0.3-0.6,0.5-0.9l0.1-0.1l0.4,0.2
						c0.3-0.2,0.7-0.3,1-0.2c0.4,0.2,0.6,0.5,0.6,0.8c0,0.6-0.6,1.2-1.3,1.3L74.9,14.6L74.9,14.6z M76.2,12.3
						c-0.2,0.2-0.3,0.5-0.4,0.8c-0.2,0.3-0.3,0.6-0.4,1l1.3-0.3c0.6-0.1,1-0.6,1-1c0-0.2-0.1-0.5-0.4-0.5c-0.2-0.1-0.5,0-0.7,0.2
						l-0.1,0.1L76.2,12.3L76.2,12.3z"/>
				</g>
				<g>
					<path class="st3" d="M76.7,12.6c-0.2,0.2-0.4,0.5-0.7,0.8c-0.4,0.4-0.7,0.7-1,0.9l-0.2-1.6c-0.1-0.7,0.2-1.4,0.7-1.5
						c0.3-0.1,0.6,0,0.8,0.2c0.2,0.2,0.2,0.6,0.1,0.9C76.5,12.4,76.6,12.5,76.7,12.6z"/>
					<path class="st3" d="M74.9,14.6l-0.2-1.9c-0.1-0.7,0.2-1.5,0.8-1.7c0.3-0.1,0.7-0.1,1,0.3c0.2,0.3,0.3,0.6,0.2,1l0.3,0.3
						l-0.1,0.1c-0.2,0.3-0.4,0.6-0.7,0.8c-0.3,0.3-0.7,0.6-1,0.9L74.9,14.6L74.9,14.6z M76.1,11.4c-0.2-0.1-0.4-0.1-0.5-0.1
						c-0.3,0.1-0.7,0.7-0.6,1.3l0.2,1.4c0.3-0.2,0.5-0.5,0.8-0.7c0.2-0.2,0.4-0.4,0.6-0.7l-0.3-0.3l0-0.1
						C76.3,11.9,76.3,11.6,76.1,11.4C76.1,11.4,76.1,11.4,76.1,11.4L76.1,11.4z"/>
				</g>
			</g>
			<g>
				<g>
					<path class="st3" d="M24.4,87.1l1.6-0.4c-0.1,0.4-0.3,0.8-0.5,1.3c-0.2,0.3-0.3,0.7-0.5,0.9l-0.4-0.2C24.4,89,24,89.1,23.7,89
						c-0.3-0.1-0.5-0.4-0.5-0.7C23.2,87.8,23.7,87.3,24.4,87.1L24.4,87.1z"/>
					<path class="st3" d="M26.2,86.6l-0.1,0.3c-0.1,0.4-0.3,0.9-0.5,1.3c-0.2,0.3-0.3,0.6-0.5,0.9L25,89.2L24.6,89
						c-0.3,0.2-0.7,0.3-1,0.2c-0.4-0.2-0.6-0.5-0.6-0.8c0-0.6,0.6-1.2,1.3-1.3L26.2,86.6L26.2,86.6z M24.9,88.8
						c0.2-0.2,0.3-0.5,0.4-0.8c0.2-0.3,0.3-0.6,0.4-1l-1.3,0.3c-0.6,0.1-1,0.6-1,1c0,0.2,0.1,0.4,0.4,0.6c0.2,0.1,0.5,0,0.7-0.2
						l0.1-0.1L24.9,88.8L24.9,88.8z"/>
				</g>
				<g>
					<path class="st3" d="M24.4,88.6c0.2-0.2,0.4-0.5,0.7-0.8c0.4-0.4,0.7-0.7,1-0.9l0.2,1.6c0.1,0.7-0.2,1.4-0.7,1.5
						c-0.3,0.1-0.6,0-0.8-0.2c-0.2-0.2-0.2-0.6-0.1-0.9C24.6,88.8,24.5,88.7,24.4,88.6z"/>
					<path class="st3" d="M26.2,86.6l0.2,1.9c0.1,0.7-0.2,1.5-0.8,1.7c-0.3,0.1-0.7,0.1-1-0.3c-0.2-0.3-0.3-0.6-0.2-1l-0.3-0.3
						l0.1-0.1c0.2-0.3,0.5-0.6,0.7-0.8c0.3-0.3,0.7-0.6,1-0.9L26.2,86.6L26.2,86.6z M25,89.8c0.2,0.1,0.4,0.1,0.5,0.1
						c0.3-0.1,0.7-0.7,0.5-1.3L26,87.2c-0.3,0.2-0.5,0.5-0.8,0.7c-0.2,0.2-0.4,0.4-0.6,0.7l0.3,0.3l0,0.1
						C24.8,89.2,24.8,89.5,25,89.8C25,89.7,25,89.7,25,89.8L25,89.8z"/>
				</g>
			</g>
			<path class="st3" d="M94.7,41.6C94.7,41.6,94.8,41.6,94.7,41.6L94.7,41.6c-0.7,0.2-0.9,0.4-0.9,0.5c0,0.1,0.1,0.2,0.1,0.4
				c0,0.1-0.1,0.2-0.1,0.3l-0.5-2.1c0.1,0,0.2,0.1,0.2,0.2c0.1,0.2,0.1,0.3,0.1,0.5c0.1,0.1,0.3,0.2,1,0.1c0.5-0.1,0.5-0.1,0,0
				c0-0.1-0.1-0.1-0.3-0.2c-0.2-0.1-0.4-0.3-0.4-0.5c-0.1-0.4,0.2-0.8,0.6-0.9s0.8,0.2,0.9,0.6c0,0.1,0,0.1,0,0.2l0,0
				c0,0.1,0,0.1,0.1,0.1c0.1,0,0.1-0.1,0.2-0.1l0,0c0.1-0.1,0.2-0.2,0.4-0.3c0.4-0.1,0.8,0.2,0.9,0.6s-0.2,0.8-0.6,0.9
				c-0.2,0-0.3,0-0.5,0l0,0l0,0c-0.1,0-0.2-0.1-0.2-0.1c0,0,0,0.1,0,0.1l0,0c0,0,0,0.1,0,0.1c0.1,0.4-0.2,0.8-0.6,0.9
				s-0.8-0.2-0.9-0.6C94.4,42.1,94.5,41.8,94.7,41.6L94.7,41.6z"/>
			<path class="st3" d="M6.4,59.5C6.4,59.5,6.3,59.5,6.4,59.5L6.4,59.5c0.7-0.2,0.9-0.4,0.9-0.5c0-0.1-0.1-0.2-0.1-0.4
				c0-0.1,0.1-0.2,0.1-0.3l0.5,2.1c-0.1,0-0.2-0.1-0.2-0.2c-0.1-0.2,0-0.3-0.1-0.5c-0.1-0.1-0.3-0.2-1-0.1c-0.5,0.1-0.5,0.1,0,0
				c0,0.1,0.1,0.1,0.3,0.2C6.8,59.8,7,60,7,60.2c0.1,0.4-0.2,0.8-0.6,0.9S5.6,61,5.5,60.6c0-0.1,0-0.1,0-0.2l0,0
				c0-0.1,0-0.1-0.1-0.1c-0.1,0-0.1,0.1-0.2,0.1l0,0c-0.1,0.1-0.2,0.2-0.4,0.3c-0.4,0.1-0.8-0.2-0.9-0.6s0.2-0.8,0.6-0.9
				c0.2,0,0.3,0,0.5,0l0,0l0,0c0.1,0,0.2,0.1,0.2,0.1c0,0,0-0.1,0-0.1l0,0c0,0,0-0.1,0-0.1c-0.1-0.4,0.2-0.8,0.6-0.9
				s0.8,0.2,0.9,0.6C6.7,59,6.6,59.3,6.4,59.5L6.4,59.5z"/>
			<polygon class="st3" points="13.6,23.4 14,25.7 11.6,25.5 11.2,23.1 			"/>
			<polygon class="st3" points="88.2,76.5 87.8,74.2 90.2,74.4 90.5,76.7 			"/>
		</g>
		<g>
			<g>
				<circle class="st4" cx="50.5" cy="50.5" r="42"/>
				<circle class="st5" cx="50.5" cy="50.5" r="42"/>
			</g>
			<circle class="st6" cx="50.3" cy="50.3" r="40"/>
			<circle class="st7" cx="50.3" cy="50.3" r="39"/>
			<circle class="st6" cx="50.3" cy="50.3" r="31"/>
			<g>
				<g>
					<circle class="st4" cx="50.3" cy="50.3" r="30"/>
					<circle class="st8" cx="50.3" cy="50.3" r="30"/>
				</g>
				<g>
					<g class="st9">
						<circle class="st10" cx="50.3" cy="50.3" r="30"/>
						<circle class="st11" cx="50.3" cy="50.3" r="30"/>
					</g>
				</g>
			</g>
			<path class="st12" d="M40.7,61l2.4-3.3c1.7,1.6,3.8,3.1,6.6,3.1c3.2,0,5.5-2,5.5-5.5s-2.1-5.3-5.2-5.3c-1.8,0-2.8,0.5-4.5,1.6
				L43,49.9l0.9-14.1H59v4.4H48.3l-0.6,6.9c1.2-0.6,2.3-0.9,3.7-0.9c4.9,0,8.9,2.8,8.9,8.9s-4.8,9.9-10,9.9
				C45.8,64.9,42.8,63.1,40.7,61L40.7,61z"/>
			<g>
				
					<rect x="29" y="19.6" transform="matrix(0.8075 -0.5899 0.5899 0.8075 -6.5342 21.9894)" class="st13" width="2.9" height="2.9"/>
				<circle class="st3" cx="29.5" cy="21.7" r="0.2"/>
				<circle class="st3" cx="30.2" cy="22.7" r="0.2"/>
				<circle class="st3" cx="32.1" cy="21.3" r="0.2"/>
				<circle class="st3" cx="31.4" cy="20.3" r="0.2"/>
				<circle class="st3" cx="28.7" cy="20.7" r="0.2"/>
				<circle class="st3" cx="30.7" cy="19.3" r="0.2"/>
			</g>
			<g>
				
					<rect x="13.2" y="51.1" transform="matrix(0.9942 -0.1071 0.1071 0.9942 -5.5809 1.9087)" class="st13" width="3.6" height="3.6"/>
				<circle class="st3" cx="16.7" cy="54.2" r="0.2"/>
				<circle class="st3" cx="16.3" cy="51.2" r="0.2"/>
				<circle class="st3" cx="13.6" cy="54.6" r="0.2"/>
				<circle class="st3" cx="13.3" cy="51.5" r="0.2"/>
			</g>
			<g>
				
					<rect x="33.4" y="80.7" transform="matrix(0.4043 -0.9146 0.9146 0.4043 -54.4314 80.8796)" class="st13" width="3" height="3"/>
				<circle class="st3" cx="34.9" cy="82.2" r="0.2"/>
				<circle class="st3" cx="36.6" cy="81.6" r="0.2"/>
				<circle class="st3" cx="34.2" cy="80.5" r="0.2"/>
				<circle class="st3" cx="35.5" cy="83.9" r="0.2"/>
				<circle class="st3" cx="33.2" cy="82.9" r="0.2"/>
			</g>
			<g>
				
					<rect x="68.8" y="78.2" transform="matrix(0.8075 -0.5899 0.5899 0.8075 -33.46 56.7608)" class="st13" width="2.9" height="2.9"/>
				<circle class="st3" cx="70.3" cy="79.6" r="0.2"/>
			</g>
			<g>
				
					<rect x="83.9" y="45.9" transform="matrix(0.9942 -0.1071 0.1071 0.9942 -4.623 9.4524)" class="st13" width="3.6" height="3.6"/>
				<circle class="st3" cx="84.3" cy="49.4" r="0.2"/>
				<circle class="st3" cx="87" cy="46.1" r="0.2"/>
				<circle class="st3" cx="85.7" cy="47.7" r="0.2"/>
			</g>
			<g>
				<rect x="64.3" y="16.9" transform="matrix(0.4043 -0.9146 0.9146 0.4043 22.3204 71.1385)" class="st13" width="3" height="3"/>
				<circle class="st3" cx="66.4" cy="20.1" r="0.2"/>
				<circle class="st3" cx="65.1" cy="16.7" r="0.2"/>
			</g>
		</g>
	</g>
</g>
</svg>
