<?xml version="1.0" encoding="UTF-8"?>
<svg id="Layer_1" data-name="Layer 1" width="60" height="90"  xmlns="http://www.w3.org/2000/svg" xmlns:xlink="http://www.w3.org/1999/xlink" viewBox="0 0 90 135">
  <defs>
    <style>
      .cls-1 {
        fill: url(#linear-gradient);
      }

      .cls-1, .cls-2, .cls-3 {
        stroke-width: 0px;
      }

      .cls-2 {
        fill: #ed1c24;
      }

      .cls-4 {
        fill: url(#linear-gradient-2);
        stroke: #d1d3d4;
        stroke-miterlimit: 10;
        stroke-width: .25px;
      }

      .cls-3 {
        fill: #ec2027;
      }
    </style>
    <linearGradient id="linear-gradient" x1="0" y1="67.5" x2="90" y2="67.5" gradientUnits="userSpaceOnUse">
      <stop offset="0" stop-color="#e6e7e8"/>
      <stop offset="1" stop-color="#f1f2f2"/>
    </linearGradient>
    <linearGradient id="linear-gradient-2" x1="3.83" y1="67.88" x2="86.83" y2="67.88" gradientTransform="translate(-.66 -.75)" gradientUnits="userSpaceOnUse">
      <stop offset="0" stop-color="#fff"/>
      <stop offset="1" stop-color="#e6e7e8"/>
    </linearGradient>
  </defs>
  <rect class="cls-1" x="0" y="0" width="90" height="135" rx="8.37" ry="8.37"/>
  <rect class="cls-4" x="3.17" y="3.62" width="83" height="127" rx="7.94" ry="7.94"/>
  <g>
    <path class="cls-3" d="m79.94,115.3c.19.09.37.16.57.16.22,0,.57-.13.78-.29.06-.04.11-.06.14-.01.01.03-.01.08-.04.14-.23.4-.58.9-.94,1.17-.2.46-.22.94-.22,1.5v1.43c0,.53-.1,1.03-.32,1.32.21-.01.46.2.46.39,0,.26-.13.47-.47.79.28.03.47.2.47.44s-.37.7-.81,1.17c.52-.42,1.05-.69,1.75-.79.1-.01.15.01.15.04s-.03.07-.08.09c-.37.14-.71.38-.95.64-.18.2-.29.4-.29.59,0,.1.04.19.11.26.05.06.09.09.09.11s-.04.06-.12.11c-.48.31-1.07.69-1.54.73-.14.01-.25-.21-.25-.47,0-.3.19-.56.39-.8.22-.27.45-.54.45-.84,0-.17-.2-.24-.42-.24-.08,0-.13-.01-.13-.06s.04-.1.13-.2c.23-.24.33-.47.33-.63,0-.19-.13-.24-.28-.24-.1,0-.19.02-.19-.04,0-.04.04-.1.1-.19.13-.17.18-.5.18-1.21v-1.83c0-.77.14-1.43.54-1.97-.29-.12-.58-.31-.93-.31-.24,0-.46.09-.67.29-.05.04-.08.07-.1.06-.05-.01-.01-.13.01-.2.06-.16.21-.5.44-.79.22-.26.5-.49.83-.49s.58.1.81.19Z"/>
    <path class="cls-3" d="m76.26,115.87c.48.5.74,1.21.74,1.9,0,.41-.09.81-.29,1.16.3,0,.46.23.46.53s-.15.71-.47,1.07c.34.1.49.39.49.8s-.15.94-.44,1.53c-.53,1.09-1.46,2.03-2.39,2.4-.09.03-.12.04-.13,0-.01-.03.03-.09.09-.13.47-.37,1.23-1.2,1.47-2.03.06-.23.1-.49.1-.71,0-.4-.1-.76-.29-.82-.06-.01-.1-.04-.1-.07,0-.01.04-.06.1-.11.21-.2.37-.5.37-.76,0-.2-.1-.36-.34-.36-.12,0-.13-.03-.05-.13.23-.3.32-.74.32-1.21,0-.81-.25-1.73-.52-2.24-.39-.74-.98-1.14-1.54-1.14-.81,0-1.33.97-1.47,1.93-.11.87-.11,1.87.38,1.99.08.01.1.04.1.09s-.05.09-.08.11c-.18.16-.28.4-.28.59,0,.16.06.29.2.3.14.01.2.04.2.09s-.08.13-.21.27c-.15.14-.22.42-.22.73,0,.5.17,1.13.41,1.63.24.49.55.84.85.84.11,0,.21-.04.32-.14.03-.03.05-.04.08-.04.04,0,.06.04.03.13-.05.11-.06.24.05.24.14,0,.38-.17.57-.44.03-.03.05-.04.08-.04.04,0,.06.04.04.12-.15.4-.44.9-.76,1.26-.28.29-.57.46-.81.37-.11-.06-.18-.21-.18-.39,0-.16.06-.34.19-.47-.19.17-.39.26-.58.26-.33,0-.65-.21-.9-.56-.29-.38-.49-.94-.49-1.5,0-.36.09-.71.28-1.04-.33.03-.57-.11-.57-.49,0-.19.08-.4.28-.63-.29-.16-.39-.73-.39-1.36,0-.56.09-1.17.19-1.57.46-1.7,1.37-2.46,2.36-2.7,1-.24,2.07.01,2.78.77Z"/>
  </g>
  <g>
    <path class="cls-3" d="m10.5,19.68c-.19-.09-.37-.16-.57-.16-.22,0-.57.13-.77.29-.06.04-.11.06-.14.01-.01-.03.01-.09.04-.14.23-.4.58-.9.94-1.17.2-.46.22-.94.22-1.5v-1.43c0-.53.1-1.03.32-1.32-.22.01-.46-.2-.46-.39,0-.26.13-.47.47-.79-.28-.03-.47-.2-.47-.44s.37-.7.81-1.17c-.52.41-1.05.69-1.75.79-.1.01-.15-.01-.15-.04s.03-.07.08-.09c.37-.14.71-.39.95-.64.18-.2.29-.4.29-.59,0-.1-.04-.19-.11-.26-.05-.06-.09-.09-.09-.11s.04-.06.11-.11c.48-.31,1.07-.69,1.54-.73.14-.01.25.21.25.47,0,.3-.19.56-.39.8-.22.27-.44.54-.44.84,0,.17.2.24.42.24.08,0,.13.01.13.06s-.04.1-.13.2c-.23.24-.33.47-.33.63,0,.19.13.24.28.24.1,0,.19-.01.19.04,0,.04-.04.1-.1.19-.13.17-.18.5-.18,1.22v1.83c0,.77-.14,1.43-.55,1.97.29.11.58.31.93.31.24,0,.46-.09.67-.29.05-.04.08-.07.1-.06.05.01.01.13-.01.2-.06.16-.22.5-.44.79-.22.26-.5.49-.83.49s-.58-.1-.81-.19Z"/>
    <path class="cls-3" d="m14.18,19.11c-.48-.5-.74-1.21-.74-1.9,0-.41.09-.81.29-1.16-.3,0-.46-.23-.46-.53s.15-.71.47-1.07c-.34-.1-.5-.39-.5-.8s.15-.94.44-1.53c.53-1.09,1.46-2.03,2.39-2.4.09-.03.11-.04.13,0,.01.03-.03.09-.09.13-.47.37-1.23,1.2-1.47,2.03-.06.23-.1.49-.1.71,0,.4.1.76.29.81.06.01.1.04.1.07,0,.01-.04.06-.1.11-.22.2-.37.5-.37.76,0,.2.1.36.34.36.11,0,.13.03.05.13-.23.3-.32.74-.32,1.22,0,.81.25,1.73.52,2.24.39.74.98,1.14,1.54,1.14.81,0,1.33-.97,1.47-1.93.11-.87.11-1.87-.38-1.99-.08-.01-.1-.04-.1-.09s.05-.09.08-.11c.18-.16.28-.4.28-.59,0-.16-.06-.29-.2-.3-.14-.01-.2-.04-.2-.09s.08-.13.22-.27c.15-.14.22-.41.22-.73,0-.5-.17-1.13-.41-1.63-.24-.49-.55-.84-.85-.84-.11,0-.22.04-.32.14-.03.03-.05.04-.08.04-.04,0-.06-.04-.03-.13.05-.11.06-.24-.05-.24-.14,0-.38.17-.57.44-.03.03-.05.04-.08.04-.04,0-.06-.04-.04-.11.15-.4.44-.9.76-1.26.28-.29.57-.46.81-.37.11.06.18.21.18.39,0,.16-.06.34-.19.47.19-.17.39-.26.58-.26.33,0,.65.21.9.56.29.39.5.94.5,1.5,0,.36-.09.71-.28,1.04.33-.03.57.11.57.49,0,.19-.08.4-.28.63.29.16.39.73.39,1.36,0,.56-.09,1.17-.19,1.57-.46,1.7-1.37,2.46-2.36,2.7-1,.24-2.07-.01-2.78-.77Z"/>
  </g>
  <polygon class="cls-2" points="37.92 110.08 30.69 119.48 23.46 110.08 30.69 100.68 37.92 110.08"/>
  <polygon class="cls-2" points="68.6 110.48 61.37 119.88 54.14 110.48 61.37 101.09 68.6 110.48"/>
  <polygon class="cls-2" points="53.55 97.03 46.32 106.43 39.09 97.03 46.32 87.63 53.55 97.03"/>
  <polygon class="cls-2" points="68.6 82.03 61.37 91.42 54.14 82.03 61.37 72.63 68.6 82.03"/>
  <polygon class="cls-2" points="37.92 82.03 30.69 91.42 23.46 82.03 30.69 72.63 37.92 82.03"/>
  <polygon class="cls-2" points="68.6 53.92 61.37 63.32 54.14 53.92 61.37 44.52 68.6 53.92"/>
  <polygon class="cls-2" points="53.55 41.13 46.32 50.52 39.09 41.13 46.32 31.73 53.55 41.13"/>
  <polygon class="cls-2" points="37.92 54.39 30.69 63.79 23.46 54.39 30.69 44.99 37.92 54.39"/>
  <polygon class="cls-2" points="68.6 27.02 61.37 36.42 54.14 27.02 61.37 17.63 68.6 27.02"/>
  <polygon class="cls-2" points="37.92 27.02 30.69 36.42 23.46 27.02 30.69 17.63 37.92 27.02"/>
  <polygon class="cls-2" points="19.03 28.88 14.03 35.38 9.03 28.88 14.03 22.38 19.03 28.88"/>
  <polygon class="cls-2" points="81.52 103.58 76.52 110.08 71.52 103.58 76.52 97.08 81.52 103.58"/>
</svg>