<?xml version="1.0" encoding="UTF-8"?>
<svg id="Layer_1" data-name="Layer 1" width="60" height="90"  xmlns="http://www.w3.org/2000/svg" xmlns:xlink="http://www.w3.org/1999/xlink" viewBox="0 0 90 135">
  <defs>
    <style>
      .cls-1 {
        fill: url(#linear-gradient);
      }

      .cls-1, .cls-2 {
        stroke-width: 0px;
      }

      .cls-3 {
        fill: url(#linear-gradient-2);
        stroke: #d1d3d4;
        stroke-miterlimit: 10;
        stroke-width: .25px;
      }
    </style>
    <linearGradient id="linear-gradient" x1="0" y1="67.5" x2="90" y2="67.5" gradientUnits="userSpaceOnUse">
      <stop offset="0" stop-color="#e6e7e8"/>
      <stop offset="1" stop-color="#f1f2f2"/>
    </linearGradient>
    <linearGradient id="linear-gradient-2" x1="3.83" y1="67.88" x2="86.83" y2="67.88" gradientTransform="translate(-.66 -.75)" gradientUnits="userSpaceOnUse">
      <stop offset="0" stop-color="#fff"/>
      <stop offset="1" stop-color="#e6e7e8"/>
    </linearGradient>
  </defs>
  <rect class="cls-1" x="0" y="0" width="90" height="135" rx="8.37" ry="8.37"/>
  <rect class="cls-3" x="3.17" y="3.62" width="83" height="127" rx="7.94" ry="7.94"/>
  <g>
    <path class="cls-2" d="m79.61,116.12c.19.09.37.16.57.16.22,0,.57-.13.78-.29.06-.04.11-.06.14-.01.01.03-.01.08-.04.14-.23.4-.58.9-.94,1.17-.2.46-.22.94-.22,1.5v1.43c0,.53-.1,1.03-.32,1.32.21-.01.46.2.46.39,0,.26-.13.47-.47.79.28.03.47.2.47.44s-.37.7-.81,1.17c.52-.42,1.05-.69,1.75-.79.1-.01.15.01.15.04s-.03.07-.08.09c-.37.14-.71.38-.95.64-.18.2-.29.4-.29.59,0,.1.04.19.11.26.05.06.09.09.09.11s-.04.06-.12.11c-.48.31-1.07.69-1.54.73-.14.01-.25-.21-.25-.47,0-.3.19-.56.39-.8.22-.27.45-.54.45-.84,0-.17-.2-.24-.42-.24-.08,0-.13-.01-.13-.06s.04-.1.13-.2c.23-.24.33-.47.33-.63,0-.19-.13-.24-.28-.24-.1,0-.19.02-.19-.04,0-.04.04-.1.1-.19.13-.17.18-.5.18-1.21v-1.83c0-.77.14-1.43.54-1.97-.29-.12-.58-.31-.93-.31-.24,0-.46.09-.67.29-.05.04-.08.07-.1.06-.05-.01-.01-.13.01-.2.06-.16.21-.5.44-.79.22-.26.5-.49.83-.49s.58.1.81.19Z"/>
    <path class="cls-2" d="m75.93,116.69c.48.5.74,1.21.74,1.9,0,.41-.09.81-.29,1.16.3,0,.46.23.46.53s-.15.71-.47,1.07c.34.1.49.39.49.8s-.15.94-.44,1.53c-.53,1.09-1.46,2.03-2.39,2.4-.09.03-.12.04-.13,0-.01-.03.03-.09.09-.13.47-.37,1.23-1.2,1.47-2.03.06-.23.1-.49.1-.71,0-.4-.1-.76-.29-.82-.06-.01-.1-.04-.1-.07,0-.01.04-.06.1-.11.21-.2.37-.5.37-.76,0-.2-.1-.36-.34-.36-.12,0-.13-.03-.05-.13.23-.3.32-.74.32-1.21,0-.81-.25-1.73-.52-2.24-.39-.74-.98-1.14-1.54-1.14-.81,0-1.33.97-1.47,1.93-.11.87-.11,1.87.38,1.99.08.01.1.04.1.09s-.05.09-.08.11c-.18.16-.28.4-.28.59,0,.16.06.29.2.3.14.01.2.04.2.09s-.08.13-.21.27c-.15.14-.22.42-.22.73,0,.5.17,1.13.41,1.63.24.49.55.84.85.84.11,0,.21-.04.32-.14.03-.03.05-.04.08-.04.04,0,.06.04.03.13-.05.11-.06.24.05.24.14,0,.38-.17.57-.44.03-.03.05-.04.08-.04.04,0,.06.04.04.12-.15.4-.44.9-.76,1.26-.28.29-.57.46-.81.37-.11-.06-.18-.21-.18-.39,0-.16.06-.34.19-.47-.19.17-.39.26-.58.26-.33,0-.65-.21-.9-.56-.29-.38-.49-.94-.49-1.5,0-.36.09-.71.28-1.04-.33.03-.57-.11-.57-.49,0-.19.08-.4.28-.63-.29-.16-.39-.73-.39-1.36,0-.56.09-1.17.19-1.57.46-1.7,1.37-2.46,2.36-2.7,1-.24,2.07.01,2.78.77Z"/>
  </g>
  <g>
    <path class="cls-2" d="m10.32,19.31c-.19-.09-.37-.16-.57-.16-.22,0-.57.13-.77.29-.06.04-.11.06-.14.01-.01-.03.01-.09.04-.14.23-.4.58-.9.94-1.17.2-.46.22-.94.22-1.5v-1.43c0-.53.1-1.03.32-1.32-.22.01-.46-.2-.46-.39,0-.26.13-.47.47-.79-.28-.03-.47-.2-.47-.44s.37-.7.81-1.17c-.52.41-1.05.69-1.75.79-.1.01-.15-.01-.15-.04s.03-.07.08-.09c.37-.14.71-.39.95-.64.18-.2.29-.4.29-.59,0-.1-.04-.19-.11-.26-.05-.06-.09-.09-.09-.11s.04-.06.11-.11c.48-.31,1.07-.69,1.54-.73.14-.01.25.21.25.47,0,.3-.19.56-.39.8-.22.27-.44.54-.44.84,0,.17.2.24.42.24.08,0,.13.01.13.06s-.04.1-.13.2c-.23.24-.33.47-.33.63,0,.19.13.24.28.24.1,0,.19-.01.19.04,0,.04-.04.1-.1.19-.13.17-.18.5-.18,1.22v1.83c0,.77-.14,1.43-.55,1.97.29.11.58.31.93.31.24,0,.46-.09.67-.29.05-.04.08-.07.1-.06.05.01.01.13-.01.2-.06.16-.22.5-.44.79-.22.26-.5.49-.83.49s-.58-.1-.81-.19Z"/>
    <path class="cls-2" d="m14,18.74c-.48-.5-.74-1.21-.74-1.9,0-.41.09-.81.29-1.16-.3,0-.46-.23-.46-.53s.15-.71.47-1.07c-.34-.1-.5-.39-.5-.8s.15-.94.44-1.53c.53-1.09,1.46-2.03,2.39-2.4.09-.03.11-.04.13,0,.01.03-.03.09-.09.13-.47.37-1.23,1.2-1.47,2.03-.06.23-.1.49-.1.71,0,.4.1.76.29.81.06.01.1.04.1.07,0,.01-.04.06-.1.11-.22.2-.37.5-.37.76,0,.2.1.36.34.36.11,0,.13.03.05.13-.23.3-.32.74-.32,1.22,0,.81.25,1.73.52,2.24.39.74.98,1.14,1.54,1.14.81,0,1.33-.97,1.47-1.93.11-.87.11-1.87-.38-1.99-.08-.01-.1-.04-.1-.09s.05-.09.08-.11c.18-.16.28-.4.28-.59,0-.16-.06-.29-.2-.3-.14-.01-.2-.04-.2-.09s.08-.13.22-.27c.15-.14.22-.41.22-.73,0-.5-.17-1.13-.41-1.63-.24-.49-.55-.84-.85-.84-.11,0-.22.04-.32.14-.03.03-.05.04-.08.04-.04,0-.06-.04-.03-.13.05-.11.06-.24-.05-.24-.14,0-.38.17-.57.44-.03.03-.05.04-.08.04-.04,0-.06-.04-.04-.11.15-.4.44-.9.76-1.26.28-.29.57-.46.81-.37.11.06.18.21.18.39,0,.16-.06.34-.19.47.19-.17.39-.26.58-.26.33,0,.65.21.9.56.29.39.5.94.5,1.5,0,.36-.09.71-.28,1.04.33-.03.57.11.57.49,0,.19-.08.4-.28.63.29.16.39.73.39,1.36,0,.56-.09,1.17-.19,1.57-.46,1.7-1.37,2.46-2.36,2.7-1,.24-2.07-.01-2.78-.77Z"/>
  </g>
  <path class="cls-2" d="m60.99,106.4c.11.13.22.21.37.2,0-.02,0-.03-.01-.04-.41-3.79-1.19-4.89-1.91-5.06-.55-.12-1.12.28-2.11,0-.67-.19-1.17-.59-1.49-.91h10.79c-.26.28-.72.69-1.37.91-1.1.37-1.79-.14-2.41.06-.65.22-1.35,1.25-1.46,5.03t0,.01c.36-.02.41-.52,1.04-1.11.72-.92,1.86-1.51,3.13-1.51,2.2,0,3.99,1.77,3.99,3.96s-1.79,3.96-3.99,3.96c-.29,0-.57-.03-.84-.09h0c-.33.01-.63.03-.73.22-.12.26.26.59.48.98,0,0,0,.01,0,.02.52.66.83,1.5.83,2.4,0,2.19-1.78,3.96-3.98,3.96s-3.98-1.77-3.98-3.96c0-.86.27-1.65.74-2.29,0,0,0,0,0,0s0,0,0-.01c.21-.4.66-.75.51-1.05-.09-.18-.31-.22-.57-.24h0c-.22.04-.46.06-.69.06-2.2,0-3.98-1.77-3.98-3.96s1.78-3.96,3.98-3.96c1.66,0,3.07.99,3.67,2.42Z"/>
  <path class="cls-2" d="m30.75,106.4c.11.13.22.21.37.2,0-.02,0-.03-.01-.04-.41-3.79-1.19-4.89-1.91-5.06-.55-.12-1.12.28-2.11,0-.67-.19-1.17-.59-1.49-.91h10.79c-.26.28-.72.69-1.37.91-1.1.37-1.79-.14-2.41.06-.65.22-1.35,1.25-1.46,5.03t0,.01c.36-.02.41-.52,1.04-1.11.72-.92,1.86-1.51,3.13-1.51,2.2,0,3.99,1.77,3.99,3.96s-1.79,3.96-3.99,3.96c-.29,0-.57-.03-.84-.09h0c-.33.01-.63.03-.73.22-.12.26.26.59.48.98,0,0,0,.01,0,.02.52.66.83,1.5.83,2.4,0,2.19-1.78,3.96-3.98,3.96s-3.98-1.77-3.98-3.96c0-.86.27-1.65.74-2.29,0,0,0,0,0,0s0,0,0-.01c.21-.4.66-.75.51-1.05-.09-.18-.31-.22-.57-.24h0c-.22.04-.46.06-.69.06-2.2,0-3.98-1.77-3.98-3.96s1.78-3.96,3.98-3.96c1.66,0,3.07.99,3.67,2.42Z"/>
  <path class="cls-2" d="m60.99,78.6c.11.13.22.21.37.2,0-.02,0-.03-.01-.04-.41-3.79-1.19-4.89-1.91-5.06-.55-.12-1.12.28-2.11,0-.67-.19-1.17-.59-1.49-.91h10.79c-.26.28-.72.69-1.37.91-1.1.37-1.79-.14-2.41.06-.65.22-1.35,1.25-1.46,5.03t0,.01c.36-.02.41-.52,1.04-1.11.72-.92,1.86-1.51,3.13-1.51,2.2,0,3.99,1.77,3.99,3.96s-1.79,3.96-3.99,3.96c-.29,0-.57-.03-.84-.09h0c-.33.01-.63.03-.73.22-.12.26.26.59.48.98,0,0,0,.01,0,.02.52.66.83,1.5.83,2.4,0,2.19-1.78,3.96-3.98,3.96s-3.98-1.77-3.98-3.96c0-.86.27-1.65.74-2.29,0,0,0,0,0,0s0,0,0-.01c.21-.4.66-.75.51-1.05-.09-.18-.31-.22-.57-.24h0c-.22.04-.46.06-.69.06-2.2,0-3.98-1.77-3.98-3.96s1.78-3.96,3.98-3.96c1.66,0,3.07.99,3.67,2.42Z"/>
  <path class="cls-2" d="m30.8,78.6c.11.13.22.21.37.2,0-.02,0-.03-.01-.04-.41-3.79-1.19-4.89-1.91-5.06-.55-.12-1.12.28-2.11,0-.67-.19-1.17-.59-1.49-.91h10.79c-.26.28-.72.69-1.37.91-1.1.37-1.79-.14-2.41.06-.65.22-1.35,1.25-1.46,5.03t0,.01c.36-.02.41-.52,1.04-1.11.72-.92,1.86-1.51,3.13-1.51,2.2,0,3.99,1.77,3.99,3.96s-1.79,3.96-3.99,3.96c-.29,0-.57-.03-.84-.09h0c-.33.01-.63.03-.73.22-.12.26.26.59.48.98,0,0,0,.01,0,.02.52.66.83,1.5.83,2.4,0,2.19-1.78,3.96-3.98,3.96s-3.98-1.77-3.98-3.96c0-.86.27-1.65.74-2.29,0,0,0,0,0,0,0,0,0,0,0-.01.21-.4.66-.75.51-1.05-.09-.18-.31-.22-.57-.24h0c-.22.04-.46.06-.69.06-2.2,0-3.98-1.77-3.98-3.96s1.78-3.96,3.98-3.96c1.66,0,3.07.99,3.67,2.42Z"/>
  <g>
    <path class="cls-2" d="m61.88,57.99c-.11-.13-.22-.21-.37-.2,0,.02,0,.03.01.04.41,3.79,1.19,4.89,1.91,5.06.55.12,1.12-.28,2.11,0,.67.19,1.17.59,1.49.91h-10.79c.26-.28.72-.69,1.37-.91,1.1-.37,1.79.14,2.41-.06.65-.22,1.35-1.25,1.46-5.03t0-.01c-.36.02-.41.52-1.04,1.11-.72.92-1.86,1.51-3.13,1.51-2.2,0-3.99-1.77-3.99-3.96s1.79-3.96,3.99-3.96c.29,0,.57.03.84.09h0c.33-.01.63-.03.73-.22.12-.26-.26-.59-.48-.98,0,0,0-.01,0-.02-.52-.66-.83-1.5-.83-2.4,0-2.19,1.78-3.96,3.98-3.96s3.98,1.77,3.98,3.96c0,.86-.27,1.65-.74,2.29,0,0,0,0,0,0s0,0,0,.01c-.21.4-.66.75-.51,1.05.09.18.31.22.57.24h0c.22-.04.46-.06.69-.06,2.2,0,3.98,1.77,3.98,3.96s-1.78,3.96-3.98,3.96c-1.66,0-3.07-.99-3.67-2.42Z"/>
    <path class="cls-2" d="m30.99,57.99c-.11-.13-.22-.21-.37-.2,0,.02,0,.03.01.04.41,3.79,1.19,4.89,1.91,5.06.55.12,1.12-.28,2.11,0,.67.19,1.17.59,1.49.91h-10.79c.26-.28.72-.69,1.37-.91,1.1-.37,1.79.14,2.41-.06.65-.22,1.35-1.25,1.46-5.03t0-.01c-.36.02-.41.52-1.04,1.11-.72.92-1.86,1.51-3.13,1.51-2.2,0-3.99-1.77-3.99-3.96s1.79-3.96,3.99-3.96c.29,0,.57.03.84.09h0c.33-.01.63-.03.73-.22.12-.26-.26-.59-.48-.98,0,0,0-.01,0-.02-.52-.66-.83-1.5-.83-2.4,0-2.19,1.78-3.96,3.98-3.96s3.98,1.77,3.98,3.96c0,.86-.27,1.65-.74,2.29,0,0,0,0,0,0s0,0,0,.01c-.21.4-.66.75-.51,1.05.09.18.31.22.57.24h0c.22-.04.46-.06.69-.06,2.2,0,3.98,1.77,3.98,3.96s-1.78,3.96-3.98,3.96c-1.66,0-3.07-.99-3.67-2.42Z"/>
    <path class="cls-2" d="m61.88,30.73c-.11-.13-.22-.21-.37-.2,0,.02,0,.03.01.04.41,3.79,1.19,4.89,1.91,5.06.55.12,1.12-.28,2.11,0,.67.19,1.17.59,1.49.91h-10.79c.26-.28.72-.69,1.37-.91,1.1-.37,1.79.14,2.41-.06.65-.22,1.35-1.25,1.46-5.03t0-.01c-.36.02-.41.52-1.04,1.11-.72.92-1.86,1.51-3.13,1.51-2.2,0-3.99-1.77-3.99-3.96s1.79-3.96,3.99-3.96c.29,0,.57.03.84.09h0c.33-.01.63-.03.73-.22.12-.26-.26-.59-.48-.98,0,0,0-.01,0-.02-.52-.66-.83-1.5-.83-2.4,0-2.19,1.78-3.96,3.98-3.96s3.98,1.77,3.98,3.96c0,.86-.27,1.65-.74,2.29,0,0,0,0,0,0s0,0,0,.01c-.21.4-.66.75-.51,1.05.09.18.31.22.57.24h0c.22-.04.46-.06.69-.06,2.2,0,3.98,1.77,3.98,3.96s-1.78,3.96-3.98,3.96c-1.66,0-3.07-.99-3.67-2.42Z"/>
    <path class="cls-2" d="m30.99,30.73c-.11-.13-.22-.21-.37-.2,0,.02,0,.03.01.04.41,3.79,1.19,4.89,1.91,5.06.55.12,1.12-.28,2.11,0,.67.19,1.17.59,1.49.91h-10.79c.26-.28.72-.69,1.37-.91,1.1-.37,1.79.14,2.41-.06.65-.22,1.35-1.25,1.46-5.03t0-.01c-.36.02-.41.52-1.04,1.11-.72.92-1.86,1.51-3.13,1.51-2.2,0-3.99-1.77-3.99-3.96s1.79-3.96,3.99-3.96c.29,0,.57.03.84.09h0c.33-.01.63-.03.73-.22.12-.26-.26-.59-.48-.98,0,0,0-.01,0-.02-.52-.66-.83-1.5-.83-2.4,0-2.19,1.78-3.96,3.98-3.96s3.98,1.77,3.98,3.96c0,.86-.27,1.65-.74,2.29,0,0,0,0,0,0s0,0,0,.01c-.21.4-.66.75-.51,1.05.09.18.31.22.57.24h0c.22-.04.46-.06.69-.06,2.2,0,3.98,1.77,3.98,3.96s-1.78,3.96-3.98,3.96c-1.66,0-3.07-.99-3.67-2.42Z"/>
  </g>
  <path class="cls-2" d="m14.09,31.6c-.08-.09-.15-.15-.25-.14,0,.01,0,.02,0,.03.28,2.61.8,3.36,1.28,3.48.37.09.76-.19,1.42,0,.45.13.79.41,1,.62h-7.25c.18-.19.48-.47.92-.62.74-.25,1.2.09,1.62-.04.44-.15.91-.86.98-3.46t0,0c-.24.01-.27.35-.7.77-.49.63-1.25,1.04-2.1,1.04-1.48,0-2.68-1.22-2.68-2.72s1.2-2.73,2.68-2.73c.19,0,.38.02.57.06h0c.22,0,.42-.02.49-.15.08-.18-.17-.41-.32-.68,0,0,0,0,0-.01-.35-.46-.56-1.03-.56-1.65,0-1.5,1.2-2.72,2.67-2.72s2.67,1.22,2.67,2.72c0,.59-.18,1.13-.5,1.58,0,0,0,0,0,0s0,0,0,0c-.14.27-.44.51-.34.72.06.12.21.15.39.16h0c.15-.03.31-.04.46-.04,1.48,0,2.67,1.22,2.67,2.73s-1.2,2.72-2.67,2.72c-1.11,0-2.06-.68-2.47-1.66Z"/>
  <path class="cls-2" d="m75.84,100.81c.08.09.15.15.25.14,0-.01,0-.02,0-.03-.28-2.61-.8-3.36-1.28-3.48-.37-.09-.76.19-1.42,0-.45-.13-.79-.41-1-.62h7.25c-.18.19-.48.47-.92.62-.74.25-1.2-.09-1.62.04-.44.15-.91.86-.98,3.46t0,0c.24-.01.27-.35.7-.77.49-.63,1.25-1.04,2.1-1.04,1.48,0,2.68,1.22,2.68,2.72s-1.2,2.73-2.68,2.73c-.19,0-.38-.02-.57-.06h0c-.22,0-.42.02-.49.15-.08.18.17.41.32.68,0,0,0,0,0,.01.35.46.56,1.03.56,1.65,0,1.5-1.2,2.72-2.67,2.72s-2.67-1.22-2.67-2.72c0-.59.18-1.13.5-1.58,0,0,0,0,0,0s0,0,0,0c.14-.27.44-.51.34-.72-.06-.12-.21-.15-.39-.16h0c-.15.03-.31.04-.46.04-1.48,0-2.67-1.22-2.67-2.73s1.2-2.72,2.67-2.72c1.11,0,2.06.68,2.47,1.66Z"/>
  <path class="cls-2" d="m46.76,44.51c-.11-.13-.22-.21-.37-.2,0,.02,0,.03.01.04.41,3.79,1.19,4.89,1.91,5.06.55.12,1.12-.28,2.11,0,.67.19,1.17.59,1.49.91h-10.79c.26-.28.72-.69,1.37-.91,1.1-.37,1.79.14,2.41-.06.65-.22,1.35-1.25,1.46-5.03t0-.01c-.36.02-.41.52-1.04,1.11-.72.92-1.86,1.51-3.13,1.51-2.2,0-3.99-1.77-3.99-3.96s1.79-3.96,3.99-3.96c.29,0,.57.03.84.09h0c.33-.01.63-.03.73-.22.12-.26-.26-.59-.48-.98,0,0,0-.01,0-.02-.52-.66-.83-1.5-.83-2.4,0-2.19,1.78-3.96,3.98-3.96s3.98,1.77,3.98,3.96c0,.86-.27,1.65-.74,2.29,0,0,0,0,0,0s0,0,0,.01c-.21.4-.66.75-.51,1.05.09.18.31.22.57.24h0c.22-.04.46-.06.69-.06,2.2,0,3.98,1.77,3.98,3.96s-1.78,3.96-3.98,3.96c-1.66,0-3.07-.99-3.67-2.42Z"/>
  <path class="cls-2" d="m45.88,92.59c.11.13.22.21.37.2,0-.02,0-.03-.01-.04-.41-3.79-1.19-4.89-1.91-5.06-.55-.12-1.12.28-2.11,0-.67-.19-1.17-.59-1.49-.91h10.79c-.26.28-.72.69-1.37.91-1.1.37-1.79-.14-2.41.06-.65.22-1.35,1.25-1.46,5.03t0,.01c.36-.02.41-.52,1.04-1.11.72-.92,1.86-1.51,3.13-1.51,2.2,0,3.99,1.77,3.99,3.96s-1.79,3.96-3.99,3.96c-.29,0-.57-.03-.84-.09h0c-.33.01-.63.03-.73.22-.12.26.26.59.48.98,0,0,0,.01,0,.02.52.66.83,1.5.83,2.4,0,2.19-1.78,3.96-3.98,3.96s-3.98-1.77-3.98-3.96c0-.86.27-1.65.74-2.29,0,0,0,0,0,0s0,0,0-.01c.21-.4.66-.75.51-1.05-.09-.18-.31-.22-.57-.24h0c-.22.04-.46.06-.69.06-2.2,0-3.98-1.77-3.98-3.96s1.78-3.96,3.98-3.96c1.66,0,3.07.99,3.67,2.42Z"/>
</svg>