<?xml version="1.0" encoding="UTF-8"?>
<svg id="Layer_1" data-name="Layer 1" width="60" height="90"  xmlns="http://www.w3.org/2000/svg" xmlns:xlink="http://www.w3.org/1999/xlink" viewBox="0 0 90 135">
  <defs>
    <style>
      .cls-1 {
        fill: url(#linear-gradient);
      }

      .cls-1, .cls-2 {
        stroke-width: 0px;
      }

      .cls-3 {
        fill: url(#linear-gradient-2);
        stroke: #d1d3d4;
        stroke-miterlimit: 10;
        stroke-width: .25px;
      }
    </style>
    <linearGradient id="linear-gradient" x1="0" y1="67.5" x2="90" y2="67.5" gradientUnits="userSpaceOnUse">
      <stop offset="0" stop-color="#e6e7e8"/>
      <stop offset="1" stop-color="#f1f2f2"/>
    </linearGradient>
    <linearGradient id="linear-gradient-2" x1="3.65" y1="67.92" x2="86.65" y2="67.92" gradientUnits="userSpaceOnUse">
      <stop offset="0" stop-color="#fff"/>
      <stop offset="1" stop-color="#e6e7e8"/>
    </linearGradient>
  </defs>
  <rect class="cls-1" width="90" height="135" rx="8.37" ry="8.37"/>
  <rect class="cls-3" x="3.65" y="4.42" width="83" height="127" rx="7.94" ry="7.94"/>
  <g>
    <path class="cls-2" d="m13.53,19.89c-.43-.2-.85-.4-1.28-.4-.2,0-.81.2-1.13.62-.06.09-.13.13-.15.13-.04,0-.08-.03-.04-.24.1-.57.29-1.09.55-1.56.29-.53.67-1,1.14-1.44.15-.14.15-.27.08-.31-.06-.03-.15-.04-.15-.09,0-.03.04-.06.13-.11.22-.14.47-.33.67-.51.18-.17.3-.34.3-.49,0-.1-.06-.19-.24-.24-.06-.01-.1-.04-.1-.07s.04-.06.11-.11c.41-.27.83-.66,1.12-1.16.23-.41.38-.9.38-1.47,0-.51-.27-.94-.66-1.2-.28-.2-.63-.31-.99-.31-.5,0-.98.27-1.23.71-.19.31-.11.67.17.93.17.14.38.24.58.24.13,0,.27-.06.38-.13.09-.06.17-.09.19-.03.03.04-.03.09-.08.17-.41.61-.94,1.1-1.45,1.1-.43,0-.81-.36-.81-.87s.33-1.14.66-1.57c.69-.89,1.5-1.46,2.49-1.46.55,0,1.03.19,1.4.49.42.36.69.87.69,1.46,0,1.02-.37,1.7-1.46,2.5.15.07.23.17.23.3,0,.29-.37.67-.85,1,.29.17.2.47.04.69-.32.43-.67.66-.99.97-.29.29-.53.64-.66,1.29.33-.24.67-.3.91-.3.34,0,.69.17,1,.34.29.16.57.3.81.3.56,0,.93-.24,1.26-.87.04-.06.08-.09.1-.09.04,0,.05.04.03.14-.17.56-.46,1.13-.84,1.53-.3.33-.67.54-1.07.54s-.81-.2-1.23-.4Z"/>
    <path class="cls-2" d="m18.8,33.2c-.53.73-1.59,1.34-2.79,1.05-.95-.23-1.74-1.02-2.1-2.06.27,2.71.78,3.48,1.26,3.6.36.09.74-.19,1.38,0,.44.13.77.41.98.63h-7.06c.17-.19.47-.48.9-.63.72-.25,1.17.1,1.58-.04.43-.15.9-.87.96-3.56-.35,1.04-1.14,1.82-2.09,2.06-1.19.29-2.26-.32-2.79-1.05-.91-1.26-.78-3.77,1.03-5.61l3.85-4.28v.04s.03-.04.03-.04l3.85,4.28c1.8,1.84,1.94,4.35,1.03,5.61Z"/>
  </g>
  <path class="cls-2" d="m52.33,33.6c-.77,1.05-2.34,1.92-4.1,1.5-1.4-.33-2.56-1.46-3.08-2.95.39,3.89,1.15,4.99,1.86,5.16.53.12,1.08-.27,2.03,0,.65.19,1.13.58,1.43.9h-10.38c.25-.28.69-.68,1.32-.9,1.06-.36,1.72.14,2.32-.06.63-.22,1.32-1.25,1.41-5.11-.51,1.49-1.68,2.61-3.08,2.95-1.75.42-3.32-.45-4.1-1.5-1.34-1.81-1.15-5.4,1.51-8.05l5.65-6.13.02.06.02-.06,5.65,6.14c2.65,2.63,2.85,6.23,1.51,8.04Z"/>
  <g>
    <path class="cls-2" d="m76.77,115.96c.43.2.85.4,1.28.4.2,0,.81-.2,1.13-.62.06-.08.13-.13.15-.13.04,0,.08.03.04.24-.1.57-.29,1.09-.54,1.56-.29.53-.67,1-1.14,1.44-.15.14-.15.27-.08.31.06.03.15.04.15.09,0,.03-.04.06-.13.11-.22.14-.47.33-.67.51-.18.17-.3.34-.3.49,0,.1.06.19.24.24.06.01.1.04.1.07s-.04.06-.12.11c-.41.27-.82.66-1.12,1.16-.23.41-.38.9-.38,1.47,0,.51.27.94.66,1.2.28.2.63.31.99.31.5,0,.98-.27,1.23-.71.19-.31.11-.67-.17-.93-.16-.14-.38-.24-.58-.24-.13,0-.27.06-.38.13-.09.06-.16.09-.19.03-.03-.04.03-.09.08-.17.41-.61.94-1.1,1.45-1.1.43,0,.81.36.81.87s-.33,1.14-.66,1.57c-.69.89-1.5,1.46-2.49,1.46-.55,0-1.03-.19-1.4-.49-.42-.36-.69-.87-.69-1.46,0-1.01.37-1.7,1.46-2.5-.15-.07-.23-.17-.23-.3,0-.29.37-.67.85-1-.29-.17-.2-.47-.04-.69.32-.43.67-.66.99-.97.29-.29.53-.64.66-1.29-.33.24-.67.3-.91.3-.34,0-.69-.17-1-.34-.29-.16-.57-.3-.81-.3-.56,0-.93.24-1.26.87-.04.06-.08.09-.1.09-.04,0-.05-.04-.03-.14.17-.56.46-1.13.84-1.53.3-.33.67-.54,1.07-.54s.81.2,1.23.4Z"/>
    <path class="cls-2" d="m71.5,102.65c.53-.73,1.59-1.34,2.79-1.05.95.23,1.74,1.02,2.1,2.06-.27-2.71-.78-3.48-1.26-3.6-.36-.09-.74.19-1.38,0-.44-.13-.77-.41-.98-.63h7.06c-.17.19-.47.48-.9.63-.72.25-1.17-.1-1.58.04-.43.15-.9.87-.96,3.56.35-1.04,1.14-1.82,2.09-2.06,1.19-.29,2.26.32,2.79,1.05.91,1.26.78,3.77-1.03,5.61l-3.85,4.28v-.04s-.03.04-.03.04l-3.85-4.28c-1.8-1.84-1.94-4.35-1.03-5.61Z"/>
  </g>
  <path class="cls-2" d="m37.97,102.24c.77-1.05,2.34-1.92,4.1-1.5,1.4.33,2.56,1.46,3.08,2.95-.39-3.89-1.15-4.99-1.86-5.16-.53-.12-1.08.27-2.03,0-.65-.19-1.13-.58-1.43-.9h10.38c-.25.28-.69.68-1.32.9-1.06.36-1.72-.14-2.32.06-.63.22-1.32,1.25-1.41,5.11.51-1.49,1.68-2.61,3.08-2.95,1.75-.42,3.32.45,4.1,1.5,1.34,1.81,1.15,5.4-1.51,8.05l-5.65,6.13-.02-.06-.02.06-5.65-6.14c-2.65-2.63-2.85-6.23-1.51-8.04Z"/>
</svg>