<?xml version="1.0" encoding="UTF-8"?>
<svg id="Layer_1" data-name="Layer 1" width="60" height="90"  xmlns="http://www.w3.org/2000/svg" xmlns:xlink="http://www.w3.org/1999/xlink" viewBox="0 0 90 135">
  <defs>
    <style>
      .cls-1 {
        fill: url(#linear-gradient);
      }

      .cls-1, .cls-2 {
        stroke-width: 0px;
      }

      .cls-3 {
        fill: url(#linear-gradient-2);
        stroke: #d1d3d4;
        stroke-miterlimit: 10;
        stroke-width: .25px;
      }
    </style>
    <linearGradient id="linear-gradient" x1="0" y1="67.5" x2="90" y2="67.5" gradientUnits="userSpaceOnUse">
      <stop offset="0" stop-color="#e6e7e8"/>
      <stop offset="1" stop-color="#f1f2f2"/>
    </linearGradient>
    <linearGradient id="linear-gradient-2" x1="3.83" y1="67.88" x2="86.83" y2="67.88" gradientUnits="userSpaceOnUse">
      <stop offset="0" stop-color="#fff"/>
      <stop offset="1" stop-color="#e6e7e8"/>
    </linearGradient>
  </defs>
  <rect class="cls-1" width="90" height="135" rx="8.37" ry="8.37"/>
  <rect class="cls-3" x="3.83" y="4.38" width="83" height="127" rx="7.94" ry="7.94"/>
  <path class="cls-2" d="m11.68,20c-.42-.17-.71-.44-.75-.79-.05-.4.19-.73.52-.99.5-.37,1.18-.61,1.52-.73.17-.06.32-.06.32.01,0,.04-.05.1-.17.17-.44.27-.76.77-.67,1.19.08.4.69.92,1.41.92.5,0,.91-.17,1.19-.5.28-.31.43-.79.43-1.39s-.22-1.14-.57-1.5c-.28-.27-.65-.41-1.07-.34-.05,0-.1,0-.11-.04s.03-.09.09-.14c.19-.14.18-.3-.06-.39-.27-.1-.74-.1-1.12-.1-.09,0-.14-.03-.14-.07s.03-.07.08-.09c.74-.24,1.43-.7,1.92-1.23.42-.46.69-.99.69-1.47,0-1.13-.85-1.63-1.66-1.63-.5,0-.96.27-1.23.71-.19.31-.11.67.17.93.29.26.67.33.96.11.06-.04.11-.1.15-.07.06.04-.01.16-.04.21-.41.61-.94,1.1-1.45,1.1-.42,0-.81-.34-.81-.87s.33-1.14.66-1.57c.69-.89,1.5-1.46,2.49-1.46,1.17,0,2.11.87,2.11,1.9,0,1.69-1.45,2.69-2.23,2.99.37-.04.72-.01.9.13.18.11.11.37-.08.56,1.05,0,1.65.92,1.65,1.92,0,.87-.41,1.52-1,1.97-.58.46-1.37.71-2.13.81-.65.06-1.41-.03-1.96-.27Z"/>
  <path class="cls-2" d="m46.76,32.42c-.11-.13-.22-.21-.37-.2,0,.02,0,.03.01.04.41,3.79,1.19,4.89,1.91,5.06.55.12,1.12-.28,2.11,0,.67.19,1.17.59,1.49.91h-10.79c.26-.28.72-.69,1.37-.91,1.1-.37,1.79.14,2.41-.06.65-.22,1.35-1.25,1.46-5.03t0-.01c-.36.02-.41.52-1.04,1.11-.72.92-1.86,1.51-3.13,1.51-2.2,0-3.99-1.77-3.99-3.96s1.79-3.96,3.99-3.96c.29,0,.57.03.84.09h0c.33-.01.63-.03.73-.22.12-.26-.26-.59-.48-.98,0,0,0-.01,0-.02-.52-.66-.83-1.5-.83-2.4,0-2.19,1.78-3.96,3.98-3.96s3.98,1.77,3.98,3.96c0,.86-.27,1.65-.74,2.29,0,0,0,0,0,0s0,0,0,.01c-.21.4-.66.75-.51,1.05.09.18.31.22.57.24h0c.22-.04.46-.06.69-.06,2.2,0,3.98,1.77,3.98,3.96s-1.78,3.96-3.98,3.96c-1.66,0-3.07-.99-3.67-2.42Z"/>
  <path class="cls-2" d="m13.94,32.43c-.08-.09-.15-.15-.25-.14,0,.01,0,.02,0,.03.28,2.61.8,3.36,1.28,3.48.37.09.76-.19,1.42,0,.45.13.79.41,1,.62h-7.25c.18-.19.48-.47.92-.62.74-.25,1.2.09,1.62-.04.44-.15.91-.86.98-3.46t0,0c-.24.01-.27.35-.7.77-.49.63-1.25,1.04-2.1,1.04-1.48,0-2.68-1.22-2.68-2.72s1.2-2.73,2.68-2.73c.19,0,.38.02.57.06h0c.22,0,.42-.02.49-.15.08-.18-.17-.41-.32-.68,0,0,0,0,0-.01-.35-.46-.56-1.03-.56-1.65,0-1.5,1.2-2.72,2.67-2.72s2.67,1.22,2.67,2.72c0,.59-.18,1.13-.5,1.58,0,0,0,0,0,0s0,0,0,0c-.14.27-.44.51-.34.72.06.12.21.15.39.16h0c.15-.03.31-.04.46-.04,1.48,0,2.67,1.22,2.67,2.73s-1.2,2.72-2.67,2.72c-1.11,0-2.06-.68-2.47-1.66Z"/>
  <path class="cls-2" d="m78.98,115.75c.42.17.71.44.75.79.05.4-.19.73-.52.99-.49.37-1.18.61-1.52.73-.16.06-.32.06-.32-.01,0-.04.05-.1.16-.17.45-.27.76-.77.67-1.19-.08-.4-.69-.91-1.41-.91-.49,0-.91.17-1.19.5-.28.31-.43.79-.43,1.39s.22,1.14.57,1.5c.28.27.65.42,1.07.34.05,0,.1,0,.11.04.01.04-.03.09-.09.14-.19.14-.18.3.06.39.27.1.74.1,1.12.1.09,0,.14.03.14.07s-.03.07-.08.09c-.74.24-1.44.7-1.92,1.23-.42.46-.69.99-.69,1.47,0,1.13.85,1.63,1.66,1.63.49,0,.96-.27,1.23-.71.19-.31.12-.67-.16-.93-.29-.26-.67-.33-.96-.11-.06.04-.12.1-.15.07-.06-.04.01-.16.04-.21.41-.61.94-1.1,1.45-1.1.42,0,.81.34.81.87s-.33,1.14-.66,1.57c-.69.89-1.5,1.46-2.49,1.46-1.17,0-2.11-.87-2.11-1.9,0-1.69,1.45-2.69,2.23-2.99-.37.04-.72.01-.9-.13-.18-.12-.12-.37.08-.56-1.05,0-1.65-.91-1.65-1.92,0-.87.41-1.52,1-1.97.58-.46,1.37-.71,2.13-.81.65-.06,1.41.03,1.96.27Z"/>
  <path class="cls-2" d="m46.51,103.33c.11.13.22.21.37.2,0-.02,0-.03-.01-.04-.41-3.79-1.19-4.89-1.91-5.06-.55-.12-1.12.28-2.11,0-.67-.19-1.17-.59-1.49-.91h10.79c-.26.28-.72.69-1.37.91-1.1.37-1.79-.14-2.41.06-.65.22-1.35,1.25-1.46,5.03t0,.01c.36-.02.41-.52,1.04-1.11.72-.92,1.86-1.51,3.13-1.51,2.2,0,3.99,1.77,3.99,3.96s-1.79,3.96-3.99,3.96c-.29,0-.57-.03-.84-.09h0c-.33.01-.63.03-.73.22-.12.26.26.59.48.98,0,0,0,.01,0,.02.52.66.83,1.5.83,2.4,0,2.19-1.78,3.96-3.98,3.96s-3.98-1.77-3.98-3.96c0-.86.27-1.65.74-2.29,0,0,0,0,0,0s0,0,0-.01c.21-.4.66-.75.51-1.05-.09-.18-.31-.22-.57-.24h0c-.22.04-.46.06-.69.06-2.2,0-3.98-1.77-3.98-3.96s1.78-3.96,3.98-3.96c1.66,0,3.07.99,3.67,2.42Z"/>
  <path class="cls-2" d="m76.72,103.33c.08.09.15.15.25.14,0-.01,0-.02,0-.03-.28-2.61-.8-3.36-1.28-3.48-.37-.09-.76.19-1.42,0-.45-.13-.79-.41-1-.62h7.25c-.18.19-.48.47-.92.62-.74.25-1.2-.09-1.62.04-.44.15-.91.86-.98,3.46t0,0c.24-.01.27-.35.7-.77.49-.63,1.25-1.04,2.1-1.04,1.48,0,2.68,1.22,2.68,2.72s-1.2,2.73-2.68,2.73c-.19,0-.38-.02-.57-.06h0c-.22,0-.42.02-.49.15-.08.18.17.41.32.68,0,0,0,0,0,.01.35.46.56,1.03.56,1.65,0,1.5-1.2,2.72-2.67,2.72s-2.67-1.22-2.67-2.72c0-.59.18-1.13.5-1.58,0,0,0,0,0,0s0,0,0,0c.14-.27.44-.51.34-.72-.06-.12-.21-.15-.39-.16h0c-.15.03-.31.04-.46.04-1.48,0-2.67-1.22-2.67-2.73s1.2-2.72,2.67-2.72c1.11,0,2.06.68,2.47,1.66Z"/>
  <path class="cls-2" d="m46.76,71.95c-.11-.13-.22-.21-.37-.2,0,.02,0,.03.01.04.41,3.79,1.19,4.89,1.91,5.06.55.12,1.12-.28,2.11,0,.67.19,1.17.59,1.49.91h-10.79c.26-.28.72-.69,1.37-.91,1.1-.37,1.79.14,2.41-.06.65-.22,1.35-1.25,1.46-5.03t0-.01c-.36.02-.41.52-1.04,1.11-.72.92-1.86,1.51-3.13,1.51-2.2,0-3.99-1.77-3.99-3.96s1.79-3.96,3.99-3.96c.29,0,.57.03.84.09h0c.33-.01.63-.03.73-.22.12-.26-.26-.59-.48-.98,0,0,0-.01,0-.02-.52-.66-.83-1.5-.83-2.4,0-2.19,1.78-3.96,3.98-3.96s3.98,1.77,3.98,3.96c0,.86-.27,1.65-.74,2.29,0,0,0,0,0,0s0,0,0,.01c-.21.4-.66.75-.51,1.05.09.18.31.22.57.24h0c.22-.04.46-.06.69-.06,2.2,0,3.98,1.77,3.98,3.96s-1.78,3.96-3.98,3.96c-1.66,0-3.07-.99-3.67-2.42Z"/>
</svg>