<?xml version="1.0" encoding="UTF-8"?>
<svg id="Layer_1" data-name="Layer 1" width="60" height="90"  xmlns="http://www.w3.org/2000/svg" xmlns:xlink="http://www.w3.org/1999/xlink" viewBox="0 0 90 135">
  <defs>
    <style>
      .cls-1 {
        fill: url(#linear-gradient);
      }

      .cls-1, .cls-2 {
        stroke-width: 0px;
      }

      .cls-3 {
        fill: url(#linear-gradient-2);
        stroke: #d1d3d4;
        stroke-miterlimit: 10;
        stroke-width: .25px;
      }
    </style>
    <linearGradient id="linear-gradient" x1="0" y1="67.5" x2="90" y2="67.5" gradientUnits="userSpaceOnUse">
      <stop offset="0" stop-color="#e6e7e8"/>
      <stop offset="1" stop-color="#f1f2f2"/>
    </linearGradient>
    <linearGradient id="linear-gradient-2" x1="3.83" y1="67.88" x2="86.83" y2="67.88" gradientUnits="userSpaceOnUse">
      <stop offset="0" stop-color="#fff"/>
      <stop offset="1" stop-color="#e6e7e8"/>
    </linearGradient>
  </defs>
  <g>
    <rect class="cls-1" width="90" height="135" rx="8.37" ry="8.37"/>
    <rect class="cls-3" x="3.83" y="4.38" width="83" height="127" rx="7.94" ry="7.94"/>
    <path class="cls-2" d="m11.73,15.91c0-.81.1-1.32.32-1.6-.22.01-.46-.2-.46-.39,0-.31.23-.56.52-.89.06-.07.1-.11.1-.17,0-.04-.04-.07-.13-.11-.2-.1-.5-.16-.5-.43,0-.39.6-1.03,1.54-1.56.08-.04.17-.07.17,0,0,.03-.03.07-.08.1-.25.17-.56.41-.56.64s.65.17.65.54c0,.13-.15.27-.32.49-.11.16-.22.27-.22.44,0,.2.19.21.34.24.09.01.13.03.13.06s-.04.09-.1.17c-.13.17-.18.5-.18,1.22v.51c0,.44-.08.84-.22,1.2.19-.06.41-.1.65-.1.96,0,1.29.33,1.84.4v-.86c0-.53.1-1.03.32-1.31-.22.01-.46-.2-.46-.39,0-.26.13-.47.47-.79-.28-.03-.47-.2-.47-.44,0-.23.22-.53.44-.76.08-.07.11-.11.11-.17,0-.04-.05-.07-.14-.11-.2-.09-.5-.16-.5-.43,0-.39.57-1.09,1.54-1.56.08-.04.17-.07.17,0,0,.03-.03.07-.08.1-.25.19-.56.41-.56.64s.65.17.65.54c0,.13-.15.27-.32.49-.15.19-.23.31-.23.46s.2.2.42.2c.08,0,.13.01.13.06s-.04.1-.13.2c-.23.24-.33.47-.33.63,0,.21.17.26.34.24.05,0,.13,0,.13.04s-.04.1-.1.19c-.13.17-.18.5-.18,1.22v1.89c.56-.13.91-.41,1.18-.71.09-.1.14-.13.17-.13s.04.01.04.06-.03.13-.06.21c-.29.63-.7,1.23-1.32,1.53,0,1.36-.44,2.3-1.94,2.86-.08.04-.15-.03-.06-.11.74-.69.77-1.4.77-2.27v-.19c-1.02-.03-1.64-.56-2.6-.56-.29,0-.6.11-.86.24-.27.11-.52.26-.74.34-.09.03-.17-.04-.08-.13.74-.69.77-1.12.77-1.99Z"/>
    <path class="cls-2" d="m78.93,119.84c0,.82-.1,1.32-.32,1.6.21-.01.46.2.46.39,0,.31-.23.56-.52.89-.06.07-.1.11-.1.17,0,.04.04.07.13.11.2.1.5.16.5.43,0,.39-.6,1.03-1.54,1.56-.08.04-.16.07-.16,0,0-.03.03-.07.08-.1.25-.17.56-.42.56-.64s-.65-.17-.65-.54c0-.13.15-.27.32-.49.11-.16.21-.27.21-.44,0-.2-.19-.21-.34-.24-.09-.02-.13-.03-.13-.06s.04-.09.1-.17c.13-.17.18-.5.18-1.22v-.51c0-.44.08-.84.21-1.2-.19.06-.41.1-.65.1-.96,0-1.29-.33-1.84-.4v.86c0,.53-.1,1.03-.32,1.32.21-.01.46.2.46.39,0,.26-.13.47-.47.79.28.03.47.2.47.44,0,.23-.22.53-.45.76-.08.07-.11.11-.11.17,0,.04.05.07.14.11.2.08.5.16.5.43,0,.39-.57,1.09-1.54,1.56-.08.04-.16.07-.16,0,0-.03.03-.07.08-.1.25-.19.56-.42.56-.64s-.65-.17-.65-.54c0-.13.15-.27.32-.49.15-.19.23-.31.23-.46s-.2-.2-.42-.2c-.08,0-.13-.01-.13-.06s.04-.1.13-.2c.23-.24.33-.47.33-.63,0-.21-.16-.26-.34-.24-.05,0-.13,0-.13-.04s.04-.1.1-.19c.13-.17.18-.5.18-1.21v-1.89c-.56.13-.91.42-1.18.71-.09.1-.14.13-.16.13s-.04-.01-.04-.06.03-.13.06-.21c.29-.63.7-1.23,1.32-1.53,0-1.36.44-2.3,1.94-2.86.08-.04.15.03.06.11-.74.69-.78,1.4-.78,2.27v.19c1.02.03,1.64.56,2.6.56.29,0,.6-.11.86-.24.27-.12.52-.26.74-.34.09-.03.16.04.08.13-.74.69-.78,1.12-.78,1.99Z"/>
  </g>
  <path class="cls-2" d="m61.53,104.39c.11.13.22.21.37.2,0-.02,0-.03-.01-.04-.41-3.79-1.19-4.89-1.91-5.06-.55-.12-1.12.28-2.11,0-.67-.19-1.17-.59-1.49-.91h10.79c-.26.28-.72.69-1.37.91-1.1.37-1.79-.14-2.41.06-.65.22-1.35,1.25-1.46,5.03t0,.01c.36-.02.41-.52,1.04-1.11.72-.92,1.86-1.51,3.13-1.51,2.2,0,3.99,1.77,3.99,3.96s-1.79,3.96-3.99,3.96c-.29,0-.57-.03-.84-.09h0c-.33.01-.63.03-.73.22-.12.26.26.59.48.98,0,0,0,.01,0,.02.52.66.83,1.5.83,2.4,0,2.19-1.78,3.96-3.98,3.96s-3.98-1.77-3.98-3.96c0-.86.27-1.65.74-2.29,0,0,0,0,0,0s0,0,0-.01c.21-.4.66-.75.51-1.05-.09-.18-.31-.22-.57-.24h0c-.22.04-.46.06-.69.06-2.2,0-3.98-1.77-3.98-3.96s1.78-3.96,3.98-3.96c1.66,0,3.07.99,3.67,2.42Z"/>
  <path class="cls-2" d="m29.76,104.33c.11.13.22.21.37.2,0-.02,0-.03-.01-.04-.41-3.79-1.19-4.89-1.91-5.06-.55-.12-1.12.28-2.11,0-.67-.19-1.17-.59-1.49-.91h10.79c-.26.28-.72.69-1.37.91-1.1.37-1.79-.14-2.41.06-.65.22-1.35,1.25-1.46,5.03t0,.01c.36-.02.41-.52,1.04-1.11.72-.92,1.86-1.51,3.13-1.51,2.2,0,3.99,1.77,3.99,3.96s-1.79,3.96-3.99,3.96c-.29,0-.57-.03-.84-.09h0c-.33.01-.63.03-.73.22-.12.26.26.59.48.98,0,0,0,.01,0,.02.52.66.83,1.5.83,2.4,0,2.19-1.78,3.96-3.98,3.96s-3.98-1.77-3.98-3.96c0-.86.27-1.65.74-2.29,0,0,0,0,0,0,0,0,0,0,0-.01.21-.4.66-.75.51-1.05-.09-.18-.31-.22-.57-.24h0c-.22.04-.46.06-.69.06-2.2,0-3.98-1.77-3.98-3.96s1.78-3.96,3.98-3.96c1.66,0,3.07.99,3.67,2.42Z"/>
  <path class="cls-2" d="m30.64,30.87c-.11-.13-.22-.21-.37-.2,0,.02,0,.03.01.04.41,3.79,1.19,4.89,1.91,5.06.55.12,1.12-.28,2.11,0,.67.19,1.17.59,1.49.91h-10.79c.26-.28.72-.69,1.37-.91,1.1-.37,1.79.14,2.41-.06.65-.22,1.35-1.25,1.46-5.03t0-.01c-.36.02-.41.52-1.04,1.11-.72.92-1.86,1.51-3.13,1.51-2.2,0-3.99-1.77-3.99-3.96s1.79-3.96,3.99-3.96c.29,0,.57.03.84.09h0c.33-.01.63-.03.73-.22.12-.26-.26-.59-.48-.98,0,0,0-.01,0-.02-.52-.66-.83-1.5-.83-2.4,0-2.19,1.78-3.96,3.98-3.96s3.98,1.77,3.98,3.96c0,.86-.27,1.65-.74,2.29,0,0,0,0,0,0s0,0,0,.01c-.21.4-.66.75-.51,1.05.09.18.31.22.57.24h0c.22-.04.46-.06.69-.06,2.2,0,3.98,1.77,3.98,3.96s-1.78,3.96-3.98,3.96c-1.66,0-3.07-.99-3.67-2.42Z"/>
  <path class="cls-2" d="m62.42,30.64c-.11-.13-.22-.21-.37-.2,0,.02,0,.03.01.04.41,3.79,1.19,4.89,1.91,5.06.55.12,1.12-.28,2.11,0,.67.19,1.17.59,1.49.91h-10.79c.26-.28.72-.69,1.37-.91,1.1-.37,1.79.14,2.41-.06.65-.22,1.35-1.25,1.46-5.03t0-.01c-.36.02-.41.52-1.04,1.11-.72.92-1.86,1.51-3.13,1.51-2.2,0-3.99-1.77-3.99-3.96s1.79-3.96,3.99-3.96c.29,0,.57.03.84.09h0c.33-.01.63-.03.73-.22.12-.26-.26-.59-.48-.98,0,0,0-.01,0-.02-.52-.66-.83-1.5-.83-2.4,0-2.19,1.78-3.96,3.98-3.96s3.98,1.77,3.98,3.96c0,.86-.27,1.65-.74,2.29,0,0,0,0,0,0s0,0,0,.01c-.21.4-.66.75-.51,1.05.09.18.31.22.57.24h0c.22-.04.46-.06.69-.06,2.2,0,3.98,1.77,3.98,3.96s-1.78,3.96-3.98,3.96c-1.66,0-3.07-.99-3.67-2.42Z"/>
  <path class="cls-2" d="m14.04,31.66c-.08-.09-.15-.15-.25-.14,0,.01,0,.02,0,.03.28,2.61.8,3.36,1.28,3.48.37.09.76-.19,1.42,0,.45.13.79.41,1,.62h-7.25c.18-.19.48-.47.92-.62.74-.25,1.2.09,1.62-.04.44-.15.91-.86.98-3.46t0,0c-.24.01-.27.35-.7.77-.49.63-1.25,1.04-2.1,1.04-1.48,0-2.68-1.22-2.68-2.72s1.2-2.73,2.68-2.73c.19,0,.38.02.57.06h0c.22,0,.42-.02.49-.15.08-.18-.17-.41-.32-.68,0,0,0,0,0-.01-.35-.46-.56-1.03-.56-1.65,0-1.5,1.2-2.72,2.67-2.72s2.67,1.22,2.67,2.72c0,.59-.18,1.13-.5,1.58,0,0,0,0,0,0s0,0,0,0c-.14.27-.44.51-.34.72.06.12.21.15.39.16h0c.15-.03.31-.04.46-.04,1.48,0,2.67,1.22,2.67,2.73s-1.2,2.72-2.67,2.72c-1.11,0-2.06-.68-2.47-1.66Z"/>
  <path class="cls-2" d="m77.04,102.52c.08.09.15.15.25.14,0-.01,0-.02,0-.03-.28-2.61-.8-3.36-1.28-3.48-.37-.09-.76.19-1.42,0-.45-.13-.79-.41-1-.62h7.25c-.18.19-.48.47-.92.62-.74.25-1.2-.09-1.62.04-.44.15-.91.86-.98,3.46t0,0c.24-.01.27-.35.7-.77.49-.63,1.25-1.04,2.1-1.04,1.48,0,2.68,1.22,2.68,2.72s-1.2,2.73-2.68,2.73c-.19,0-.38-.02-.57-.06h0c-.22,0-.42.02-.49.15-.08.18.17.41.32.68,0,0,0,0,0,.01.35.46.56,1.03.56,1.65,0,1.5-1.2,2.72-2.67,2.72s-2.67-1.22-2.67-2.72c0-.59.18-1.13.5-1.58,0,0,0,0,0,0,0,0,0,0,0,0,.14-.27.44-.51.34-.72-.06-.12-.21-.15-.39-.16h0c-.15.03-.31.04-.46.04-1.48,0-2.67-1.22-2.67-2.73s1.2-2.72,2.67-2.72c1.11,0,2.06.68,2.47,1.66Z"/>
</svg>