<?xml version="1.0" encoding="UTF-8"?>
<svg id="Layer_1" data-name="Layer 1" width="60" height="90"  xmlns="http://www.w3.org/2000/svg" xmlns:xlink="http://www.w3.org/1999/xlink" viewBox="0 0 90 135">
  <defs>
    <style>
      .cls-1 {
        fill: url(#linear-gradient);
      }

      .cls-1, .cls-2 {
        stroke-width: 0px;
      }

      .cls-2 {
        fill: #ed1c24;
      }

      .cls-3 {
        fill: url(#linear-gradient-2);
        stroke: #d1d3d4;
        stroke-miterlimit: 10;
        stroke-width: .25px;
      }
    </style>
    <linearGradient id="linear-gradient" x1="0" y1="67.5" x2="90" y2="67.5" gradientUnits="userSpaceOnUse">
      <stop offset="0" stop-color="#e6e7e8"/>
      <stop offset="1" stop-color="#f1f2f2"/>
    </linearGradient>
    <linearGradient id="linear-gradient-2" x1="3.83" y1="67.88" x2="86.83" y2="67.88" gradientUnits="userSpaceOnUse">
      <stop offset="0" stop-color="#fff"/>
      <stop offset="1" stop-color="#e6e7e8"/>
    </linearGradient>
  </defs>
  <g>
    <rect class="cls-1" width="90" height="135" rx="8.37" ry="8.37"/>
    <rect class="cls-3" x="3.83" y="4.38" width="83" height="127" rx="7.94" ry="7.94"/>
    <path class="cls-2" d="m11.73,15.91c0-.81.1-1.32.32-1.6-.22.01-.46-.2-.46-.39,0-.31.23-.56.52-.89.06-.07.1-.11.1-.17,0-.04-.04-.07-.13-.11-.2-.1-.5-.16-.5-.43,0-.39.6-1.03,1.54-1.56.08-.04.17-.07.17,0,0,.03-.03.07-.08.1-.25.17-.56.41-.56.64s.65.17.65.54c0,.13-.15.27-.32.49-.11.16-.22.27-.22.44,0,.2.19.21.34.24.09.01.13.03.13.06s-.04.09-.1.17c-.13.17-.18.5-.18,1.22v.51c0,.44-.08.84-.22,1.2.19-.06.41-.1.65-.1.96,0,1.29.33,1.84.4v-.86c0-.53.1-1.03.32-1.31-.22.01-.46-.2-.46-.39,0-.26.13-.47.47-.79-.28-.03-.47-.2-.47-.44,0-.23.22-.53.44-.76.08-.07.11-.11.11-.17,0-.04-.05-.07-.14-.11-.2-.09-.5-.16-.5-.43,0-.39.57-1.09,1.54-1.56.08-.04.17-.07.17,0,0,.03-.03.07-.08.1-.25.19-.56.41-.56.64s.65.17.65.54c0,.13-.15.27-.32.49-.15.19-.23.31-.23.46s.2.2.42.2c.08,0,.13.01.13.06s-.04.1-.13.2c-.23.24-.33.47-.33.63,0,.21.17.26.34.24.05,0,.13,0,.13.04s-.04.1-.1.19c-.13.17-.18.5-.18,1.22v1.89c.56-.13.91-.41,1.18-.71.09-.1.14-.13.17-.13s.04.01.04.06-.03.13-.06.21c-.29.63-.7,1.23-1.32,1.53,0,1.36-.44,2.3-1.94,2.86-.08.04-.15-.03-.06-.11.74-.69.77-1.4.77-2.27v-.19c-1.02-.03-1.64-.56-2.6-.56-.29,0-.6.11-.86.24-.27.11-.52.26-.74.34-.09.03-.17-.04-.08-.13.74-.69.77-1.12.77-1.99Z"/>
    <path class="cls-2" d="m78.93,119.84c0,.82-.1,1.32-.32,1.6.21-.01.46.2.46.39,0,.31-.23.56-.52.89-.06.07-.1.11-.1.17,0,.04.04.07.13.11.2.1.5.16.5.43,0,.39-.6,1.03-1.54,1.56-.08.04-.16.07-.16,0,0-.03.03-.07.08-.1.25-.17.56-.42.56-.64s-.65-.17-.65-.54c0-.13.15-.27.32-.49.11-.16.21-.27.21-.44,0-.2-.19-.21-.34-.24-.09-.02-.13-.03-.13-.06s.04-.09.1-.17c.13-.17.18-.5.18-1.22v-.51c0-.44.08-.84.21-1.2-.19.06-.41.1-.65.1-.96,0-1.29-.33-1.84-.4v.86c0,.53-.1,1.03-.32,1.32.21-.01.46.2.46.39,0,.26-.13.47-.47.79.28.03.47.2.47.44,0,.23-.22.53-.45.76-.08.07-.11.11-.11.17,0,.04.05.07.14.11.2.08.5.16.5.43,0,.39-.57,1.09-1.54,1.56-.08.04-.16.07-.16,0,0-.03.03-.07.08-.1.25-.19.56-.42.56-.64s-.65-.17-.65-.54c0-.13.15-.27.32-.49.15-.19.23-.31.23-.46s-.2-.2-.42-.2c-.08,0-.13-.01-.13-.06s.04-.1.13-.2c.23-.24.33-.47.33-.63,0-.21-.16-.26-.34-.24-.05,0-.13,0-.13-.04s.04-.1.1-.19c.13-.17.18-.5.18-1.21v-1.89c-.56.13-.91.42-1.18.71-.09.1-.14.13-.16.13s-.04-.01-.04-.06.03-.13.06-.21c.29-.63.7-1.23,1.32-1.53,0-1.36.44-2.3,1.94-2.86.08-.04.15.03.06.11-.74.69-.78,1.4-.78,2.27v.19c1.02.03,1.64.56,2.6.56.29,0,.6-.11.86-.24.27-.12.52-.26.74-.34.09-.03.16.04.08.13-.74.69-.78,1.12-.78,1.99Z"/>
  </g>
  <g>
    <g>
      <path class="cls-2" d="m25.29,107.75l5.23-6.02c.58,1.83,1.14,4.03,1.53,6.57.29,1.89.44,3.63.49,5.18l-2.02.3c-.37,1.73-1.53,3.06-2.97,3.43-1.49.38-2.97-.36-3.73-1.45-1.31-1.88-.95-5.46,1.47-8Z"/>
      <path class="cls-2" d="m30.64,101.11l.16.51c.68,2.15,1.2,4.38,1.54,6.62.26,1.72.43,3.47.5,5.22v.29s-2.08.31-2.08.31c-.44,1.73-1.66,3.08-3.14,3.45-1.73.43-3.28-.48-4.04-1.57-1.32-1.9-1.13-5.66,1.5-8.42l5.57-6.42Zm1.58,12.09c-.07-1.62-.23-3.25-.48-4.85-.31-2.03-.77-4.04-1.36-6l-4.89,5.64c-2.39,2.52-2.61,5.89-1.44,7.57.63.9,1.96,1.7,3.42,1.33,1.33-.33,2.4-1.58,2.74-3.18l.05-.22,1.96-.29Z"/>
    </g>
    <g>
      <path class="cls-2" d="m28.78,113.48c.06-1.55.2-3.29.49-5.18.39-2.53.95-4.74,1.53-6.57l5.23,6.02c2.42,2.55,2.79,6.12,1.47,8-.76,1.09-2.24,1.83-3.73,1.45-1.44-.37-2.6-1.7-2.97-3.43-.67-.1-1.35-.2-2.02-.3Z"/>
      <path class="cls-2" d="m30.68,101.11l5.58,6.42c2.62,2.76,2.82,6.52,1.49,8.42-.77,1.1-2.31,2.01-4.04,1.57-1.49-.38-2.7-1.72-3.14-3.45l-2.09-.31v-.3c.08-1.76.25-3.52.51-5.22.34-2.23.86-4.46,1.54-6.62l.16-.51Zm3.89,15.87c1.16,0,2.17-.68,2.69-1.42,1.17-1.68.96-5.05-1.44-7.57l-4.89-5.63c-.59,1.96-1.05,3.98-1.36,6-.24,1.58-.4,3.21-.48,4.85l1.96.29.05.22c.34,1.6,1.42,2.85,2.74,3.19.25.06.49.09.73.09Z"/>
    </g>
  </g>
  <g>
    <g>
      <path class="cls-2" d="m35.83,27.86l-5.23,6.02c-.58-1.83-1.14-4.03-1.53-6.57-.29-1.89-.44-3.63-.49-5.18l2.02-.3c.37-1.73,1.53-3.06,2.97-3.43,1.49-.38,2.97.36,3.73,1.45,1.31,1.88.95,5.46-1.47,8Z"/>
      <path class="cls-2" d="m30.47,34.5l-.16-.51c-.68-2.15-1.2-4.38-1.54-6.62-.26-1.72-.43-3.47-.5-5.22v-.29s2.08-.31,2.08-.31c.44-1.73,1.66-3.08,3.14-3.45,1.73-.43,3.28.48,4.04,1.57,1.32,1.9,1.13,5.66-1.5,8.42l-5.57,6.42Zm-1.58-12.09c.07,1.62.23,3.25.48,4.85.31,2.03.77,4.04,1.36,6l4.89-5.64c2.39-2.52,2.61-5.89,1.44-7.57-.63-.9-1.96-1.7-3.42-1.33-1.33.33-2.4,1.58-2.74,3.18l-.05.22-1.96.29Z"/>
    </g>
    <g>
      <path class="cls-2" d="m32.33,22.13c-.06,1.55-.2,3.29-.49,5.18-.39,2.53-.95,4.74-1.53,6.57l-5.23-6.02c-2.42-2.55-2.79-6.12-1.47-8,.76-1.09,2.24-1.83,3.73-1.45,1.44.37,2.6,1.7,2.97,3.43.67.1,1.35.2,2.02.3Z"/>
      <path class="cls-2" d="m30.43,34.5l-5.58-6.42c-2.62-2.76-2.82-6.52-1.49-8.42.77-1.1,2.31-2.01,4.04-1.57,1.49.38,2.7,1.72,3.14,3.45l2.09.31v.3c-.08,1.76-.25,3.52-.51,5.22-.34,2.23-.86,4.46-1.54,6.62l-.16.51Zm-3.89-15.87c-1.16,0-2.17.68-2.69,1.42-1.17,1.68-.96,5.05,1.44,7.57l4.89,5.63c.59-1.96,1.05-3.98,1.36-6,.24-1.58.4-3.21.48-4.85l-1.96-.29-.05-.22c-.34-1.6-1.42-2.85-2.74-3.19-.25-.06-.49-.09-.73-.09Z"/>
    </g>
  </g>
  <g>
    <g>
      <path class="cls-2" d="m66.75,27.86l-5.23,6.02c-.58-1.83-1.14-4.03-1.53-6.57-.29-1.89-.44-3.63-.49-5.18l2.02-.3c.37-1.73,1.53-3.06,2.97-3.43,1.49-.38,2.97.36,3.73,1.45,1.31,1.88.95,5.46-1.47,8Z"/>
      <path class="cls-2" d="m61.39,34.5l-.16-.51c-.68-2.15-1.2-4.38-1.54-6.62-.26-1.72-.43-3.47-.5-5.22v-.29s2.08-.31,2.08-.31c.44-1.73,1.66-3.08,3.14-3.45,1.73-.43,3.28.48,4.04,1.57,1.32,1.9,1.13,5.66-1.5,8.42l-5.57,6.42Zm-1.58-12.09c.07,1.62.23,3.25.48,4.85.31,2.03.77,4.04,1.36,6l4.89-5.64c2.39-2.52,2.61-5.89,1.44-7.57-.63-.9-1.96-1.7-3.42-1.33-1.33.33-2.4,1.58-2.74,3.18l-.05.22-1.96.29Z"/>
    </g>
    <g>
      <path class="cls-2" d="m63.25,22.13c-.06,1.55-.2,3.29-.49,5.18-.39,2.53-.95,4.74-1.53,6.57l-5.23-6.02c-2.42-2.55-2.79-6.12-1.47-8,.76-1.09,2.24-1.83,3.73-1.45,1.44.37,2.6,1.7,2.97,3.43.67.1,1.35.2,2.02.3Z"/>
      <path class="cls-2" d="m61.35,34.5l-5.58-6.42c-2.62-2.76-2.82-6.52-1.49-8.42.77-1.1,2.31-2.01,4.04-1.57,1.49.38,2.7,1.72,3.14,3.45l2.09.31v.3c-.08,1.76-.25,3.52-.51,5.22-.34,2.23-.86,4.46-1.54,6.62l-.16.51Zm-3.89-15.87c-1.16,0-2.17.68-2.69,1.42-1.17,1.68-.96,5.05,1.44,7.57l4.89,5.63c.59-1.96,1.05-3.98,1.36-6,.24-1.58.4-3.21.48-4.85l-1.96-.29-.05-.22c-.34-1.6-1.42-2.85-2.74-3.19-.25-.06-.49-.09-.73-.09Z"/>
    </g>
  </g>
  <g>
    <g>
      <path class="cls-2" d="m56,107.75l5.23-6.02c.58,1.83,1.14,4.03,1.53,6.57.29,1.89.44,3.63.49,5.18l-2.02.3c-.37,1.73-1.53,3.06-2.97,3.43-1.49.38-2.97-.36-3.73-1.45-1.31-1.88-.95-5.46,1.47-8Z"/>
      <path class="cls-2" d="m61.35,101.11l.16.51c.68,2.15,1.2,4.38,1.54,6.62.26,1.72.43,3.47.5,5.22v.29s-2.08.31-2.08.31c-.44,1.73-1.66,3.08-3.14,3.45-1.73.43-3.28-.48-4.04-1.57-1.32-1.9-1.13-5.66,1.5-8.42l5.57-6.42Zm1.58,12.09c-.07-1.62-.23-3.25-.48-4.85-.31-2.03-.77-4.04-1.36-6l-4.89,5.64c-2.39,2.52-2.61,5.89-1.44,7.57.63.9,1.96,1.7,3.42,1.33,1.33-.33,2.4-1.58,2.74-3.18l.05-.22,1.96-.29Z"/>
    </g>
    <g>
      <path class="cls-2" d="m59.49,113.48c.06-1.55.2-3.29.49-5.18.39-2.53.95-4.74,1.53-6.57l5.23,6.02c2.42,2.55,2.79,6.12,1.47,8-.76,1.09-2.24,1.83-3.73,1.45-1.44-.37-2.6-1.7-2.97-3.43-.67-.1-1.35-.2-2.02-.3Z"/>
      <path class="cls-2" d="m61.39,101.11l5.58,6.42c2.62,2.76,2.82,6.52,1.49,8.42-.77,1.1-2.31,2.01-4.04,1.57-1.49-.38-2.7-1.72-3.14-3.45l-2.09-.31v-.3c.08-1.76.25-3.52.51-5.22.34-2.23.86-4.46,1.54-6.62l.16-.51Zm3.89,15.87c1.16,0,2.17-.68,2.69-1.42,1.17-1.68.96-5.05-1.44-7.57l-4.89-5.63c-.59,1.96-1.05,3.98-1.36,6-.24,1.58-.4,3.21-.48,4.85l1.96.29.05.22c.34,1.6,1.42,2.85,2.74,3.19.25.06.49.09.73.09Z"/>
    </g>
  </g>
  <g>
    <g>
      <path class="cls-2" d="m17.27,28.77l-3.34,3.58c-.37-1.09-.73-2.4-.97-3.9-.19-1.12-.28-2.16-.31-3.08l1.29-.18c.24-1.03.97-1.82,1.89-2.04.95-.22,1.89.21,2.38.86.84,1.12.6,3.24-.94,4.75Z"/>
      <path class="cls-2" d="m13.73,33.3l-.27-.79c-.44-1.29-.77-2.63-.99-3.98-.17-1.03-.28-2.09-.32-3.14l-.02-.45,1.42-.2c.35-1.04,1.18-1.84,2.17-2.07,1.24-.29,2.35.32,2.89,1.05,1.06,1.41.62,3.83-.98,5.4l-3.9,4.18Zm-.56-7.5c.05.86.15,1.72.29,2.56.17,1.02.4,2.03.7,3.02l2.77-2.97c1.36-1.34,1.56-3.2.89-4.1-.34-.46-1.07-.86-1.86-.68-.73.17-1.33.82-1.52,1.66l-.08.34-1.18.16Z"/>
    </g>
    <g>
      <path class="cls-2" d="m14.83,25.37c-.04.92-.13,1.96-.31,3.08-.25,1.5-.61,2.81-.98,3.9l-3.33-3.58c-1.54-1.51-1.78-3.63-.94-4.75.49-.65,1.43-1.09,2.38-.86.92.22,1.66,1.01,1.89,2.04.43.06.86.12,1.29.18Z"/>
      <path class="cls-2" d="m13.75,33.3l-3.91-4.19c-1.59-1.56-2.03-3.98-.97-5.39.55-.73,1.66-1.34,2.89-1.05,1,.23,1.82,1.03,2.17,2.07l1.42.19-.02.46c-.04,1.06-.15,2.12-.32,3.14-.22,1.34-.56,2.68-1,3.98l-.27.79Zm-2.61-9.71c-.63,0-1.18.34-1.47.72-.67.9-.48,2.76.89,4.1l2.77,2.97c.3-.99.53-2.01.7-3.02.14-.84.23-1.7.29-2.56l-1.18-.16-.08-.34c-.19-.84-.79-1.49-1.52-1.66-.13-.03-.27-.05-.4-.05Z"/>
    </g>
  </g>
  <g>
    <g>
      <path class="cls-2" d="m73.39,105.32l3.34-3.58c.37,1.09.73,2.4.97,3.9.19,1.12.28,2.16.31,3.08l-1.29.18c-.24,1.03-.97,1.82-1.89,2.04-.95.22-1.89-.21-2.38-.86-.84-1.12-.6-3.24.94-4.75Z"/>
      <path class="cls-2" d="m76.93,100.79l.27.79c.44,1.29.77,2.63.99,3.98.17,1.03.28,2.09.32,3.14l.02.45-1.42.2c-.35,1.04-1.18,1.84-2.17,2.07-1.24.29-2.35-.32-2.89-1.05-1.06-1.41-.62-3.83.98-5.4l3.9-4.18Zm.56,7.5c-.05-.86-.15-1.72-.29-2.56-.17-1.02-.4-2.03-.7-3.02l-2.77,2.97c-1.36,1.34-1.56,3.2-.89,4.1.34.46,1.07.86,1.86.68.73-.17,1.33-.82,1.52-1.66l.08-.34,1.18-.16Z"/>
    </g>
    <g>
      <path class="cls-2" d="m75.82,108.72c.04-.92.13-1.96.31-3.08.25-1.5.61-2.81.98-3.9l3.33,3.58c1.54,1.51,1.78,3.63.94,4.75-.49.65-1.43,1.09-2.38.86-.92-.22-1.66-1.01-1.89-2.04-.43-.06-.86-.12-1.29-.18Z"/>
      <path class="cls-2" d="m76.91,100.78l3.91,4.19c1.59,1.56,2.03,3.98.97,5.39-.55.73-1.66,1.34-2.89,1.05-1-.23-1.82-1.03-2.17-2.07l-1.42-.19.02-.46c.04-1.06.15-2.12.32-3.14.22-1.34.56-2.68,1-3.98l.27-.79Zm2.61,9.71c.63,0,1.18-.34,1.47-.72.67-.9.48-2.76-.89-4.1l-2.77-2.97c-.3.99-.53,2.01-.7,3.02-.14.84-.23,1.7-.29,2.56l1.18.16.08.34c.19.84.79,1.49,1.52,1.66.13.03.27.05.4.05Z"/>
    </g>
  </g>
</svg>