<?xml version="1.0" encoding="UTF-8"?>
<svg id="Layer_1" data-name="Layer 1" width="60" height="90"  xmlns="http://www.w3.org/2000/svg" xmlns:xlink="http://www.w3.org/1999/xlink" viewBox="0 0 90 135">
  <defs>
    <style>
      .cls-1 {
        fill: url(#linear-gradient);
      }

      .cls-1, .cls-2, .cls-3 {
        stroke-width: 0px;
      }

      .cls-2 {
        fill: #ed1c24;
      }

      .cls-4 {
        fill: url(#linear-gradient-2);
        stroke: #d1d3d4;
        stroke-miterlimit: 10;
        stroke-width: .25px;
      }

      .cls-3 {
        fill: #ec2027;
      }
    </style>
    <linearGradient id="linear-gradient" x1="0" y1="67.5" x2="90" y2="67.5" gradientUnits="userSpaceOnUse">
      <stop offset="0" stop-color="#e6e7e8"/>
      <stop offset="1" stop-color="#f1f2f2"/>
    </linearGradient>
    <linearGradient id="linear-gradient-2" x1="3.83" y1="67.88" x2="86.83" y2="67.88" gradientUnits="userSpaceOnUse">
      <stop offset="0" stop-color="#fff"/>
      <stop offset="1" stop-color="#e6e7e8"/>
    </linearGradient>
  </defs>
  <g>
    <rect class="cls-1" width="90" height="135" rx="8.37" ry="8.37"/>
    <rect class="cls-4" x="3.83" y="4.38" width="83" height="127" rx="7.94" ry="7.94"/>
    <path class="cls-3" d="m11.56,14.6c-.01-.53.1-1.03.32-1.32-.22.01-.46-.2-.46-.39,0-.26.11-.46.46-.77.13-.13.13-.2-.04-.27-.2-.09-.5-.16-.5-.43,0-.39.57-1.09,1.54-1.56.09-.04.14-.04.15-.03.03.03,0,.09-.06.13-.25.19-.56.41-.56.64s.65.17.65.54c0,.13-.15.27-.32.49-.15.19-.23.31-.23.46,0,.19.27.19.43.17.08,0,.11,0,.11.03.01.04-.01.1-.09.2-.13.17-.15.53-.15,1.24,0,.57-.03.81-.11,1.04.55-.44,1.19-.66,1.69-.66s.84.26.71.73c1.1-.06,1.61,1.19,1.61,2.4,0,2.22-2.46,3.19-4.62,2.83-.14-.03-.19-.06-.19-.09.01-.03.08-.06.18-.06.23-.01.46-.03.67-.06-.18-.26-.42-.36-.67-.34-.32.01-.65.17-.88.36-.09.07-.17.09-.18.06-.01-.04.01-.11.11-.21.57-.62,1.19-1,1.96-1.02.61-.01,1.1.26,1.35.7.57-.36.91-.94.91-1.97,0-1.34-.63-2.27-1.61-1.92-.06.03-.1.01-.11-.01-.01-.03-.01-.07.03-.11.25-.31.09-.47-.15-.47-.28,0-.77.2-1.26.47-.33.19-.74.44-1.36.67-.06.03-.09,0-.1-.03-.01-.01,0-.06.04-.09.65-.46.75-.76.74-1.37Zm2.87-4.48c.46,0,.81.4,1.35.4.24,0,.5-.16.71-.36.06-.06.1-.07.13-.06.03.03.01.1-.04.2-.09.17-.67,1.32-1.38,1.32-.58,0-.8-.36-1.32-.36-.25,0-.57.17-.77.33-.06.06-.13.06-.13.01-.01-.03,0-.07.05-.14.34-.56.86-1.34,1.41-1.34Z"/>
    <path class="cls-3" d="m79.1,121.15c.01.53-.1,1.03-.32,1.32.22-.01.46.2.46.39,0,.26-.11.46-.46.77-.13.13-.13.2.04.27.2.08.49.16.49.43,0,.39-.57,1.09-1.54,1.56-.09.04-.14.04-.15.03-.03-.03,0-.08.06-.13.25-.19.56-.42.56-.64s-.65-.17-.65-.54c0-.13.15-.27.32-.49.15-.19.23-.31.23-.46,0-.19-.27-.19-.43-.17-.08,0-.11,0-.11-.03-.01-.04.01-.1.09-.2.13-.17.15-.53.15-1.24,0-.57.03-.81.12-1.04-.55.44-1.19.66-1.69.66s-.84-.26-.71-.73c-1.1.06-1.61-1.19-1.61-2.4,0-2.21,2.46-3.19,4.62-2.83.14.03.19.06.19.09-.01.03-.08.06-.18.06-.23.01-.46.03-.67.06.18.26.42.36.67.34.32-.01.65-.17.88-.36.09-.07.16-.09.18-.06.01.04-.01.11-.12.21-.57.62-1.19,1-1.96,1.01-.61.02-1.1-.26-1.35-.7-.57.36-.91.94-.91,1.97,0,1.34.63,2.27,1.61,1.92.06-.03.1-.01.11.01.01.03.01.07-.03.12-.25.31-.09.47.15.47.28,0,.78-.2,1.26-.47.33-.19.74-.44,1.36-.67.06-.03.09,0,.1.03.01.01,0,.06-.04.09-.65.46-.75.76-.74,1.37Zm-2.87,4.47c-.46,0-.81-.4-1.35-.4-.24,0-.5.16-.71.36-.06.06-.1.07-.13.06-.03-.03-.01-.1.04-.2.09-.17.67-1.32,1.38-1.32.58,0,.8.36,1.32.36.25,0,.57-.17.77-.33.06-.06.13-.06.13-.01.01.03,0,.07-.05.14-.34.56-.86,1.34-1.41,1.34Z"/>
  </g>
  <polygon class="cls-2" points="37.14 107.67 29.92 117.07 22.69 107.67 29.92 98.28 37.14 107.67"/>
  <polygon class="cls-2" points="68.15 108.3 60.92 117.7 53.69 108.3 60.92 98.9 68.15 108.3"/>
  <polygon class="cls-2" points="52.56 67.5 45.33 76.9 38.1 67.5 45.33 58.1 52.56 67.5"/>
  <polygon class="cls-2" points="68.02 27.6 60.79 37 53.56 27.6 60.79 18.2 68.02 27.6"/>
  <polygon class="cls-2" points="37.59 27.27 30.36 36.67 23.14 27.27 30.36 17.87 37.59 27.27"/>
  <polygon class="cls-2" points="82.32 106.84 77.32 113.34 72.32 106.84 77.32 100.34 82.32 106.84"/>
  <polygon class="cls-2" points="18.68 29.13 13.68 35.63 8.68 29.13 13.68 22.63 18.68 29.13"/>
</svg>