<?xml version="1.0" encoding="UTF-8"?>
<svg id="Layer_1" data-name="Layer 1" width="60" height="90"  xmlns="http://www.w3.org/2000/svg" xmlns:xlink="http://www.w3.org/1999/xlink" viewBox="0 0 90 135">
  <defs>
    <style>
      .cls-1 {
        fill: url(#linear-gradient);
      }

      .cls-1, .cls-2, .cls-3 {
        stroke-width: 0px;
      }

      .cls-2 {
        fill: #ed1c24;
      }

      .cls-4 {
        fill: url(#linear-gradient-2);
        stroke: #d1d3d4;
        stroke-miterlimit: 10;
        stroke-width: .25px;
      }

      .cls-3 {
        fill: #ec2027;
      }
    </style>
    <linearGradient id="linear-gradient" x1="0" y1="67.5" x2="90" y2="67.5" gradientUnits="userSpaceOnUse">
      <stop offset="0" stop-color="#e6e7e8"/>
      <stop offset="1" stop-color="#f1f2f2"/>
    </linearGradient>
    <linearGradient id="linear-gradient-2" x1="3.83" y1="67.88" x2="86.83" y2="67.88" gradientTransform="translate(-.66 -.75)" gradientUnits="userSpaceOnUse">
      <stop offset="0" stop-color="#fff"/>
      <stop offset="1" stop-color="#e6e7e8"/>
    </linearGradient>
  </defs>
  <rect class="cls-1" x="0" y="0" width="90" height="135" rx="8.37" ry="8.37"/>
  <rect class="cls-4" x="3.17" y="3.62" width="83" height="127" rx="7.94" ry="7.94"/>
  <path class="cls-3" d="m77.48,125.05c-.2,0-.43-.09-.65-.2-.36-.17-.71-.39-.99-.39s-.46.24-.71.41c-.14.1-.29.17-.49.17-.27,0-.52-.13-.8-.26-.24-.11-.49-.21-.79-.21s-.57.21-.69.36c-.06.07-.11.1-.14.09-.04-.01-.05-.07,0-.17.39-.73,1.09-1.3,1.54-1.59.58-.37,1.03-.94,1.14-1.37.06-.23.04-.41-.11-.51-.05-.03-.08-.06-.08-.09.01-.03.05-.06.13-.13.39-.33.63-1.06.29-1.27-.05-.03-.09-.04-.08-.07.01-.01.03-.04.08-.1.24-.27.37-.59.39-.84.01-.23-.05-.42-.19-.52-.05-.03-.08-.04-.08-.07s.03-.06.08-.1c.57-.57.69-1.39.34-1.86-.33-.44-.72-.4-1.11.03-.06.07-.1.1-.11.09-.03-.03-.01-.09.03-.21.36-1.13,1.31-1.7,1.99-1.39.91.42.53,1.7-.01,2.6.2.08.29.26.29.46.01.33-.23.74-.58,1.06.24.13.36.29.37.47.03.29-.22.66-.57,1.07.39.24.32.69.01,1.16-.39.63-1.21,1.33-1.89,1.77.27.03.5.14.71.24.24.13.47.26.71.26.25,0,.45-.14.62-.3.18-.14.36-.29.6-.29.3,0,.56.13.8.26.24.13.46.24.7.24.39,0,.74-.3.83-.37.05-.04.11-.03.14.01.01.03.01.07-.03.13-.48.71-1.08,1.43-1.69,1.43Z"/>
  <g>
    <path class="cls-3" d="m11.85,9.2c.2,0,.43.09.65.2.36.17.71.39.99.39s.46-.24.71-.41c.14-.1.29-.17.5-.17.27,0,.52.13.8.26.24.11.5.21.79.21s.57-.21.69-.36c.06-.07.11-.1.14-.09.04.01.05.07,0,.17-.39.73-1.09,1.3-1.54,1.59-.58.37-1.03.94-1.14,1.37-.06.23-.04.41.11.51.05.03.08.06.08.09-.01.03-.05.06-.13.13-.39.33-.63,1.06-.29,1.27.05.03.09.04.08.07-.01.01-.03.04-.08.1-.24.27-.37.59-.39.84-.01.23.05.41.19.51.05.03.08.04.08.07s-.03.06-.08.1c-.57.57-.69,1.39-.34,1.86.33.44.72.4,1.1-.03.06-.07.1-.1.11-.09.03.03.01.09-.03.21-.36,1.13-1.31,1.7-1.99,1.39-.91-.41-.53-1.7.01-2.6-.2-.09-.29-.26-.29-.46-.01-.33.23-.74.58-1.06-.24-.13-.36-.29-.37-.47-.03-.29.22-.66.57-1.07-.39-.24-.32-.69-.01-1.16.39-.63,1.21-1.33,1.89-1.77-.27-.03-.5-.14-.71-.24-.24-.13-.47-.26-.71-.26-.25,0-.44.14-.62.3-.18.14-.36.29-.6.29-.3,0-.56-.13-.8-.26-.24-.13-.46-.24-.7-.24-.39,0-.74.3-.83.37-.05.04-.11.03-.14-.01-.01-.03-.01-.07.03-.13.48-.71,1.08-1.43,1.69-1.43Z"/>
    <polygon class="cls-2" points="37.78 27.13 30.55 36.53 23.32 27.13 30.55 17.73 37.78 27.13"/>
    <polygon class="cls-2" points="37.61 110.14 30.38 119.54 23.16 110.14 30.38 100.75 37.61 110.14"/>
    <polygon class="cls-2" points="66.84 110 59.62 119.4 52.39 110 59.62 100.6 66.84 110"/>
    <polygon class="cls-2" points="37.72 68.08 30.5 77.47 23.27 68.08 30.5 58.68 37.72 68.08"/>
    <polygon class="cls-2" points="68.54 68.07 61.31 77.47 54.08 68.07 61.31 58.68 68.54 68.07"/>
    <polygon class="cls-2" points="53.19 47.74 45.96 57.14 38.73 47.74 45.96 38.34 53.19 47.74"/>
    <polygon class="cls-2" points="68.66 27.13 61.44 36.53 54.21 27.13 61.44 17.73 68.66 27.13"/>
    <polygon class="cls-2" points="18.8 29.13 13.8 35.63 8.8 29.13 13.8 22.63 18.8 29.13"/>
    <polygon class="cls-2" points="81.1 103.28 76.1 109.78 71.1 103.28 76.1 96.78 81.1 103.28"/>
  </g>
</svg>