<?xml version="1.0" encoding="UTF-8"?>
<svg id="Layer_1" data-name="Layer 1" width="60" height="90"  xmlns="http://www.w3.org/2000/svg" xmlns:xlink="http://www.w3.org/1999/xlink" viewBox="0 0 90 135">
  <defs>
    <style>
      .cls-1 {
        fill: url(#linear-gradient);
      }

      .cls-1, .cls-2 {
        stroke-width: 0px;
      }

      .cls-3 {
        fill: url(#linear-gradient-2);
        stroke: #d1d3d4;
        stroke-miterlimit: 10;
        stroke-width: .25px;
      }
    </style>
    <linearGradient id="linear-gradient" x1="0" y1="67.5" x2="90" y2="67.5" gradientUnits="userSpaceOnUse">
      <stop offset="0" stop-color="#e6e7e8"/>
      <stop offset="1" stop-color="#f1f2f2"/>
    </linearGradient>
    <linearGradient id="linear-gradient-2" x1="3.83" y1="67.88" x2="86.83" y2="67.88" gradientUnits="userSpaceOnUse">
      <stop offset="0" stop-color="#fff"/>
      <stop offset="1" stop-color="#e6e7e8"/>
    </linearGradient>
  </defs>
  <g>
    <rect class="cls-1" width="90" height="135" rx="8.37" ry="8.37"/>
    <rect class="cls-3" x="3.83" y="4.38" width="83" height="127" rx="7.94" ry="7.94"/>
    <path class="cls-2" d="m13.84,9.71c1.49-.19,2.87.54,2.87,2.22,0,.61-.34,1.6-1.71,2.17.23.13.24.31.13.49-.18.3-.7.61-1.26.8.06.24.04.54-.55,1.09-.46.41-.84.92-.86,1.63-.04.94.84,2.02,1.89,1.76.93-.23,1.54-1.33,1.54-2.3,0-1.09-.41-1.73-1.1-1.77-.17-.01-.24-.06-.19-.11.03-.03.1-.06.23-.09,1.7-.3,2.27.79,2.31,1.8.05,1.33-1.27,2.66-2.84,2.92-1.54.26-2.65-.34-3.03-1.26-.44-1.06-.13-1.93.61-2.69.19-.2.41-.34.51-.44.05-.06.08-.1.04-.11-.08-.04-.15-.1-.14-.14,0-.03.04-.06.11-.07.43-.09.99-.41,1.22-.67.11-.14.13-.27-.03-.34-.09-.04-.17-.09-.14-.11.01-.03.05-.04.11-.06,1-.21,1.88-1.09,1.88-2.26s-.6-2.13-1.66-1.94c-.86.14-1.36,1.1-1.36,2.02,0,.84.18,1.72,1,1.79.09,0,.14.03.15.06.01.04-.04.1-.15.13-1.18.33-2.26-.46-2.26-1.62,0-1.52,1.04-2.66,2.69-2.86Z"/>
    <path class="cls-2" d="m76.82,126.04c-1.48.19-2.87-.54-2.87-2.22,0-.62.34-1.6,1.71-2.17-.23-.13-.24-.31-.13-.49.18-.3.7-.61,1.26-.8-.06-.24-.04-.54.55-1.09.46-.41.84-.92.86-1.63.04-.94-.84-2.02-1.89-1.76-.93.23-1.54,1.33-1.54,2.3,0,1.09.41,1.73,1.1,1.77.17.02.24.06.19.12-.03.03-.1.06-.23.09-1.7.3-2.27-.79-2.31-1.8-.05-1.33,1.27-2.66,2.84-2.92,1.54-.26,2.65.34,3.03,1.26.45,1.06.13,1.93-.61,2.69-.19.2-.41.34-.51.44-.05.06-.08.1-.04.11.08.04.15.1.14.14,0,.03-.04.06-.11.07-.43.09-.99.41-1.22.67-.12.14-.13.27.03.34.09.04.16.09.14.11-.01.03-.05.04-.11.06-1,.21-1.88,1.09-1.88,2.26s.6,2.13,1.66,1.94c.86-.14,1.36-1.1,1.36-2.02,0-.84-.18-1.72-1-1.79-.09,0-.14-.03-.15-.06-.01-.04.04-.1.15-.13,1.18-.33,2.26.46,2.26,1.62,0,1.52-1.04,2.66-2.69,2.86Z"/>
  </g>
  <path class="cls-2" d="m68.5,32.05c-.77,1.05-2.34,1.92-4.1,1.5-1.4-.33-2.56-1.46-3.08-2.95.39,3.89,1.15,4.99,1.86,5.16.53.12,1.08-.27,2.03,0,.65.19,1.13.58,1.43.9h-10.38c.25-.28.69-.68,1.32-.9,1.06-.36,1.72.14,2.32-.06.63-.22,1.32-1.25,1.41-5.11-.51,1.49-1.68,2.61-3.08,2.95-1.75.42-3.32-.45-4.1-1.5-1.34-1.81-1.15-5.4,1.51-8.05l5.65-6.13.02.06.02-.06,5.65,6.14c2.65,2.63,2.85,6.23,1.51,8.04Z"/>
  <path class="cls-2" d="m37.66,32.05c-.77,1.05-2.34,1.92-4.1,1.5-1.4-.33-2.56-1.46-3.08-2.95.39,3.89,1.15,4.99,1.86,5.16.53.12,1.08-.27,2.03,0,.65.19,1.13.58,1.43.9h-10.38c.25-.28.69-.68,1.32-.9,1.06-.36,1.72.14,2.32-.06.63-.22,1.32-1.25,1.41-5.11-.51,1.49-1.68,2.61-3.08,2.95-1.75.42-3.32-.45-4.1-1.5-1.34-1.81-1.15-5.4,1.51-8.05l5.65-6.13.02.06.02-.06,5.65,6.14c2.65,2.63,2.85,6.23,1.51,8.04Z"/>
  <path class="cls-2" d="m68.5,72.99c-.77,1.05-2.34,1.92-4.1,1.5-1.4-.33-2.56-1.46-3.08-2.95.39,3.89,1.15,4.99,1.86,5.16.53.12,1.08-.27,2.03,0,.65.19,1.13.58,1.43.9h-10.38c.25-.28.69-.68,1.32-.9,1.06-.36,1.72.14,2.32-.06.63-.22,1.32-1.25,1.41-5.11-.51,1.49-1.68,2.61-3.08,2.95-1.75.42-3.32-.45-4.1-1.5-1.34-1.81-1.15-5.4,1.51-8.05l5.65-6.13.02.06.02-.06,5.65,6.14c2.65,2.63,2.85,6.23,1.51,8.04Z"/>
  <path class="cls-2" d="m37.66,72.99c-.77,1.05-2.34,1.92-4.1,1.5-1.4-.33-2.56-1.46-3.08-2.95.39,3.89,1.15,4.99,1.86,5.16.53.12,1.08-.27,2.03,0,.65.19,1.13.58,1.43.9h-10.38c.25-.28.69-.68,1.32-.9,1.06-.36,1.72.14,2.32-.06.63-.22,1.32-1.25,1.41-5.11-.51,1.49-1.68,2.61-3.08,2.95-1.75.42-3.32-.45-4.1-1.5-1.34-1.81-1.15-5.4,1.51-8.05l5.65-6.13.02.06.02-.06,5.65,6.14c2.65,2.63,2.85,6.23,1.51,8.04Z"/>
  <path class="cls-2" d="m23.14,103.43c.77-1.05,2.34-1.92,4.1-1.5,1.4.33,2.56,1.46,3.08,2.95-.39-3.89-1.15-4.99-1.86-5.16-.53-.12-1.08.27-2.03,0-.65-.19-1.13-.58-1.43-.9h10.38c-.25.28-.69.68-1.32.9-1.06.36-1.72-.14-2.32.06-.63.22-1.32,1.25-1.41,5.11.51-1.49,1.68-2.61,3.08-2.95,1.75-.42,3.32.45,4.1,1.5,1.34,1.81,1.15,5.4-1.51,8.05l-5.65,6.13-.02-.06-.02.06-5.65-6.14c-2.65-2.63-2.85-6.23-1.51-8.04Z"/>
  <path class="cls-2" d="m54.14,103.43c.77-1.05,2.34-1.92,4.1-1.5,1.4.33,2.56,1.46,3.08,2.95-.39-3.89-1.15-4.99-1.86-5.16-.53-.12-1.08.27-2.03,0-.65-.19-1.13-.58-1.43-.9h10.38c-.25.28-.69.68-1.32.9-1.06.36-1.72-.14-2.32.06-.63.22-1.32,1.25-1.41,5.11.51-1.49,1.68-2.61,3.08-2.95,1.75-.42,3.32.45,4.1,1.5,1.34,1.81,1.15,5.4-1.51,8.05l-5.65,6.13-.02-.06-.02.06-5.65-6.14c-2.65-2.63-2.85-6.23-1.51-8.04Z"/>
  <path class="cls-2" d="m18.73,32.52c-.53.73-1.59,1.34-2.79,1.05-.95-.23-1.74-1.02-2.1-2.06.27,2.71.78,3.48,1.26,3.6.36.09.74-.19,1.38,0,.44.13.77.41.98.63h-7.06c.17-.19.47-.48.9-.63.72-.25,1.17.1,1.58-.04.43-.15.9-.87.96-3.56-.35,1.04-1.14,1.82-2.09,2.06-1.19.29-2.26-.32-2.79-1.05-.91-1.26-.78-3.77,1.03-5.61l3.85-4.28v.04s.03-.04.03-.04l3.85,4.28c1.8,1.84,1.94,4.35,1.03,5.61Z"/>
  <path class="cls-2" d="m72.43,103.45c.53-.73,1.59-1.34,2.79-1.05.95.23,1.74,1.02,2.1,2.06-.27-2.71-.78-3.48-1.26-3.6-.36-.09-.74.19-1.38,0-.44-.13-.77-.41-.98-.63h7.06c-.17.19-.47.48-.9.63-.72.25-1.17-.1-1.58.04-.43.15-.9.87-.96,3.56.35-1.04,1.14-1.82,2.09-2.06,1.19-.29,2.26.32,2.79,1.05.91,1.26.78,3.77-1.03,5.61l-3.85,4.28v-.04s-.03.04-.03.04l-3.85-4.28c-1.8-1.84-1.94-4.35-1.03-5.61Z"/>
  <g>
    <path class="cls-2" d="m53.5,52.52c-.77,1.05-2.34,1.92-4.1,1.5-1.4-.33-2.56-1.46-3.08-2.95.39,3.89,1.15,4.99,1.86,5.16.53.12,1.08-.27,2.03,0,.65.19,1.13.58,1.43.9h-10.38c.25-.28.69-.68,1.32-.9,1.06-.36,1.72.14,2.32-.06.63-.22,1.32-1.25,1.41-5.11-.51,1.49-1.68,2.61-3.08,2.95-1.75.42-3.32-.45-4.1-1.5-1.34-1.81-1.15-5.4,1.51-8.05l5.65-6.13.02.06.02-.06,5.65,6.14c2.65,2.63,2.85,6.23,1.51,8.04Z"/>
    <path class="cls-2" d="m39.14,83.79c.77-1.05,2.34-1.92,4.1-1.5,1.4.33,2.56,1.46,3.08,2.95-.39-3.89-1.15-4.99-1.86-5.16-.53-.12-1.08.27-2.03,0-.65-.19-1.13-.58-1.43-.9h10.38c-.25.28-.69.68-1.32.9-1.06.36-1.72-.14-2.32.06-.63.22-1.32,1.25-1.41,5.11.51-1.49,1.68-2.61,3.08-2.95,1.75-.42,3.32.45,4.1,1.5,1.34,1.81,1.15,5.4-1.51,8.05l-5.65,6.13-.02-.06-.02.06-5.65-6.14c-2.65-2.63-2.85-6.23-1.51-8.04Z"/>
  </g>
</svg>