<?xml version="1.0" encoding="UTF-8"?>
<svg id="Layer_1" data-name="Layer 1" width="60" height="90"  xmlns="http://www.w3.org/2000/svg" xmlns:xlink="http://www.w3.org/1999/xlink" viewBox="0 0 90 135">
  <defs>
    <style>
      .cls-1 {
        fill: url(#linear-gradient);
      }

      .cls-1, .cls-2, .cls-3 {
        stroke-width: 0px;
      }

      .cls-2 {
        fill: #ed1c24;
      }

      .cls-4 {
        fill: url(#linear-gradient-2);
        stroke: #d1d3d4;
        stroke-miterlimit: 10;
        stroke-width: .25px;
      }

      .cls-3 {
        fill: #ec2027;
      }
    </style>
    <linearGradient id="linear-gradient" x1="0" y1="67.5" x2="90" y2="67.5" gradientUnits="userSpaceOnUse">
      <stop offset="0" stop-color="#e6e7e8"/>
      <stop offset="1" stop-color="#f1f2f2"/>
    </linearGradient>
    <linearGradient id="linear-gradient-2" x1="3.83" y1="67.88" x2="86.83" y2="67.88" gradientTransform="translate(-.66 -.75)" gradientUnits="userSpaceOnUse">
      <stop offset="0" stop-color="#fff"/>
      <stop offset="1" stop-color="#e6e7e8"/>
    </linearGradient>
  </defs>
  <rect class="cls-1" x="0" y="0" width="90" height="135" rx="8.37" ry="8.37"/>
  <rect class="cls-4" x="3.17" y="3.62" width="83" height="127" rx="7.94" ry="7.94"/>
  <path class="cls-3" d="m76.16,125.29c-1.49.19-2.87-.54-2.87-2.22,0-.62.34-1.6,1.71-2.17-.23-.13-.24-.31-.13-.49.18-.3.7-.61,1.26-.8-.06-.24-.04-.54.54-1.09.46-.41.84-.92.86-1.63.04-.94-.84-2.02-1.89-1.76-.93.23-1.54,1.33-1.54,2.3,0,1.09.41,1.73,1.11,1.77.16.02.24.06.19.12-.03.03-.1.06-.23.09-1.7.3-2.27-.79-2.31-1.8-.05-1.33,1.27-2.66,2.84-2.92,1.54-.26,2.65.34,3.04,1.26.44,1.06.13,1.93-.61,2.69-.19.2-.41.34-.51.44-.05.06-.08.1-.04.11.08.04.15.1.14.14,0,.03-.04.06-.12.07-.43.09-.99.41-1.22.67-.11.14-.13.27.03.34.09.04.17.09.14.11-.01.03-.05.04-.12.06-1,.21-1.88,1.09-1.88,2.26s.6,2.13,1.66,1.94c.86-.14,1.36-1.1,1.36-2.02,0-.84-.18-1.72-1-1.79-.09,0-.14-.03-.15-.06-.01-.04.04-.1.15-.13,1.18-.33,2.26.46,2.26,1.62,0,1.52-1.04,2.66-2.69,2.86Z"/>
  <g>
    <path class="cls-3" d="m13.17,8.96c1.49-.19,2.87.54,2.87,2.22,0,.61-.34,1.6-1.71,2.17.23.13.24.31.13.49-.18.3-.7.61-1.26.8.06.24.04.54-.55,1.09-.46.41-.84.92-.86,1.63-.04.94.84,2.02,1.89,1.76.93-.23,1.54-1.33,1.54-2.3,0-1.09-.41-1.73-1.1-1.77-.17-.01-.24-.06-.19-.11.03-.03.1-.06.23-.09,1.7-.3,2.27.79,2.31,1.8.05,1.33-1.27,2.66-2.84,2.92-1.54.26-2.65-.34-3.03-1.26-.44-1.06-.13-1.93.61-2.69.19-.2.41-.34.51-.44.05-.06.08-.1.04-.11-.08-.04-.15-.1-.14-.14,0-.03.04-.06.11-.07.43-.09.99-.41,1.22-.67.11-.14.13-.27-.03-.34-.09-.04-.17-.09-.14-.11.01-.03.05-.04.11-.06,1-.21,1.88-1.09,1.88-2.26s-.6-2.13-1.66-1.94c-.86.14-1.36,1.1-1.36,2.02,0,.84.18,1.72,1,1.79.09,0,.14.03.15.06.01.04-.04.1-.15.13-1.18.33-2.26-.46-2.26-1.62,0-1.52,1.04-2.66,2.69-2.86Z"/>
    <polygon class="cls-2" points="37.78 27.13 30.55 36.53 23.32 27.13 30.55 17.73 37.78 27.13"/>
    <polygon class="cls-2" points="37.61 110.14 30.38 119.54 23.16 110.14 30.38 100.75 37.61 110.14"/>
    <polygon class="cls-2" points="66.84 110 59.62 119.4 52.39 110 59.62 100.6 66.84 110"/>
    <polygon class="cls-2" points="53.01 90.84 45.78 100.24 38.55 90.84 45.78 81.45 53.01 90.84"/>
    <polygon class="cls-2" points="37.72 68.08 30.5 77.47 23.27 68.08 30.5 58.68 37.72 68.08"/>
    <polygon class="cls-2" points="68.54 68.07 61.31 77.47 54.08 68.07 61.31 58.68 68.54 68.07"/>
    <polygon class="cls-2" points="53.19 47.74 45.96 57.14 38.73 47.74 45.96 38.34 53.19 47.74"/>
    <polygon class="cls-2" points="68.66 27.13 61.44 36.53 54.21 27.13 61.44 17.73 68.66 27.13"/>
    <polygon class="cls-2" points="18.8 29.13 13.8 35.63 8.8 29.13 13.8 22.63 18.8 29.13"/>
    <polygon class="cls-2" points="81.1 103.28 76.1 109.78 71.1 103.28 76.1 96.78 81.1 103.28"/>
  </g>
</svg>