<?xml version="1.0" encoding="UTF-8"?>
<svg id="Layer_1" data-name="Layer 1" width="60" height="90"  xmlns="http://www.w3.org/2000/svg" xmlns:xlink="http://www.w3.org/1999/xlink" viewBox="0 0 90 135">
  <defs>
    <style>
      .cls-1 {
        fill: url(#linear-gradient);
      }

      .cls-1, .cls-2 {
        stroke-width: 0px;
      }

      .cls-3 {
        fill: url(#linear-gradient-2);
        stroke: #d1d3d4;
        stroke-miterlimit: 10;
        stroke-width: .25px;
      }
    </style>
    <linearGradient id="linear-gradient" x1="0" y1="67.5" x2="90" y2="67.5" gradientUnits="userSpaceOnUse">
      <stop offset="0" stop-color="#e6e7e8"/>
      <stop offset="1" stop-color="#f1f2f2"/>
    </linearGradient>
    <linearGradient id="linear-gradient-2" x1="3.83" y1="67.88" x2="86.83" y2="67.88" gradientTransform="translate(-.66 -.75)" gradientUnits="userSpaceOnUse">
      <stop offset="0" stop-color="#fff"/>
      <stop offset="1" stop-color="#e6e7e8"/>
    </linearGradient>
  </defs>
  <rect class="cls-1" x="0" y="0" width="90" height="135" rx="8.37" ry="8.37"/>
  <rect class="cls-3" x="3.17" y="3.62" width="83" height="127" rx="7.94" ry="7.94"/>
  <path class="cls-2" d="m74.19,116.57c.94-1.1,1.94-1.3,2.75-1.3.3,0,.81.14.99.31.36.34.27.81-.14,1.32-.47.59-1.13.92-1.78.76-.23-.06-.3-.13-.28-.19.01-.03.09-.06.19-.03.45.11.83-.24.7-.74-.14-.54-1.02-.64-1.71-.11-.9.69-1.37,1.99-1.37,4.38.27-.82.81-1.43,1.29-1.52.23-.04.45.04.61.3.38-.44.81-.63,1.14-.54.22.04.38.2.48.47.24-.23.47-.29.67-.21.43.16.71.91.66,1.89-.05.9-.41,2-.89,2.73-.61.93-1.41,1.56-2.21,1.56-.57,0-1.18-.17-1.7-.69-.72-.73-.98-2.03-.98-3.32,0-2.42.56-3.87,1.56-5.06Zm1.7,7.82c1.02,0,1.83-1.03,1.83-2.12,0-.87-.32-1.59-.71-1.69-.19-.04-.41.06-.62.37-.03.04-.06.06-.08.06-.04,0-.04-.01-.04-.07,0-.27-.15-.44-.36-.51-.34-.1-.84.09-.99.59-.01.04-.03.07-.05.08-.03.03-.05,0-.06-.07-.03-.26-.16-.37-.36-.36-.28.01-.67.31-.88.74.18,1.6,1.09,2.97,2.31,2.97Z"/>
  <path class="cls-2" d="m16.25,18.04c-.94,1.1-1.94,1.3-2.75,1.3-.3,0-.81-.14-.99-.31-.36-.34-.27-.81.14-1.32.47-.59,1.13-.92,1.78-.76.23.06.3.13.28.19-.01.03-.09.06-.19.03-.44-.11-.83.24-.7.74.14.54,1.02.64,1.71.11.9-.69,1.37-1.99,1.37-4.38-.27.81-.81,1.43-1.29,1.52-.23.04-.44-.04-.61-.3-.38.44-.81.63-1.14.54-.22-.04-.38-.2-.48-.47-.24.23-.47.29-.67.21-.43-.16-.71-.92-.66-1.89.05-.9.41-2,.89-2.73.61-.93,1.41-1.56,2.21-1.56.57,0,1.18.17,1.7.69.72.73.98,2.03.98,3.32,0,2.42-.56,3.87-1.56,5.06Zm-1.7-7.82c-1.02,0-1.83,1.03-1.83,2.12,0,.87.32,1.59.71,1.69.19.04.41-.06.62-.37.03-.04.06-.06.08-.06.04,0,.04.01.04.07,0,.27.15.44.36.51.34.1.84-.09.99-.59.01-.04.03-.07.05-.09.03-.03.05,0,.06.07.03.26.17.37.36.36.28-.01.67-.31.88-.74-.18-1.6-1.09-2.97-2.31-2.97Z"/>
  <path class="cls-2" d="m60.99,106.4c.11.13.22.21.37.2,0-.02,0-.03-.01-.04-.41-3.79-1.19-4.89-1.91-5.06-.55-.12-1.12.28-2.11,0-.67-.19-1.17-.59-1.49-.91h10.79c-.26.28-.72.69-1.37.91-1.1.37-1.79-.14-2.41.06-.65.22-1.35,1.25-1.46,5.03t0,.01c.36-.02.41-.52,1.04-1.11.72-.92,1.86-1.51,3.13-1.51,2.2,0,3.99,1.77,3.99,3.96s-1.79,3.96-3.99,3.96c-.29,0-.57-.03-.84-.09h0c-.33.01-.63.03-.73.22-.12.26.26.59.48.98,0,0,0,.01,0,.02.52.66.83,1.5.83,2.4,0,2.19-1.78,3.96-3.98,3.96s-3.98-1.77-3.98-3.96c0-.86.27-1.65.74-2.29,0,0,0,0,0,0s0,0,0-.01c.21-.4.66-.75.51-1.05-.09-.18-.31-.22-.57-.24h0c-.22.04-.46.06-.69.06-2.2,0-3.98-1.77-3.98-3.96s1.78-3.96,3.98-3.96c1.66,0,3.07.99,3.67,2.42Z"/>
  <path class="cls-2" d="m30.75,106.4c.11.13.22.21.37.2,0-.02,0-.03-.01-.04-.41-3.79-1.19-4.89-1.91-5.06-.55-.12-1.12.28-2.11,0-.67-.19-1.17-.59-1.49-.91h10.79c-.26.28-.72.69-1.37.91-1.1.37-1.79-.14-2.41.06-.65.22-1.35,1.25-1.46,5.03t0,.01c.36-.02.41-.52,1.04-1.11.72-.92,1.86-1.51,3.13-1.51,2.2,0,3.99,1.77,3.99,3.96s-1.79,3.96-3.99,3.96c-.29,0-.57-.03-.84-.09h0c-.33.01-.63.03-.73.22-.12.26.26.59.48.98,0,0,0,.01,0,.02.52.66.83,1.5.83,2.4,0,2.19-1.78,3.96-3.98,3.96s-3.98-1.77-3.98-3.96c0-.86.27-1.65.74-2.29,0,0,0,0,0,0s0,0,0-.01c.21-.4.66-.75.51-1.05-.09-.18-.31-.22-.57-.24h0c-.22.04-.46.06-.69.06-2.2,0-3.98-1.77-3.98-3.96s1.78-3.96,3.98-3.96c1.66,0,3.07.99,3.67,2.42Z"/>
  <path class="cls-2" d="m60.99,78.6c.11.13.22.21.37.2,0-.02,0-.03-.01-.04-.41-3.79-1.19-4.89-1.91-5.06-.55-.12-1.12.28-2.11,0-.67-.19-1.17-.59-1.49-.91h10.79c-.26.28-.72.69-1.37.91-1.1.37-1.79-.14-2.41.06-.65.22-1.35,1.25-1.46,5.03t0,.01c.36-.02.41-.52,1.04-1.11.72-.92,1.86-1.51,3.13-1.51,2.2,0,3.99,1.77,3.99,3.96s-1.79,3.96-3.99,3.96c-.29,0-.57-.03-.84-.09h0c-.33.01-.63.03-.73.22-.12.26.26.59.48.98,0,0,0,.01,0,.02.52.66.83,1.5.83,2.4,0,2.19-1.78,3.96-3.98,3.96s-3.98-1.77-3.98-3.96c0-.86.27-1.65.74-2.29,0,0,0,0,0,0s0,0,0-.01c.21-.4.66-.75.51-1.05-.09-.18-.31-.22-.57-.24h0c-.22.04-.46.06-.69.06-2.2,0-3.98-1.77-3.98-3.96s1.78-3.96,3.98-3.96c1.66,0,3.07.99,3.67,2.42Z"/>
  <path class="cls-2" d="m30.8,78.6c.11.13.22.21.37.2,0-.02,0-.03-.01-.04-.41-3.79-1.19-4.89-1.91-5.06-.55-.12-1.12.28-2.11,0-.67-.19-1.17-.59-1.49-.91h10.79c-.26.28-.72.69-1.37.91-1.1.37-1.79-.14-2.41.06-.65.22-1.35,1.25-1.46,5.03t0,.01c.36-.02.41-.52,1.04-1.11.72-.92,1.86-1.51,3.13-1.51,2.2,0,3.99,1.77,3.99,3.96s-1.79,3.96-3.99,3.96c-.29,0-.57-.03-.84-.09h0c-.33.01-.63.03-.73.22-.12.26.26.59.48.98,0,0,0,.01,0,.02.52.66.83,1.5.83,2.4,0,2.19-1.78,3.96-3.98,3.96s-3.98-1.77-3.98-3.96c0-.86.27-1.65.74-2.29,0,0,0,0,0,0,0,0,0,0,0-.01.21-.4.66-.75.51-1.05-.09-.18-.31-.22-.57-.24h0c-.22.04-.46.06-.69.06-2.2,0-3.98-1.77-3.98-3.96s1.78-3.96,3.98-3.96c1.66,0,3.07.99,3.67,2.42Z"/>
  <g>
    <path class="cls-2" d="m61.88,57.99c-.11-.13-.22-.21-.37-.2,0,.02,0,.03.01.04.41,3.79,1.19,4.89,1.91,5.06.55.12,1.12-.28,2.11,0,.67.19,1.17.59,1.49.91h-10.79c.26-.28.72-.69,1.37-.91,1.1-.37,1.79.14,2.41-.06.65-.22,1.35-1.25,1.46-5.03t0-.01c-.36.02-.41.52-1.04,1.11-.72.92-1.86,1.51-3.13,1.51-2.2,0-3.99-1.77-3.99-3.96s1.79-3.96,3.99-3.96c.29,0,.57.03.84.09h0c.33-.01.63-.03.73-.22.12-.26-.26-.59-.48-.98,0,0,0-.01,0-.02-.52-.66-.83-1.5-.83-2.4,0-2.19,1.78-3.96,3.98-3.96s3.98,1.77,3.98,3.96c0,.86-.27,1.65-.74,2.29,0,0,0,0,0,0s0,0,0,.01c-.21.4-.66.75-.51,1.05.09.18.31.22.57.24h0c.22-.04.46-.06.69-.06,2.2,0,3.98,1.77,3.98,3.96s-1.78,3.96-3.98,3.96c-1.66,0-3.07-.99-3.67-2.42Z"/>
    <path class="cls-2" d="m30.99,57.99c-.11-.13-.22-.21-.37-.2,0,.02,0,.03.01.04.41,3.79,1.19,4.89,1.91,5.06.55.12,1.12-.28,2.11,0,.67.19,1.17.59,1.49.91h-10.79c.26-.28.72-.69,1.37-.91,1.1-.37,1.79.14,2.41-.06.65-.22,1.35-1.25,1.46-5.03t0-.01c-.36.02-.41.52-1.04,1.11-.72.92-1.86,1.51-3.13,1.51-2.2,0-3.99-1.77-3.99-3.96s1.79-3.96,3.99-3.96c.29,0,.57.03.84.09h0c.33-.01.63-.03.73-.22.12-.26-.26-.59-.48-.98,0,0,0-.01,0-.02-.52-.66-.83-1.5-.83-2.4,0-2.19,1.78-3.96,3.98-3.96s3.98,1.77,3.98,3.96c0,.86-.27,1.65-.74,2.29,0,0,0,0,0,0s0,0,0,.01c-.21.4-.66.75-.51,1.05.09.18.31.22.57.24h0c.22-.04.46-.06.69-.06,2.2,0,3.98,1.77,3.98,3.96s-1.78,3.96-3.98,3.96c-1.66,0-3.07-.99-3.67-2.42Z"/>
    <path class="cls-2" d="m61.88,30.73c-.11-.13-.22-.21-.37-.2,0,.02,0,.03.01.04.41,3.79,1.19,4.89,1.91,5.06.55.12,1.12-.28,2.11,0,.67.19,1.17.59,1.49.91h-10.79c.26-.28.72-.69,1.37-.91,1.1-.37,1.79.14,2.41-.06.65-.22,1.35-1.25,1.46-5.03t0-.01c-.36.02-.41.52-1.04,1.11-.72.92-1.86,1.51-3.13,1.51-2.2,0-3.99-1.77-3.99-3.96s1.79-3.96,3.99-3.96c.29,0,.57.03.84.09h0c.33-.01.63-.03.73-.22.12-.26-.26-.59-.48-.98,0,0,0-.01,0-.02-.52-.66-.83-1.5-.83-2.4,0-2.19,1.78-3.96,3.98-3.96s3.98,1.77,3.98,3.96c0,.86-.27,1.65-.74,2.29,0,0,0,0,0,0s0,0,0,.01c-.21.4-.66.75-.51,1.05.09.18.31.22.57.24h0c.22-.04.46-.06.69-.06,2.2,0,3.98,1.77,3.98,3.96s-1.78,3.96-3.98,3.96c-1.66,0-3.07-.99-3.67-2.42Z"/>
    <path class="cls-2" d="m30.99,30.73c-.11-.13-.22-.21-.37-.2,0,.02,0,.03.01.04.41,3.79,1.19,4.89,1.91,5.06.55.12,1.12-.28,2.11,0,.67.19,1.17.59,1.49.91h-10.79c.26-.28.72-.69,1.37-.91,1.1-.37,1.79.14,2.41-.06.65-.22,1.35-1.25,1.46-5.03t0-.01c-.36.02-.41.52-1.04,1.11-.72.92-1.86,1.51-3.13,1.51-2.2,0-3.99-1.77-3.99-3.96s1.79-3.96,3.99-3.96c.29,0,.57.03.84.09h0c.33-.01.63-.03.73-.22.12-.26-.26-.59-.48-.98,0,0,0-.01,0-.02-.52-.66-.83-1.5-.83-2.4,0-2.19,1.78-3.96,3.98-3.96s3.98,1.77,3.98,3.96c0,.86-.27,1.65-.74,2.29,0,0,0,0,0,0s0,0,0,.01c-.21.4-.66.75-.51,1.05.09.18.31.22.57.24h0c.22-.04.46-.06.69-.06,2.2,0,3.98,1.77,3.98,3.96s-1.78,3.96-3.98,3.96c-1.66,0-3.07-.99-3.67-2.42Z"/>
  </g>
  <path class="cls-2" d="m14.09,31.6c-.08-.09-.15-.15-.25-.14,0,.01,0,.02,0,.03.28,2.61.8,3.36,1.28,3.48.37.09.76-.19,1.42,0,.45.13.79.41,1,.62h-7.25c.18-.19.48-.47.92-.62.74-.25,1.2.09,1.62-.04.44-.15.91-.86.98-3.46t0,0c-.24.01-.27.35-.7.77-.49.63-1.25,1.04-2.1,1.04-1.48,0-2.68-1.22-2.68-2.72s1.2-2.73,2.68-2.73c.19,0,.38.02.57.06h0c.22,0,.42-.02.49-.15.08-.18-.17-.41-.32-.68,0,0,0,0,0-.01-.35-.46-.56-1.03-.56-1.65,0-1.5,1.2-2.72,2.67-2.72s2.67,1.22,2.67,2.72c0,.59-.18,1.13-.5,1.58,0,0,0,0,0,0s0,0,0,0c-.14.27-.44.51-.34.72.06.12.21.15.39.16h0c.15-.03.31-.04.46-.04,1.48,0,2.67,1.22,2.67,2.73s-1.2,2.72-2.67,2.72c-1.11,0-2.06-.68-2.47-1.66Z"/>
  <path class="cls-2" d="m75.84,100.81c.08.09.15.15.25.14,0-.01,0-.02,0-.03-.28-2.61-.8-3.36-1.28-3.48-.37-.09-.76.19-1.42,0-.45-.13-.79-.41-1-.62h7.25c-.18.19-.48.47-.92.62-.74.25-1.2-.09-1.62.04-.44.15-.91.86-.98,3.46t0,0c.24-.01.27-.35.7-.77.49-.63,1.25-1.04,2.1-1.04,1.48,0,2.68,1.22,2.68,2.72s-1.2,2.73-2.68,2.73c-.19,0-.38-.02-.57-.06h0c-.22,0-.42.02-.49.15-.08.18.17.41.32.68,0,0,0,0,0,.01.35.46.56,1.03.56,1.65,0,1.5-1.2,2.72-2.67,2.72s-2.67-1.22-2.67-2.72c0-.59.18-1.13.5-1.58,0,0,0,0,0,0s0,0,0,0c.14-.27.44-.51.34-.72-.06-.12-.21-.15-.39-.16h0c-.15.03-.31.04-.46.04-1.48,0-2.67-1.22-2.67-2.73s1.2-2.72,2.67-2.72c1.11,0,2.06.68,2.47,1.66Z"/>
  <path class="cls-2" d="m46.32,71.71c-.11-.13-.22-.21-.37-.2,0,.02,0,.03.01.04.41,3.79,1.19,4.89,1.91,5.06.55.12,1.12-.28,2.11,0,.67.19,1.17.59,1.49.91h-10.79c.26-.28.72-.69,1.37-.91,1.1-.37,1.79.14,2.41-.06.65-.22,1.35-1.25,1.46-5.03t0-.01c-.36.02-.41.52-1.04,1.11-.72.92-1.86,1.51-3.13,1.51-2.2,0-3.99-1.77-3.99-3.96s1.79-3.96,3.99-3.96c.29,0,.57.03.84.09h0c.33-.01.63-.03.73-.22.12-.26-.26-.59-.48-.98,0,0,0-.01,0-.02-.52-.66-.83-1.5-.83-2.4,0-2.19,1.78-3.96,3.98-3.96s3.98,1.77,3.98,3.96c0,.86-.27,1.65-.74,2.29,0,0,0,0,0,0s0,0,0,.01c-.21.4-.66.75-.51,1.05.09.18.31.22.57.24h0c.22-.04.46-.06.69-.06,2.2,0,3.98,1.77,3.98,3.96s-1.78,3.96-3.98,3.96c-1.66,0-3.07-.99-3.67-2.42Z"/>
</svg>