<?xml version="1.0" encoding="UTF-8"?>
<svg id="Layer_1" data-name="Layer 1" width="60" height="90"  xmlns="http://www.w3.org/2000/svg" xmlns:xlink="http://www.w3.org/1999/xlink" viewBox="0 0 90 135">
  <defs>
    <style>
      .cls-1 {
        fill: url(#linear-gradient);
      }

      .cls-1, .cls-2, .cls-3 {
        stroke-width: 0px;
      }

      .cls-2 {
        fill: #ed1c24;
      }

      .cls-4 {
        fill: url(#linear-gradient-2);
        stroke: #d1d3d4;
        stroke-miterlimit: 10;
        stroke-width: .25px;
      }

      .cls-3 {
        fill: #ec2027;
      }
    </style>
    <linearGradient id="linear-gradient" x1="0" y1="67.5" x2="90" y2="67.5" gradientUnits="userSpaceOnUse">
      <stop offset="0" stop-color="#e6e7e8"/>
      <stop offset="1" stop-color="#f1f2f2"/>
    </linearGradient>
    <linearGradient id="linear-gradient-2" x1="3.83" y1="67.88" x2="86.83" y2="67.88" gradientTransform="translate(-.66 -.75)" gradientUnits="userSpaceOnUse">
      <stop offset="0" stop-color="#fff"/>
      <stop offset="1" stop-color="#e6e7e8"/>
    </linearGradient>
  </defs>
  <rect class="cls-1" x="0" y="0" width="90" height="135" rx="8.37" ry="8.37"/>
  <rect class="cls-4" x="3.17" y="3.62" width="83" height="127" rx="7.94" ry="7.94"/>
  <path class="cls-3" d="m74.19,116.57c.94-1.1,1.94-1.3,2.75-1.3.3,0,.81.14.99.31.36.34.27.81-.14,1.32-.47.59-1.13.92-1.78.76-.23-.06-.3-.13-.28-.19.01-.03.09-.06.19-.03.45.11.83-.24.7-.74-.14-.54-1.02-.64-1.71-.11-.9.69-1.37,1.99-1.37,4.38.27-.82.81-1.43,1.29-1.52.23-.04.45.04.61.3.38-.44.81-.63,1.14-.54.22.04.38.2.48.47.24-.23.47-.29.67-.21.43.16.71.91.66,1.89-.05.9-.41,2-.89,2.73-.61.93-1.41,1.56-2.21,1.56-.57,0-1.18-.17-1.7-.69-.72-.73-.98-2.03-.98-3.32,0-2.42.56-3.87,1.56-5.06Zm1.7,7.82c1.02,0,1.83-1.03,1.83-2.12,0-.87-.32-1.59-.71-1.69-.19-.04-.41.06-.62.37-.03.04-.06.06-.08.06-.04,0-.04-.01-.04-.07,0-.27-.15-.44-.36-.51-.34-.1-.84.09-.99.59-.01.04-.03.07-.05.08-.03.03-.05,0-.06-.07-.03-.26-.16-.37-.36-.36-.28.01-.67.31-.88.74.18,1.6,1.09,2.97,2.31,2.97Z"/>
  <path class="cls-3" d="m16.25,18.04c-.94,1.1-1.94,1.3-2.75,1.3-.3,0-.81-.14-.99-.31-.36-.34-.27-.81.14-1.32.47-.59,1.13-.92,1.78-.76.23.06.3.13.28.19-.01.03-.09.06-.19.03-.44-.11-.83.24-.7.74.14.54,1.02.64,1.71.11.9-.69,1.37-1.99,1.37-4.38-.27.81-.81,1.43-1.29,1.52-.23.04-.44-.04-.61-.3-.38.44-.81.63-1.14.54-.22-.04-.38-.2-.48-.47-.24.23-.47.29-.67.21-.43-.16-.71-.92-.66-1.89.05-.9.41-2,.89-2.73.61-.93,1.41-1.56,2.21-1.56.57,0,1.18.17,1.7.69.72.73.98,2.03.98,3.32,0,2.42-.56,3.87-1.56,5.06Zm-1.7-7.82c-1.02,0-1.83,1.03-1.83,2.12,0,.87.32,1.59.71,1.69.19.04.41-.06.62-.37.03-.04.06-.06.08-.06.04,0,.04.01.04.07,0,.27.15.44.36.51.34.1.84-.09.99-.59.01-.04.03-.07.05-.09.03-.03.05,0,.06.07.03.26.17.37.36.36.28-.01.67-.31.88-.74-.18-1.6-1.09-2.97-2.31-2.97Z"/>
  <g>
    <g>
      <path class="cls-2" d="m25.61,109.51l5.23-6.02c.58,1.83,1.14,4.03,1.53,6.57.29,1.89.44,3.63.49,5.18l-2.02.3c-.37,1.73-1.53,3.06-2.97,3.43-1.49.38-2.97-.36-3.73-1.45-1.31-1.88-.95-5.46,1.47-8Z"/>
      <path class="cls-2" d="m30.97,102.87l.16.51c.68,2.15,1.2,4.38,1.54,6.62.26,1.72.43,3.47.5,5.22v.29s-2.08.31-2.08.31c-.44,1.73-1.66,3.08-3.14,3.45-1.73.43-3.28-.48-4.04-1.57-1.32-1.9-1.13-5.66,1.5-8.42l5.57-6.42Zm1.58,12.09c-.07-1.62-.23-3.25-.48-4.85-.31-2.03-.77-4.04-1.36-6l-4.89,5.64c-2.39,2.52-2.61,5.89-1.44,7.57.63.9,1.96,1.7,3.42,1.33,1.33-.33,2.4-1.58,2.74-3.18l.05-.22,1.96-.29Z"/>
    </g>
    <g>
      <path class="cls-2" d="m29.11,115.24c.06-1.55.2-3.29.49-5.18.39-2.53.95-4.74,1.53-6.57l5.23,6.02c2.42,2.55,2.79,6.12,1.47,8-.76,1.09-2.24,1.83-3.73,1.45-1.44-.37-2.6-1.7-2.97-3.43-.67-.1-1.35-.2-2.02-.3Z"/>
      <path class="cls-2" d="m31.01,102.87l5.58,6.42c2.62,2.76,2.82,6.52,1.49,8.42-.77,1.1-2.31,2.01-4.04,1.57-1.49-.38-2.7-1.72-3.14-3.45l-2.09-.31v-.3c.08-1.76.25-3.52.51-5.22.34-2.23.86-4.46,1.54-6.62l.16-.51Zm3.89,15.87c1.16,0,2.17-.68,2.69-1.42,1.17-1.68.96-5.05-1.44-7.57l-4.89-5.63c-.59,1.96-1.05,3.98-1.36,6-.24,1.58-.4,3.21-.48,4.85l1.96.29.05.22c.34,1.6,1.42,2.85,2.74,3.19.25.06.49.09.73.09Z"/>
    </g>
  </g>
  <g>
    <g>
      <path class="cls-2" d="m56.06,109.92l5.23-6.02c.58,1.83,1.14,4.03,1.53,6.57.29,1.89.44,3.63.49,5.18l-2.02.3c-.37,1.73-1.53,3.06-2.97,3.43-1.49.38-2.97-.36-3.73-1.45-1.31-1.88-.95-5.46,1.47-8Z"/>
      <path class="cls-2" d="m61.42,103.28l.16.51c.68,2.15,1.2,4.38,1.54,6.62.26,1.72.43,3.47.5,5.22v.29s-2.08.31-2.08.31c-.44,1.73-1.66,3.08-3.14,3.45-1.73.43-3.28-.48-4.04-1.57-1.32-1.9-1.13-5.66,1.5-8.42l5.57-6.42Zm1.58,12.09c-.07-1.62-.23-3.25-.48-4.85-.31-2.03-.77-4.04-1.36-6l-4.89,5.64c-2.39,2.52-2.61,5.89-1.44,7.57.63.9,1.96,1.7,3.42,1.33,1.33-.33,2.4-1.58,2.74-3.18l.05-.22,1.96-.29Z"/>
    </g>
    <g>
      <path class="cls-2" d="m59.55,115.65c.06-1.55.2-3.29.49-5.18.39-2.53.95-4.74,1.53-6.57l5.23,6.02c2.42,2.55,2.79,6.12,1.47,8-.76,1.09-2.24,1.83-3.73,1.45-1.44-.37-2.6-1.7-2.97-3.43-.67-.1-1.35-.2-2.02-.3Z"/>
      <path class="cls-2" d="m61.45,103.28l5.58,6.42c2.62,2.76,2.82,6.52,1.49,8.42-.77,1.1-2.31,2.01-4.04,1.57-1.49-.38-2.7-1.72-3.14-3.45l-2.09-.31v-.3c.08-1.76.25-3.52.51-5.22.34-2.23.86-4.46,1.54-6.62l.16-.51Zm3.89,15.87c1.16,0,2.17-.68,2.69-1.42,1.17-1.68.96-5.05-1.44-7.57l-4.89-5.63c-.59,1.96-1.05,3.98-1.36,6-.24,1.58-.4,3.21-.48,4.85l1.96.29.05.22c.34,1.6,1.42,2.85,2.74,3.19.25.06.49.09.73.09Z"/>
    </g>
  </g>
  <g>
    <g>
      <path class="cls-2" d="m55.85,81.87l5.23-6.02c.58,1.83,1.14,4.03,1.53,6.57.29,1.89.44,3.63.49,5.18l-2.02.3c-.37,1.73-1.53,3.06-2.97,3.43-1.49.38-2.97-.36-3.73-1.45-1.31-1.88-.95-5.46,1.47-8Z"/>
      <path class="cls-2" d="m61.21,75.23l.16.51c.68,2.15,1.2,4.38,1.54,6.62.26,1.72.43,3.47.5,5.22v.29s-2.08.31-2.08.31c-.44,1.73-1.66,3.08-3.14,3.45-1.73.43-3.28-.48-4.04-1.57-1.32-1.9-1.13-5.66,1.5-8.42l5.57-6.42Zm1.58,12.09c-.07-1.62-.23-3.25-.48-4.85-.31-2.03-.77-4.04-1.36-6l-4.89,5.64c-2.39,2.52-2.61,5.89-1.44,7.57.63.9,1.96,1.7,3.42,1.33,1.33-.33,2.4-1.58,2.74-3.18l.05-.22,1.96-.29Z"/>
    </g>
    <g>
      <path class="cls-2" d="m59.35,87.6c.06-1.55.2-3.29.49-5.18.39-2.53.95-4.74,1.53-6.57l5.23,6.02c2.42,2.55,2.79,6.12,1.47,8-.76,1.09-2.24,1.83-3.73,1.45-1.44-.37-2.6-1.7-2.97-3.43-.67-.1-1.35-.2-2.02-.3Z"/>
      <path class="cls-2" d="m61.24,75.23l5.58,6.42c2.62,2.76,2.82,6.52,1.49,8.42-.77,1.1-2.31,2.01-4.04,1.57-1.49-.38-2.7-1.72-3.14-3.45l-2.09-.31v-.3c.08-1.76.25-3.52.51-5.22.34-2.23.86-4.46,1.54-6.62l.16-.51Zm3.89,15.87c1.16,0,2.17-.68,2.69-1.42,1.17-1.68.96-5.05-1.44-7.57l-4.89-5.63c-.59,1.96-1.05,3.98-1.36,6-.24,1.58-.4,3.21-.48,4.85l1.96.29.05.22c.34,1.6,1.42,2.85,2.74,3.19.25.06.49.09.73.09Z"/>
    </g>
  </g>
  <g>
    <g>
      <path class="cls-2" d="m25.66,81.58l5.23-6.02c.58,1.83,1.14,4.03,1.53,6.57.29,1.89.44,3.63.49,5.18l-2.02.3c-.37,1.73-1.53,3.06-2.97,3.43-1.49.38-2.97-.36-3.73-1.45-1.31-1.88-.95-5.46,1.47-8Z"/>
      <path class="cls-2" d="m31.01,74.93l.16.51c.68,2.15,1.2,4.38,1.54,6.62.26,1.72.43,3.47.5,5.22v.29s-2.08.31-2.08.31c-.44,1.73-1.66,3.08-3.14,3.45-1.73.43-3.28-.48-4.04-1.57-1.32-1.9-1.13-5.66,1.5-8.42l5.57-6.42Zm1.58,12.09c-.07-1.62-.23-3.25-.48-4.85-.31-2.03-.77-4.04-1.36-6l-4.89,5.64c-2.39,2.52-2.61,5.89-1.44,7.57.63.9,1.96,1.7,3.42,1.33,1.33-.33,2.4-1.58,2.74-3.18l.05-.22,1.96-.29Z"/>
    </g>
    <g>
      <path class="cls-2" d="m29.15,87.3c.06-1.55.2-3.29.49-5.18.39-2.53.95-4.74,1.53-6.57l5.23,6.02c2.42,2.55,2.79,6.12,1.47,8-.76,1.09-2.24,1.83-3.73,1.45-1.44-.37-2.6-1.7-2.97-3.43-.67-.1-1.35-.2-2.02-.3Z"/>
      <path class="cls-2" d="m31.05,74.93l5.58,6.42c2.62,2.76,2.82,6.52,1.49,8.42-.77,1.1-2.31,2.01-4.04,1.57-1.49-.38-2.7-1.72-3.14-3.45l-2.09-.31v-.3c.08-1.76.25-3.52.51-5.22.34-2.23.86-4.46,1.54-6.62l.16-.51Zm3.89,15.87c1.16,0,2.17-.68,2.69-1.42,1.17-1.68.96-5.05-1.44-7.57l-4.89-5.63c-.59,1.96-1.05,3.98-1.36,6-.24,1.58-.4,3.21-.48,4.85l1.96.29.05.22c.34,1.6,1.42,2.85,2.74,3.19.25.06.49.09.73.09Z"/>
    </g>
  </g>
  <g>
    <g>
      <path class="cls-2" d="m51.55,68.39l-5.23,6.02c-.58-1.83-1.14-4.03-1.53-6.57-.29-1.89-.44-3.63-.49-5.18l2.02-.3c.37-1.73,1.53-3.06,2.97-3.43,1.49-.38,2.97.36,3.73,1.45,1.31,1.88.95,5.46-1.47,8Z"/>
      <path class="cls-2" d="m46.19,75.03l-.16-.51c-.68-2.15-1.2-4.38-1.54-6.62-.26-1.72-.43-3.47-.5-5.22v-.29s2.08-.31,2.08-.31c.44-1.73,1.66-3.08,3.14-3.45,1.73-.43,3.28.48,4.04,1.57,1.32,1.9,1.13,5.66-1.5,8.42l-5.57,6.42Zm-1.58-12.09c.07,1.62.23,3.25.48,4.85.31,2.03.77,4.04,1.36,6l4.89-5.64c2.39-2.52,2.61-5.89,1.44-7.57-.63-.9-1.96-1.7-3.42-1.33-1.33.33-2.4,1.58-2.74,3.18l-.05.22-1.96.29Z"/>
    </g>
    <g>
      <path class="cls-2" d="m48.06,62.66c-.06,1.55-.2,3.29-.49,5.18-.39,2.53-.95,4.74-1.53,6.57l-5.23-6.02c-2.42-2.55-2.79-6.12-1.47-8,.76-1.09,2.24-1.83,3.73-1.45,1.44.37,2.6,1.7,2.97,3.43.67.1,1.35.2,2.02.3Z"/>
      <path class="cls-2" d="m46.16,75.03l-5.58-6.42c-2.62-2.76-2.82-6.52-1.49-8.42.77-1.1,2.31-2.01,4.04-1.57,1.49.38,2.7,1.72,3.14,3.45l2.09.31v.3c-.08,1.76-.25,3.52-.51,5.22-.34,2.23-.86,4.46-1.54,6.62l-.16.51Zm-3.89-15.87c-1.16,0-2.17.68-2.69,1.42-1.17,1.68-.96,5.05,1.44,7.57l4.89,5.63c.59-1.96,1.05-3.98,1.36-6,.24-1.58.4-3.21.48-4.85l-1.96-.29-.05-.22c-.34-1.6-1.42-2.85-2.74-3.19-.25-.06-.49-.09-.73-.09Z"/>
    </g>
  </g>
  <g>
    <g>
      <path class="cls-2" d="m67.1,54.73l-5.23,6.02c-.58-1.83-1.14-4.03-1.53-6.57-.29-1.89-.44-3.63-.49-5.18l2.02-.3c.37-1.73,1.53-3.06,2.97-3.43,1.49-.38,2.97.36,3.73,1.45,1.31,1.88.95,5.46-1.47,8Z"/>
      <path class="cls-2" d="m61.75,61.37l-.16-.51c-.68-2.15-1.2-4.38-1.54-6.62-.26-1.72-.43-3.47-.5-5.22v-.29s2.08-.31,2.08-.31c.44-1.73,1.66-3.08,3.14-3.45,1.73-.43,3.28.48,4.04,1.57,1.32,1.9,1.13,5.66-1.5,8.42l-5.57,6.42Zm-1.58-12.09c.07,1.62.23,3.25.48,4.85.31,2.03.77,4.04,1.36,6l4.89-5.64c2.39-2.52,2.61-5.89,1.44-7.57-.63-.9-1.96-1.7-3.42-1.33-1.33.33-2.4,1.58-2.74,3.18l-.05.22-1.96.29Z"/>
    </g>
    <g>
      <path class="cls-2" d="m63.61,49c-.06,1.55-.2,3.29-.49,5.18-.39,2.53-.95,4.74-1.53,6.57l-5.23-6.02c-2.42-2.55-2.79-6.12-1.47-8,.76-1.09,2.24-1.83,3.73-1.45,1.44.37,2.6,1.7,2.97,3.43.67.1,1.35.2,2.02.3Z"/>
      <path class="cls-2" d="m61.71,61.37l-5.58-6.42c-2.62-2.76-2.82-6.52-1.49-8.42.77-1.1,2.31-2.01,4.04-1.57,1.49.38,2.7,1.72,3.14,3.45l2.09.31v.3c-.08,1.76-.25,3.52-.51,5.22-.34,2.23-.86,4.46-1.54,6.62l-.16.51Zm-3.89-15.87c-1.16,0-2.17.68-2.69,1.42-1.17,1.68-.96,5.05,1.44,7.57l4.89,5.63c.59-1.96,1.05-3.98,1.36-6,.24-1.58.4-3.21.48-4.85l-1.96-.29-.05-.22c-.34-1.6-1.42-2.85-2.74-3.19-.25-.06-.49-.09-.73-.09Z"/>
    </g>
  </g>
  <g>
    <g>
      <path class="cls-2" d="m35.92,54.87l-5.23,6.02c-.58-1.83-1.14-4.03-1.53-6.57-.29-1.89-.44-3.63-.49-5.18l2.02-.3c.37-1.73,1.53-3.06,2.97-3.43,1.49-.38,2.97.36,3.73,1.45,1.31,1.88.95,5.46-1.47,8Z"/>
      <path class="cls-2" d="m30.57,61.52l-.16-.51c-.68-2.15-1.2-4.38-1.54-6.62-.26-1.72-.43-3.47-.5-5.22v-.29s2.08-.31,2.08-.31c.44-1.73,1.66-3.08,3.14-3.45,1.73-.43,3.28.48,4.04,1.57,1.32,1.9,1.13,5.66-1.5,8.42l-5.57,6.42Zm-1.58-12.09c.07,1.62.23,3.25.48,4.85.31,2.03.77,4.04,1.36,6l4.89-5.64c2.39-2.52,2.61-5.89,1.44-7.57-.63-.9-1.96-1.7-3.42-1.33-1.33.33-2.4,1.58-2.74,3.18l-.05.22-1.96.29Z"/>
    </g>
    <g>
      <path class="cls-2" d="m32.43,49.15c-.06,1.55-.2,3.29-.49,5.18-.39,2.53-.95,4.74-1.53,6.57l-5.23-6.02c-2.42-2.55-2.79-6.12-1.47-8,.76-1.09,2.24-1.83,3.73-1.45,1.44.37,2.6,1.7,2.97,3.43.67.1,1.35.2,2.02.3Z"/>
      <path class="cls-2" d="m30.53,61.52l-5.58-6.42c-2.62-2.76-2.82-6.52-1.49-8.42.77-1.1,2.31-2.01,4.04-1.57,1.49.38,2.7,1.72,3.14,3.45l2.09.31v.3c-.08,1.76-.25,3.52-.51,5.22-.34,2.23-.86,4.46-1.54,6.62l-.16.51Zm-3.89-15.87c-1.16,0-2.17.68-2.69,1.42-1.17,1.68-.96,5.05,1.44,7.57l4.89,5.63c.59-1.96,1.05-3.98,1.36-6,.24-1.58.4-3.21.48-4.85l-1.96-.29-.05-.22c-.34-1.6-1.42-2.85-2.74-3.19-.25-.06-.49-.09-.73-.09Z"/>
    </g>
  </g>
  <g>
    <g>
      <path class="cls-2" d="m66.81,27.62l-5.23,6.02c-.58-1.83-1.14-4.03-1.53-6.57-.29-1.89-.44-3.63-.49-5.18l2.02-.3c.37-1.73,1.53-3.06,2.97-3.43,1.49-.38,2.97.36,3.73,1.45,1.31,1.88.95,5.46-1.47,8Z"/>
      <path class="cls-2" d="m61.46,34.26l-.16-.51c-.68-2.15-1.2-4.38-1.54-6.62-.26-1.72-.43-3.47-.5-5.22v-.29s2.08-.31,2.08-.31c.44-1.73,1.66-3.08,3.14-3.45,1.73-.43,3.28.48,4.04,1.57,1.32,1.9,1.13,5.66-1.5,8.42l-5.57,6.42Zm-1.58-12.09c.07,1.62.23,3.25.48,4.85.31,2.03.77,4.04,1.36,6l4.89-5.64c2.39-2.52,2.61-5.89,1.44-7.57-.63-.9-1.96-1.7-3.42-1.33-1.33.33-2.4,1.58-2.74,3.18l-.05.22-1.96.29Z"/>
    </g>
    <g>
      <path class="cls-2" d="m63.32,21.89c-.06,1.55-.2,3.29-.49,5.18-.39,2.53-.95,4.74-1.53,6.57l-5.23-6.02c-2.42-2.55-2.79-6.12-1.47-8,.76-1.09,2.24-1.83,3.73-1.45,1.44.37,2.6,1.7,2.97,3.43.67.1,1.35.2,2.02.3Z"/>
      <path class="cls-2" d="m61.42,34.26l-5.58-6.42c-2.62-2.76-2.82-6.52-1.49-8.42.77-1.1,2.31-2.01,4.04-1.57,1.49.38,2.7,1.72,3.14,3.45l2.09.31v.3c-.08,1.76-.25,3.52-.51,5.22-.34,2.23-.86,4.46-1.54,6.62l-.16.51Zm-3.89-15.87c-1.16,0-2.17.68-2.69,1.42-1.17,1.68-.96,5.05,1.44,7.57l4.89,5.63c.59-1.96,1.05-3.98,1.36-6,.24-1.58.4-3.21.48-4.85l-1.96-.29-.05-.22c-.34-1.6-1.42-2.85-2.74-3.19-.25-.06-.49-.09-.73-.09Z"/>
    </g>
  </g>
  <g>
    <g>
      <path class="cls-2" d="m36.13,27.51l-5.23,6.02c-.58-1.83-1.14-4.03-1.53-6.57-.29-1.89-.44-3.63-.49-5.18l2.02-.3c.37-1.73,1.53-3.06,2.97-3.43,1.49-.38,2.97.36,3.73,1.45,1.31,1.88.95,5.46-1.47,8Z"/>
      <path class="cls-2" d="m30.78,34.15l-.16-.51c-.68-2.15-1.2-4.38-1.54-6.62-.26-1.72-.43-3.47-.5-5.22v-.29s2.08-.31,2.08-.31c.44-1.73,1.66-3.08,3.14-3.45,1.73-.43,3.28.48,4.04,1.57,1.32,1.9,1.13,5.66-1.5,8.42l-5.57,6.42Zm-1.58-12.09c.07,1.62.23,3.25.48,4.85.31,2.03.77,4.04,1.36,6l4.89-5.64c2.39-2.52,2.61-5.89,1.44-7.57-.63-.9-1.96-1.7-3.42-1.33-1.33.33-2.4,1.58-2.74,3.18l-.05.22-1.96.29Z"/>
    </g>
    <g>
      <path class="cls-2" d="m32.64,21.78c-.06,1.55-.2,3.29-.49,5.18-.39,2.53-.95,4.74-1.53,6.57l-5.23-6.02c-2.42-2.55-2.79-6.12-1.47-8,.76-1.09,2.24-1.83,3.73-1.45,1.44.37,2.6,1.7,2.97,3.43.67.1,1.35.2,2.02.3Z"/>
      <path class="cls-2" d="m30.74,34.15l-5.58-6.42c-2.62-2.76-2.82-6.52-1.49-8.42.77-1.1,2.31-2.01,4.04-1.57,1.49.38,2.7,1.72,3.14,3.45l2.09.31v.3c-.08,1.76-.25,3.52-.51,5.22-.34,2.23-.86,4.46-1.54,6.62l-.16.51Zm-3.89-15.87c-1.16,0-2.17.68-2.69,1.42-1.17,1.68-.96,5.05,1.44,7.57l4.89,5.63c.59-1.96,1.05-3.98,1.36-6,.24-1.58.4-3.21.48-4.85l-1.96-.29-.05-.22c-.34-1.6-1.42-2.85-2.74-3.19-.25-.06-.49-.09-.73-.09Z"/>
    </g>
  </g>
  <g>
    <g>
      <path class="cls-2" d="m72.94,103.7l3.34-3.58c.37,1.09.73,2.4.97,3.9.19,1.12.28,2.16.31,3.08l-1.29.18c-.24,1.03-.97,1.82-1.89,2.04-.95.22-1.89-.21-2.38-.86-.84-1.12-.6-3.24.94-4.75Z"/>
      <path class="cls-2" d="m76.48,99.17l.27.79c.44,1.29.77,2.63.99,3.98.17,1.03.28,2.09.32,3.14l.02.45-1.42.2c-.35,1.04-1.18,1.84-2.17,2.07-1.24.29-2.35-.32-2.89-1.05-1.06-1.41-.62-3.83.98-5.4l3.9-4.18Zm.56,7.5c-.05-.86-.15-1.72-.29-2.56-.17-1.02-.4-2.03-.7-3.02l-2.77,2.97c-1.36,1.34-1.56,3.2-.89,4.1.34.46,1.07.86,1.86.68.73-.17,1.33-.82,1.52-1.66l.08-.34,1.18-.16Z"/>
    </g>
    <g>
      <path class="cls-2" d="m75.37,107.1c.04-.92.13-1.96.31-3.08.25-1.5.61-2.81.98-3.9l3.33,3.58c1.54,1.51,1.78,3.63.94,4.75-.49.65-1.43,1.09-2.38.86-.92-.22-1.66-1.01-1.89-2.04-.43-.06-.86-.12-1.29-.18Z"/>
      <path class="cls-2" d="m76.46,99.17l3.91,4.19c1.59,1.56,2.03,3.98.97,5.39-.55.73-1.66,1.34-2.89,1.05-1-.23-1.82-1.03-2.17-2.07l-1.42-.19.02-.46c.04-1.06.15-2.12.32-3.14.22-1.34.56-2.68,1-3.98l.27-.79Zm2.61,9.71c.63,0,1.18-.34,1.47-.72.67-.9.48-2.76-.89-4.1l-2.77-2.97c-.3.99-.53,2.01-.7,3.02-.14.84-.23,1.7-.29,2.56l1.18.16.08.34c.19.84.79,1.49,1.52,1.66.13.03.27.05.4.05Z"/>
    </g>
  </g>
  <g>
    <g>
      <path class="cls-2" d="m17.51,28.84l-3.34,3.58c-.37-1.09-.73-2.4-.97-3.9-.19-1.12-.28-2.16-.31-3.08l1.29-.18c.24-1.03.97-1.82,1.89-2.04.95-.22,1.89.21,2.38.86.84,1.12.6,3.24-.94,4.75Z"/>
      <path class="cls-2" d="m13.97,33.37l-.27-.79c-.44-1.29-.77-2.63-.99-3.98-.17-1.03-.28-2.09-.32-3.14l-.02-.45,1.42-.2c.35-1.04,1.18-1.84,2.17-2.07,1.24-.29,2.35.32,2.89,1.05,1.06,1.41.62,3.83-.98,5.4l-3.9,4.18Zm-.56-7.5c.05.86.15,1.72.29,2.56.17,1.02.4,2.03.7,3.02l2.77-2.97c1.36-1.34,1.56-3.2.89-4.1-.34-.46-1.07-.86-1.86-.68-.73.17-1.33.82-1.52,1.66l-.08.34-1.18.16Z"/>
    </g>
    <g>
      <path class="cls-2" d="m15.07,25.44c-.04.92-.13,1.96-.31,3.08-.25,1.5-.61,2.81-.98,3.9l-3.33-3.58c-1.54-1.51-1.78-3.63-.94-4.75.49-.65,1.43-1.09,2.38-.86.92.22,1.66,1.01,1.89,2.04.43.06.86.12,1.29.18Z"/>
      <path class="cls-2" d="m13.99,33.37l-3.91-4.19c-1.59-1.56-2.03-3.98-.97-5.39.55-.73,1.66-1.34,2.89-1.05,1,.23,1.82,1.03,2.17,2.07l1.42.19-.02.46c-.04,1.06-.15,2.12-.32,3.14-.22,1.34-.56,2.68-1,3.98l-.27.79Zm-2.61-9.71c-.63,0-1.18.34-1.47.72-.67.9-.48,2.76.89,4.1l2.77,2.97c.3-.99.53-2.01.7-3.02.14-.84.23-1.7.29-2.56l-1.18-.16-.08-.34c-.19-.84-.79-1.49-1.52-1.66-.13-.03-.27-.05-.4-.05Z"/>
    </g>
  </g>
</svg>