<?xml version="1.0" encoding="UTF-8"?>
<svg id="Layer_1" data-name="Layer 1" width="60" height="90"  xmlns="http://www.w3.org/2000/svg" xmlns:xlink="http://www.w3.org/1999/xlink" viewBox="0 0 90 135">
  <defs>
    <style>
      .cls-1 {
        fill: url(#linear-gradient);
      }

      .cls-1, .cls-2, .cls-3 {
        stroke-width: 0px;
      }

      .cls-2 {
        fill: #ed1c24;
      }

      .cls-4 {
        fill: url(#linear-gradient-2);
        stroke: #d1d3d4;
        stroke-miterlimit: 10;
        stroke-width: .25px;
      }

      .cls-3 {
        fill: #ec2027;
      }
    </style>
    <linearGradient id="linear-gradient" x1="0" y1="67.5" x2="90" y2="67.5" gradientUnits="userSpaceOnUse">
      <stop offset="0" stop-color="#e6e7e8"/>
      <stop offset="1" stop-color="#f1f2f2"/>
    </linearGradient>
    <linearGradient id="linear-gradient-2" x1="3.83" y1="67.88" x2="86.83" y2="67.88" gradientTransform="translate(-.66 -.75)" gradientUnits="userSpaceOnUse">
      <stop offset="0" stop-color="#fff"/>
      <stop offset="1" stop-color="#e6e7e8"/>
    </linearGradient>
  </defs>
  <rect class="cls-1" x="0" y="0" width="90" height="135" rx="8.37" ry="8.37"/>
  <rect class="cls-4" x="3.17" y="3.62" width="83" height="127" rx="7.94" ry="7.94"/>
  <path class="cls-3" d="m75.35,116.57c.94-1.1,1.94-1.3,2.76-1.3.3,0,.81.14.99.31.36.34.27.81-.14,1.32-.47.59-1.13.92-1.78.76-.23-.06-.3-.13-.28-.19.01-.03.09-.06.19-.03.44.11.82-.24.7-.74-.14-.54-1.02-.64-1.71-.11-.9.69-1.37,1.99-1.37,4.38.27-.82.81-1.43,1.29-1.52.23-.04.44.04.61.3.38-.44.81-.63,1.14-.54.21.04.38.2.48.47.24-.23.47-.29.67-.21.43.16.71.91.66,1.89-.05.9-.41,2-.89,2.73-.61.93-1.41,1.56-2.21,1.56-.57,0-1.18-.17-1.7-.69-.72-.73-.98-2.03-.98-3.32,0-2.42.56-3.87,1.56-5.06Zm1.7,7.82c1.02,0,1.83-1.03,1.83-2.12,0-.87-.32-1.59-.71-1.69-.19-.04-.41.06-.62.37-.03.04-.06.06-.08.06-.04,0-.04-.01-.04-.07,0-.27-.15-.44-.36-.51-.34-.1-.84.09-.99.59-.01.04-.03.07-.05.08-.03.03-.05,0-.06-.07-.03-.26-.17-.37-.36-.36-.28.01-.67.31-.88.74.18,1.6,1.09,2.97,2.31,2.97Z"/>
  <path class="cls-3" d="m15.14,18.41c-.94,1.1-1.94,1.3-2.75,1.3-.3,0-.81-.14-.99-.31-.36-.34-.27-.81.14-1.32.47-.59,1.13-.92,1.78-.76.23.06.3.13.28.19-.01.03-.09.06-.19.03-.44-.11-.83.24-.7.74.14.54,1.02.64,1.71.11.9-.69,1.37-1.99,1.37-4.38-.27.81-.81,1.43-1.29,1.52-.23.04-.44-.04-.61-.3-.38.44-.81.63-1.14.54-.22-.04-.38-.2-.48-.47-.24.23-.47.29-.67.21-.43-.16-.71-.92-.66-1.89.05-.9.41-2,.89-2.73.61-.93,1.41-1.56,2.21-1.56.57,0,1.18.17,1.7.69.72.73.98,2.03.98,3.32,0,2.42-.56,3.87-1.56,5.06Zm-1.7-7.82c-1.02,0-1.83,1.03-1.83,2.12,0,.87.32,1.59.71,1.69.19.04.41-.06.62-.37.03-.04.06-.06.08-.06.04,0,.04.01.04.07,0,.27.15.44.36.51.34.1.84-.09.99-.59.01-.04.03-.07.05-.09.03-.03.05,0,.06.07.03.26.17.37.36.36.28-.01.67-.31.88-.74-.18-1.6-1.09-2.97-2.31-2.97Z"/>
  <polygon class="cls-2" points="37.92 110.08 30.69 119.48 23.46 110.08 30.69 100.68 37.92 110.08"/>
  <polygon class="cls-2" points="68.6 110.48 61.37 119.88 54.14 110.48 61.37 101.09 68.6 110.48"/>
  <polygon class="cls-2" points="68.6 82.03 61.37 91.42 54.14 82.03 61.37 72.63 68.6 82.03"/>
  <polygon class="cls-2" points="37.92 82.03 30.69 91.42 23.46 82.03 30.69 72.63 37.92 82.03"/>
  <polygon class="cls-2" points="68.6 53.92 61.37 63.32 54.14 53.92 61.37 44.52 68.6 53.92"/>
  <polygon class="cls-2" points="53.55 68.65 46.32 78.05 39.09 68.65 46.32 59.26 53.55 68.65"/>
  <polygon class="cls-2" points="37.92 54.39 30.69 63.79 23.46 54.39 30.69 44.99 37.92 54.39"/>
  <polygon class="cls-2" points="68.6 27.02 61.37 36.42 54.14 27.02 61.37 17.63 68.6 27.02"/>
  <polygon class="cls-2" points="37.92 27.02 30.69 36.42 23.46 27.02 30.69 17.63 37.92 27.02"/>
  <polygon class="cls-2" points="19.03 28.88 14.03 35.38 9.03 28.88 14.03 22.38 19.03 28.88"/>
  <polygon class="cls-2" points="81.52 103.58 76.52 110.08 71.52 103.58 76.52 97.08 81.52 103.58"/>
</svg>