<?xml version="1.0" encoding="UTF-8"?>
<svg id="Layer_1" data-name="Layer 1" width="60" height="90"  xmlns="http://www.w3.org/2000/svg" xmlns:xlink="http://www.w3.org/1999/xlink" viewBox="0 0 100 150">
  <defs>
    <style>
      .cls-1 {
        fill: url(#linear-gradient);
      }

      .cls-1, .cls-2 {
        stroke-width: 0px;
      }

      .cls-3 {
        fill: url(#linear-gradient-2);
        stroke: #d1d3d4;
        stroke-miterlimit: 10;
        stroke-width: .25px;
      }
    </style>
    <linearGradient id="linear-gradient" x1="5.24" y1="75.39" x2="95.24" y2="75.39" gradientUnits="userSpaceOnUse">
      <stop offset="0" stop-color="#e6e7e8"/>
      <stop offset="1" stop-color="#f1f2f2"/>
    </linearGradient>
    <linearGradient id="linear-gradient-2" x1="8.89" y1="75.81" x2="91.89" y2="75.81" gradientUnits="userSpaceOnUse">
      <stop offset="0" stop-color="#fff"/>
      <stop offset="1" stop-color="#e6e7e8"/>
    </linearGradient>
  </defs>
  <g>
    <rect class="cls-1" x="5.24" y="7.89" width="90" height="135" rx="8.37" ry="8.37"/>
    <rect class="cls-3" x="8.89" y="12.31" width="83" height="127" rx="7.94" ry="7.94"/>
    <path class="cls-2" d="m17.37,24.93c.33-.25.61-.33.83-.3.28.05.42.3.26.63-.03.05-.07.08-.11.07-.05-.01-.08-.05-.05-.1.08-.21-.04-.34-.16-.34-.14,0-.29.08-.29.25,0,.31.52.63.88.53.37-.5.3-1.11.3-2.2v-1.46c0-.48.11-.94.34-1.2-.23.01-.49-.18-.49-.35,0-.23.14-.43.5-.72-.3-.03-.5-.2-.5-.42,0-.27.43-.8,1.06-1.13-.24-.03-.45-.1-.62-.18-.23-.1-.43-.22-.67-.22-.35,0-.56.18-.75.33-.04.03-.08.04-.12,0-.03-.03-.03-.06.01-.12.45-.65.99-1.3,1.55-1.3.23,0,.46.09.69.21.23.12.49.22.76.22.3,0,.54-.2.65-.33.07-.08.1-.1.14-.09.04.01.04.08-.01.17-.27.5-.64.94-1.03,1.21-.37.25-.49.39-.49.52s.22.18.45.18c.08,0,.14.01.14.06,0,.04-.04.09-.14.17-.24.22-.35.43-.35.57,0,.2.14.25.33.22.08-.01.16-.01.18.03.01.04-.04.09-.11.18-.14.16-.19.46-.19,1.11v1.83c0,1.47-.22,2.17-1.14,2.82-.47.33-1.08.6-1.57.6-.37,0-.83-.12-.94-.43-.11-.35.26-.69.68-1Z"/>
    <path class="cls-2" d="m43.5,87.07c1.2-.89,2.26-1.17,3.06-1.08,1.05.19,1.56,1.08.95,2.25-.1.19-.25.28-.4.23-.2-.05-.3-.19-.2-.38.3-.75-.15-1.22-.6-1.22-.5,0-1.05.28-1.05.89,0,1.13,1.91,2.25,3.26,1.92,1.35-1.78,1.1-3.99,1.1-7.93v-5.25c0-1.74.4-3.38,1.25-4.32-.85.05-1.81-.66-1.81-1.27,0-.84.5-1.55,1.86-2.58-1.1-.09-1.86-.7-1.86-1.5,0-.98,1.61-2.86,3.91-4.08-.9-.09-1.66-.38-2.31-.66-.85-.38-1.61-.8-2.46-.8-1.3,0-2.06.66-2.76,1.17-.15.09-.3.14-.45,0-.1-.09-.1-.23.05-.42,1.66-2.35,3.66-4.69,5.72-4.69.85,0,1.71.33,2.56.75.85.42,1.81.8,2.81.8,1.1,0,2.01-.7,2.41-1.17.25-.28.35-.38.5-.33s.15.28-.05.61c-1,1.78-2.36,3.38-3.81,4.36-1.35.89-1.81,1.41-1.81,1.88s.8.66,1.66.66c.3,0,.5.05.5.23,0,.14-.15.33-.5.61-.9.8-1.3,1.55-1.3,2.06,0,.7.5.89,1.2.8.3-.05.6-.05.65.09.05.14-.15.33-.4.66-.5.56-.7,1.64-.7,3.99v6.57c0,5.3-.8,7.79-4.22,10.13-1.76,1.17-4.02,2.16-5.82,2.16-1.35,0-3.06-.42-3.46-1.55-.4-1.27.95-2.49,2.51-3.61Z"/>
    <path class="cls-2" d="m83.42,126.7c-.33.25-.61.33-.83.3-.29-.05-.42-.3-.26-.62.03-.05.07-.08.11-.07.05.01.08.05.05.11-.08.21.04.34.16.34.14,0,.29-.08.29-.25,0-.31-.52-.63-.88-.53-.37.5-.3,1.11-.3,2.2v1.46c0,.48-.11.94-.34,1.2.23-.01.49.18.49.35,0,.24-.14.43-.5.72.3.03.5.2.5.42,0,.27-.43.79-1.06,1.13.24.03.45.1.62.18.23.11.43.22.67.22.35,0,.56-.18.75-.33.04-.03.08-.04.12,0,.03.03.03.06-.01.12-.45.65-.99,1.3-1.55,1.3-.23,0-.46-.09-.69-.21s-.49-.22-.76-.22c-.3,0-.54.2-.65.33-.07.08-.1.1-.14.09-.04-.01-.04-.08.01-.17.27-.5.64-.94,1.03-1.21.37-.25.49-.39.49-.52s-.22-.18-.45-.18c-.08,0-.14-.01-.14-.07,0-.04.04-.09.14-.17.24-.22.35-.43.35-.57,0-.2-.14-.25-.33-.22-.08.01-.16.01-.18-.03-.01-.04.04-.09.11-.18.14-.16.19-.46.19-1.11v-1.83c0-1.47.22-2.17,1.14-2.82.47-.33,1.08-.6,1.57-.6.37,0,.83.12.94.43.11.35-.26.69-.68,1Z"/>
  </g>
  <path class="cls-2" d="m17.52,110.17c1.28-1.71,3.89-3.12,6.82-2.44,2.32.54,4.26,2.37,5.12,4.8-.65-6.33-1.92-8.13-3.09-8.4-.88-.2-1.8.44-3.38,0-1.08-.3-1.87-.95-2.38-1.46h17.27c-.42.45-1.15,1.11-2.2,1.46-1.76.59-2.86-.22-3.85.09-1.05.35-2.19,2.04-2.34,8.31.86-2.42,2.79-4.25,5.11-4.8,2.91-.68,5.52.74,6.82,2.44,2.23,2.95,1.91,8.8-2.52,13.1l-9.4,9.98-.03-.09-.03.09-9.4-9.99c-4.41-4.28-4.75-10.14-2.51-13.09Z"/>
  <path class="cls-2" d="m82.69,41.72c-1.28,1.71-3.89,3.12-6.82,2.44-2.32-.54-4.26-2.37-5.12-4.8.65,6.33,1.92,8.13,3.09,8.4.88.2,1.8-.44,3.38,0,1.08.3,1.87.95,2.38,1.46h-17.27c.42-.45,1.15-1.11,2.2-1.46,1.76-.59,2.86.22,3.85-.09,1.05-.35,2.19-2.04,2.34-8.31-.86,2.42-2.79,4.25-5.11,4.8-2.91.68-5.52-.74-6.82-2.44-2.23-2.95-1.91-8.8,2.52-13.1l9.4-9.98.03.09.03-.09,9.4,9.99c4.41,4.28,4.75,10.14,2.51,13.09Z"/>
  <path class="cls-2" d="m24.33,38.75c-.53.73-1.59,1.34-2.79,1.05-.95-.23-1.74-1.02-2.1-2.06.27,2.71.78,3.48,1.26,3.6.36.09.74-.19,1.38,0,.44.13.77.41.98.63h-7.06c.17-.19.47-.48.9-.63.72-.25,1.17.1,1.58-.04.43-.15.9-.87.96-3.56-.35,1.04-1.14,1.82-2.09,2.06-1.19.29-2.26-.32-2.79-1.05-.91-1.26-.78-3.77,1.03-5.61l3.85-4.28v.04s.03-.04.03-.04l3.85,4.28c1.8,1.84,1.94,4.35,1.03,5.61Z"/>
  <path class="cls-2" d="m76.46,112.94c.53-.73,1.59-1.34,2.79-1.05.95.23,1.74,1.02,2.1,2.06-.27-2.71-.78-3.48-1.26-3.6-.36-.09-.74.19-1.38,0-.44-.13-.77-.41-.98-.63h7.06c-.17.19-.47.48-.9.63-.72.25-1.17-.1-1.58.04-.43.15-.9.87-.96,3.56.35-1.04,1.14-1.82,2.09-2.06,1.19-.29,2.26.32,2.79,1.05.91,1.26.78,3.77-1.03,5.61l-3.85,4.28v-.04s-.03.04-.03.04l-3.85-4.28c-1.8-1.84-1.94-4.35-1.03-5.61Z"/>
</svg>