<?xml version="1.0" encoding="UTF-8"?>
<svg id="Layer_1" data-name="Layer 1" width="60" height="90"  xmlns="http://www.w3.org/2000/svg" xmlns:xlink="http://www.w3.org/1999/xlink" viewBox="0 0 100 150">
  <defs>
    <style>
      .cls-1 {
        fill: url(#linear-gradient);
      }

      .cls-1, .cls-2 {
        stroke-width: 0px;
      }

      .cls-3 {
        fill: url(#linear-gradient-2);
        stroke: #d1d3d4;
        stroke-miterlimit: 10;
        stroke-width: .25px;
      }
    </style>
    <linearGradient id="linear-gradient" x1="5.24" y1="75.39" x2="95.24" y2="75.39" gradientUnits="userSpaceOnUse">
      <stop offset="0" stop-color="#e6e7e8"/>
      <stop offset="1" stop-color="#f1f2f2"/>
    </linearGradient>
    <linearGradient id="linear-gradient-2" x1="8.89" y1="75.81" x2="91.89" y2="75.81" gradientUnits="userSpaceOnUse">
      <stop offset="0" stop-color="#fff"/>
      <stop offset="1" stop-color="#e6e7e8"/>
    </linearGradient>
  </defs>
  <rect class="cls-1" x="5.24" y="7.89" width="90" height="135" rx="8.37" ry="8.37"/>
  <rect class="cls-3" x="8.89" y="12.31" width="83" height="127" rx="7.94" ry="7.94"/>
  <path class="cls-2" d="m16.58,24.18v-2.15c0-.48.11-.94.34-1.2-.23.01-.49-.18-.49-.35,0-.23.14-.43.5-.72-.3-.03-.5-.18-.5-.4,0-.21.23-.48.47-.69.08-.06.12-.1.12-.16,0-.04-.05-.07-.15-.1-.22-.08-.53-.14-.53-.39,0-.35.61-.99,1.64-1.42.09-.04.14-.05.16-.03.03.03,0,.08-.07.12-.27.17-.6.38-.6.59,0,.1.18.14.35.2.16.07.34.13.34.3,0,.12-.16.25-.34.44-.16.17-.24.29-.24.42s.22.18.45.18c.07,0,.12,0,.14.04s-.03.09-.14.2c-.24.22-.35.43-.35.57,0,.2.18.23.37.22.07,0,.11,0,.12.03.03.03-.01.09-.1.18-.14.16-.19.46-.19,1.11v.39c1.21-.17,1.55-1.21,1.79-1.66.38-.68.9-1.81,1.83-2.5.54-.4,1.1-.73,1.53-.73.23,0,.49.05.61.17.24.25.26.61-.24,1.08-.37.33-.81.56-1.08.6-.04.01-.08-.01-.07-.05.01-.03.04-.05.09-.09.18-.1.29-.39.16-.59-.15-.21-.3-.29-.45-.29-.31.56-.52,1.57-.92,2.37-.3.6-.9,1.25-1.57,1.53.58-.12,1.18.04,1.37.27.1.12.1.25-.04.38.33.04.6.16.81.34.24.23.42.55.49.94.18.9.27,2.66,1.57,2.66.11,0,.18.03.18.08s-.05.06-.18.08c-.33.03-.83.05-1.3-.07-.34-.08-.61-.22-.9-.59-.49-.63-.6-1.54-.68-2.04-.08-.54-.22-.78-.5-.98-.27-.18-.64-.2-.87-.14-.07.01-.12.01-.14-.01-.01-.03.04-.06.07-.12.08-.14.03-.27-.14-.37-.26-.16-.77-.22-1.44-.17v2.01c0,1.24-.45,2.17-2.05,2.67-.07.03-.11.03-.14,0-.03-.03-.01-.06.05-.1.87-.51.81-1.27.81-2.06Z"/>
  <path class="cls-2" d="m40.3,82.85v-7.74c0-1.74.4-3.38,1.25-4.32-.85.05-1.81-.66-1.81-1.27,0-.84.5-1.55,1.86-2.58-1.1-.09-1.86-.66-1.86-1.45,0-.75.85-1.74,1.76-2.49.3-.23.45-.38.45-.56,0-.14-.2-.23-.55-.38-.8-.28-1.96-.52-1.96-1.41,0-1.27,2.26-3.56,6.07-5.11.35-.14.5-.19.6-.09.1.09,0,.28-.25.42-1,.61-2.21,1.36-2.21,2.11,0,.38.65.52,1.3.7.6.23,1.25.47,1.25,1.08,0,.42-.6.89-1.25,1.6-.6.61-.9,1.03-.9,1.5s.8.66,1.66.66c.25,0,.45,0,.5.14.05.14-.1.33-.5.7-.9.8-1.3,1.55-1.3,2.06,0,.7.65.84,1.35.8.25,0,.4,0,.45.09.1.09-.05.33-.35.66-.5.56-.7,1.64-.7,3.99v1.41c4.47-.61,5.72-4.36,6.62-5.96,1.41-2.44,3.31-6.52,6.78-9.01,2.01-1.45,4.07-2.63,5.67-2.63.85,0,1.81.19,2.26.61.9.89.95,2.2-.9,3.89-1.36,1.17-3.01,2.02-4.02,2.16-.15.05-.3-.05-.25-.19.05-.09.15-.19.35-.33.65-.38,1.05-1.41.6-2.11-.55-.75-1.1-1.03-1.66-1.03-1.15,2.02-1.91,5.63-3.41,8.54-1.1,2.16-3.31,4.5-5.82,5.49,2.16-.42,4.37.14,5.07.98.35.42.35.89-.15,1.36,1.21.14,2.21.56,3.01,1.22.9.84,1.56,1.97,1.81,3.38.65,3.24,1,9.57,5.82,9.57.4,0,.65.09.65.28s-.2.23-.65.28c-1.2.09-3.06.19-4.82-.23-1.25-.28-2.26-.8-3.31-2.11-1.81-2.25-2.21-5.54-2.51-7.32-.3-1.92-.8-2.81-1.86-3.52-1-.66-2.36-.7-3.21-.52-.25.05-.45.05-.5-.05s.15-.23.25-.42c.3-.52.1-.98-.5-1.31-.95-.56-2.86-.8-5.32-.61v7.22c0,4.46-1.66,7.79-7.58,9.62-.25.09-.4.09-.5,0-.1-.09-.05-.23.2-.38,3.21-1.83,3.01-4.55,3.01-7.41Z"/>
  <path class="cls-2" d="m84.21,127.44v2.15c0,.48-.11.94-.34,1.2.23-.01.49.18.49.35,0,.24-.14.43-.5.72.3.03.5.18.5.4,0,.21-.23.48-.47.69-.08.06-.12.1-.12.16,0,.04.05.07.15.1.22.08.53.14.53.39,0,.35-.61.99-1.64,1.42-.09.04-.13.05-.16.03s0-.08.07-.12c.27-.17.6-.38.6-.59,0-.11-.18-.14-.35-.2-.16-.07-.34-.13-.34-.3,0-.12.16-.25.34-.44.16-.17.24-.29.24-.42s-.22-.18-.45-.18c-.07,0-.12,0-.14-.04s.03-.09.14-.2c.24-.22.35-.43.35-.57,0-.2-.18-.23-.37-.22-.07,0-.11,0-.12-.03-.03-.03.01-.09.1-.18.13-.16.19-.46.19-1.11v-.39c-1.21.17-1.55,1.21-1.79,1.66-.38.68-.89,1.81-1.83,2.5-.54.41-1.1.73-1.53.73-.23,0-.49-.05-.61-.17-.24-.25-.26-.61.24-1.08.37-.33.81-.56,1.09-.6.04-.01.08.01.07.05-.01.03-.04.05-.09.09-.18.1-.29.39-.16.59.15.21.3.29.45.29.31-.56.52-1.57.92-2.37.3-.6.9-1.25,1.57-1.53-.58.12-1.18-.04-1.37-.27-.09-.12-.09-.25.04-.38-.33-.04-.6-.16-.81-.34-.24-.23-.42-.55-.49-.94-.18-.9-.27-2.66-1.57-2.66-.11,0-.18-.03-.18-.08s.05-.07.18-.08c.32-.03.83-.05,1.3.07.34.08.61.22.9.59.49.63.6,1.54.68,2.04.08.54.22.78.5.98.27.18.64.2.87.14.07-.01.12-.01.14.01.01.03-.04.06-.07.12-.08.14-.03.27.14.37.26.16.77.22,1.44.17v-2.01c0-1.24.45-2.17,2.05-2.67.07-.03.11-.03.13,0,.03.03.01.06-.05.1-.87.51-.81,1.27-.81,2.06Z"/>
  <path class="cls-2" d="m17.52,110.17c1.28-1.71,3.89-3.12,6.82-2.44,2.32.54,4.26,2.37,5.12,4.8-.65-6.33-1.92-8.13-3.09-8.4-.88-.2-1.8.44-3.38,0-1.08-.3-1.87-.95-2.38-1.46h17.27c-.42.45-1.15,1.11-2.2,1.46-1.76.59-2.86-.22-3.85.09-1.05.35-2.19,2.04-2.34,8.31.86-2.42,2.79-4.25,5.11-4.8,2.91-.68,5.52.74,6.82,2.44,2.23,2.95,1.91,8.8-2.52,13.1l-9.4,9.98-.03-.09-.03.09-9.4-9.99c-4.41-4.28-4.75-10.14-2.51-13.09Z"/>
  <path class="cls-2" d="m83.03,41.72c-1.28,1.71-3.89,3.12-6.82,2.44-2.32-.54-4.26-2.37-5.12-4.8.65,6.33,1.92,8.13,3.09,8.4.88.2,1.8-.44,3.38,0,1.08.3,1.87.95,2.38,1.46h-17.27c.42-.45,1.15-1.11,2.2-1.46,1.76-.59,2.86.22,3.85-.09,1.05-.35,2.19-2.04,2.34-8.31-.86,2.42-2.79,4.25-5.11,4.8-2.91.68-5.52-.74-6.82-2.44-2.23-2.95-1.91-8.8,2.52-13.1l9.4-9.98.03.09.03-.09,9.4,9.99c4.41,4.28,4.75,10.14,2.51,13.09Z"/>
  <path class="cls-2" d="m24.33,38.78c-.53.73-1.59,1.34-2.79,1.05-.95-.23-1.74-1.02-2.1-2.06.27,2.71.78,3.48,1.26,3.6.36.09.74-.19,1.38,0,.44.13.77.41.98.63h-7.06c.17-.19.47-.48.9-.63.72-.25,1.17.1,1.58-.04.43-.15.9-.87.96-3.56-.35,1.04-1.14,1.82-2.09,2.06-1.19.29-2.26-.32-2.79-1.05-.91-1.26-.78-3.77,1.03-5.61l3.85-4.28v.04s.03-.04.03-.04l3.85,4.28c1.8,1.84,1.94,4.35,1.03,5.61Z"/>
  <path class="cls-2" d="m76.46,112.85c.53-.73,1.59-1.34,2.79-1.05.95.23,1.74,1.02,2.1,2.06-.27-2.71-.78-3.48-1.26-3.6-.36-.09-.74.19-1.38,0-.44-.13-.77-.41-.98-.63h7.06c-.17.19-.47.48-.9.63-.72.25-1.17-.1-1.58.04-.43.15-.9.87-.96,3.56.35-1.04,1.14-1.82,2.09-2.06,1.19-.29,2.26.32,2.79,1.05.91,1.26.78,3.77-1.03,5.61l-3.85,4.28v-.04s-.03.04-.03.04l-3.85-4.28c-1.8-1.84-1.94-4.35-1.03-5.61Z"/>
</svg>