<?xml version="1.0" encoding="UTF-8"?>
<svg id="Layer_1" data-name="Layer 1" width="60" height="90"  xmlns="http://www.w3.org/2000/svg" xmlns:xlink="http://www.w3.org/1999/xlink" viewBox="0 0 100 150">
  <defs>
    <style>
      .cls-1 {
        fill: url(#linear-gradient);
      }

      .cls-1, .cls-2, .cls-3 {
        stroke-width: 0px;
      }

      .cls-2 {
        fill: #ed1c24;
      }

      .cls-4 {
        fill: url(#linear-gradient-2);
        stroke: #d1d3d4;
        stroke-miterlimit: 10;
        stroke-width: .25px;
      }

      .cls-3 {
        fill: #ec2027;
      }
    </style>
    <linearGradient id="linear-gradient" x1="5.24" y1="75.39" x2="95.24" y2="75.39" gradientUnits="userSpaceOnUse">
      <stop offset="0" stop-color="#e6e7e8"/>
      <stop offset="1" stop-color="#f1f2f2"/>
    </linearGradient>
    <linearGradient id="linear-gradient-2" x1="8.89" y1="75.81" x2="91.89" y2="75.81" gradientUnits="userSpaceOnUse">
      <stop offset="0" stop-color="#fff"/>
      <stop offset="1" stop-color="#e6e7e8"/>
    </linearGradient>
  </defs>
  <rect class="cls-1" x="5.24" y="7.89" width="90" height="135" rx="8.37" ry="8.37"/>
  <rect class="cls-4" x="8.89" y="12.31" width="83" height="127" rx="7.94" ry="7.94"/>
  <g>
    <g>
      <path class="cls-2" d="m23.03,35.12l-3.34,3.58c-.37-1.09-.73-2.4-.97-3.9-.19-1.12-.28-2.16-.31-3.08l1.29-.18c.24-1.03.97-1.82,1.89-2.04.95-.22,1.89.21,2.38.86.84,1.12.6,3.24-.94,4.75Z"/>
      <path class="cls-2" d="m19.49,39.65l-.27-.79c-.44-1.29-.77-2.63-.99-3.98-.17-1.03-.28-2.09-.32-3.14l-.02-.45,1.42-.2c.35-1.04,1.18-1.84,2.17-2.07,1.24-.29,2.35.32,2.89,1.05,1.06,1.41.62,3.83-.98,5.4l-3.9,4.18Zm-.56-7.5c.05.86.15,1.72.29,2.56.17,1.02.4,2.03.7,3.02l2.77-2.97c1.36-1.34,1.56-3.2.89-4.1-.34-.46-1.07-.86-1.86-.68-.73.17-1.33.82-1.52,1.66l-.08.34-1.18.16Z"/>
    </g>
    <g>
      <path class="cls-2" d="m20.59,31.72c-.04.92-.13,1.96-.31,3.08-.25,1.5-.61,2.81-.98,3.9l-3.33-3.58c-1.54-1.51-1.78-3.63-.94-4.75.49-.65,1.43-1.09,2.38-.86.92.22,1.66,1.01,1.89,2.04.43.06.86.12,1.29.18Z"/>
      <path class="cls-2" d="m19.51,39.65l-3.91-4.19c-1.59-1.56-2.03-3.98-.97-5.39.55-.73,1.66-1.34,2.89-1.05,1,.23,1.82,1.03,2.17,2.07l1.42.19-.02.46c-.04,1.06-.15,2.12-.32,3.14-.22,1.34-.56,2.68-1,3.98l-.27.79Zm-2.61-9.71c-.63,0-1.18.34-1.47.72-.67.9-.48,2.76.89,4.1l2.77,2.97c.3-.99.53-2.01.7-3.02.14-.84.23-1.7.29-2.56l-1.18-.16-.08-.34c-.19-.84-.79-1.49-1.52-1.66-.13-.03-.27-.05-.4-.05Z"/>
    </g>
  </g>
  <path class="cls-3" d="m25.11,26.92s-.03.07-.12.12c-1.61.76-2.62.46-3.72-1.03-.23.09-.49.17-.76.22-1.18.27-2.48.03-3.36-.46-.61-.35-1.06-.89-1.18-1.51-.09-.46,0-.97.35-1.49-.37-.01-.56-.16-.61-.39-.05-.3.14-.73.53-1.17-.39-.08-.47-.43-.38-.89.12-.61.58-1.41,1.07-1.93.71-.76,1.49-1.28,2.35-1.53.19-.05.3-.04.31.01s-.04.09-.19.14c-.71.25-1.34.81-1.76,1.33-.6.77-.81,1.92-.14,1.9.07,0,.12.01.12.04s-.03.07-.1.12c-.68.52-.69,1.12-.08,1.12.05,0,.08.01.09.04.01.03-.01.07-.05.1-.75.7-.61,2.17.28,3.09.71.72,1.7,1.03,2.58.89.19-.03.38-.09.57-.16l-.15-.23c-.79-1.3-1.36-2.06-2.69-1.66-.09.03-.15.01-.16-.03s.05-.08.12-.12c1.65-.8,2.74-.68,3.73,1.04l.12.21c.2-.29.34-.63.41-1.02.07-.51.05-1.44-.46-1.44-.07,0-.11-.01-.11-.04,0-.04.04-.06.1-.1.34-.25.47-.48.46-.67-.01-.17-.18-.27-.49-.26-.07,0-.14.01-.15-.04-.01-.04.03-.08.08-.12.73-.59.53-1.74-.04-2.49-.46-.6-1.17-.94-1.82-.51-.04.04-.08.05-.09.04-.03-.01-.03-.05,0-.1.08-.16.04-.23-.08-.22-.15,0-.41.13-.64.37-.03.03-.05.04-.08.03-.03-.01-.04-.05-.01-.12.24-.42.61-.83.96-1.1.33-.26.65-.38.88-.27.2.09.14.38-.05.6.72-.43,1.49-.16,2.01.4.61.65.87,1.72.27,2.52.35.01.56.16.61.34.07.26-.12.63-.57.94.43.13.58.65.54,1.29-.07.72-.38,1.59-.87,2.18-.14.17-.28.33-.45.46.9,1.4,1.48,1.79,2.62,1.51.11-.01.18-.01.19.03Z"/>
  <path class="cls-3" d="m71.87,92.7c.05.09-.1.23-.45.42-5.97,2.72-9.69,1.64-13.75-3.71-.85.33-1.81.61-2.81.8-4.37.98-9.18.09-12.45-1.64-2.26-1.27-3.91-3.19-4.37-5.44-.35-1.64,0-3.47,1.31-5.35-1.35-.05-2.06-.56-2.26-1.41-.2-1.08.5-2.63,1.96-4.22-1.46-.28-1.76-1.55-1.41-3.19.45-2.2,2.16-5.07,3.96-6.94,2.61-2.72,5.52-4.6,8.68-5.49.7-.19,1.1-.14,1.15.05.05.19-.15.33-.7.52-2.61.89-4.97,2.91-6.52,4.78-2.21,2.77-3.01,6.9-.5,6.85.25,0,.45.05.45.14s-.1.23-.35.42c-2.51,1.88-2.56,4.03-.3,4.03.2,0,.3.05.35.14s-.05.23-.2.38c-2.76,2.53-2.26,7.79,1.05,11.12,2.61,2.58,6.27,3.71,9.54,3.19.7-.09,1.41-.33,2.11-.56l-.55-.84c-2.91-4.69-5.02-7.41-9.94-5.96-.35.09-.55.05-.6-.09s.2-.28.45-.42c6.12-2.86,10.14-2.44,13.8,3.75l.45.75c.75-1.03,1.25-2.25,1.51-3.66.25-1.83.2-5.16-1.71-5.16-.25,0-.4-.05-.4-.14,0-.14.15-.23.35-.38,1.25-.89,1.76-1.74,1.71-2.39-.05-.61-.65-.98-1.81-.94-.25,0-.5.05-.55-.14-.05-.14.1-.28.3-.42,2.71-2.11,1.96-6.24-.15-8.96-1.71-2.16-4.32-3.38-6.72-1.83-.15.14-.3.19-.35.14-.1-.05-.1-.19,0-.38.3-.56.15-.84-.3-.8-.55,0-1.51.47-2.36,1.31-.1.09-.2.14-.3.09-.1-.05-.15-.19-.05-.42.9-1.5,2.26-3,3.56-3.94,1.21-.94,2.41-1.36,3.26-.98.75.33.5,1.36-.2,2.16,2.66-1.55,5.52-.56,7.43,1.45,2.26,2.35,3.21,6.19,1,9.05,1.3.05,2.06.56,2.26,1.22.25.94-.45,2.25-2.11,3.38,1.61.47,2.16,2.35,2.01,4.64-.25,2.58-1.41,5.72-3.21,7.83-.5.61-1.05,1.17-1.66,1.64,3.31,5.02,5.47,6.43,9.69,5.44.4-.05.65-.05.7.09Z"/>
  <g>
    <g>
      <path class="cls-2" d="m80.5,34.15l-8.79,9.59c-.97-2.91-1.91-6.42-2.57-10.46-.49-3.01-.73-5.78-.83-8.25l3.4-.48c.62-2.76,2.56-4.88,4.99-5.46,2.51-.6,4.99.57,6.27,2.31,2.21,3,1.59,8.69-2.47,12.74Z"/>
      <path class="cls-2" d="m71.5,44.72l-.27-.82c-1.14-3.42-2.01-6.97-2.59-10.54-.44-2.73-.73-5.53-.84-8.31l-.02-.47,3.52-.49c.74-2.76,2.79-4.9,5.29-5.5,2.9-.69,5.51.76,6.79,2.51,2.23,3.02,1.9,9-2.51,13.41l-9.36,10.21Zm-2.66-19.24c.12,2.59.39,5.18.8,7.72.53,3.23,1.29,6.44,2.28,9.55l8.22-8.97c4.02-4.01,4.39-9.38,2.42-12.06-1.05-1.43-3.3-2.71-5.75-2.12-2.23.53-4.04,2.52-4.61,5.07l-.08.35-3.29.46Z"/>
    </g>
    <g>
      <path class="cls-2" d="m74.63,25.03c-.1,2.46-.34,5.24-.83,8.25-.66,4.03-1.6,7.54-2.57,10.46l-8.79-9.59c-4.06-4.05-4.68-9.74-2.47-12.74,1.28-1.74,3.76-2.91,6.27-2.31,2.43.58,4.37,2.7,4.99,5.46,1.13.16,2.26.32,3.4.48Z"/>
      <path class="cls-2" d="m71.43,44.72l-9.37-10.22c-4.4-4.39-4.73-10.38-2.5-13.4,1.29-1.75,3.89-3.2,6.79-2.51,2.5.6,4.54,2.74,5.28,5.5l3.52.49-.02.47c-.12,2.81-.4,5.6-.84,8.31-.58,3.55-1.45,7.1-2.59,10.54l-.27.82Zm-6.54-25.27c-1.95,0-3.65,1.08-4.52,2.27-1.97,2.67-1.61,8.04,2.42,12.06l8.22,8.97c.99-3.13,1.76-6.34,2.28-9.55.41-2.52.68-5.11.8-7.72l-3.29-.46-.08-.35c-.57-2.55-2.38-4.54-4.61-5.07-.42-.1-.83-.14-1.23-.14Z"/>
    </g>
  </g>
  <g>
    <g>
      <path class="cls-2" d="m77.76,116.51l3.34-3.58c.37,1.09.73,2.4.97,3.9.19,1.12.28,2.16.31,3.08l-1.29.18c-.24,1.03-.97,1.82-1.89,2.04-.95.22-1.89-.21-2.38-.86-.84-1.12-.6-3.24.94-4.75Z"/>
      <path class="cls-2" d="m81.3,111.98l.27.79c.44,1.29.77,2.63.99,3.98.17,1.03.28,2.09.32,3.14l.02.45-1.42.2c-.35,1.04-1.18,1.84-2.17,2.07-1.24.29-2.35-.32-2.89-1.05-1.06-1.41-.62-3.83.98-5.4l3.9-4.18Zm.56,7.5c-.05-.86-.15-1.72-.29-2.56-.17-1.02-.4-2.03-.7-3.02l-2.77,2.97c-1.36,1.34-1.56,3.2-.89,4.1.34.46,1.07.86,1.86.68.73-.17,1.33-.82,1.52-1.66l.08-.34,1.18-.16Z"/>
    </g>
    <g>
      <path class="cls-2" d="m80.2,119.91c.04-.92.13-1.96.31-3.08.25-1.5.61-2.81.98-3.9l3.33,3.58c1.54,1.51,1.78,3.63.94,4.75-.49.65-1.43,1.09-2.38.86-.92-.22-1.66-1.01-1.89-2.04-.43-.06-.86-.12-1.29-.18Z"/>
      <path class="cls-2" d="m81.28,111.98l3.91,4.19c1.59,1.56,2.03,3.98.97,5.39-.55.73-1.66,1.34-2.89,1.05-1-.23-1.82-1.03-2.17-2.07l-1.42-.19.02-.46c.04-1.06.15-2.12.32-3.14.22-1.34.56-2.68,1-3.98l.27-.79Zm2.61,9.71c.63,0,1.18-.34,1.47-.72.67-.9.48-2.76-.89-4.1l-2.77-2.97c-.3.99-.53,2.01-.7,3.02-.14.84-.23,1.7-.29,2.56l1.18.16.08.34c.19.84.79,1.49,1.52,1.66.13.03.27.05.4.05Z"/>
    </g>
  </g>
  <path class="cls-3" d="m75.68,124.71s.03-.07.12-.12c1.61-.76,2.62-.46,3.72,1.03.23-.09.49-.17.76-.22,1.18-.27,2.48-.03,3.36.46.61.35,1.06.89,1.18,1.51.1.46,0,.97-.35,1.49.37.01.56.16.61.39.05.3-.13.73-.53,1.17.39.08.47.43.38.89-.12.61-.58,1.41-1.07,1.93-.71.76-1.49,1.28-2.35,1.53-.19.05-.3.04-.31-.01s.04-.09.19-.14c.71-.25,1.34-.81,1.76-1.33.6-.77.81-1.92.13-1.9-.07,0-.12-.01-.12-.04s.03-.07.09-.12c.68-.52.69-1.12.08-1.12-.05,0-.08-.01-.09-.04s.01-.07.05-.1c.75-.71.61-2.17-.28-3.09-.71-.72-1.7-1.03-2.58-.89-.19.03-.38.09-.57.16l.15.23c.79,1.3,1.36,2.06,2.69,1.66.09-.03.15-.01.16.03s-.05.08-.12.12c-1.66.79-2.74.68-3.73-1.04l-.12-.21c-.2.29-.34.63-.41,1.02-.07.51-.05,1.44.46,1.44.07,0,.11.01.11.04,0,.04-.04.07-.09.1-.34.25-.47.48-.46.67.01.17.18.27.49.26.07,0,.13-.01.15.04.01.04-.03.08-.08.12-.73.59-.53,1.74.04,2.49.46.6,1.17.94,1.82.51.04-.04.08-.05.09-.04.03.01.03.05,0,.1-.08.16-.04.23.08.22.15,0,.41-.13.64-.37.03-.03.05-.04.08-.03.03.01.04.05.01.12-.24.42-.61.84-.96,1.1-.33.26-.65.38-.88.28-.2-.09-.14-.38.05-.6-.72.43-1.49.16-2.01-.41-.61-.65-.87-1.72-.27-2.52-.35-.01-.56-.16-.61-.34-.07-.26.12-.63.57-.94-.43-.13-.58-.65-.54-1.29.07-.72.38-1.59.87-2.18.14-.17.28-.33.45-.46-.9-1.4-1.48-1.79-2.62-1.51-.11.01-.18.01-.19-.03Z"/>
  <g>
    <g>
      <path class="cls-2" d="m20.29,117.48l8.79-9.59c.97,2.91,1.91,6.42,2.57,10.46.49,3.01.73,5.78.83,8.25l-3.4.48c-.62,2.76-2.56,4.88-4.99,5.46-2.51.6-4.99-.57-6.27-2.31-2.21-3-1.59-8.69,2.47-12.74Z"/>
      <path class="cls-2" d="m29.29,106.9l.27.82c1.14,3.42,2.01,6.97,2.59,10.54.44,2.73.73,5.53.84,8.31l.02.47-3.52.49c-.74,2.76-2.79,4.9-5.29,5.5-2.9.69-5.51-.76-6.79-2.51-2.23-3.02-1.9-9,2.51-13.41l9.36-10.21Zm2.66,19.24c-.12-2.59-.39-5.18-.8-7.72-.53-3.23-1.29-6.44-2.28-9.55l-8.22,8.97c-4.02,4.01-4.39,9.38-2.42,12.06,1.05,1.43,3.3,2.71,5.75,2.12,2.23-.53,4.04-2.52,4.61-5.07l.08-.35,3.29-.46Z"/>
    </g>
    <g>
      <path class="cls-2" d="m26.16,126.6c.1-2.46.34-5.24.83-8.25.66-4.03,1.6-7.54,2.57-10.46l8.79,9.59c4.06,4.05,4.68,9.74,2.47,12.74-1.28,1.74-3.76,2.91-6.27,2.31-2.43-.58-4.37-2.7-4.99-5.46-1.13-.16-2.26-.32-3.4-.48Z"/>
      <path class="cls-2" d="m29.36,106.9l9.37,10.22c4.4,4.39,4.73,10.38,2.5,13.4-1.29,1.75-3.89,3.2-6.79,2.51-2.5-.6-4.54-2.74-5.28-5.5l-3.52-.49.02-.47c.12-2.81.4-5.6.84-8.31.58-3.55,1.45-7.1,2.59-10.54l.27-.82Zm6.54,25.27c1.95,0,3.65-1.08,4.52-2.27,1.97-2.67,1.61-8.04-2.42-12.06l-8.22-8.97c-.99,3.13-1.76,6.34-2.28,9.55-.41,2.52-.68,5.11-.8,7.72l3.29.46.08.35c.57,2.55,2.38,4.54,4.61,5.07.42.1.83.14,1.23.14Z"/>
    </g>
  </g>
</svg>