<svg xmlns="http://www.w3.org/2000/svg" xmlns:xlink="http://www.w3.org/1999/xlink" id="Layer_2" data-name="Layer 2" viewBox="0 28.61 609.09 500.77">
  <defs>
    <style>
      .cls-1, .cls-2, .cls-3, .cls-4, .cls-5 {
        fill: #c6b434;
        font-family: SourceSerifRoman-Semibold, 'Source Serif Variable';
        font-variation-settings: 'wght' 600;
        font-weight: 600;
      }

      .cls-1, .cls-5 {
        font-size: 17.26px;
      }

      .cls-6 {
        fill: url(#radial-gradient-3);
      }

      .cls-6, .cls-7, .cls-8 {
        stroke: #b3b7b6;
        stroke-miterlimit: 10;
      }

      .cls-9 {
        fill: #431211;
        font-family: SourceSerifRoman-Bold, 'Source Serif Variable';
        font-size: 9.88px;
        font-variation-settings: 'wght' 700;
        font-weight: 700;
      }

      .cls-2 {
        font-size: 15px;
      }

      .cls-7 {
        fill: url(#radial-gradient-2);
        filter: url(#drop-shadow-1);
        stroke-width: 2px;
      }

      .cls-3, .cls-4 {
        font-size: 14.43px;
        opacity: .95;
      }

      .cls-10 {
        fill: url(#radial-gradient);
      }

      .cls-11 {
        fill: #010101;
        opacity: .8;
      }

      .cls-4 {
        filter: url(#drop-shadow-2);
      }

      .cls-5 {
        filter: url(#drop-shadow-4);
      }

      .cls-8 {
        fill: url(#radial-gradient-4);
        filter: url(#drop-shadow-3);
      }
    </style>
    <radialGradient id="radial-gradient" cx="304.55" cy="279.5" fx="304.55" fy="279.5" r="278.56" gradientUnits="userSpaceOnUse">
      <stop offset="0" stop-color="#358456"/>
      <stop offset="1" stop-color="#1a572b"/>
    </radialGradient>
    <radialGradient id="radial-gradient-2" cx="308.84" cy="100.17" fx="308.84" fy="100.17" r="144.88" gradientUnits="userSpaceOnUse">
      <stop offset="0" stop-color="#185952"/>
      <stop offset="1" stop-color="#0e3530"/>
    </radialGradient>
    <filter id="drop-shadow-1" filterUnits="userSpaceOnUse">
      <feOffset dx="0" dy="5"/>
      <feGaussianBlur result="blur" stdDeviation="4"/>
      <feFlood flood-color="#1e4922" flood-opacity=".75"/>
      <feComposite in2="blur" operator="in"/>
      <feComposite in="SourceGraphic"/>
    </filter>
    <radialGradient id="radial-gradient-3" cx="308.84" cy="95.24" fx="308.84" fy="95.24" r="136.43" gradientUnits="userSpaceOnUse">
      <stop offset="0" stop-color="#266058"/>
      <stop offset=".43" stop-color="#20564e"/>
      <stop offset="1" stop-color="#14423b"/>
    </radialGradient>
    <filter id="drop-shadow-2" filterUnits="userSpaceOnUse">
      <feOffset dx="0" dy="5"/>
      <feGaussianBlur result="blur-2" stdDeviation="10"/>
      <feFlood flood-color="#0b2320" flood-opacity=".75"/>
      <feComposite in2="blur-2" operator="in"/>
      <feComposite in="SourceGraphic"/>
    </filter>
    <radialGradient id="radial-gradient-4" cx="304.64" cy="159.54" fx="443.39" fy="282.99" r="185.71" gradientUnits="userSpaceOnUse">
      <stop offset="0" stop-color="#245951"/>
      <stop offset="1" stop-color="#133a32"/>
    </radialGradient>
    <filter id="drop-shadow-3" filterUnits="userSpaceOnUse">
      <feOffset dx="0" dy="5"/>
      <feGaussianBlur result="blur-3" stdDeviation="10"/>
      <feFlood flood-color="#1e4922" flood-opacity=".75"/>
      <feComposite in2="blur-3" operator="in"/>
      <feComposite in="SourceGraphic"/>
    </filter>
    <filter id="drop-shadow-4" filterUnits="userSpaceOnUse">
      <feOffset dx="0" dy="5"/>
      <feGaussianBlur result="blur-4" stdDeviation="10"/>
      <feFlood flood-color="#0b2320" flood-opacity=".75"/>
      <feComposite in2="blur-4" operator="in"/>
      <feComposite in="SourceGraphic"/>
    </filter>
  </defs>
  <g id="Layer_1-2" data-name="Layer 1">
    <g>
      <rect class="cls-10" y="29.61" width="609.09" height="499.77"/>
      <path class="cls-7" d="m116.48,29.61c23.96,77.32,93.05,133.04,172.96,140.31,92.54,8.43,182.67-49.66,211.76-140.31"/>
      <path class="cls-6" d="m127.4,29.61c22.6,71.92,87.77,123.74,163.14,130.5,87.29,7.84,172.3-46.19,199.74-130.5"/>
      <text class="cls-4" transform="translate(202.23 114.63) rotate(34.94) scale(1.18 1)"><tspan x="0" y="0"> </tspan></text>
      <text class="cls-3" transform="translate(205.91 117.19) rotate(33.54) scale(1.18 1)"><tspan x="0" y="0"> </tspan></text>
      <text class="cls-3" transform="translate(209.68 119.68) rotate(32.12) scale(1.18 1)"><tspan x="0" y="0"> </tspan></text>
      <text class="cls-3" transform="translate(213.49 122.06) rotate(30.72) scale(1.18 1)"><tspan x="0" y="0"> </tspan></text>
      <text class="cls-3" transform="translate(217.43 124.47) rotate(28.17) scale(1.18 1)"><tspan x="0" y="0">B</tspan></text>
      <text class="cls-3" transform="translate(227.57 129.87) rotate(24.72) scale(1.18 1)"><tspan x="0" y="0">L</tspan></text>
      <text class="cls-3" transform="translate(237.52 134.44) rotate(21.09) scale(1.18 1)"><tspan x="0" y="0">A</tspan></text>
      <text class="cls-3" transform="translate(248.46 138.64) rotate(17.53) scale(1.18 1)"><tspan x="0" y="0">C</tspan></text>
      <text class="cls-3" transform="translate(259.55 142.12) rotate(13.75) scale(1.18 1)"><tspan x="0" y="0">K</tspan></text>
      <text class="cls-3" transform="translate(271.4 144.94) rotate(10.71) scale(1.18 1)"><tspan x="0" y="0">J</tspan></text>
      <text class="cls-3" transform="translate(277.83 146.21) rotate(7.88) scale(1.18 1)"><tspan x="0" y="0">A</tspan></text>
      <text class="cls-3" transform="translate(289.46 147.8) rotate(4.27) scale(1.18 1)"><tspan x="0" y="0">C</tspan></text>
      <text class="cls-3" transform="translate(301 148.65) rotate(.53) scale(1.18 1)"><tspan x="0" y="0">K</tspan></text>
      <text class="cls-3" transform="translate(313.38 148.66) rotate(-2.13) scale(1.18 1)"><tspan x="0" y="0"> </tspan></text>
      <text class="cls-3" transform="translate(317.99 148.54) rotate(-4.55) scale(1.18 1)"><tspan x="0" y="0">P</tspan></text>
      <text class="cls-3" transform="translate(327.79 147.78) rotate(-7.77) scale(1.18 1)"><tspan x="0" y="0">A</tspan></text>
      <text class="cls-3" transform="translate(338.42 146.34) rotate(-10.96) scale(1.18 1)"><tspan x="0" y="0">Y</tspan></text>
      <text class="cls-3" transform="translate(349.22 144.21) rotate(-14.06) scale(1.18 1)"><tspan x="0" y="0">S</tspan></text>
      <text class="cls-3" transform="translate(358.62 141.8) rotate(-16.24) scale(1.18 1)"><tspan x="0" y="0"> </tspan></text>
      <text class="cls-3" transform="translate(363.02 140.55) rotate(-18.39) scale(1.18 1)"><tspan x="0" y="0">3</tspan></text>
      <text class="cls-3" transform="translate(372.13 137.45) rotate(-20.54) scale(1.18 1)"><tspan x="0" y="0"> </tspan></text>
      <text class="cls-3" transform="translate(376.25 135.97) rotate(-22.88) scale(1.18 1)"><tspan x="0" y="0">T</tspan></text>
      <text class="cls-3" transform="translate(386.57 131.62) rotate(-26.48) scale(1.18 1)"><tspan x="0" y="0">O</tspan></text>
      <text class="cls-3" transform="translate(397.97 125.81) rotate(-29.12) scale(1.18 1)"><tspan x="0" y="0"> </tspan></text>
      <text class="cls-3" transform="translate(402 123.61) rotate(-31.28) scale(1.18 1)"><tspan x="0" y="0">2</tspan></text>
      <text class="cls-9" transform="translate(182.23 154.08) rotate(33.84) scale(1.24 1)"><tspan x="0" y="0"> </tspan></text>
      <text class="cls-9" transform="translate(184.56 155.64) rotate(33.09) scale(1.24 1)"><tspan x="0" y="0"> </tspan></text>
      <text class="cls-9" transform="translate(186.91 157.17) rotate(32.35) scale(1.24 1)"><tspan x="0" y="0"> </tspan></text>
      <text class="cls-9" transform="translate(189.28 158.67) rotate(31.61) scale(1.24 1)"><tspan x="0" y="0"> </tspan></text>
      <text class="cls-9" transform="translate(191.65 160.13) rotate(30.87) scale(1.24 1)"><tspan x="0" y="0"> </tspan></text>
      <text class="cls-9" transform="translate(194.06 161.57) rotate(30.14) scale(1.24 1)"><tspan x="0" y="0"> </tspan></text>
      <text class="cls-9" transform="translate(196.47 162.97) rotate(29.4) scale(1.24 1)"><tspan x="0" y="0"> </tspan></text>
      <text class="cls-9" transform="translate(198.9 164.34) rotate(28.67) scale(1.24 1)"><tspan x="0" y="0"> </tspan></text>
      <text class="cls-9" transform="translate(201.38 165.69) rotate(27.93) scale(1.24 1)"><tspan x="0" y="0"> </tspan></text>
      <text class="cls-9" transform="translate(203.85 167) rotate(27.2) scale(1.24 1)"><tspan x="0" y="0"> </tspan></text>
      <text class="cls-9" transform="translate(206.34 168.28) rotate(26.48) scale(1.24 1)"><tspan x="0" y="0"> </tspan></text>
      <text class="cls-9" transform="translate(208.85 169.53) rotate(25.75) scale(1.24 1)"><tspan x="0" y="0"> </tspan></text>
      <text class="cls-9" transform="translate(211.35 170.73) rotate(25.03) scale(1.24 1)"><tspan x="0" y="0"> </tspan></text>
      <text class="cls-9" transform="translate(213.9 171.92) rotate(24.3) scale(1.24 1)"><tspan x="0" y="0"> </tspan></text>
      <text class="cls-9" transform="translate(216.46 173.07) rotate(23.57) scale(1.24 1)"><tspan x="0" y="0"> </tspan></text>
      <text class="cls-9" transform="translate(219.02 174.19) rotate(22.85) scale(1.24 1)"><tspan x="0" y="0"> </tspan></text>
      <text class="cls-9" transform="translate(221.61 175.28) rotate(22.12) scale(1.24 1)"><tspan x="0" y="0"> </tspan></text>
      <text class="cls-9" transform="translate(224.2 176.33) rotate(21.4) scale(1.24 1)"><tspan x="0" y="0"> </tspan></text>
      <text class="cls-9" transform="translate(226.81 177.35) rotate(20.68) scale(1.24 1)"><tspan x="0" y="0"> </tspan></text>
      <text class="cls-9" transform="translate(229.43 178.34) rotate(19.96) scale(1.24 1)"><tspan x="0" y="0"> </tspan></text>
      <text class="cls-9" transform="translate(232.06 179.29) rotate(19.24) scale(1.24 1)"><tspan x="0" y="0"> </tspan></text>
      <text class="cls-9" transform="translate(234.69 180.21) rotate(18.52) scale(1.24 1)"><tspan x="0" y="0"> </tspan></text>
      <text class="cls-9" transform="translate(237.33 181.13) rotate(17.03) scale(1.24 1)"><tspan x="0" y="0">D</tspan></text>
      <text class="cls-9" transform="translate(245.73 183.68) rotate(15.07) scale(1.24 1)"><tspan x="0" y="0">e</tspan></text>
      <text class="cls-9" transform="translate(252 185.37) rotate(13.39) scale(1.24 1)"><tspan x="0" y="0">a</tspan></text>
      <text class="cls-9" transform="translate(258.47 186.9) rotate(12.02) scale(1.24 1)"><tspan x="0" y="0">l</tspan></text>
      <text class="cls-9" transform="translate(262.51 187.77) rotate(10.66) scale(1.24 1)"><tspan x="0" y="0">e</tspan></text>
      <text class="cls-9" transform="translate(268.95 188.97) rotate(9.07) scale(1.24 1)"><tspan x="0" y="0">r</tspan></text>
      <text class="cls-9" transform="translate(274.74 189.88) rotate(7.97) scale(1.24 1)"><tspan x="0" y="0"> </tspan></text>
      <text class="cls-9" transform="translate(277.46 190.32) rotate(6.18) scale(1.24 1)"><tspan x="0" y="0">m</tspan></text>
      <text class="cls-9" transform="translate(288.72 191.5) rotate(3.77) scale(1.24 1)"><tspan x="0" y="0">u</tspan></text>
      <text class="cls-9" transform="translate(296.4 191.99) rotate(2.05) scale(1.24 1)"><tspan x="0" y="0">s</tspan></text>
      <text class="cls-9" transform="translate(302.11 192.18) rotate(.76) scale(1.24 1)"><tspan x="0" y="0">t</tspan></text>
      <text class="cls-9" transform="translate(306.68 192.24) rotate(-.18) scale(1.24 1)"><tspan x="0" y="0"> </tspan></text>
      <text class="cls-9" transform="translate(309.46 192.25) rotate(-1.5) scale(1.24 1)"><tspan x="0" y="0">h</tspan></text>
      <text class="cls-9" transform="translate(317.17 192.03) rotate(-2.98) scale(1.24 1)"><tspan x="0" y="0">i</tspan></text>
      <text class="cls-9" transform="translate(321.21 191.82) rotate(-4.06) scale(1.24 1)"><tspan x="0" y="0">t</tspan></text>
      <text class="cls-9" transform="translate(325.77 191.49) rotate(-4.98) scale(1.24 1)"><tspan x="0" y="0"> </tspan></text>
      <text class="cls-9" transform="translate(328.54 191.27) rotate(-6.21) scale(1.24 1)"><tspan x="0" y="0">o</tspan></text>
      <text class="cls-9" transform="translate(335.57 190.5) rotate(-8.06) scale(1.24 1)"><tspan x="0" y="0">n</tspan></text>
      <text class="cls-9" transform="translate(343.2 189.39) rotate(-9.37) scale(1.24 1)"><tspan x="0" y="0"> </tspan></text>
      <text class="cls-9" transform="translate(345.95 188.95) rotate(-10.43) scale(1.24 1)"><tspan x="0" y="0">s</tspan></text>
      <text class="cls-9" transform="translate(351.59 187.92) rotate(-12.02) scale(1.24 1)"><tspan x="0" y="0">o</tspan></text>
      <text class="cls-9" transform="translate(358.52 186.45) rotate(-13.96) scale(1.24 1)"><tspan x="0" y="0">ft</tspan></text>
      <text class="cls-9" transform="translate(366.76 184.37) rotate(-15.36) scale(1.24 1)"><tspan x="0" y="0"> </tspan></text>
      <text class="cls-9" transform="translate(369.48 183.64) rotate(-16.55) scale(1.24 1)"><tspan x="0" y="0">1</tspan></text>
      <text class="cls-9" transform="translate(375.96 181.71) rotate(-18.23) scale(1.24 1)"><tspan x="0" y="0">7</tspan></text>
      <path class="cls-8" d="m553.15,74.54c-41.38,104.21-143.09,172.12-253.98,169.95-106.74-2.08-202.8-68.71-243.03-168.76,12.13,2.07,24.26,4.14,36.39,6.21,31.67,74.89,113.78,125.92,205.92,128.34,97.51,2.55,187.24-49.83,220.39-129.37,11.44-2.12,22.87-4.24,34.31-6.36Z"/>
      <text class="cls-5" transform="translate(172.87 196.1) rotate(30.42) scale(1.24 1)"><tspan x="0" y="0"> </tspan></text>
      <text class="cls-1" transform="translate(177.43 198.77) rotate(29.15) scale(1.24 1)"><tspan x="0" y="0"> </tspan></text>
      <text class="cls-1" transform="translate(182.06 201.35) rotate(27.9) scale(1.24 1)"><tspan x="0" y="0"> </tspan></text>
      <text class="cls-1" transform="translate(186.75 203.82) rotate(26.66) scale(1.24 1)"><tspan x="0" y="0"> </tspan></text>
      <text class="cls-2" transform="translate(191.48 206.19) rotate(25.5) scale(1.24 1)"><tspan x="0" y="0"> </tspan></text>
      <text class="cls-2" transform="translate(195.62 208.16) rotate(24.45) scale(1.24 1)"><tspan x="0" y="0"> </tspan></text>
      <text class="cls-2" transform="translate(199.81 210.06) rotate(23.4) scale(1.24 1)"><tspan x="0" y="0"> </tspan></text>
      <text class="cls-2" transform="translate(204.05 211.89) rotate(22.36) scale(1.24 1)"><tspan x="0" y="0"> </tspan></text>
      <text class="cls-2" transform="translate(208.28 213.63) rotate(21.33) scale(1.24 1)"><tspan x="0" y="0"> </tspan></text>
      <text class="cls-2" transform="translate(212.61 215.33) rotate(19.98) scale(1.24 1)"><tspan x="0" y="0">I</tspan></text>
      <text class="cls-2" transform="translate(219.79 218) rotate(17.57) scale(1.24 1)"><tspan x="0" y="0">N</tspan></text>
      <text class="cls-2" transform="translate(233.2 222.19) rotate(14.94) scale(1.24 1)"><tspan x="0" y="0">S</tspan></text>
      <text class="cls-2" transform="translate(242.78 224.78) rotate(12.4) scale(1.24 1)"><tspan x="0" y="0">U</tspan></text>
      <text class="cls-2" transform="translate(256.35 227.75) rotate(9.58) scale(1.24 1)"><tspan x="0" y="0">R</tspan></text>
      <text class="cls-2" transform="translate(269.41 229.93) rotate(6.78) scale(1.24 1)"><tspan x="0" y="0">A</tspan></text>
      <text class="cls-2" transform="translate(282.32 231.51) rotate(3.59) scale(1.24 1)"><tspan x="0" y="0">N</tspan></text>
      <text class="cls-2" transform="translate(296.08 232.38) rotate(1.28) scale(1.24 1)"><tspan x="0" y="0">C</tspan></text>
      <text class="cls-2" transform="translate(308.36 232.64) rotate(-1.21) scale(1.24 1)"><tspan x="0" y="0">E</tspan></text>
      <text class="cls-2" transform="translate(319.9 232.34) rotate(-2.87) scale(1.24 1)"><tspan x="0" y="0"> </tspan></text>
      <text class="cls-2" transform="translate(324.5 232.16) rotate(-4.53) scale(1.24 1)"><tspan x="0" y="0">P</tspan></text>
      <text class="cls-2" transform="translate(334.72 231.38) rotate(-6.77) scale(1.24 1)"><tspan x="0" y="0">A</tspan></text>
      <text class="cls-2" transform="translate(345.91 230.06) rotate(-9.01) scale(1.24 1)"><tspan x="0" y="0">Y</tspan></text>
      <text class="cls-2" transform="translate(357.43 228.22) rotate(-11.22) scale(1.24 1)"><tspan x="0" y="0">S</tspan></text>
      <text class="cls-2" transform="translate(367.52 226.17) rotate(-12.76) scale(1.24 1)"><tspan x="0" y="0"> </tspan></text>
      <text class="cls-2" transform="translate(372.07 225.17) rotate(-14.3) scale(1.24 1)"><tspan x="0" y="0">2</tspan></text>
      <text class="cls-2" transform="translate(381.92 222.62) rotate(-15.85) scale(1.24 1)"><tspan x="0" y="0"> </tspan></text>
      <text class="cls-2" transform="translate(386.21 221.45) rotate(-17.56) scale(1.24 1)"><tspan x="0" y="0">T</tspan></text>
      <text class="cls-2" transform="translate(397.52 217.88) rotate(-20.26) scale(1.24 1)"><tspan x="0" y="0">O</tspan></text>
      <text class="cls-2" transform="translate(410.31 213.07) rotate(-22.25) scale(1.24 1)"><tspan x="0" y="0"> </tspan></text>
      <text class="cls-2" transform="translate(414.64 211.33) rotate(-23.88) scale(1.24 1)"><tspan x="0" y="0">1</tspan></text>
      <text class="cls-2" transform="translate(423.93 207.17) rotate(-25.53) scale(1.24 1)"><tspan x="0" y="0"> </tspan></text>
      <text class="cls-2" transform="translate(428.09 205.18) rotate(-26.56) scale(1.24 1)"><tspan x="0" y="0"> </tspan></text>
      <path class="cls-11" d="m440.49,193.82c-.09.89-.69,1.96-1.87,2.3-.93.27-2.01-.02-2.84-.74,1.6,2.23,2.42,2.65,2.89,2.51.35-.11.53-.53,1.19-.68.44-.1.86-.03,1.15.06l-6.07,3.51c.04-.25.16-.64.46-.99.49-.58,1.05-.5,1.34-.81.3-.34.34-1.21-.96-3.57.22,1.07-.06,2.15-.77,2.83-.87.84-2.11.84-2.93.47-1.42-.64-2.56-2.89-1.93-5.39l1.16-5.64.02.03v-.04s5.47,1.81,5.47,1.81c2.47.71,3.86,2.81,3.69,4.37h0Z"/>
      <path class="cls-11" d="m202.01,207.3c-.77.46-1.99.59-2.96-.16-.76-.59-1.16-1.64-1.07-2.73-.86,2.6-.72,3.52-.33,3.82.29.22.75.12,1.25.56.34.29.53.68.63.97l-6.41-2.85c.23-.11.61-.24,1.07-.22.76.05,1.02.56,1.44.61.45.04,1.17-.44,2.32-2.88-.74.81-1.78,1.22-2.74,1.04-1.19-.21-1.92-1.21-2.1-2.09-.31-1.53.83-3.77,3.23-4.73l5.25-2.37v.03s.03-.02.03-.02l1.75,5.49c.88,2.42,0,4.78-1.37,5.56h0Z"/>
    </g>
  </g>
</svg>