<?xml version="1.0" encoding="UTF-8"?>
<svg id="Layer_2" data-name="Layer 2" xmlns="http://www.w3.org/2000/svg" viewBox="0 0 65.1 60">
  <defs>
    <style>
      .cls-1 {
        fill: #fff;
        fill-rule: evenodd;
      }

      .cls-2 {
        fill: #e21b1b;
      }

      .cls-3 {
        fill: #a51c1c;
      }
    </style>
  </defs>
  <g id="Layer_1-2" data-name="Layer 1">
    <path class="cls-2" d="m32.55,0C15.98,0,2.55,13.43,2.55,30s13.43,30,30,30,30-13.43,30-30S49.12,0,32.55,0Z"/>
    <g id="Page-1">
      <g id="icon">
        <path id="Shape" class="cls-1" d="m47.5,51.28l-3.36-3.33c7.48-10.15,7.48-25.68,0-35.83l3.36-3.33c8.74,12.11,8.74,30.39,0,42.5Zm-8.51-34.04l-3.36,3.34c4.01,5.33,4.01,13.58,0,18.91l3.36,3.34c5.27-7.29,5.27-18.3,0-25.59Zm-8.59-8.74l-11.18,10.92h-8.16v21.37h8.17l11.17,10.7V8.5h0Z"/>
      </g>
    </g>
    <rect class="cls-3" x="-9.03" y="28.76" width="83.15" height="5" rx="2.22" ry="2.22" transform="translate(-12.48 28.24) rotate(-40)"/>
  </g>
</svg>